<svg width="38" height="38" viewBox="0 0 38 38" fill="none" xmlns="http://www.w3.org/2000/svg">
<rect width="38" height="38" rx="19" fill="#F6F6F6"/>
<path d="M19.0001 22.6299C17.6801 22.6299 16.6001 21.5499 16.6001 20.2299V17.7599C16.6001 16.4399 17.6801 15.3599 19.0001 15.3599C20.3201 15.3599 21.4001 16.4399 21.4001 17.7599V20.2299C21.4001 21.5599 20.3201 22.6299 19.0001 22.6299ZM19.0001 16.8699C18.5101 16.8699 18.1001 17.2699 18.1001 17.7699V20.2399C18.1001 20.7399 18.5001 21.1399 19.0001 21.1399C19.5001 21.1399 19.9001 20.7399 19.9001 20.2399V17.7699C19.9001 17.2699 19.4901 16.8699 19.0001 16.8699Z" fill="#171717"/>
<path d="M19 25.8202C15.83 25.8202 13.25 23.2402 13.25 20.0702V17.9302C13.25 14.7602 15.83 12.1802 19 12.1802C21.96 12.1802 24.42 14.4002 24.72 17.3402C24.76 17.7502 24.46 18.1202 24.05 18.1602C23.64 18.2102 23.27 17.9002 23.23 17.4902C23.01 15.3202 21.19 13.6802 19 13.6802C16.66 13.6802 14.75 15.5902 14.75 17.9302V20.0702C14.75 22.4102 16.66 24.3202 19 24.3202C21.2 24.3202 23.06 22.6002 23.24 20.4102C23.27 20.0002 23.63 19.6902 24.05 19.7202C24.46 19.7502 24.77 20.1102 24.74 20.5302C24.5 23.5002 21.98 25.8202 19 25.8202Z" fill="#171717"/>
<path d="M29 16.75C28.59 16.75 28.25 16.41 28.25 16V14C28.25 11.42 26.58 9.75 24 9.75H22C21.59 9.75 21.25 9.41 21.25 9C21.25 8.59 21.59 8.25 22 8.25H24C27.44 8.25 29.75 10.56 29.75 14V16C29.75 16.41 29.41 16.75 29 16.75Z" fill="#171717"/>
<path d="M9 16.75C8.59 16.75 8.25 16.41 8.25 16V14C8.25 10.56 10.56 8.25 14 8.25H16C16.41 8.25 16.75 8.59 16.75 9C16.75 9.41 16.41 9.75 16 9.75H14C11.42 9.75 9.75 11.42 9.75 14V16C9.75 16.41 9.41 16.75 9 16.75Z" fill="#171717"/>
<path d="M24 29.75H22C21.59 29.75 21.25 29.41 21.25 29C21.25 28.59 21.59 28.25 22 28.25H24C26.58 28.25 28.25 26.58 28.25 24V22C28.25 21.59 28.59 21.25 29 21.25C29.41 21.25 29.75 21.59 29.75 22V24C29.75 27.44 27.44 29.75 24 29.75Z" fill="#171717"/>
<path d="M16 29.75H14C10.56 29.75 8.25 27.44 8.25 24V22C8.25 21.59 8.59 21.25 9 21.25C9.41 21.25 9.75 21.59 9.75 22V24C9.75 26.58 11.42 28.25 14 28.25H16C16.41 28.25 16.75 28.59 16.75 29C16.75 29.41 16.41 29.75 16 29.75Z" fill="#171717"/>
</svg>
