<svg width="38" height="38" viewBox="0 0 38 38" fill="none" xmlns="http://www.w3.org/2000/svg">
<rect width="38" height="38" rx="19" fill="#F6F6F6"/>
<path fill-rule="evenodd" clip-rule="evenodd" d="M18.7499 11.5C18.6589 11.5 18.4349 11.525 18.3159 11.763L16.4899 15.414C16.2009 15.991 15.6439 16.392 14.9999 16.484L10.9119 17.073C10.6419 17.112 10.5499 17.312 10.5219 17.396C10.4969 17.477 10.4569 17.683 10.6429 17.861L13.5989 20.701C14.0699 21.154 14.2839 21.807 14.1719 22.446L13.4759 26.456C13.4329 26.707 13.5899 26.853 13.6599 26.903C13.7339 26.959 13.9319 27.07 14.1769 26.942L17.8319 25.047C18.4079 24.75 19.0939 24.75 19.6679 25.047L23.3219 26.941C23.5679 27.068 23.7659 26.957 23.8409 26.903C23.9109 26.853 24.0679 26.707 24.0249 26.456L23.3269 22.446C23.2149 21.807 23.4289 21.154 23.8999 20.701L26.8559 17.861C27.0429 17.683 27.0029 17.476 26.9769 17.396C26.9499 17.312 26.8579 17.112 26.5879 17.073L22.4999 16.484C21.8569 16.392 21.2999 15.991 21.0109 15.413L19.1829 11.763C19.0649 11.525 18.8409 11.5 18.7499 11.5ZM13.9469 28.5C13.5339 28.5 13.1239 28.37 12.7729 28.114C12.1669 27.67 11.8699 26.937 11.9989 26.199L12.6949 22.189C12.7209 22.04 12.6699 21.889 12.5599 21.783L9.60392 18.943C9.05992 18.422 8.86492 17.652 9.09492 16.937C9.32692 16.214 9.94092 15.697 10.6979 15.589L14.7859 15C14.9439 14.978 15.0799 14.881 15.1479 14.743L16.9749 11.091C17.3119 10.418 17.9919 10 18.7499 10C19.5079 10 20.1879 10.418 20.5249 11.091L22.3529 14.742C22.4219 14.881 22.5569 14.978 22.7139 15L26.8019 15.589C27.5589 15.697 28.1729 16.214 28.4049 16.937C28.6349 17.652 28.4389 18.422 27.8949 18.943L24.9389 21.783C24.8289 21.889 24.7789 22.04 24.8049 22.188L25.5019 26.199C25.6299 26.938 25.3329 27.671 24.7259 28.114C24.1109 28.565 23.3099 28.626 22.6309 28.272L18.9779 26.379C18.8349 26.305 18.6639 26.305 18.5209 26.379L14.8679 28.273C14.5759 28.425 14.2609 28.5 13.9469 28.5Z" fill="#171717"/>
</svg>
