<svg width="16" height="16" viewBox="0 0 16 16" fill="none" xmlns="http://www.w3.org/2000/svg">
<g clip-path="url(#clip0_290_2526)">
<path d="M6.43212 14.8966C6.12561 14.8966 5.8804 15.1418 5.8804 15.4483C5.8804 15.7548 6.12561 16 6.43212 16H9.61986C9.92637 16 10.1716 15.7548 10.1716 15.4483C10.1716 15.1418 9.92637 14.8966 9.61986 14.8966H6.43212ZM15.4436 12.6897H13.7271V6.9272C13.7271 4.16858 11.8268 1.83908 9.19074 1.28736V1.16475C9.19074 0.551724 8.70032 -1.6523e-08 8.02599 0C7.35166 1.6523e-08 6.92254 0.551724 6.92254 1.16475V1.28736C4.28653 1.83908 2.38614 4.16858 2.38614 6.9272V12.6897H0.608365C0.301851 12.6897 0.0566406 12.9349 0.0566406 13.2414C0.0566406 13.5479 0.301851 13.7931 0.608365 13.7931H15.3823C15.6888 13.7931 15.934 13.5479 15.934 13.2414C15.9953 12.9349 15.7501 12.6897 15.4436 12.6897Z" fill="white"/>
<path d="M9.70627 11H8.32232L6.76644 8.91977H5.73492V8.10315H7.27361C7.82375 8.10315 8.1332 7.85387 8.16759 7.3639H5.73492V6.54728H8.16759C8.1332 5.99713 7.81515 5.81662 7.27361 5.81662H5.73492V5H10.265V5.81662H8.60598V5.851C8.83808 5.87679 9.13034 6.08309 9.24209 6.54728H10.265V7.3639H9.26787C9.16472 8.10315 8.74352 8.6447 7.99567 8.81662L9.70627 11Z" fill="#131313"/>
</g>
<defs>
<clipPath id="clip0_290_2526">
<rect width="16" height="16" fill="white"/>
</clipPath>
</defs>
</svg>
