<svg width="16" height="16" viewBox="0 0 16 16" fill="none" xmlns="http://www.w3.org/2000/svg">
<g clip-path="url(#clip0_290_2542)">
<path d="M10.509 3.74147L9.61131 0.974755C9.49358 0.621557 9.11094 0.415526 8.74303 0.533258L0.501831 3.84448L10.509 3.74147ZM11.7894 11.9239V12.6156C11.7894 12.9835 11.3626 13.1895 11.0682 12.9688L7.68344 10.3051C7.46269 10.1285 7.46269 9.78998 7.68344 9.61338L11.083 6.94968C11.3773 6.72893 11.8041 6.93496 11.8041 7.30288V7.99455H15.4391V5.15426C15.4391 4.74219 15.1006 4.41843 14.7032 4.41843H1.23775C0.825685 4.41843 0.501921 4.75691 0.501921 5.15426V14.7642C0.501921 15.1762 0.840402 15.5 1.23775 15.5H14.7032C15.1153 15.5 15.4391 15.1615 15.4391 14.7642V11.9239H11.7894Z" fill="white"/>
<path d="M14.9671 8.774H11.2144V8.36194C11.2144 8.14119 10.9642 8.00874 10.7876 8.15591L8.72727 9.7453C8.59482 9.84831 8.59482 10.0543 8.72727 10.1721L10.7876 11.7762C10.9642 11.9086 11.2144 11.7909 11.2144 11.5701V11.1581H14.9671C15.1143 11.1581 15.232 11.0404 15.232 10.8932V9.0389C15.2467 8.89174 15.1143 8.774 14.9671 8.774Z" fill="white"/>
</g>
<defs>
<clipPath id="clip0_290_2542">
<rect width="16" height="16" fill="white"/>
</clipPath>
</defs>
</svg>
