<svg width="16" height="16" viewBox="0 0 16 16" fill="none" xmlns="http://www.w3.org/2000/svg">
<g clip-path="url(#clip0_290_2534)">
<path d="M6.29537 0C2.99252 0 0.272522 1.34857 0.272522 2.98285C0.272522 4.61714 2.94681 5.95428 6.24966 5.95428C9.55252 5.95428 12.2154 4.62857 12.2154 2.98285C12.2154 1.33714 9.5868 0 6.29537 0ZM8.18109 6.70857C7.55827 6.81477 6.92714 6.86449 6.29537 6.85714C3.44966 6.85714 1.07252 5.87428 0.478236 4.57142C0.360131 4.76554 0.289639 4.98485 0.272522 5.21142C0.272522 6.85714 2.99252 8.18285 6.29537 8.18285H6.76395C7.1348 7.60303 7.61637 7.10204 8.18109 6.70857ZM12.1011 5.89714C12.205 5.68341 12.2597 5.44909 12.2611 5.21142C12.262 4.98945 12.2111 4.77032 12.1125 4.57142C11.8286 5.10385 11.3904 5.53806 10.8554 5.81714H11.1068C11.4409 5.81622 11.7742 5.8507 12.1011 5.92V5.89714ZM6.29537 8.81142C3.44966 8.81142 1.07252 7.82857 0.478236 6.52571C0.36311 6.72117 0.292846 6.93977 0.272522 7.16571C0.272522 8.75428 2.84395 10.0457 5.9868 10.1257C6.05549 9.67048 6.19024 9.22772 6.3868 8.81142H6.29537ZM5.9868 10.7543C3.30109 10.6743 1.08395 9.72571 0.512522 8.46856C0.37877 8.67041 0.29638 8.90189 0.272522 9.14285C0.272522 10.7428 2.83252 12.0457 5.9868 12.1028C5.90174 11.7279 5.85956 11.3445 5.86109 10.96V10.7543H5.9868ZM0.512522 10.4114C0.408652 10.6129 0.353831 10.8361 0.352522 11.0628C0.352522 12.6971 3.02681 14.0228 6.32966 14.0228H6.98109C6.69465 13.6216 6.46398 13.1833 6.29537 12.72C3.46109 12.72 1.10681 11.7371 0.512522 10.4343V10.4114ZM7.47252 14.6057C7.08395 14.6057 6.69537 14.6628 6.32966 14.6628C3.48395 14.6628 1.10681 13.68 0.512522 12.3771C0.41005 12.5833 0.355361 12.8098 0.352522 13.04C0.272522 14.6514 2.99252 16 6.29537 16C7.20416 16.0046 8.11005 15.8971 8.99252 15.68C8.42761 15.4222 7.91296 15.0662 7.47252 14.6286V14.6057Z" fill="white"/>
<path d="M15.7275 10.9619C15.7275 13.5049 13.6656 15.5664 11.1221 15.5664C8.57858 15.5664 6.51666 13.5049 6.51666 10.9619C6.51666 8.41892 8.57858 6.35742 11.1221 6.35742C13.6656 6.35742 15.7275 8.41892 15.7275 10.9619Z" fill="white"/>
<path d="M8.62213 10.9609C8.62213 10.6848 8.84599 10.4609 9.12213 10.4609H13.1221C13.3983 10.4609 13.6221 10.6848 13.6221 10.9609C13.6221 11.2371 13.3983 11.4609 13.1221 11.4609H9.12213C8.84599 11.4609 8.62213 11.2371 8.62213 10.9609Z" fill="black"/>
</g>
<defs>
<clipPath id="clip0_290_2534">
<rect width="16" height="16" fill="white"/>
</clipPath>
</defs>
</svg>
