<svg width="16" height="16" viewBox="0 0 16 16" fill="none" xmlns="http://www.w3.org/2000/svg">
<g clip-path="url(#clip0_290_2514)">
<path d="M8.46301 0C8.77172 0 9.07778 0.0345975 9.38117 0.103792C9.68457 0.172987 9.96933 0.266134 10.2355 0.383234C10.5016 0.500333 10.7385 0.6334 10.946 0.782435C11.1536 0.93147 11.316 1.08051 11.4331 1.22954C11.7098 1.57019 11.9121 1.94544 12.0399 2.35529C12.1676 2.76514 12.2581 3.15635 12.3113 3.52894C12.3645 3.95476 12.3912 4.38589 12.3912 4.82236C12.4657 4.87558 12.5242 4.94478 12.5668 5.02994C12.6094 5.10446 12.644 5.20027 12.6706 5.31737C12.6972 5.43446 12.6999 5.57818 12.6786 5.7485C12.6573 5.97206 12.612 6.15037 12.5428 6.28343C12.4737 6.4165 12.3965 6.52029 12.3113 6.59481C12.2155 6.67997 12.1144 6.73852 12.0079 6.77046C11.9547 6.95143 11.9015 7.12176 11.8482 7.28144C11.795 7.41983 11.7338 7.55556 11.6646 7.68862C11.5954 7.82169 11.5182 7.92548 11.4331 8C11.2308 8.15968 11.0658 8.29541 10.9381 8.40719C10.8103 8.51896 10.7252 8.70792 10.6826 8.97405C10.6506 9.13373 10.64 9.29607 10.6506 9.46108C10.6613 9.62608 10.7065 9.79108 10.7864 9.95609C10.8662 10.1211 10.9886 10.2781 11.1536 10.4271C11.3186 10.5762 11.5502 10.7092 11.8482 10.8263C12.1144 10.9328 12.4045 11.0286 12.7185 11.1138C13.0325 11.1989 13.3386 11.2974 13.6367 11.4092C13.9347 11.521 14.1982 11.6593 14.4271 11.8244C14.656 11.9894 14.8183 12.2156 14.9141 12.503C14.9673 12.6733 15.0073 12.8836 15.0339 13.1337C15.0605 13.3839 15.0738 13.6367 15.0738 13.8922C15.0738 14.1477 15.0552 14.3872 15.0179 14.6108C14.9806 14.8343 14.9248 15.0047 14.8502 15.1218C14.797 15.1963 14.6453 15.2708 14.3951 15.3453C14.145 15.4198 13.8363 15.4917 13.469 15.5609C13.1017 15.6301 12.6919 15.6913 12.2395 15.7445C11.787 15.7977 11.3319 15.843 10.8742 15.8802C10.4164 15.9175 9.97731 15.9468 9.55682 15.9681C9.13633 15.9894 8.77172 16 8.46301 16C8.15429 16 7.79501 15.9894 7.38516 15.9681C6.97532 15.9468 6.55216 15.9175 6.1157 15.8802C5.67924 15.843 5.24544 15.8004 4.81431 15.7525C4.38317 15.7046 3.99195 15.654 3.64065 15.6008C3.28936 15.5476 2.99129 15.4943 2.74644 15.4411C2.5016 15.3879 2.34724 15.3347 2.28337 15.2814C2.17691 15.1963 2.09441 14.9355 2.03586 14.499C1.97731 14.0625 2.00127 13.4983 2.10772 12.8064C2.16095 12.4125 2.31797 12.1118 2.57878 11.9042C2.83959 11.6966 3.14298 11.5316 3.48896 11.4092C3.83493 11.2868 4.19421 11.1776 4.5668 11.0818C4.93939 10.986 5.2694 10.8476 5.55682 10.6667C5.78037 10.5283 5.9507 10.3952 6.0678 10.2675C6.1849 10.1397 6.27006 10.012 6.32329 9.88423C6.37652 9.75649 6.40313 9.62342 6.40313 9.48503C6.40313 9.34664 6.39781 9.19228 6.38716 9.02196C6.36587 8.77711 6.28071 8.58284 6.13167 8.43912C5.98264 8.29541 5.81763 8.14904 5.63666 8C5.5515 7.92548 5.47698 7.82169 5.41311 7.68862C5.34924 7.55556 5.29069 7.41983 5.23746 7.28144C5.18423 7.12176 5.13101 6.95143 5.07778 6.77046C5.00326 6.74917 4.92874 6.71191 4.85423 6.65868C4.79035 6.60546 4.72116 6.53094 4.64664 6.43513C4.57212 6.33932 4.50825 6.20093 4.45502 6.01996C4.39115 5.83899 4.3672 5.67399 4.38317 5.52495C4.39914 5.37591 4.42841 5.24817 4.47099 5.14172C4.51357 5.02462 4.58277 4.91284 4.67858 4.80639C4.66793 4.40186 4.68922 3.99734 4.74245 3.59281C4.78503 3.25216 4.86221 2.8849 4.97399 2.49102C5.08576 2.09714 5.25343 1.74584 5.47698 1.43713C5.67924 1.13906 5.90546 0.896873 6.15562 0.710579C6.40579 0.524285 6.66128 0.377911 6.92209 0.271457C7.1829 0.165003 7.44371 0.0931471 7.70453 0.0558882C7.96534 0.0186294 8.21817 -1.04167e-08 8.46301 0Z" fill="white"/>
</g>
<defs>
<clipPath id="clip0_290_2514">
<rect width="16" height="16" fill="white"/>
</clipPath>
</defs>
</svg>
