<svg width="16" height="16" viewBox="0 0 16 16" fill="none" xmlns="http://www.w3.org/2000/svg">
<g clip-path="url(#clip0_290_2531)">
<path d="M13.0166 0.490234H2.98344C2.65731 0.490234 2.33438 0.554471 2.03307 0.679275C1.73177 0.80408 1.45799 0.987009 1.22738 1.21762C0.996775 1.44823 0.813846 1.722 0.689041 2.02331C0.564236 2.32461 0.5 2.64755 0.5 2.97368V4.5072H15.5V2.97368C15.5 2.64755 15.4358 2.32461 15.311 2.02331C15.1862 1.722 15.0032 1.44823 14.7726 1.21762C14.542 0.987009 14.2682 0.80408 13.9669 0.679275C13.6656 0.554471 13.3427 0.490234 13.0166 0.490234ZM0.5 5.12807V12.7336C0.5 13.0597 0.564236 13.3827 0.689041 13.684C0.813846 13.9853 0.996775 14.2591 1.22738 14.4897C1.45799 14.7203 1.73177 14.9032 2.03307 15.028C2.33438 15.1528 2.65731 15.2171 2.98344 15.2171H13.0166C13.3427 15.2171 13.6656 15.1528 13.9669 15.028C14.2682 14.9032 14.542 14.7203 14.7726 14.4897C15.0032 14.2591 15.1862 13.9853 15.311 13.684C15.4358 13.3827 15.5 13.0597 15.5 12.7336V5.12807H0.5ZM12.4143 12.9882H9.65149C9.48683 12.9882 9.32891 12.9228 9.21247 12.8063C9.09604 12.6899 9.03063 12.532 9.03063 12.3673C9.03063 12.2026 9.09604 12.0447 9.21247 11.9283C9.32891 11.8119 9.48683 11.7464 9.65149 11.7464H12.4143C12.579 11.7464 12.7369 11.8119 12.8533 11.9283C12.9698 12.0447 13.0352 12.2026 13.0352 12.3673C13.0352 12.532 12.9698 12.6899 12.8533 12.8063C12.7369 12.9228 12.579 12.9882 12.4143 12.9882Z" fill="white"/>
</g>
<defs>
<clipPath id="clip0_290_2531">
<rect width="16" height="16" fill="white"/>
</clipPath>
</defs>
</svg>
