<svg width="38" height="38" viewBox="0 0 38 38" fill="none" xmlns="http://www.w3.org/2000/svg">
<path d="M18.6666 7C14.0666 7 10.3333 10.7333 10.3333 15.3333C10.3333 18.2667 11.8666 20.9333 14.3333 22.4667V27C14.3333 28.1333 15.1999 29 16.3333 29H20.9999C22.1333 29 22.9999 28.1333 22.9999 27V22.4667C25.4666 20.9333 26.9999 18.2667 26.9999 15.3333C26.9999 10.7333 23.2666 7 18.6666 7ZM20.9999 27.6667H16.3333C15.9333 27.6667 15.6666 27.4 15.6666 27V24.3333H21.6666V27C21.6666 27.4 21.3999 27.6667 20.9999 27.6667ZM21.9999 21.4667L21.6666 21.6667V23H15.6666V21.6667L15.3333 21.4667C13.0666 20.2667 11.6666 17.8667 11.6666 15.3333C11.6666 11.4667 14.7999 8.33333 18.6666 8.33333C22.5333 8.33333 25.6666 11.4667 25.6666 15.3333C25.6666 17.8667 24.2666 20.2667 21.9999 21.4667ZM21.6666 29.6667H15.6666C15.2666 29.6667 14.9999 29.9333 14.9999 30.3333C14.9999 30.7333 15.2666 31 15.6666 31H21.6666C22.0666 31 22.3333 30.7333 22.3333 30.3333C22.3333 29.9333 22.0666 29.6667 21.6666 29.6667Z" fill="black"/>
</svg>
