<svg width="38" height="38" viewBox="0 0 38 38" fill="none" xmlns="http://www.w3.org/2000/svg">
<rect width="38" height="38" rx="19" fill="#F6F6F6"/>
<path d="M25 17.75C24.59 17.75 24.25 17.41 24.25 17V15C24.25 11.85 23.36 9.75 19 9.75C14.64 9.75 13.75 11.85 13.75 15V17C13.75 17.41 13.41 17.75 13 17.75C12.59 17.75 12.25 17.41 12.25 17V15C12.25 12.1 12.95 8.25 19 8.25C25.05 8.25 25.75 12.1 25.75 15V17C25.75 17.41 25.41 17.75 25 17.75Z" fill="#171717"/>
<path d="M19 26.25C17.21 26.25 15.75 24.79 15.75 23C15.75 21.21 17.21 19.75 19 19.75C20.79 19.75 22.25 21.21 22.25 23C22.25 24.79 20.79 26.25 19 26.25ZM19 21.25C18.04 21.25 17.25 22.04 17.25 23C17.25 23.96 18.04 24.75 19 24.75C19.96 24.75 20.75 23.96 20.75 23C20.75 22.04 19.96 21.25 19 21.25Z" fill="#171717"/>
<path d="M24 29.75H14C9.59 29.75 8.25 28.41 8.25 24V22C8.25 17.59 9.59 16.25 14 16.25H24C28.41 16.25 29.75 17.59 29.75 22V24C29.75 28.41 28.41 29.75 24 29.75ZM14 17.75C10.42 17.75 9.75 18.43 9.75 22V24C9.75 27.57 10.42 28.25 14 28.25H24C27.58 28.25 28.25 27.57 28.25 24V22C28.25 18.43 27.58 17.75 24 17.75H14Z" fill="#171717"/>
</svg>
