<svg width="14" height="14" viewBox="0 0 14 14" fill="none" xmlns="http://www.w3.org/2000/svg">
<path d="M4.63818 3.84844L5.42568 2.27344H8.57568L9.36318 3.84844H4.63818Z" stroke="white" stroke-linejoin="round"/>
<path d="M11.4642 3.84766H2.53921C2.10428 3.84766 1.75171 4.20023 1.75171 4.63516V10.9352C1.75171 11.3701 2.10428 11.7227 2.53921 11.7227H11.4642C11.8991 11.7227 12.2517 11.3701 12.2517 10.9352V4.63516C12.2517 4.20023 11.8991 3.84766 11.4642 3.84766Z" stroke="white" stroke-linejoin="round"/>
<path d="M7.00137 9.88359C8.16117 9.88359 9.10137 8.9434 9.10137 7.78359C9.10137 6.62379 8.16117 5.68359 7.00137 5.68359C5.84156 5.68359 4.90137 6.62379 4.90137 7.78359C4.90137 8.9434 5.84156 9.88359 7.00137 9.88359Z" stroke="white" stroke-linejoin="round"/>
</svg>
