<svg width="38" height="38" viewBox="0 0 38 38" fill="none" xmlns="http://www.w3.org/2000/svg">
<path d="M27 19.5C27 19.3011 27.079 19.1104 27.2197 18.9697C27.3603 18.8291 27.5511 18.75 27.75 18.75C27.9489 18.75 28.1397 18.8291 28.2803 18.9697C28.421 19.1104 28.5 19.3011 28.5 19.5V25.7501C28.5 27.2688 27.2687 28.5 25.75 28.5H12.25C10.7312 28.5 9.5 27.2688 9.5 25.7501V13.0001C9.5 11.4813 10.7312 10.2501 12.25 10.2501H18.75C18.9489 10.2501 19.1397 10.3291 19.2803 10.4697C19.421 10.6104 19.5 10.8012 19.5 11.0001C19.5 11.199 19.421 11.3897 19.2803 11.5304C19.1397 11.671 18.9489 11.7501 18.75 11.7501H12.25C11.9185 11.7501 11.6005 11.8818 11.3661 12.1162C11.1317 12.3506 11 12.6685 11 13.0001V25.7501C11 26.0816 11.1317 26.3995 11.3661 26.6339C11.6005 26.8684 11.9185 27 12.25 27H25.75C26.0815 27 26.3995 26.8684 26.6339 26.6339C26.8683 26.3995 27 26.0816 27 25.7501V19.5ZM26.0143 13.0001L23.9097 10.764C23.7734 10.6192 23.7002 10.4261 23.7063 10.2272C23.7123 10.0284 23.7971 9.84013 23.942 9.70381C24.0869 9.56749 24.28 9.4943 24.4788 9.50035C24.6776 9.5064 24.8659 9.59118 25.0022 9.73606L28.2962 13.236C28.7467 13.7145 28.4072 14.5001 27.75 14.5001H23.9852C22.071 14.5001 20.5 16.169 20.5 18.2501V22.7501C20.5 22.949 20.421 23.1397 20.2803 23.2804C20.1397 23.421 19.9489 23.5001 19.75 23.5001C19.5511 23.5001 19.3603 23.421 19.2197 23.2804C19.079 23.1397 19 22.949 19 22.7501V18.2501C19 15.3603 21.2215 13.0001 23.9852 13.0001H26.0142H26.0143Z" fill="#171717"/>
</svg>
