<svg width="38" height="38" viewBox="0 0 38 38" fill="none" xmlns="http://www.w3.org/2000/svg">
<rect width="38" height="38" rx="19" fill="#F6F6F6"/>
<path d="M18.9998 29.7498C18.7598 29.7498 18.5199 29.7198 18.2899 29.6498C13.0999 28.2198 9.33984 23.3698 9.33984 18.1098V13.7198C9.33984 12.5998 10.1498 11.3898 11.1898 10.9598L16.7599 8.6798C18.2099 8.0898 19.7998 8.0898 21.2398 8.6798L26.8098 10.9598C27.8498 11.3898 28.6599 12.5998 28.6599 13.7198V18.1098C28.6599 23.3598 24.8898 28.2098 19.7098 29.6498C19.4798 29.7198 19.2398 29.7498 18.9998 29.7498ZM18.9998 9.74981C18.4298 9.74981 17.8698 9.85983 17.3298 10.0798L11.7599 12.3598C11.2799 12.5598 10.8398 13.2098 10.8398 13.7298V18.1198C10.8398 22.7098 14.1398 26.9498 18.6898 28.2098C18.8898 28.2698 19.1098 28.2698 19.3098 28.2098C23.8598 26.9498 27.1599 22.7098 27.1599 18.1198V13.7298C27.1599 13.2098 26.7198 12.5598 26.2398 12.3598L20.6699 10.0798C20.1299 9.85983 19.5698 9.74981 18.9998 9.74981Z" fill="#171717"/>
<path d="M19 20.25C17.48 20.25 16.25 19.02 16.25 17.5C16.25 15.98 17.48 14.75 19 14.75C20.52 14.75 21.75 15.98 21.75 17.5C21.75 19.02 20.52 20.25 19 20.25ZM19 16.25C18.31 16.25 17.75 16.81 17.75 17.5C17.75 18.19 18.31 18.75 19 18.75C19.69 18.75 20.25 18.19 20.25 17.5C20.25 16.81 19.69 16.25 19 16.25Z" fill="#171717"/>
<path d="M19 23.25C18.59 23.25 18.25 22.91 18.25 22.5V19.5C18.25 19.09 18.59 18.75 19 18.75C19.41 18.75 19.75 19.09 19.75 19.5V22.5C19.75 22.91 19.41 23.25 19 23.25Z" fill="#171717"/>
</svg>
