<svg width="38" height="38" viewBox="0 0 38 38" fill="none" xmlns="http://www.w3.org/2000/svg">
<path d="M27.121 15.3474C26.507 14.7149 25.8511 14.1507 25.1945 13.6597C25.096 13.5864 25.0208 13.5349 24.9336 13.4726C26.1528 13.0628 27.0054 12.0823 27.0054 10.9214C27.0054 9.35842 25.4885 8.16255 23.687 8.16255C23.2722 8.16255 22.8901 8.23863 22.5479 8.36619C22.3888 8.42549 22.2697 8.48548 22.171 8.54156C22.1078 8.5673 21.9736 8.53834 21.9367 8.49329L21.9353 8.49467C21.7976 8.2931 21.5905 8.04349 21.2893 7.78767C20.7159 7.30063 20.0372 7 19.2621 7C18.4873 7 17.8084 7.30063 17.2353 7.78767C16.9408 8.03774 16.7389 8.28023 16.601 8.4795L16.6001 8.47858C16.5479 8.53903 16.4128 8.57052 16.3655 8.54845C16.2654 8.49076 16.142 8.42825 15.9766 8.36642C15.6344 8.23885 15.2523 8.16278 14.8376 8.16278C13.0361 8.16278 11.5191 9.35865 11.5191 10.9216C11.5191 11.914 12.1452 12.7732 13.087 13.2593C12.9935 13.3244 12.8934 13.3952 12.786 13.4738C12.1304 13.9521 11.4757 14.5099 10.8623 15.144C9.08147 16.9862 8 19.0927 8 21.4312C8 27.9162 12.9413 31 18.8934 31C21.3877 31 23.8263 30.5134 25.7994 29.3644C28.4772 27.8049 30 25.185 30 21.4312C30.0002 19.2327 28.9115 17.1912 27.121 15.3474ZM18.8937 29.5513C13.6543 29.5513 9.47486 26.9428 9.47486 21.4307C9.47486 19.5166 10.3883 17.7374 11.932 16.1404C12.4826 15.5709 13.0744 15.067 13.6656 14.6354C13.8717 14.4851 14.0623 14.3548 14.2322 14.2458C14.3311 14.1821 14.3993 14.1408 14.4308 14.1226C15.2622 13.5852 15.1835 12.6383 14.3699 12.2342C14.3718 12.2282 14.3718 12.2253 14.3718 12.2253C14.3687 12.2239 14.3687 12.2239 14.3669 12.223C14.3626 12.2211 14.3626 12.2211 14.3575 12.2186C14.3445 12.2126 14.3445 12.2126 14.329 12.2055C14.2996 12.1919 14.2996 12.1919 14.29 12.1876C14.2813 12.1834 14.2808 12.1834 14.2689 12.1781L14.2529 12.1722L14.2496 12.1706L14.1638 12.1393C13.445 11.9336 12.994 11.4353 12.994 10.9209C12.994 10.2364 13.7883 9.61033 14.8376 9.61033C15.0634 9.61033 15.2704 9.6517 15.453 9.71974C15.5543 9.75743 15.6166 9.7903 15.6316 9.80018L15.7212 9.85098C16.3883 10.1688 17.2473 9.96843 17.7252 9.41473L17.7875 9.33107C17.8496 9.23454 17.9927 9.05894 18.2002 8.88311C18.5266 8.60591 18.8824 8.44801 19.2624 8.44801C19.6424 8.44801 19.9986 8.60591 20.3248 8.88311C20.5318 9.05917 20.6754 9.23454 20.737 9.33107L20.7871 9.40002C21.2524 9.96934 22.12 10.1587 22.7886 9.8581L22.8931 9.80041C22.9079 9.79053 22.9704 9.75766 23.0715 9.71996C23.2541 9.65193 23.4616 9.61056 23.687 9.61056C24.7367 9.61056 25.5308 10.2369 25.5308 10.9211C25.5308 11.4355 25.0798 11.9338 24.3612 12.1395L24.2557 12.1784C24.0486 12.2731 23.9114 12.3177 23.8604 12.3285C22.8264 12.6413 22.6506 13.6737 23.4884 14.2504C23.557 14.2936 23.6266 14.3377 23.7274 14.4049C23.8994 14.5198 24.0928 14.6558 24.301 14.8119C24.8991 15.2587 25.4972 15.7738 26.0536 16.3466C27.607 17.9465 28.5256 19.6683 28.5256 21.4307C28.5251 27.2283 24.5362 29.5513 18.8937 29.5513Z" fill="#262435"/>
<path d="M21.4167 20.7719C21.739 20.7719 22 20.4873 22 20.1357C22 19.7842 21.739 19.4993 21.4167 19.4993H19.0336L21.246 17.0861C21.4738 16.8376 21.4738 16.4349 21.246 16.1864C21.0183 15.9379 20.6489 15.9379 20.4211 16.1864L18.5004 18.2814L16.5796 16.1864C16.3518 15.9379 15.9822 15.9379 15.7544 16.1864C15.5267 16.4349 15.5267 16.8376 15.7544 17.0861L17.9673 19.4993H15.5833C15.2614 19.4993 15 19.7842 15 20.1357C15 20.4873 15.2614 20.7719 15.5833 20.7719H17.9169V21.4084H15.5833C15.2614 21.4084 15 21.693 15 22.0446C15 22.3961 15.2614 22.681 15.5833 22.681H17.9169V24.5135C17.9169 24.7822 18.1779 25 18.5002 25C18.8221 25 19.0833 24.7822 19.0833 24.5135V22.681H21.4167C21.739 22.681 22 22.3961 22 22.0446C22 21.693 21.739 21.4084 21.4167 21.4084H19.0833V20.7719H21.4167Z" fill="#262435"/>
</svg>
