<svg width="16" height="16" viewBox="0 0 16 16" fill="none" xmlns="http://www.w3.org/2000/svg">
<g id="remix-icons/fill/finance/vip-crown-2-fill" clip-path="url(#clip0_2152_1033)">
<g id="Group">
<path id="Vector" d="M1.8667 3.46688L4.6667 5.33355L7.45737 1.42688C7.51904 1.34046 7.60046 1.27002 7.69485 1.22142C7.78924 1.17282 7.89387 1.14746 8.00004 1.14746C8.1062 1.14746 8.21084 1.17282 8.30523 1.22142C8.39962 1.27002 8.48103 1.34046 8.5427 1.42688L11.3334 5.33355L14.1334 3.46688C14.2393 3.39638 14.3633 3.35769 14.4905 3.35538C14.6178 3.35306 14.7431 3.38723 14.8515 3.45383C14.96 3.52044 15.0471 3.6167 15.1026 3.73124C15.1581 3.84578 15.1796 3.97382 15.1647 4.10022L14.0694 13.4116C14.0503 13.5737 13.9723 13.7232 13.8503 13.8317C13.7283 13.9402 13.5707 14.0002 13.4074 14.0002H2.5927C2.42941 14.0002 2.27181 13.9402 2.14979 13.8317C2.02776 13.7232 1.94981 13.5737 1.9307 13.4116L0.835369 4.09955C0.820569 3.97321 0.842226 3.84526 0.897783 3.73083C0.95334 3.61639 1.04048 3.52024 1.14891 3.45372C1.25734 3.38721 1.38254 3.3531 1.50973 3.35543C1.63692 3.35777 1.76078 3.39644 1.8667 3.46688ZM8.00004 10.0002C8.35366 10.0002 8.6928 9.85974 8.94284 9.60969C9.19289 9.35964 9.33337 9.02051 9.33337 8.66688C9.33337 8.31326 9.19289 7.97412 8.94284 7.72408C8.6928 7.47403 8.35366 7.33355 8.00004 7.33355C7.64641 7.33355 7.30728 7.47403 7.05723 7.72408C6.80718 7.97412 6.6667 8.31326 6.6667 8.66688C6.6667 9.02051 6.80718 9.35964 7.05723 9.60969C7.30728 9.85974 7.64641 10.0002 8.00004 10.0002Z" fill="#F6C944"/>
<path id="Vector_2" d="M8 11C8.53043 11 9.03914 10.7893 9.41421 10.4142C9.78929 10.0391 10 9.53043 10 9C10 8.46957 9.78929 7.96086 9.41421 7.58579C9.03914 7.21071 8.53043 7 8 7C7.46957 7 6.96086 7.21071 6.58579 7.58579C6.21071 7.96086 6 8.46957 6 9C6 9.53043 6.21071 10.0391 6.58579 10.4142C6.96086 10.7893 7.46957 11 8 11Z" fill="#4879FA"/>
</g>
</g>
<defs>
<clipPath id="clip0_2152_1033">
<rect width="16" height="16" fill="white"/>
</clipPath>
</defs>
</svg>
