<svg width="16" height="16" viewBox="0 0 16 16" fill="none" xmlns="http://www.w3.org/2000/svg">
<g clip-path="url(#clip0_333_4328)">
<path d="M7.85413 6.70791C7.85725 6.70479 7.86506 6.70011 7.86818 6.69698C7.85257 6.65639 7.83851 6.61891 7.83227 6.59393C7.84164 6.6314 7.84788 6.67044 7.85413 6.70791ZM10.9161 9.99317C10.9145 9.99161 10.9067 9.99161 10.9052 9.99005C10.9083 9.99161 10.9145 9.99161 10.9161 9.99317ZM11.0192 10.0228C10.9926 10.0119 10.9333 10.0322 10.9083 9.98848C10.8942 10.1103 10.9161 10.1571 11.0192 10.0228ZM7.99466 0C3.58049 0 0.00012207 3.58037 0.00012207 7.99453C0.00012207 12.4087 3.58049 15.9891 7.99466 15.9891C12.4088 15.9891 15.9892 12.4087 15.9892 7.99453C15.9892 3.58037 12.412 0 7.99466 0ZM13.1021 3.12287C12.8273 3.13223 12.6352 3.13223 12.4135 3.28525C12.3245 3.34771 12.2636 3.42734 12.1512 3.46013C12.0497 3.48824 11.9404 3.46326 11.8389 3.49761C11.4751 3.62096 11.5344 4.39856 11.0535 4.28145C10.8287 4.2268 10.6694 3.95979 10.557 3.78647C10.457 3.63345 10.2743 3.50854 10.3977 3.31648C10.3431 3.33054 10.2822 3.31492 10.2259 3.32585C10.3025 3.15878 10.5601 3.17283 10.6022 3.08695C10.71 2.87147 10.3103 2.84961 10.1947 2.81995C10.3306 2.67317 10.3993 2.86835 10.5351 2.83556C10.6647 2.80277 10.468 2.63414 10.3883 2.61384C10.3602 2.60603 9.90429 2.74031 10.1682 2.50298C9.84183 2.29531 9.51705 2.08764 9.19071 1.87996C9.13606 2.1095 9.62479 2.24222 9.7825 2.32497C9.75751 2.42022 9.60918 2.55919 9.49519 2.52015C9.38745 2.48112 9.43118 2.30467 9.27035 2.32185C9.1548 2.58886 9.51549 2.51078 9.54672 2.6763C9.5842 2.86367 9.41088 2.78403 9.34373 2.78091C9.32812 2.78091 9.20321 2.65131 9.19696 2.74812C9.18759 2.86367 9.39526 2.81995 9.40932 2.93549C9.16885 2.94486 9.0455 2.85898 8.84876 2.72782C8.62079 2.57636 8.50212 2.59042 8.22263 2.59042C8.30694 2.55607 8.42249 2.52952 8.49432 2.47487C8.53335 2.4452 8.68637 2.29531 8.6973 2.26252C8.73946 2.1173 8.69574 2.12979 8.55833 2.03611C8.43498 1.95179 8.28664 1.80189 8.13831 1.77223C7.60118 1.66449 7.9728 2.25783 7.56526 2.33903H7.58712H7.56839H7.57151C7.47626 2.3359 7.29982 2.31248 7.23892 2.36245C7.19676 2.39836 7.19208 2.53733 7.14368 2.58886C7.0578 2.67942 6.93132 2.69816 6.82983 2.76374C6.7299 2.82775 6.50973 2.9917 6.45352 3.10413C6.23804 3.51478 6.93913 3.64282 7.20301 3.76305C7.32324 3.81614 7.67456 3.89109 7.73858 3.98321C7.82602 4.10501 7.66363 4.21899 7.84632 4.30487C7.90565 4.33141 8.02432 4.33766 8.07429 4.28145C8.15705 4.18932 8.03994 4.16903 8.0212 4.06129C7.98373 3.85674 8.04618 3.93793 8.14768 3.86142C8.35847 3.70684 8.31007 3.69747 8.23512 3.4492C8.19921 3.33522 8.06804 3.01357 8.18359 2.92769C8.33505 2.81682 8.65827 2.98858 8.77537 3.00264C8.91122 3.01825 8.98773 3.20562 9.06112 3.28213C9.10952 3.33366 9.19852 3.4414 9.2844 3.43047C9.42024 3.41329 9.36247 3.29306 9.44211 3.23841C9.6529 3.09164 9.70911 3.28994 9.79343 3.4898C9.8715 3.67717 9.94645 3.74744 10.0901 3.86611C10.1557 3.92076 10.443 4.12062 10.4149 4.24397C10.3977 4.32673 10.0682 4.45321 9.9808 4.47975C9.65914 4.58124 9.05799 4.31424 8.99397 4.8217C9.11889 4.77486 9.47177 4.486 9.57951 4.6234C9.62792 4.68586 9.54204 4.77642 9.56234 4.83732C9.62323 5.02313 9.76532 4.95911 9.91522 4.92788C9.90429 4.93569 9.89336 4.94037 9.88243 4.9435C10.087 4.83888 10.0667 4.85918 10.1588 4.69054C10.1885 4.63589 10.2353 4.50005 10.279 4.46101C10.4274 4.32361 10.4508 4.41885 10.5429 4.52347C10.5679 4.55158 10.7943 4.87792 10.7147 4.8623C10.4508 4.80921 10.1947 4.81546 9.97612 4.96067C9.84964 5.04499 9.72941 5.15741 9.57795 5.21206C9.54204 5.22455 9.27347 5.2511 9.3047 5.20426C9.35154 5.13867 9.50925 5.09339 9.5717 5.02001C9.39682 4.94818 9.25161 5.10745 9.1142 5.19957C8.96899 5.26983 8.9362 5.39631 8.81129 5.50873C8.7582 5.55714 8.65358 5.56651 8.60205 5.63053C8.55053 5.69298 8.54428 5.79135 8.49432 5.85069C8.45996 5.89129 8.37252 5.8663 8.33661 5.92876C8.28977 6.01152 8.37877 6.08646 8.36003 6.14424C8.32412 6.25198 8.12113 6.34254 8.04306 6.41905C8.05399 6.40812 8.06492 6.39875 8.07273 6.38938C7.99466 6.47214 7.89473 6.53147 7.83383 6.62828C7.86194 6.76256 7.95094 7.08266 7.92595 7.15761C7.8432 7.39963 7.68549 7.02489 7.62147 6.92964C7.39975 6.59549 6.95787 6.81878 6.65651 6.84688C6.27083 6.88279 5.89297 7.38401 6.13031 7.79155C6.24429 7.98673 6.43791 8.06324 6.65651 8.01639C6.85325 7.9758 6.91102 7.70255 7.09683 7.6963C7.43566 7.68693 7.10464 8.03045 7.07497 8.15536C7.04843 8.27091 7.11713 8.28184 7.23736 8.30994C7.32636 8.3318 7.45128 8.27247 7.52779 8.32244C7.57619 8.35523 7.57463 8.53011 7.64021 8.4739C7.51061 8.5832 7.54028 8.83927 7.67456 8.93296C7.8229 9.03601 7.99778 8.94076 8.15236 8.9798C8.44747 9.05475 8.30538 8.95638 8.56458 8.8018C8.7379 8.69718 8.76757 8.82209 8.88624 8.82209C8.96587 8.82209 9.01896 8.70655 9.15324 8.73934C9.2641 8.76744 9.30626 8.85176 9.43898 8.87206C9.49207 8.87987 9.54984 8.85176 9.59981 8.85801C9.84495 8.88455 10.0292 9.0407 10.2228 9.18122C10.3821 9.29677 10.4851 9.27335 10.671 9.32644C10.8068 9.36547 11.0551 9.56065 11.0426 9.73085C11.041 9.76052 10.9223 9.91666 10.902 9.98536C10.9364 10.0088 11.1769 9.95569 11.2471 9.94945C11.2237 9.97599 11.0597 10.09 11.0597 10.0291C11.0597 10.0619 11.1753 10.1259 11.205 10.1446C11.2908 9.86825 11.4298 10.0463 11.6 10.115C11.7421 10.1743 11.9201 10.1774 12.0731 10.2133C12.2027 10.243 12.4885 10.3304 12.5853 10.4382C12.7008 10.5662 12.6212 10.7739 12.5353 10.9004C12.4229 11.0659 12.2527 11.1299 12.184 11.3266C12.1293 11.4812 12.1699 11.6389 12.1387 11.8122C12.0965 12.0465 12.0622 11.9637 11.9123 12.1073C11.7858 12.2276 11.9107 12.2057 11.7374 12.2822C11.5641 12.3587 11.4126 12.3353 11.2924 12.5243C11.2971 12.5118 11.3018 12.5008 11.3049 12.4883C11.2549 12.5602 11.2299 12.7038 11.205 12.7507C11.1441 12.8725 11.0629 12.949 10.9661 13.0489C10.9302 13.0879 10.5929 13.547 10.5741 13.5095C10.5492 13.4611 10.2853 13.5579 10.2712 13.4892C10.2822 13.547 10.2697 13.5267 10.3337 13.561C10.2728 13.9373 10.112 13.9951 9.74346 13.9982C9.77625 14.1809 9.60918 14.1435 9.53111 14.2403C9.48583 14.298 9.46553 14.4573 9.43274 14.5307C9.41244 14.5775 9.26879 14.7633 9.26879 14.8008C9.26879 14.8352 9.31719 14.8851 9.36403 14.9304C9.10327 14.9819 8.83627 15.0179 8.56614 15.0397C8.61611 14.9757 8.6286 14.9195 8.46777 14.9132C8.50993 14.7961 8.61298 14.729 8.65514 14.615C8.67544 14.5619 8.65827 14.5401 8.677 14.487C8.73634 14.3027 8.71135 14.373 8.677 14.2293C8.59893 13.8952 8.70511 13.8046 8.79723 13.5001C8.88936 13.1863 8.88155 12.7788 8.94245 12.4399C8.97055 12.2775 9.0174 11.9418 8.95962 11.7888C8.8956 11.6155 8.61767 11.4797 8.48963 11.3641C8.31007 11.2002 8.21326 11.0222 8.07897 10.8176C8.01183 10.7146 7.9322 10.6131 7.88067 10.5006C7.76669 10.2602 7.88067 10.4023 7.90097 10.2617C7.91815 10.1243 7.88536 10.0025 7.93845 9.85889C7.99934 9.69962 8.14924 9.59969 8.1992 9.44198C8.24449 9.29989 8.21013 9.11877 8.06336 9.07192C7.9806 9.04538 7.8916 9.10627 7.81041 9.09378C7.69642 9.07661 7.56526 8.99073 7.47626 8.92046C7.35135 8.82366 7.30294 8.66907 7.17178 8.58007C7.05936 8.50512 6.98129 8.5504 6.86106 8.51449C6.73614 8.47702 6.65963 8.324 6.5597 8.27559C6.40824 8.20377 6.32392 8.30838 6.1631 8.28652C6.02725 8.26935 5.82114 8.11945 5.69311 8.06168C5.43547 7.94613 5.27933 7.81965 5.17627 7.5589C5.08883 7.33405 4.96079 7.23099 4.80933 7.04362C4.65631 6.85469 4.60791 6.69386 4.37213 6.6439C4.34403 6.63921 4.42991 6.8422 4.43771 6.85781C4.52203 7.01552 4.64851 7.15761 4.75156 7.30282C4.90146 7.51674 4.83744 7.55733 4.68598 7.35122C4.5111 7.11389 4.30968 6.87811 4.15822 6.62672C4.10044 6.53147 4.11137 6.46902 4.01769 6.38001C3.92712 6.29257 3.80689 6.25041 3.71477 6.16766C3.38531 5.86943 3.32441 5.47282 3.36189 5.04811C3.37438 4.91071 3.42434 4.79984 3.40248 4.66556C3.38531 4.5547 3.31817 4.46414 3.23853 4.38294C3.21199 4.34234 3.14641 4.23773 3.14172 4.23148C3.06678 4.10657 3.00744 3.98321 2.88877 3.88172C2.82163 3.82239 2.64207 3.68498 2.47655 3.56943C3.22604 2.6357 4.20506 1.89558 5.32929 1.43496C5.33866 1.49273 5.36364 1.54738 5.39956 1.60203C5.49168 1.73944 5.57912 1.72851 5.76025 1.76598C5.73995 1.97521 5.49637 1.97677 5.33085 1.95491C5.13255 1.92837 4.92644 1.86279 4.75468 2.03455C4.84993 2.09232 5.10913 2.31248 5.07478 2.08139C5.26371 2.07202 5.44796 2.06734 5.63377 2.0892C5.70872 2.09857 5.95699 2.18132 6.02413 2.14385C6.05223 2.12823 6.08346 1.98927 6.11313 1.94555C6.06004 1.94555 6.00383 1.919 5.95074 1.92368C6.07409 1.76598 6.19589 1.88933 6.35203 1.96272C6.18027 2.06734 6.28176 2.31717 6.4504 2.11418C6.58781 1.94711 6.41605 1.82531 6.24117 1.72851C6.41761 1.50678 6.52691 1.48805 6.69242 1.73787C6.71897 1.58485 6.84388 1.64575 6.97504 1.65824V1.61921C6.91727 1.62077 6.85793 1.58642 6.80016 1.59422C6.93288 1.38343 6.84857 1.33502 7.0375 1.26632C7.1874 1.21167 7.61679 1.2632 7.67144 1.12111C7.37008 1.18044 7.00783 1.1945 6.73614 1.33034C6.61903 1.38968 6.47851 1.57549 6.36296 1.45526C6.24273 1.33034 6.44884 1.13204 6.55345 1.07114H6.52223C6.99846 0.96965 7.49188 0.916561 7.99622 0.916561C8.32256 0.916561 8.64421 0.941544 8.95962 0.983703C8.85032 1.04148 8.93152 1.08051 8.85188 1.13828C8.70042 1.24915 8.4303 1.34283 8.25073 1.4131C8.48026 1.4131 9.03613 1.62857 9.14231 1.30536C9.06736 1.29443 8.99397 1.28194 8.92059 1.27101C9.05955 1.18044 9.21257 1.10549 9.37496 1.05084C10.8365 1.33971 12.1356 2.08295 13.124 3.1213C13.1162 3.12287 13.1083 3.12287 13.1021 3.12287ZM14.395 5.93032C14.4075 5.90222 14.4403 5.89285 14.4527 5.86943C14.4793 5.82102 14.4746 5.78667 14.5058 5.74607C14.5417 5.70079 14.5886 5.6883 14.6276 5.65551C14.6401 5.64458 14.651 5.63053 14.6604 5.61491C14.7806 5.9475 14.8728 6.28789 14.9399 6.63453C14.9383 6.63609 14.9368 6.64233 14.9352 6.6439C14.918 6.65795 14.8072 6.67356 14.7838 6.67356C14.7041 6.67669 14.6432 6.6236 14.5839 6.57207C14.5246 6.52054 14.4559 6.45184 14.4121 6.3847C14.3669 6.31287 14.395 6.23948 14.3981 6.15985C14.3997 6.08803 14.3669 5.99278 14.395 5.93032ZM14.4871 9.595C14.3497 9.47477 14.1873 9.31707 14.0905 9.16092C13.9874 8.99697 14.0515 8.82678 14.0577 8.63785C14.0655 8.47858 13.9859 8.25373 14.0546 8.11008C14.0842 8.0445 14.1561 8.02264 14.1842 7.96955C14.2466 7.85713 14.2326 7.78062 14.3091 7.68225C14.3918 7.57763 14.4996 7.55265 14.5917 7.46989C14.687 7.38401 14.6838 7.31687 14.7447 7.20601C14.79 7.12638 14.8931 6.9921 14.9914 6.92027C15.0445 7.27471 15.0711 7.63228 15.0711 7.99141C15.0711 8.62067 14.9868 9.23119 14.8322 9.8136C14.701 9.78238 14.5917 9.68869 14.4871 9.595Z" fill="white"/>
</g>
<defs>
<clipPath id="clip0_333_4328">
<rect width="16" height="16" fill="white"/>
</clipPath>
</defs>
</svg>
