<svg width="16" height="16" viewBox="0 0 16 16" fill="none" xmlns="http://www.w3.org/2000/svg">
<g clip-path="url(#clip0_333_4353)">
<path d="M8.00067 -0.00195312C3.60067 -0.00195312 0.000671387 3.59805 0.000671387 7.99805C0.000671387 12.398 3.60067 15.998 8.00067 15.998C12.4007 15.998 16.0007 12.398 16.0007 7.99805C16.0007 3.59805 12.4007 -0.00195312 8.00067 -0.00195312ZM7.88067 12.038C7.72067 12.318 7.40067 12.478 7.04067 12.398C6.72067 12.358 6.48067 12.078 6.40067 11.758L5.36067 6.39805H4.00067V4.79805H6.00067C6.40067 4.79805 6.72067 5.07805 6.80067 5.43805L7.60067 9.47805L10.9607 4.11805L12.3207 4.95805L7.88067 12.038Z" fill="white"/>
</g>
<defs>
<clipPath id="clip0_333_4353">
<rect width="16" height="16" fill="white"/>
</clipPath>
</defs>
</svg>
