<svg width="20" height="20" viewBox="0 0 20 20" fill="none" xmlns="http://www.w3.org/2000/svg">
<g clip-path="url(#clip0_333_4344)">
<path d="M19.5025 8.59772C19.2188 12.6558 15.691 15.9454 11.6231 15.9454C10.7786 15.9454 9.97714 15.8037 9.23989 15.5427L11.4209 11.9925C11.794 11.3851 12.3035 10.784 12.9978 10.7203C13.164 10.705 13.3316 10.7089 13.4971 10.733L15.9465 11.0886C16.0272 11.1004 16.0861 11.0046 16.0361 10.9427L14.5212 9.06606C14.1445 8.59941 14.0034 7.97766 14.135 7.36389L14.6641 4.8957C14.6815 4.81435 14.5891 4.76232 14.5234 4.81644L12.5273 6.45862C12.031 6.86697 11.3948 7.05106 10.7857 6.96262L8.33639 6.60696C8.25567 6.59523 8.19682 6.69103 8.24674 6.75287L9.76168 8.62951C9.86402 8.75629 9.94897 8.89452 10.0158 9.04093C10.2951 9.65294 9.99392 10.3714 9.62074 10.9788L9.53999 11.1103L5.09848 10.7806L5.07933 10.7792L4.63949 10.7466L4.63969 10.7437L2.95985 10.6077L4.6603 10.449L4.75301 9.1232C4.75291 9.02031 4.75499 8.91683 4.75926 8.81281L-0.594884 8.11629H4.82043C4.88875 7.60934 5.00762 7.11639 5.17152 6.64261L2.76579 6.43802L5.31014 6.27273C5.49699 5.81029 5.72723 5.3683 5.99538 4.95188L1.14713 4.53483L6.48452 4.27229C6.48793 4.26804 6.49135 4.26378 6.49477 4.25953L10.7234 4.0469L10.7311 3.9362L7.12693 3.56025C8.5696 2.13794 10.5372 1.25 12.6507 1.25C16.7186 1.25 19.7863 4.53969 19.5025 8.59772Z" fill="white"/>
<path d="M5.42853 17.8027L9.47023 11.2238L5.48437 11.4069L5.48846 11.4036L-0.0104109 11.6632L4.54696 12.0698L4.44092 13.5863L2.25308 13.7702L4.41814 13.9121L4.35155 14.8644L6.34674 15.1621L4.31864 15.3349L4.31846 15.3376L0.368249 15.6733L4.28142 15.8672L4.12946 18.0404C4.09138 18.5849 4.80133 18.7768 5.10554 18.3043L5.42853 17.8027Z" fill="white"/>
</g>
<defs>
<clipPath id="clip0_333_4344">
<rect width="20" height="20" fill="white"/>
</clipPath>
</defs>
</svg>
