<svg width="44" height="44" viewBox="0 0 44 44" fill="none" xmlns="http://www.w3.org/2000/svg">
<g id="Frame">
<rect id="Rectangle 3464199" x="7" y="10" width="30" height="25" fill="white"/>
<path id="Vector" d="M22.2024 5.6098C26.565 5.6098 30.9254 5.6032 35.288 5.612C38.4582 5.6186 39.9674 7.1168 39.9696 10.2496C39.9718 18.097 39.9718 25.9444 39.9696 33.7918C39.9674 36.9202 38.4494 38.4448 35.2858 38.4492C26.5628 38.4602 17.8376 38.4602 9.1146 38.4492C5.8498 38.4448 4.3802 36.9774 4.3758 33.7302C4.367 25.9224 4.367 18.1146 4.3758 10.3068C4.3802 7.0838 5.8674 5.6164 9.1168 5.612C13.4772 5.6032 17.8398 5.6098 22.2024 5.6098ZM15.2614 23.2868C12.947 26.358 10.7206 29.3082 8.3754 32.419H35.9788C32.9648 28.3226 30.0762 24.3956 27.115 20.3718C24.7522 23.3946 22.5038 26.2766 20.2048 29.218C18.5108 27.1852 16.94 25.2998 15.2614 23.2868ZM13.101 17.4194C15.158 17.4304 16.7244 15.8816 16.7134 13.8466C16.7024 11.9018 15.114 10.2826 13.1868 10.254C11.2156 10.2254 9.5194 11.8644 9.4974 13.8158C9.4776 15.8376 11.0484 17.4084 13.101 17.4194Z" fill="#FF9566"/>
<path id="Vector_2" d="M22.2024 5.6098C17.8398 5.6098 13.4794 5.6054 9.1168 5.612C5.8674 5.6164 4.3802 7.0838 4.3758 10.3068C4.367 18.1146 4.367 25.9224 4.3758 33.7302C4.3802 36.9774 5.8498 38.4448 9.1146 38.4492C14.4562 38.4558 19.7978 38.4514 25.1372 38.4492C27.4978 36.7684 29.59 34.7312 31.3346 32.419H8.3754C10.7206 29.3082 12.9448 26.358 15.2614 23.2868C16.94 25.2998 18.5108 27.1852 20.2048 29.218C22.5016 26.2766 24.7522 23.3968 27.115 20.3718C29.26 23.289 31.3698 26.1534 33.5126 29.0684C35.7588 25.0116 37.0392 20.3454 37.0392 15.38C37.0392 11.948 36.4276 8.6568 35.3078 5.612H35.2858C30.9254 5.6032 26.5628 5.6098 22.2024 5.6098ZM13.101 17.4194C11.0484 17.4084 9.4776 15.8376 9.4996 13.8158C9.5194 11.8644 11.2178 10.2254 13.189 10.254C15.1162 10.2826 16.7046 11.8996 16.7156 13.8466C16.7244 15.8816 15.158 17.4304 13.101 17.4194Z" fill="#FFA071"/>
<path id="Vector_3" d="M9.2048 32.4188H8.3776C10.7228 29.308 12.947 26.3578 15.2636 23.2866C16.434 24.6924 17.5538 26.0344 18.7 27.4094C25.0932 22.2768 29.2094 14.425 29.2952 5.60742C26.9302 5.60742 24.5674 5.60962 22.2024 5.60962C17.8398 5.60962 13.4794 5.60522 9.1168 5.61182C5.8674 5.61622 4.3802 7.08362 4.3758 10.3066C4.367 18.0132 4.367 25.722 4.3758 33.4286C6.0346 33.2328 7.6472 32.8918 9.2048 32.4188ZM13.1868 10.2538C15.114 10.2824 16.7024 11.8994 16.7134 13.8464C16.7244 15.8814 15.158 17.4302 13.101 17.4192C11.0484 17.4082 9.4776 15.8374 9.4996 13.8156C9.5172 11.8642 11.2156 10.2252 13.1868 10.2538Z" fill="#FDAF7D"/>
<path id="Vector_4" d="M11.8272 17.1931C10.4346 16.6893 9.482 15.3913 9.4974 13.8161C9.5172 11.8647 11.2156 10.2257 13.1868 10.2543C14.619 10.2741 15.862 11.1739 16.412 12.4323C17.9872 10.3621 19.2852 8.06968 20.2466 5.60788C16.5374 5.60788 12.8282 5.60348 9.1168 5.61008C5.8674 5.61448 4.3802 7.08188 4.3758 10.3049C4.3714 14.0691 4.3758 17.8355 4.3758 21.5997C7.07131 20.5225 9.58463 19.0362 11.8272 17.1931Z" fill="#FFBE94"/>
</g>
</svg>
