<svg width="24" height="24" viewBox="0 0 24 24" fill="none" xmlns="http://www.w3.org/2000/svg">
<circle cx="12" cy="12" r="11" fill="white" stroke="#C478FF" stroke-width="2"/>
<path fill-rule="evenodd" clip-rule="evenodd" d="M12.6621 7.25591C12.6236 6.92435 12.3419 6.66699 12 6.66699C11.6318 6.66699 11.3333 6.96547 11.3333 7.33366V11.3337H7.33329L7.25555 11.3381C6.92399 11.3767 6.66663 11.6584 6.66663 12.0003C6.66663 12.3685 6.9651 12.667 7.33329 12.667H11.3333V16.667L11.3378 16.7447C11.3763 17.0763 11.6581 17.3337 12 17.3337C12.3681 17.3337 12.6666 17.0352 12.6666 16.667V12.667H16.6666L16.7444 12.6625C17.0759 12.624 17.3333 12.3422 17.3333 12.0003C17.3333 11.6321 17.0348 11.3337 16.6666 11.3337H12.6666V7.33366L12.6621 7.25591Z" fill="#C478FF"/>
</svg>
