<svg width="50" height="50" viewBox="0 0 50 50" fill="none" xmlns="http://www.w3.org/2000/svg">
<path d="M3.84937 12.7887L25 0.57735L46.1506 12.7887V37.2113L25 49.4226L3.84937 37.2113V12.7887Z" fill="url(#paint0_linear_1345_2695)" stroke="#F6E0BC"/>
<path d="M25 4L43.1865 14.5V35.5L25 46L6.81347 35.5V14.5L25 4Z" fill="white"/>
<path d="M25.0968 35.1774C19.5294 35.1774 15.0161 30.6641 15.0161 25.0968C15.0161 19.5294 19.5294 15.0161 25.0968 15.0161C30.6641 15.0161 35.1774 19.5294 35.1774 25.0968C35.1774 30.6641 30.6641 35.1774 25.0968 35.1774ZM25.0968 33.1613C29.5507 33.1613 33.1613 29.5507 33.1613 25.0968C33.1613 20.6428 29.5507 17.0322 25.0968 17.0322C20.6428 17.0322 17.0322 20.6428 17.0322 25.0968C17.0322 29.5507 20.6428 33.1613 25.0968 33.1613ZM26.1048 25.0968H30.1371V27.1129H24.0887V20.0564H26.1048V25.0968Z" fill="#FFBB56"/>
<defs>
<linearGradient id="paint0_linear_1345_2695" x1="25" y1="0" x2="25" y2="52.5" gradientUnits="userSpaceOnUse">
<stop stop-opacity="0"/>
<stop offset="1" stop-color="#F6E0BC"/>
</linearGradient>
</defs>
</svg>
