<svg width="32" height="32" viewBox="0 0 32 32" fill="none" xmlns="http://www.w3.org/2000/svg">
<path d="M24.2431 13.0682H24.179C23.7053 13.0682 23.3165 13.2043 22.942 13.4361C22.6143 12.4803 21.7808 11.7919 20.7072 11.7919C20.2335 11.7919 19.781 11.9279 19.4066 12.1597C19.0789 11.2039 18.245 10.5154 17.1714 10.5154C16.7527 10.5154 16.3636 10.6204 16.0191 10.8047V8.34557C16.0191 7.00616 15.006 5.92038 13.6569 5.92038C12.3078 5.92038 11.2141 7.00616 11.2141 8.34557V17.7606L9.73004 16.2827C8.77604 15.3356 7.0876 15.4704 6.27535 16.2827C5.4631 17.0949 4.93042 18.7298 6.09354 19.8929L12.9156 26.6703C13.0564 26.81 13.2111 26.9265 13.3738 27.025C14.6177 28.0397 16.0429 28.6404 19.0569 28.6404C25.942 28.6404 26.5796 24.9259 26.5796 20.3438V15.4934C26.5796 14.154 25.5922 13.0682 24.2431 13.0682ZM25.2938 20.3437C25.2938 24.2209 25.2753 27.3639 19.0568 27.3639C16.4225 27.3639 14.8409 26.7766 13.6429 25.5871L7.18448 19.1708C6.61307 18.5994 6.75676 17.8688 7.22454 17.401C7.69229 16.9333 8.55082 16.9171 9.00273 17.3657C9.00273 17.3657 10.1358 18.4921 11.112 19.4626C11.8508 20.197 12.4998 20.8421 12.4998 20.8421V8.60085C12.4998 7.96641 13.0179 7.4521 13.6569 7.4521C14.2959 7.4521 14.7334 7.96645 14.7334 8.60085V16.3869H14.7464C14.7379 16.4282 14.7334 16.4708 14.7334 16.5146C14.7334 16.867 15.0212 17.1528 15.3763 17.1528C15.7313 17.1528 16.0191 16.867 16.0191 16.5146C16.0191 16.4708 16.0146 16.4282 16.0061 16.3869H16.0191V13.1959C16.0191 12.5614 16.4814 12.0471 17.1205 12.0471C17.1205 12.0471 18.2527 12.0318 18.2527 13.1959V17.408H18.2657C18.2573 17.4493 18.2527 17.4919 18.2527 17.5356C18.2527 17.8881 18.5405 18.1739 18.8955 18.1739C19.2506 18.1739 19.5384 17.8881 19.5384 17.5356C19.5384 17.4919 19.5339 17.4493 19.5254 17.408H19.5384V14.4723C19.5384 13.8378 19.9934 13.3235 20.6324 13.3235C20.6324 13.3235 21.7882 13.3954 21.7882 14.4723V18.1738H21.8011C21.7927 18.2151 21.7882 18.2578 21.7882 18.3015C21.7882 18.6539 22.076 18.9397 22.431 18.9397C22.786 18.9397 23.0577 18.654 23.0577 18.3015C23.0577 18.2578 23.0535 18.2151 23.0455 18.1738H23.0577V15.6466C23.0577 15.0121 23.5344 14.4978 24.1735 14.4978C24.1735 14.4978 25.2938 14.4525 25.2938 15.6466C25.2938 15.6466 25.2938 19.3114 25.2938 20.3437ZM10.2596 11.9614V9.81673C10.0555 9.3592 9.93957 8.8537 9.93957 8.32035C9.93957 6.28795 11.5872 4.64035 13.6196 4.64035C15.652 4.64035 17.2996 6.28795 17.2996 8.32035C17.2996 8.59798 17.2668 8.86751 17.2079 9.12723C17.6707 9.14529 18.0884 9.33741 18.3924 9.64588C18.5102 9.22345 18.5795 8.78073 18.5795 8.32035C18.5795 5.58104 16.3589 3.36035 13.6195 3.36035C10.8802 3.36035 8.65954 5.58104 8.65954 8.32035C8.65957 9.7616 9.27804 11.0552 10.2596 11.9614Z" fill="#C478FF"/>
</svg>
