<svg width="85" height="64" viewBox="0 0 85 64" fill="none" xmlns="http://www.w3.org/2000/svg">
<path d="M81.6684 0.847656H4.23062C2.42196 0.847656 0.955688 2.31393 0.955688 4.12259V59.7442C0.955688 61.5528 2.42196 63.019 4.23062 63.019H81.6684C83.477 63.019 84.9433 61.5528 84.9433 59.7442V4.12259C84.9433 2.31393 83.477 0.847656 81.6684 0.847656ZM45.8879 18.4576H77.0068V24.5067H45.8879V18.4576ZM45.8879 30.2208H77.0068V36.2699H45.8879V30.2208ZM26.4034 9.47365C35.0188 9.47365 35.0324 16.0647 35.0324 19.7742C35.0324 23.4805 31.5824 30.3667 26.4034 30.375C21.2298 30.3832 17.7744 23.4805 17.7744 19.7742C17.7745 16.0674 17.7907 9.47365 26.4034 9.47365ZM11.8224 35.7916C14.043 34.0735 20.4295 31.2031 20.4295 31.2031L24.4614 38.8729L25.1988 37.0124L24.0597 34.7208L26.3324 32.4263L28.6049 34.7208L27.4688 37.0124L28.0834 38.8291L32.2326 31.2031C32.2326 31.2031 34.2672 32.1204 36.4335 33.2243H36.4364V42.7571H8.62924C8.62924 42.7571 9.60758 37.5214 11.8224 35.7916ZM77.2697 55.2608H8.62924V49.2116H77.2697V55.2608Z" fill="#C478FF"/>
</svg>
