<svg width="38" height="38" viewBox="0 0 38 38" fill="none" xmlns="http://www.w3.org/2000/svg">
<g clip-path="url(#clip0_1_1117)">
<path d="M37.8273 38C37.6545 37.7409 37.4818 37.3955 37.2227 37.2227C25.0455 25.0455 12.8682 12.8682 0.690909 0.777273C0.518182 0.518182 0.259091 0.345455 0 0.172727C0.259091 0.0863637 0.518182 0 0.777273 0H28C33.5229 0 38 4.47715 38 10V37.2227C38 37.4818 37.9136 37.7409 37.8273 38ZM26.0818 17.1864C28.5 14.7682 30.9182 12.35 33.3364 10.0182C33.0773 9.67273 32.7318 9.32727 32.3 8.72273C30.2273 10.8818 28.2409 12.9545 26.1682 15.0273C24.9591 13.8182 23.8364 12.6955 22.8 11.5727L21.6773 12.6955C23.1455 14.1636 24.6136 15.7182 26.0818 17.1864Z" fill="#2AC769"/>
</g>
<defs>
<clipPath id="clip0_1_1117">
<rect width="38" height="38" fill="white"/>
</clipPath>
</defs>
</svg>
