<svg width="18" height="24" viewBox="0 0 18 24" fill="none" xmlns="http://www.w3.org/2000/svg">
<path d="M2.25 23.5C1.63125 23.5 1.10156 23.2855 0.660937 22.8565C0.220313 22.4276 0 21.9119 0 21.3095V10.3571C0 9.75476 0.220313 9.23909 0.660937 8.81012C1.10156 8.38115 1.63125 8.16667 2.25 8.16667H3.375V5.97619C3.375 4.46111 3.92344 3.16964 5.02031 2.10179C6.11719 1.03393 7.44375 0.5 9 0.5C10.5562 0.5 11.8828 1.03393 12.9797 2.10179C14.0766 3.16964 14.625 4.46111 14.625 5.97619V8.16667H15.75C16.3687 8.16667 16.8984 8.38115 17.3391 8.81012C17.7797 9.23909 18 9.75476 18 10.3571V21.3095C18 21.9119 17.7797 22.4276 17.3391 22.8565C16.8984 23.2855 16.3687 23.5 15.75 23.5H2.25ZM9 18.0238C9.61875 18.0238 10.1484 17.8093 10.5891 17.3804C11.0297 16.9514 11.25 16.4357 11.25 15.8333C11.25 15.231 11.0297 14.7153 10.5891 14.2863C10.1484 13.8573 9.61875 13.6429 9 13.6429C8.38125 13.6429 7.85156 13.8573 7.41094 14.2863C6.97031 14.7153 6.75 15.231 6.75 15.8333C6.75 16.4357 6.97031 16.9514 7.41094 17.3804C7.85156 17.8093 8.38125 18.0238 9 18.0238ZM5.625 8.16667H12.375V5.97619C12.375 5.06349 12.0469 4.2877 11.3906 3.64881C10.7344 3.00992 9.9375 2.69048 9 2.69048C8.0625 2.69048 7.26562 3.00992 6.60937 3.64881C5.95312 4.2877 5.625 5.06349 5.625 5.97619V8.16667Z" fill="#CDCDCD"/>
</svg>
