<svg width="18" height="18" viewBox="0 0 18 18" fill="none" xmlns="http://www.w3.org/2000/svg">
<g id="Frame">
<path id="Vector" d="M8.99972 1.125C4.65778 1.125 1.125 4.6575 1.125 9.00028C1.125 13.3422 4.65778 16.875 8.99972 16.875C13.3428 16.875 16.875 13.3422 16.875 9.00028C16.875 4.65722 13.3422 1.125 8.99972 1.125Z" fill="#FFBD27"/>
<path id="Vector_2" d="M8.02659 12.0533C7.94129 12.0533 7.85682 12.0365 7.77805 12.0038C7.69927 11.971 7.62775 11.923 7.56759 11.8626L4.97109 9.25538C4.71797 9.00113 4.71797 8.58797 4.97109 8.33372C5.03124 8.27321 5.10275 8.22519 5.18153 8.19242C5.2603 8.15965 5.34478 8.14278 5.43009 8.14278C5.51541 8.14278 5.59989 8.15965 5.67866 8.19242C5.75743 8.22519 5.82895 8.27321 5.88909 8.33372L8.02659 10.4797L12.1109 6.37904C12.171 6.31839 12.2425 6.27025 12.3212 6.23739C12.4 6.20454 12.4845 6.18762 12.5699 6.18762C12.6553 6.18762 12.7398 6.20454 12.8186 6.23739C12.8973 6.27025 12.9688 6.31839 13.0289 6.37904C13.282 6.63329 13.282 7.0456 13.0289 7.30013L8.48559 11.8626C8.4254 11.923 8.35387 11.9709 8.2751 12.0037C8.19634 12.0364 8.11189 12.0532 8.02659 12.0533Z" fill="#333333"/>
</g>
</svg>
