<svg width="26" height="26" viewBox="0 0 26 26" fill="none" xmlns="http://www.w3.org/2000/svg">
<g clip-path="url(#clip0_1_410)">
<path d="M6.24669 2.40625H20.2726C22.3055 2.40625 23.3219 3.42268 23.3219 5.45555V22.9508C23.3219 24.9836 22.3055 26.0001 20.2726 26.0001H6.24669C4.21382 26.0001 3.19739 24.9836 3.19739 22.9508V5.45555C3.19739 3.42268 4.21382 2.40625 6.24669 2.40625Z" fill="#86A2F8"/>
<path d="M9.10349 0C9.83264 0 10.1972 0.364575 10.1972 1.09372V3.71866C10.1972 4.44781 9.83264 4.81238 9.10349 4.81238C8.37434 4.81238 8.00977 4.44781 8.00977 3.71866V1.09372C8.00977 0.364575 8.37434 0 9.10349 0Z" fill="#90ABFA"/>
<path d="M16.9784 0C17.7075 0 18.0721 0.364575 18.0721 1.09372V3.71866C18.0721 4.44781 17.7075 4.81238 16.9784 4.81238C16.2492 4.81238 15.8846 4.44781 15.8846 3.71866V1.09372C15.8846 0.364575 16.2492 0 16.9784 0Z" fill="#90ABFA"/>
<path d="M17.6345 19.2495H21.1344C21.4261 19.2495 21.5719 19.3953 21.5719 19.687C21.5719 19.9787 21.4261 20.1245 21.1344 20.1245H17.6345C17.3429 20.1245 17.197 19.9787 17.197 19.687C17.197 19.3953 17.3429 19.2495 17.6345 19.2495Z" fill="white"/>
<path d="M17.6345 20.9995H21.1344C21.4261 20.9995 21.5719 21.1453 21.5719 21.437C21.5719 21.7287 21.4261 21.8745 21.1344 21.8745H17.6345C17.3429 21.8745 17.197 21.7287 17.197 21.437C17.197 21.1453 17.3429 20.9995 17.6345 20.9995Z" fill="white"/>
<path d="M19.822 19.9058V23.1869C19.822 23.4786 19.6762 23.6244 19.3845 23.6244C19.0929 23.6244 18.947 23.4786 18.947 23.1869V19.9058C18.947 19.6141 19.0929 19.4683 19.3845 19.4683C19.6762 19.4683 19.822 19.6141 19.822 19.9058Z" fill="white"/>
<path d="M18.4584 18.0629L19.6958 19.3003C19.9021 19.5065 19.9021 19.7128 19.6958 19.919C19.4896 20.1252 19.2834 20.1252 19.0771 19.919L17.8397 18.6816C17.6335 18.4753 17.6335 18.2691 17.8397 18.0629C18.046 17.8566 18.2522 17.8566 18.4584 18.0629Z" fill="white"/>
<path d="M20.9328 18.684L19.6954 19.9214C19.4891 20.1277 19.2829 20.1277 19.0767 19.9214C18.8704 19.7152 18.8704 19.509 19.0767 19.3027L20.3141 18.0653C20.5203 17.8591 20.7265 17.8591 20.9328 18.0653C21.139 18.2716 21.139 18.4778 20.9328 18.684Z" fill="white"/>
<path d="M7.79111 18.3745H13.4785C14.2076 18.3745 14.5722 18.7391 14.5722 19.4682C14.5722 20.1974 14.2076 20.562 13.4785 20.562H7.79111C7.06196 20.562 6.69739 20.1974 6.69739 19.4682C6.69739 18.7391 7.06196 18.3745 7.79111 18.3745Z" fill="white"/>
<path d="M7.79111 13.1245H17.8534C18.5825 13.1245 18.9471 13.4891 18.9471 14.2182C18.9471 14.9474 18.5825 15.312 17.8534 15.312H7.79111C7.06196 15.312 6.69739 14.9474 6.69739 14.2182C6.69739 13.4891 7.06196 13.1245 7.79111 13.1245Z" fill="white"/>
<path d="M7.79111 7.875H17.8534C18.5825 7.875 18.9471 8.23957 18.9471 8.96872C18.9471 9.69787 18.5825 10.0624 17.8534 10.0624H7.79111C7.06196 10.0624 6.69739 9.69787 6.69739 8.96872C6.69739 8.23957 7.06196 7.875 7.79111 7.875Z" fill="white"/>
</g>
<defs>
<clipPath id="clip0_1_410">
<rect width="26" height="26" fill="white"/>
</clipPath>
</defs>
</svg>
