<svg width="26" height="26" viewBox="0 0 26 26" fill="none" xmlns="http://www.w3.org/2000/svg">
<path d="M22.7051 15.0372C22.0342 12.4882 20.8554 11.1128 17.8481 8.82511C17.7021 8.71339 17.4205 8.56232 16.9528 8.32745L16.8766 8.28988L16.8695 8.28657C17.1516 7.98443 17.418 7.66806 17.6676 7.33849C17.9656 6.94417 18.4562 6.09968 18.5547 5.7272L18.5664 5.67236C18.7533 4.63718 18.6278 4.08798 17.9156 3.47175C17.0945 2.76158 16.3216 2.75015 15.1534 3.19855C13.8681 2.20146 12.0484 2.18318 10.7463 3.14929L10.549 3.07896C10.4152 3.033 10.2926 2.99365 10.1735 2.96064C9.78707 2.85298 9.46944 2.8121 9.17033 2.87507C7.99729 3.12212 7.17717 3.87876 7.35135 5.28337C7.47856 6.30687 7.84418 6.98226 8.66024 7.90902C8.7227 7.97935 8.78643 8.0413 9.03983 8.27413C5.67252 10.181 2.97045 13.6666 2.73711 17.0578C2.63987 18.468 2.67186 19.5989 2.91129 20.5495C3.37569 22.3944 5.14592 23.5669 7.16981 23.5623C8.66176 23.5585 10.1413 23.558 12.3056 23.5585C14.4463 23.5606 16.5872 23.5603 18.7279 23.5573C20.2521 23.5545 21.7646 22.8402 22.5652 21.6484C22.9356 21.0969 23.0674 20.6003 23.2271 19.5641C23.4328 18.2247 23.2763 17.2076 22.7051 15.0372ZM21.8362 19.3505C21.708 20.1828 21.6122 20.5429 21.3969 20.8633C20.8734 21.6426 19.8065 22.1468 18.7269 22.1486C17.2626 22.1509 16.0908 22.1509 13.4535 22.1504C11.3582 22.1481 9.26301 22.1491 7.16752 22.1537C5.75123 22.157 4.57285 21.3765 4.27858 20.2054C4.08434 19.4346 4.05615 18.4271 4.14401 17.1535C4.35856 14.0332 7.1919 10.6423 10.5409 9.08384C10.8814 8.81952 10.8814 8.81952 10.9479 8.47066C10.9291 8.25331 10.9291 8.25331 10.8898 8.16089C10.8311 8.04816 10.8311 8.04816 10.7986 8.00601C10.7732 7.97275 10.7484 7.94406 10.7179 7.91206C10.6813 7.87398 10.6344 7.82751 10.5734 7.76988C10.4843 7.68482 10.3827 7.59163 10.1885 7.4139L10.1857 7.41111C9.87289 7.12521 9.7401 7.00181 9.71903 6.97743C9.0736 6.24517 8.83746 5.80845 8.75113 5.10894C8.68537 4.58259 8.91922 4.36677 9.46233 4.25277C9.48162 4.24845 9.61391 4.26546 9.79799 4.3165C9.88635 4.34087 9.98156 4.37159 10.0895 4.40892C10.1839 4.44142 10.4696 4.54654 10.4838 4.55111C10.5447 4.57345 10.6064 4.59325 10.6691 4.61027C10.7207 4.62423 10.7689 4.63363 10.8255 4.63845C11.0223 4.65546 11.1955 4.62956 11.3897 4.44548C12.2459 3.63755 13.6195 3.64568 14.4711 4.46529C14.6255 4.61407 14.8246 4.70447 15.0546 4.6999C15.2021 4.69659 15.257 4.67831 15.3948 4.61966C16.2952 4.23804 16.6268 4.21697 16.9957 4.53613C17.271 4.77454 17.2882 4.82913 17.1887 5.38493C17.1257 5.568 16.7342 6.23831 16.545 6.48917C16.2664 6.85688 15.9644 7.2063 15.6409 7.53527C15.4987 7.67974 15.2382 7.92577 15.1747 7.9829L14.9942 8.2848L15.0026 8.7073L15.0668 8.84568C15.1818 8.9937 15.1818 8.9937 15.2227 9.02646C15.2763 9.06632 15.2763 9.06632 15.2979 9.08054C15.3265 9.09755 15.3265 9.09755 15.339 9.1039L15.3717 9.12142L15.4365 9.15341C15.7089 9.28367 15.9801 9.4162 16.2505 9.55052L16.3236 9.58734C16.6842 9.76761 16.9526 9.91259 16.9965 9.94535C19.7755 12.0596 20.7721 13.2225 21.3439 15.3954C21.8672 17.382 22.0028 18.2651 21.8362 19.3505Z" fill="#C1C1C1"/>
<path d="M15.8717 16.6283C15.5556 16.3122 15.0386 16.3122 14.7228 16.6283L13.8125 17.5386V13C13.8125 12.5531 13.4469 12.1875 13 12.1875C12.5531 12.1875 12.1875 12.5531 12.1875 13V17.5386L11.2775 16.6286C10.9614 16.3125 10.4444 16.3125 10.1286 16.6286C9.81246 16.9447 9.81246 17.4616 10.1286 17.7775L12.3932 20.0421C12.4033 20.0535 12.4137 20.0647 12.4246 20.0756C12.5828 20.2338 12.7913 20.3128 12.9997 20.3125H13.0008C13.2092 20.3128 13.4177 20.2335 13.5759 20.0756C13.5868 20.0647 13.5972 20.0535 13.6073 20.0421L15.8719 17.7775C16.1875 17.4614 16.1875 16.9444 15.8717 16.6283Z" fill="#C1C1C1"/>
</svg>
