<svg width="58" height="59" viewBox="0 0 58 59" fill="none" xmlns="http://www.w3.org/2000/svg">
<g filter="url(#filter0_d_1410_536)">
<rect x="4" y="0.666016" width="50" height="50" rx="25" fill="#C478FF" fill-opacity="0.9" shape-rendering="crispEdges"/>
<rect x="4.5" y="1.16602" width="49" height="49" rx="24.5" stroke="white" shape-rendering="crispEdges"/>
</g>
<path d="M16.1925 20.3926H41.8074V19.5131C41.8074 17.9173 40.5658 16.6207 39.0666 16.6207H18.9333C17.4341 16.6207 16.1925 17.9173 16.1925 19.5131V20.3925L16.1925 20.3926ZM41.8075 21.7651H16.1926V32.4864C16.1926 34.0826 17.4341 35.3794 18.9334 35.3794H30.9431C31.322 35.3794 31.6292 35.6866 31.6292 36.0656C31.6292 36.4447 31.322 36.752 30.9431 36.752H18.9334C16.6626 36.752 14.8203 34.8277 14.8203 32.4864V19.5131C14.8203 17.1722 16.6627 15.248 18.9333 15.248H39.0667C41.3373 15.248 43.1797 17.1722 43.1797 19.5131V29.394C43.1797 29.773 42.8725 30.0803 42.4936 30.0803C42.1146 30.0803 41.8075 29.773 41.8075 29.394V21.7651Z" fill="white"/>
<path d="M18.559 26.2344H26.9607C27.8434 26.2344 27.8443 24.8574 26.9607 24.8574H18.559C17.6763 24.8574 17.6749 26.2344 18.559 26.2344ZM31.5081 26.2344H34.3435C35.226 26.2344 35.2273 24.8574 34.3435 24.8574H31.5081C30.6256 24.8574 30.6242 26.2344 31.5081 26.2344Z" fill="white"/>
<path d="M25.0335 30.7031C25.2282 30.7031 25.3892 30.5409 25.3892 30.3445V30.1809C25.3892 29.9845 25.2282 29.8223 25.0335 29.8223H19.3732C19.1783 29.8223 19.0171 29.9846 19.0171 30.1809V30.3445C19.0171 30.5408 19.1783 30.7031 19.3732 30.7031H25.0335ZM25.0335 31.625H19.3732C18.6727 31.625 18.1016 31.0499 18.1016 30.3445V30.1809C18.1016 29.4755 18.6727 28.9004 19.3732 28.9004H25.0335C25.734 28.9004 26.3047 29.4755 26.3047 30.1809V30.3445C26.3047 31.0499 25.734 31.625 25.0335 31.625Z" fill="white"/>
<path d="M38.3058 33.7149V36.0884C38.3058 36.9741 36.9354 36.9722 36.9354 36.0884V33.7149H34.7595C33.8761 33.7149 33.878 32.341 34.7595 32.341H36.9354V30.2673C36.9354 29.3816 38.3058 29.3829 38.3058 30.2673V32.341H40.3207C41.2037 32.341 41.2023 33.7149 40.3207 33.7149H38.3058Z" fill="white"/>
<defs>
<filter id="filter0_d_1410_536" x="0" y="0.666016" width="58" height="58" filterUnits="userSpaceOnUse" color-interpolation-filters="sRGB">
<feFlood flood-opacity="0" result="BackgroundImageFix"/>
<feColorMatrix in="SourceAlpha" type="matrix" values="0 0 0 0 0 0 0 0 0 0 0 0 0 0 0 0 0 0 127 0" result="hardAlpha"/>
<feOffset dy="4"/>
<feGaussianBlur stdDeviation="2"/>
<feComposite in2="hardAlpha" operator="out"/>
<feColorMatrix type="matrix" values="0 0 0 0 0 0 0 0 0 0 0 0 0 0 0 0 0 0 0.1 0"/>
<feBlend mode="normal" in2="BackgroundImageFix" result="effect1_dropShadow_1410_536"/>
<feBlend mode="normal" in="SourceGraphic" in2="effect1_dropShadow_1410_536" result="shape"/>
</filter>
</defs>
</svg>
