<svg width="20" height="26" viewBox="0 0 20 26" fill="none" xmlns="http://www.w3.org/2000/svg">
<path d="M19.5331 8.4195C19.0379 3.71486 14.9523 0.0625773 10.1238 0.000674114C4.80015 -0.061229 0.405029 4.14819 0.405029 9.34805C0.405029 12.7527 2.26212 15.786 5.23348 17.4574L5.41918 19.3764C5.48109 19.7478 5.7906 19.9954 6.16202 19.9954H13.7761C14.1475 19.9954 14.457 19.6859 14.5189 19.3764L14.7047 17.4574C18.0474 15.6622 19.9045 12.1956 19.5331 8.4195ZM5.17157 9.16234C5.17157 9.59566 4.80015 9.90518 4.42873 9.90518C4.05732 9.90518 3.6859 9.59566 3.6859 9.16234C3.6859 8.91473 3.6859 8.72902 3.7478 8.48141C3.8097 8.04808 4.18112 7.80047 4.61444 7.80047C5.04777 7.86237 5.35728 8.23379 5.29538 8.60521C5.23348 8.85283 5.17157 8.97663 5.17157 9.16234ZM10 4.4577C8.20483 4.4577 6.59535 5.38625 5.7906 6.93383C5.6668 7.18144 5.41919 7.30525 5.10967 7.30525C4.98586 7.30525 4.86206 7.30525 4.73825 7.24334C4.36683 7.05763 4.24302 6.62431 4.42873 6.25289C5.54299 4.27199 7.6477 3.03393 10 3.03393C10.4333 3.03393 10.7429 3.34344 10.7429 3.77677C10.7429 4.21009 10.4333 4.4577 10 4.4577ZM5.7287 21.1716C5.6668 21.4192 5.6668 21.6049 5.6668 21.8525C5.6668 24.1429 7.5858 26 9.93812 26C12.2904 26 14.2094 24.1429 14.2094 21.8525C14.2094 21.6049 14.2094 21.3573 14.1475 21.1716H5.7287Z" fill="#FF616D"/>
</svg>
