<svg width="16" height="16" viewBox="0 0 16 16" fill="none" xmlns="http://www.w3.org/2000/svg">
<path d="M8.00001 4.23921C10.7911 4.23921 13.3334 6.87047 14.3039 7.99836C13.3327 9.12625 10.7911 11.7575 8.00001 11.7575C5.20897 11.7575 2.66658 9.12625 1.69618 7.99836C2.66432 6.87047 5.20368 4.23921 8.00001 4.23921ZM8.00001 3.11133C4.53634 3.11133 1.60171 6.31826 0.611655 7.53635C0.388705 7.80664 0.388705 8.19081 0.611655 8.4611C1.59944 9.67919 4.53407 12.8891 8.00001 12.8891C11.4659 12.8891 14.3984 9.68213 15.3884 8.46403C15.6113 8.19375 15.6113 7.80957 15.3884 7.53928C14.3961 6.31826 11.4614 3.11133 8.00001 3.11133ZM8.00001 6.87047C8.47302 6.85884 8.90614 7.12639 9.09546 7.54717C9.28476 7.96795 9.19251 8.45806 8.86216 8.78674C8.5318 9.11543 8.02917 9.21716 7.59093 9.04405C7.15269 8.87094 6.8662 8.45748 6.86636 7.99836C6.86254 7.70291 6.97982 7.41809 7.19242 7.20657C7.40503 6.99504 7.69553 6.87414 8.00001 6.87047ZM8.00001 5.74331C7.07452 5.74963 6.24588 6.30115 5.90655 7.13668C5.55534 7.97827 5.74785 8.94163 6.39779 9.59485C7.03748 10.2381 8.01953 10.4323 8.86763 10.0833C9.72234 9.72338 10.2731 8.90316 10.2673 7.99909C10.275 7.4082 10.0404 6.83856 9.61518 6.4155C9.18997 5.99246 8.60896 5.75065 8.00001 5.74331Z" fill="#75360B" fill-opacity="0.7"/>
</svg>
