<svg width="16" height="16" viewBox="0 0 16 16" fill="none" xmlns="http://www.w3.org/2000/svg">
<path d="M7.99998 2V14C5.66665 14 3.93281 10.9464 3.93281 10.9464H1.99998C1.63179 10.9464 1.33331 10.6479 1.33331 10.2797V5.67027C1.33331 5.30207 1.63179 5.0036 1.99998 5.0036H3.93281C3.93281 5.0036 5.66665 2 7.99998 2Z" stroke="#9B9D9C" stroke-linejoin="round"/>
<path d="M10.6667 5C10.8744 5.1855 11.0627 5.39323 11.2281 5.6196C11.7129 6.28347 12 7.10743 12 8C12 8.88483 11.7179 9.70223 11.2406 10.3631C11.0723 10.5962 10.8797 10.8098 10.6667 11" stroke="#B89B69" stroke-linecap="round" stroke-linejoin="round"/>
<path d="M11.412 13.7284C13.3612 12.5649 14.6667 10.4348 14.6667 7.99982C14.6667 5.60265 13.4015 3.50099 11.5024 2.32617" stroke="#B89B69" stroke-linecap="round"/>
</svg>
