<svg width="48" height="48" viewBox="0 0 48 48" fill="none" xmlns="http://www.w3.org/2000/svg">
<rect x="0.5" y="0.5" width="47" height="47" rx="23.5" fill="#8CD8E7"/>
<rect x="0.5" y="0.5" width="47" height="47" rx="23.5" fill="url(#paint0_radial_590_5716)"/>
<rect x="0.5" y="0.5" width="47" height="47" rx="23.5" fill="url(#paint1_linear_590_5716)" fill-opacity="0.6"/>
<rect x="0.5" y="0.5" width="47" height="47" rx="23.5" fill="url(#paint2_radial_590_5716)" fill-opacity="0.7"/>
<rect x="0.5" y="0.5" width="47" height="47" rx="23.5" stroke="url(#paint3_linear_590_5716)"/>
<g filter="url(#filter0_d_590_5716)">
<path d="M24.0667 12C26.6308 12 28.6469 12 30.2186 12.2107C31.8308 12.4268 33.1093 12.8798 34.1139 13.8861C35.1184 14.8907 35.5715 16.1692 35.7893 17.7814C36 19.3531 36 21.3675 36 23.9333V24.0667C36 26.6308 36 28.6469 35.7893 30.2186C35.5732 31.8308 35.1202 33.1093 34.1139 34.1139C33.1093 35.1184 31.8308 35.5715 30.2186 35.7893C28.6469 36 26.6325 36 24.0667 36H23.9333C21.3692 36 19.3531 36 17.7814 35.7893C16.1692 35.5732 14.8907 35.1202 13.8861 34.1139C12.8798 33.1093 12.4285 31.8308 12.2107 30.2186C12 28.6469 12 26.6325 12 24.0667V23.9333C12 21.3692 12 19.3531 12.2107 17.7814C12.4268 16.1692 12.8798 14.8907 13.8861 13.8861C14.8907 12.8798 16.1692 12.4285 17.7814 12.2107C19.3531 12 21.3675 12 23.9333 12H24.0667ZM24 19.9028C24.2099 19.9032 24.4158 19.9599 24.5963 20.0671C24.7767 20.1743 24.9251 20.3281 25.0258 20.5122C25.1265 20.6964 25.1758 20.9042 25.1687 21.114C25.1616 21.3238 25.0982 21.5278 24.9852 21.7047C24.8208 21.9507 24.6437 22.1881 24.4549 22.4159L24.3495 22.5459C24.1519 22.7863 23.9604 23.0316 23.7752 23.2817C23.3362 23.8858 22.8286 24.7235 22.8286 25.7562C22.8286 26.0669 22.952 26.3648 23.1717 26.5845C23.3914 26.8041 23.6893 26.9276 24 26.9276C24.3107 26.9276 24.6086 26.8041 24.8283 26.5845C25.048 26.3648 25.1714 26.0669 25.1714 25.7562C25.1714 25.4945 25.2996 25.1679 25.6701 24.6586C25.8282 24.4455 25.9915 24.2365 26.1601 24.0316L26.2795 23.8841C26.4973 23.6119 26.7432 23.301 26.9557 22.9709C27.2505 22.5116 27.4343 21.9899 27.4924 21.4472C27.5505 20.9046 27.4814 20.3558 27.2904 19.8445C27.0995 19.3332 26.792 18.8735 26.3924 18.5017C25.9928 18.1299 25.5121 17.8564 24.9883 17.7029C24.4646 17.5493 23.9123 17.5199 23.3752 17.6169C22.8381 17.714 22.3311 17.9349 21.8943 18.2621C21.4574 18.5894 21.1029 19.0139 20.8587 19.502C20.6145 19.9901 20.4875 20.5284 20.4876 21.0742C20.4815 21.2317 20.5073 21.3889 20.5634 21.5362C20.6194 21.6835 20.7047 21.818 20.814 21.9316C20.9233 22.0452 21.0544 22.1356 21.1994 22.1974C21.3445 22.2591 21.5005 22.2909 21.6581 22.2909C21.8158 22.2909 21.9718 22.2591 22.1168 22.1974C22.2619 22.1356 22.393 22.0452 22.5023 21.9316C22.6116 21.818 22.6968 21.6835 22.7529 21.5362C22.809 21.3889 22.8347 21.2317 22.8286 21.0742C22.8286 20.4279 23.3537 19.9046 24 19.9046V19.9028ZM23.9947 28.0972C23.8412 28.0974 23.6893 28.1279 23.5475 28.1869C23.4058 28.2459 23.2771 28.3323 23.1688 28.4411C23.0605 28.5499 22.9747 28.679 22.9163 28.821C22.858 28.9629 22.8282 29.115 22.8286 29.2685C22.8286 29.9148 23.3502 30.4399 23.9947 30.4399H24.0053C24.1588 30.4397 24.3107 30.4092 24.4525 30.3502C24.5942 30.2912 24.7229 30.2048 24.8312 30.096C24.9395 29.9872 25.0253 29.8581 25.0837 29.7161C25.142 29.5742 25.1718 29.4221 25.1714 29.2685C25.1718 29.115 25.142 28.9629 25.0837 28.821C25.0253 28.679 24.9395 28.5499 24.8312 28.4411C24.7229 28.3323 24.5942 28.2459 24.4525 28.1869C24.3107 28.1279 24.1588 28.0974 24.0053 28.0972H23.9947Z" fill="url(#paint4_linear_590_5716)"/>
</g>
<defs>
<filter id="filter0_d_590_5716" x="10" y="11" width="28" height="28" filterUnits="userSpaceOnUse" color-interpolation-filters="sRGB">
<feFlood flood-opacity="0" result="BackgroundImageFix"/>
<feColorMatrix in="SourceAlpha" type="matrix" values="0 0 0 0 0 0 0 0 0 0 0 0 0 0 0 0 0 0 127 0" result="hardAlpha"/>
<feOffset dy="1"/>
<feGaussianBlur stdDeviation="1"/>
<feComposite in2="hardAlpha" operator="out"/>
<feColorMatrix type="matrix" values="0 0 0 0 0.407195 0 0 0 0 0.792523 0 0 0 0 0.866189 0 0 0 0.8 0"/>
<feBlend mode="normal" in2="BackgroundImageFix" result="effect1_dropShadow_590_5716"/>
<feBlend mode="normal" in="SourceGraphic" in2="effect1_dropShadow_590_5716" result="shape"/>
</filter>
<radialGradient id="paint0_radial_590_5716" cx="0" cy="0" r="1" gradientUnits="userSpaceOnUse" gradientTransform="translate(9.33334 4.88889) rotate(50.1022) scale(35.3382)">
<stop stop-color="#D8FFF8"/>
<stop offset="1" stop-color="#D8FFF8" stop-opacity="0"/>
</radialGradient>
<linearGradient id="paint1_linear_590_5716" x1="24" y1="0" x2="24" y2="48" gradientUnits="userSpaceOnUse">
<stop stop-color="#CCFCFF"/>
<stop offset="1" stop-color="#3BD6F4"/>
</linearGradient>
<radialGradient id="paint2_radial_590_5716" cx="0" cy="0" r="1" gradientUnits="userSpaceOnUse" gradientTransform="translate(9.33334 4.88889) rotate(50.1022) scale(35.3382)">
<stop stop-color="#D0FF93"/>
<stop offset="1" stop-color="#D8FFF8" stop-opacity="0"/>
</radialGradient>
<linearGradient id="paint3_linear_590_5716" x1="8.5" y1="5" x2="38.5" y2="43.5" gradientUnits="userSpaceOnUse">
<stop stop-color="white" stop-opacity="0.85"/>
<stop offset="1" stop-color="white" stop-opacity="0"/>
</linearGradient>
<linearGradient id="paint4_linear_590_5716" x1="24" y1="12" x2="24" y2="36" gradientUnits="userSpaceOnUse">
<stop stop-color="white"/>
<stop offset="1" stop-color="white"/>
</linearGradient>
</defs>
</svg>
