<svg width="26" height="26" viewBox="0 0 26 26" fill="none" xmlns="http://www.w3.org/2000/svg">
<path d="M2.821 2.70478V23.2968C2.821 24.0638 3.458 24.7008 4.225 24.7008H16.315C20.098 24.7008 23.179 21.6068 23.179 17.8368V2.70478C23.179 1.93778 22.542 1.30078 21.775 1.30078H4.225C3.458 1.30078 2.821 1.93778 2.821 2.70478ZM14.599 16.9788H8.411C8.047 16.9788 7.748 16.6798 7.735 16.3288C7.722 15.8218 7.956 15.5748 8.359 15.5748H14.495C14.885 15.5748 15.223 15.8738 15.236 16.2638C15.236 16.6668 14.924 16.9788 14.599 16.9788ZM17.407 11.9868H8.411C8.047 11.9868 7.748 11.6878 7.735 11.3368C7.722 10.8298 7.956 10.5828 8.359 10.5828H17.329C17.706 10.5828 18.005 10.8818 18.018 11.2458C18.057 11.7398 17.732 11.9868 17.407 11.9868ZM17.797 7.69678H8.411C8.047 7.69678 7.748 7.41078 7.735 7.04678C7.722 6.53978 7.956 6.29278 8.359 6.29278H17.706C18.096 6.29278 18.421 6.60478 18.421 6.99478C18.434 7.38478 18.2 7.69678 17.797 7.69678Z" fill="#FFB66D"/>
</svg>
