<svg width="48" height="48" viewBox="0 0 48 48" fill="none" xmlns="http://www.w3.org/2000/svg">
<rect x="0.5" y="0.5" width="47" height="47" rx="23.5" fill="#8CD8E7"/>
<rect x="0.5" y="0.5" width="47" height="47" rx="23.5" fill="url(#paint0_radial_590_5706)"/>
<rect x="0.5" y="0.5" width="47" height="47" rx="23.5" fill="url(#paint1_linear_590_5706)" fill-opacity="0.6"/>
<rect x="0.5" y="0.5" width="47" height="47" rx="23.5" fill="url(#paint2_radial_590_5706)" fill-opacity="0.7"/>
<rect x="0.5" y="0.5" width="47" height="47" rx="23.5" stroke="url(#paint3_linear_590_5706)"/>
<g filter="url(#filter0_d_590_5706)">
<path d="M34.896 32.7121C34.896 33.0161 34.844 33.3001 34.74 33.5641C34.636 33.8281 34.488 34.0601 34.296 34.2601C34.104 34.4601 33.88 34.6161 33.624 34.7281C33.368 34.8401 33.088 34.8961 32.784 34.8961H15.36C15.056 34.8961 14.768 34.8401 14.496 34.7281C14.224 34.6161 13.984 34.4601 13.776 34.2601C13.568 34.0601 13.404 33.8281 13.284 33.5641C13.164 33.3001 13.104 33.0161 13.104 32.7121V20.7361C13.104 20.1281 13.316 19.6121 13.74 19.1881C14.164 18.7641 14.68 18.5521 15.288 18.5521H32.712C33.32 18.5521 33.836 18.7641 34.26 19.1881C34.684 19.6121 34.896 20.1281 34.896 20.7361V24.0001H29.448C28.84 24.0001 28.324 24.2081 27.9 24.6241C27.476 25.0401 27.264 25.5521 27.264 26.1601C27.28 26.5761 27.368 26.9441 27.528 27.2641C27.656 27.5361 27.868 27.7841 28.164 28.0081C28.46 28.2321 28.888 28.3441 29.448 28.3441H34.896V32.7121ZM31.632 17.4481H20.736C21.6 17.0001 22.416 16.5681 23.184 16.1521C23.856 15.8001 24.52 15.4481 25.176 15.0961C25.832 14.7441 26.344 14.4721 26.712 14.2801C27.272 13.9761 27.772 13.8361 28.212 13.8601C28.652 13.8841 29.024 13.9601 29.328 14.0881C29.68 14.2641 29.984 14.4961 30.24 14.7841L31.632 17.4481ZM28.368 26.1601C28.368 25.8561 28.472 25.6001 28.68 25.3921C28.888 25.1841 29.144 25.0801 29.448 25.0801C29.752 25.0801 30.008 25.1841 30.216 25.3921C30.424 25.6001 30.528 25.8561 30.528 26.1601C30.528 26.4641 30.424 26.7241 30.216 26.9401C30.008 27.1561 29.752 27.2641 29.448 27.2641C29.144 27.2641 28.888 27.1561 28.68 26.9401C28.472 26.7241 28.368 26.4641 28.368 26.1601Z" fill="white"/>
</g>
<defs>
<filter id="filter0_d_590_5706" x="11.104" y="12.8574" width="25.792" height="25.0386" filterUnits="userSpaceOnUse" color-interpolation-filters="sRGB">
<feFlood flood-opacity="0" result="BackgroundImageFix"/>
<feColorMatrix in="SourceAlpha" type="matrix" values="0 0 0 0 0 0 0 0 0 0 0 0 0 0 0 0 0 0 127 0" result="hardAlpha"/>
<feOffset dy="1"/>
<feGaussianBlur stdDeviation="1"/>
<feComposite in2="hardAlpha" operator="out"/>
<feColorMatrix type="matrix" values="0 0 0 0 0.407195 0 0 0 0 0.792523 0 0 0 0 0.866189 0 0 0 0.8 0"/>
<feBlend mode="normal" in2="BackgroundImageFix" result="effect1_dropShadow_590_5706"/>
<feBlend mode="normal" in="SourceGraphic" in2="effect1_dropShadow_590_5706" result="shape"/>
</filter>
<radialGradient id="paint0_radial_590_5706" cx="0" cy="0" r="1" gradientUnits="userSpaceOnUse" gradientTransform="translate(9.33334 4.88889) rotate(50.1022) scale(35.3382)">
<stop stop-color="#D8FFF8"/>
<stop offset="1" stop-color="#D8FFF8" stop-opacity="0"/>
</radialGradient>
<linearGradient id="paint1_linear_590_5706" x1="24" y1="0" x2="24" y2="48" gradientUnits="userSpaceOnUse">
<stop stop-color="#CCFCFF"/>
<stop offset="1" stop-color="#3BD6F4"/>
</linearGradient>
<radialGradient id="paint2_radial_590_5706" cx="0" cy="0" r="1" gradientUnits="userSpaceOnUse" gradientTransform="translate(9.33334 4.88889) rotate(50.1022) scale(35.3382)">
<stop stop-color="#D0FF93"/>
<stop offset="1" stop-color="#D8FFF8" stop-opacity="0"/>
</radialGradient>
<linearGradient id="paint3_linear_590_5706" x1="8.5" y1="5" x2="38.5" y2="43.5" gradientUnits="userSpaceOnUse">
<stop stop-color="white" stop-opacity="0.85"/>
<stop offset="1" stop-color="white" stop-opacity="0"/>
</linearGradient>
</defs>
</svg>
