<svg width="48" height="48" viewBox="0 0 48 48" fill="none" xmlns="http://www.w3.org/2000/svg">
<rect x="0.5" y="0.5" width="47" height="47" rx="23.5" fill="#8CD8E7"/>
<rect x="0.5" y="0.5" width="47" height="47" rx="23.5" fill="url(#paint0_linear_590_5696)" fill-opacity="0.6"/>
<rect x="0.5" y="0.5" width="47" height="47" rx="23.5" fill="url(#paint1_radial_590_5696)" fill-opacity="0.7"/>
<rect x="0.5" y="0.5" width="47" height="47" rx="23.5" stroke="url(#paint2_linear_590_5696)"/>
<g clip-path="url(#clip0_590_5696)">
<g filter="url(#filter0_d_590_5696)">
<path d="M16 15H32H16Z" fill="white"/>
<path d="M16 15H32" stroke="white" stroke-width="2" stroke-linecap="round" stroke-linejoin="round"/>
</g>
<g filter="url(#filter1_d_590_5696)">
<path d="M14 19C14 18.4477 14.4477 18 15 18H33C33.5523 18 34 18.4477 34 19V32C34 32.5523 33.5523 33 33 33H15C14.4477 33 14 32.5523 14 32V19Z" fill="white"/>
<path d="M14 19C14 18.4477 14.4477 18 15 18H33C33.5523 18 34 18.4477 34 19V32C34 32.5523 33.5523 33 33 33H15C14.4477 33 14 32.5523 14 32V19Z" stroke="white" stroke-width="2" stroke-linejoin="round"/>
</g>
<path d="M21.5 21.5L24 24L26.5 21.5" stroke="#8CD8E7" stroke-width="2" stroke-linecap="round" stroke-linejoin="round"/>
<path d="M21 24.5H27" stroke="#8CD8E7" stroke-width="2" stroke-linecap="round" stroke-linejoin="round"/>
<path d="M21 27.5H27" stroke="#8CD8E7" stroke-width="2" stroke-linecap="round" stroke-linejoin="round"/>
<path d="M24 24.5V29.5" stroke="#8CD8E7" stroke-width="2" stroke-linecap="round" stroke-linejoin="round"/>
</g>
<defs>
<filter id="filter0_d_590_5696" x="13" y="13" width="22" height="6" filterUnits="userSpaceOnUse" color-interpolation-filters="sRGB">
<feFlood flood-opacity="0" result="BackgroundImageFix"/>
<feColorMatrix in="SourceAlpha" type="matrix" values="0 0 0 0 0 0 0 0 0 0 0 0 0 0 0 0 0 0 127 0" result="hardAlpha"/>
<feOffset dy="1"/>
<feGaussianBlur stdDeviation="1"/>
<feComposite in2="hardAlpha" operator="out"/>
<feColorMatrix type="matrix" values="0 0 0 0 0.407195 0 0 0 0 0.792523 0 0 0 0 0.866189 0 0 0 0.8 0"/>
<feBlend mode="normal" in2="BackgroundImageFix" result="effect1_dropShadow_590_5696"/>
<feBlend mode="normal" in="SourceGraphic" in2="effect1_dropShadow_590_5696" result="shape"/>
</filter>
<filter id="filter1_d_590_5696" x="11" y="16" width="26" height="21" filterUnits="userSpaceOnUse" color-interpolation-filters="sRGB">
<feFlood flood-opacity="0" result="BackgroundImageFix"/>
<feColorMatrix in="SourceAlpha" type="matrix" values="0 0 0 0 0 0 0 0 0 0 0 0 0 0 0 0 0 0 127 0" result="hardAlpha"/>
<feOffset dy="1"/>
<feGaussianBlur stdDeviation="1"/>
<feComposite in2="hardAlpha" operator="out"/>
<feColorMatrix type="matrix" values="0 0 0 0 0.407195 0 0 0 0 0.792523 0 0 0 0 0.866189 0 0 0 0.8 0"/>
<feBlend mode="normal" in2="BackgroundImageFix" result="effect1_dropShadow_590_5696"/>
<feBlend mode="normal" in="SourceGraphic" in2="effect1_dropShadow_590_5696" result="shape"/>
</filter>
<linearGradient id="paint0_linear_590_5696" x1="24" y1="0" x2="24" y2="48" gradientUnits="userSpaceOnUse">
<stop stop-color="#CCFCFF"/>
<stop offset="1" stop-color="#3BD6F4"/>
</linearGradient>
<radialGradient id="paint1_radial_590_5696" cx="0" cy="0" r="1" gradientUnits="userSpaceOnUse" gradientTransform="translate(9.33334 4.88889) rotate(50.1022) scale(35.3382)">
<stop stop-color="#D0FF93"/>
<stop offset="1" stop-color="#D8FFF8" stop-opacity="0"/>
</radialGradient>
<linearGradient id="paint2_linear_590_5696" x1="8.5" y1="5" x2="38.5" y2="43.5" gradientUnits="userSpaceOnUse">
<stop stop-color="white" stop-opacity="0.85"/>
<stop offset="1" stop-color="white" stop-opacity="0"/>
</linearGradient>
<clipPath id="clip0_590_5696">
<rect width="24" height="24" fill="white" transform="translate(12 12)"/>
</clipPath>
</defs>
</svg>
