<svg width="16" height="16" viewBox="0 0 16 16" fill="none" xmlns="http://www.w3.org/2000/svg">
<path d="M8.00438 8.66501C5.58439 8.71933 3.22151 7.92622 1.32438 6.42283C1.18257 6.30521 1.116 6.11975 1.15062 5.9388C1.18524 5.75784 1.31558 5.61006 1.49079 5.5531C1.666 5.49613 1.85832 5.53901 1.99274 5.66501C5.08583 8.3261 10.9382 8.3261 14.0167 5.66501C14.1522 5.54562 14.3411 5.50759 14.5123 5.56524C14.6834 5.62289 14.8108 5.76747 14.8465 5.94451C14.8821 6.12155 14.8206 6.30416 14.6851 6.42356C12.7876 7.92668 10.4245 8.71952 8.00438 8.66501ZM6.17383 10.865C6.14386 10.8683 6.11362 10.8683 6.08365 10.865C5.94547 10.846 5.82154 10.77 5.74183 10.6556C5.66345 10.5407 5.63706 10.3981 5.6691 10.2628L6.00292 8.29919C6.0619 8.03396 6.31877 7.86179 6.58652 7.90804C6.85426 7.95428 7.03851 8.20263 7.00511 8.47228L6.67129 10.4359C6.63588 10.6819 6.42528 10.8647 6.17674 10.865H6.17383ZM13.6822 9.86646C13.5488 9.86635 13.421 9.81232 13.328 9.71665L11.6786 8.05628C11.5397 7.93216 11.4815 7.74115 11.5274 7.56068C11.5733 7.38021 11.7157 7.24023 11.897 7.19751C12.0782 7.15479 12.2682 7.2164 12.3898 7.35737L14.0371 9.02065C14.1308 9.11411 14.1835 9.24102 14.1835 9.37337C14.1835 9.50572 14.1308 9.63264 14.0371 9.7261C13.9408 9.81847 13.8128 9.87051 13.6793 9.87156L13.6822 9.86646ZM2.32583 9.86646C2.20071 9.8596 2.08223 9.80798 1.99201 9.72101C1.89813 9.62764 1.84534 9.50069 1.84534 9.36828C1.84534 9.23587 1.89813 9.10892 1.99201 9.01556L3.63856 7.35228C3.75279 7.1866 3.95517 7.10547 4.15221 7.14638C4.34925 7.18729 4.50262 7.34226 4.54146 7.53972C4.5803 7.73718 4.49707 7.9387 4.3302 8.05119L2.68365 9.71447C2.58971 9.81098 2.46051 9.86507 2.32583 9.86428V9.86646ZM9.86038 10.865C9.61861 10.8642 9.41199 10.6907 9.36947 10.4526L9.03565 8.48901C8.97375 8.30433 9.02448 8.10052 9.16572 7.96641C9.30696 7.83229 9.51312 7.79216 9.69435 7.86352C9.87558 7.93488 9.99904 8.10478 10.0109 8.29919L10.3447 10.2628C10.3692 10.3932 10.3401 10.528 10.264 10.6366C10.1879 10.7457 10.0714 10.8198 9.94038 10.8425C9.91454 10.8527 9.88774 10.8602 9.86038 10.865Z" fill="#75360B" fill-opacity="0.7"/>
</svg>
