<svg width="26" height="26" viewBox="0 0 26 26" fill="none" xmlns="http://www.w3.org/2000/svg">
<path d="M9.75684 2.78331H15.0803C15.6965 2.78331 16.2165 2.18574 16.2165 1.44756C16.2165 0.711192 15.6964 0.115234 15.0466 0.115234H9.75684C9.10786 0.115234 8.58855 0.711192 8.58855 1.44756C8.58855 2.18574 9.10874 2.78331 9.75684 2.78331Z" fill="#C2A2F8"/>
<path d="M20.9973 0H19.432C19.432 0 18.3367 0.318941 18.3367 0.479326C18.3367 1.69421 17.5281 2.88985 16.564 2.88985H8.25634C7.24397 2.88985 6.43363 1.69421 6.43363 0.479326C6.43451 0.318941 5.45054 0 5.45054 0H3.74108C1.54081 0 1 1.35791 1 3.31722V22.7193C1 24.8225 1.77402 26 3.90693 26H20.8315C22.9634 26 24 25.0777 24 22.7193V3.31722C24 1.35791 23.0291 0 20.9973 0ZM18.2192 19.1559H6.4579C6.02504 19.1559 5.59228 18.5782 5.59228 18.1043C5.59228 17.634 5.95855 17.2294 6.39216 17.2294H18.1189C18.5509 17.2294 18.9172 17.5975 18.9517 18.1043C18.9517 18.5782 18.6511 19.1559 18.2192 19.1559ZM18.2658 14.0198H6.50625C6.07253 14.0198 5.79695 13.5113 5.79695 13.0391C5.79695 12.5662 6.16323 12.0932 6.59609 12.0932H18.3228C18.7565 12.0932 19.1227 12.5315 19.1555 13.0391C19.1555 13.5113 18.6994 14.0198 18.2658 14.0198ZM18.2658 8.74324H6.50625C6.07253 8.74324 5.79695 8.23649 5.79695 7.76259C5.79695 7.29058 6.16323 6.81761 6.59609 6.81761H18.3228C18.7565 6.81761 19.1227 7.25598 19.1555 7.76259C19.1555 8.23649 18.6994 8.74324 18.2658 8.74324Z" fill="#C2A2F8"/>
</svg>
