<svg width="26" height="26" viewBox="0 0 26 26" fill="none" xmlns="http://www.w3.org/2000/svg">
<path d="M24.1427 0H1.85731C0.831531 0 0 0.81696 0 1.82462V24.1754C0 24.6137 0.157411 25.0157 0.419546 25.3303L1.85731 23.035L3.71402 26L5.57133 23.035L7.42862 26L9.28533 23.035L11.1426 26L13 23.035L14.8573 26L16.714 23.035L18.5713 26L20.4286 23.035L22.2859 26L24.1427 23.035L25.5804 25.3303C25.8426 25.0157 26 24.6136 26 24.1754V1.82462C26 0.81696 25.1684 0 24.1427 0ZM9.92644 16.4074C9.35071 16.9933 8.51157 17.39 7.41018 17.597V19.4013C7.14995 19.4635 6.88333 19.4946 6.61166 19.4946C6.3387 19.4946 6.06638 19.4635 5.79413 19.4013V17.7528H5.64558C5.23677 17.7528 4.87179 17.7424 4.55001 17.7218C4.22755 17.7008 3.92162 17.6672 3.63083 17.6205C3.33947 17.5738 3.05195 17.5145 2.76692 17.4415C2.48187 17.3691 2.18485 17.2809 1.87569 17.1775C1.9125 16.8766 1.98047 16.5735 2.08008 16.2675C2.17915 15.9619 2.29657 15.6429 2.43299 15.3109C2.95288 15.4874 3.44164 15.6093 3.89998 15.6765C4.35764 15.7442 4.84703 15.7775 5.36694 15.7775C6.14709 15.7775 6.75072 15.6663 7.17793 15.4432C7.60516 15.2204 7.81839 14.8599 7.81839 14.3622C7.81839 14.1135 7.75937 13.9087 7.6419 13.7478C7.52448 13.5872 7.37595 13.4551 7.19625 13.3514C7.01663 13.2479 6.81545 13.1597 6.59265 13.087C6.36983 13.0147 6.15335 12.9369 5.94262 12.8537L4.95876 12.496C4.54996 12.3507 4.17862 12.198 3.84408 12.0371C3.51018 11.8765 3.22205 11.6848 2.98085 11.4617C2.739 11.2389 2.55362 10.9771 2.4235 10.6762C2.29341 10.3759 2.2286 10.0075 2.2286 9.57201C2.2286 8.63891 2.54413 7.90293 3.17567 7.36364C3.80727 6.82438 4.68005 6.4978 5.7941 6.3839V4.73509C6.05431 4.67286 6.3203 4.64181 6.59263 4.64181C6.85286 4.64181 7.12519 4.67286 7.41016 4.73509V6.33689C7.90465 6.36799 8.382 6.42798 8.83966 6.51589C9.29797 6.60414 9.78037 6.72093 10.2882 6.86599C10.2139 7.46742 10.0159 8.05838 9.69405 8.63888C9.50869 8.57666 9.31953 8.5145 9.12781 8.4523C8.93547 8.39005 8.73105 8.33837 8.51462 8.29674C8.29816 8.25516 8.05378 8.22153 7.78147 8.19548C7.50852 8.16983 7.19941 8.1568 6.85283 8.1568C6.64206 8.1568 6.4288 8.16983 6.21169 8.19548C5.99523 8.22153 5.80038 8.27609 5.62707 8.35897C5.45316 8.44208 5.3116 8.55861 5.19986 8.70873C5.08815 8.85918 5.03293 9.05371 5.03293 9.29207C5.03293 9.49967 5.07608 9.6758 5.16242 9.82083C5.24937 9.96617 5.36684 10.0877 5.51536 10.1864C5.66388 10.2852 5.83148 10.3705 6.01679 10.4429C6.2028 10.5156 6.38813 10.5829 6.57414 10.6451L7.68812 11.0342C8.1591 11.1999 8.58568 11.3662 8.9697 11.5319C9.35368 11.6975 9.6781 11.8972 9.94466 12.1305C10.2106 12.3637 10.4182 12.649 10.5667 12.9861C10.7153 13.3232 10.7895 13.7456 10.7895 14.2534C10.7897 15.1036 10.5022 15.8218 9.92644 16.4074ZM23.214 20.5264H17.6427C17.1298 20.5264 16.714 20.1179 16.714 19.6139C16.714 19.1103 17.1298 18.7018 17.6427 18.7018H23.214C23.7269 18.7018 24.1427 19.1103 24.1427 19.6139C24.1427 20.1179 23.7268 20.5264 23.214 20.5264ZM23.214 15.965H14.8573C14.3444 15.965 13.9286 15.5565 13.9286 15.0529C13.9286 14.5488 14.3444 14.1404 14.8573 14.1404H23.214C23.7269 14.1404 24.1427 14.5488 24.1427 15.0529C24.1427 15.5565 23.7268 15.965 23.214 15.965ZM23.214 11.4036H14.8573C14.3444 11.4036 13.9286 10.9951 13.9286 10.4914C13.9286 9.98744 14.3444 9.57897 14.8573 9.57897H23.214C23.7269 9.57897 24.1427 9.98744 24.1427 10.4914C24.1427 10.9951 23.7268 11.4036 23.214 11.4036ZM23.214 6.84211H14.8573C14.3444 6.84211 13.9286 6.43364 13.9286 5.92999C13.9286 5.426 14.3444 5.01751 14.8573 5.01751H23.214C23.7269 5.01751 24.1427 5.426 24.1427 5.92999C24.1427 6.43364 23.7268 6.84211 23.214 6.84211Z" fill="#86A2F8"/>
</svg>
