<svg width="20" height="20" viewBox="0 0 20 20" fill="none" xmlns="http://www.w3.org/2000/svg">
<path d="M9.93997 19.1815C9.7473 19.1815 9.55493 19.1078 9.40837 18.9613L7.15276 16.7056C6.85877 16.4116 6.85877 15.9364 7.15276 15.6425C7.44675 15.3485 7.92196 15.3485 8.21595 15.6425L9.93997 17.3665L11.664 15.6425C11.8047 15.5012 11.9956 15.4222 12.1956 15.4222H17.4587C17.8737 15.4222 18.2105 15.0853 18.2105 14.6703V2.64038C18.2105 2.22597 17.8737 1.88851 17.4587 1.88851H2.42126C2.00685 1.88851 1.66939 2.22626 1.66939 2.64038V14.6703C1.66939 15.0853 2.00714 15.4222 2.42126 15.4222H4.67687C5.09187 15.4222 5.42874 15.7582 5.42874 16.174C5.42874 16.5899 5.09187 16.9259 4.67687 16.9259H2.42126C1.17774 16.9259 0.165649 15.9138 0.165649 14.6703V2.64038C0.165649 1.39685 1.17774 0.384766 2.42126 0.384766H17.4587C18.7022 0.384766 19.7143 1.39685 19.7143 2.64038V14.6703C19.7143 15.9138 18.7022 16.9259 17.4587 16.9259H12.5069L10.4716 18.9613C10.4018 19.0312 10.3189 19.0866 10.2277 19.1244C10.1365 19.1622 10.0387 19.1816 9.93997 19.1815Z" fill="white"/>
<path d="M5.80469 9.40698C5.18292 9.40698 4.67688 8.90093 4.67688 8.27917C4.67688 7.65741 5.18292 7.15137 5.80469 7.15137C6.42645 7.15137 6.93249 7.65741 6.93249 8.27917C6.93249 8.90093 6.42645 9.40698 5.80469 9.40698ZM10.3159 9.40698C9.69415 9.40698 9.1881 8.90093 9.1881 8.27917C9.1881 7.65741 9.69415 7.15137 10.3159 7.15137C10.9377 7.15137 11.4437 7.65741 11.4437 8.27917C11.4437 8.90093 10.9377 9.40698 10.3159 9.40698ZM14.8271 9.40698C14.2054 9.40698 13.6993 8.90093 13.6993 8.27917C13.6993 7.65741 14.2054 7.15137 14.8271 7.15137C15.4489 7.15137 15.9549 7.65741 15.9549 8.27917C15.9549 8.90093 15.4489 9.40698 14.8271 9.40698Z" fill="white"/>
</svg>
