<svg width="20" height="20" viewBox="0 0 20 20" fill="none" xmlns="http://www.w3.org/2000/svg">
<path d="M2 4C2 2.34315 3.34315 1 5 1H12.7574C13.553 1 14.3161 1.31607 14.8787 1.87868L17.1213 4.12132C17.6839 4.68393 18 5.44699 18 6.24264V16C18 17.6569 16.6569 19 15 19H5C3.34315 19 2 17.6569 2 16V4Z" fill="url(#paint0_linear_590_5568)"/>
<path d="M2 4C2 2.34315 3.34315 1 5 1H12.7574C13.553 1 14.3161 1.31607 14.8787 1.87868L17.1213 4.12132C17.6839 4.68393 18 5.44699 18 6.24264V16C18 17.6569 16.6569 19 15 19H5C3.34315 19 2 17.6569 2 16V4Z" fill="url(#paint1_linear_590_5568)" fill-opacity="0.7"/>
<path d="M7 10H13" stroke="white" stroke-width="1.66667" stroke-linecap="round" stroke-linejoin="round"/>
<path d="M7 6H13" stroke="white" stroke-width="1.66667" stroke-linecap="round" stroke-linejoin="round"/>
<path d="M7 14H9.91667" stroke="white" stroke-width="1.66667" stroke-linecap="round" stroke-linejoin="round"/>
<defs>
<linearGradient id="paint0_linear_590_5568" x1="10" y1="1" x2="10" y2="19" gradientUnits="userSpaceOnUse">
<stop stop-color="#A2E0EC"/>
<stop offset="1" stop-color="#6BBBCA"/>
</linearGradient>
<linearGradient id="paint1_linear_590_5568" x1="10" y1="1" x2="10" y2="19" gradientUnits="userSpaceOnUse">
<stop stop-color="#95EFFF"/>
<stop offset="1" stop-color="#51D0F8"/>
</linearGradient>
</defs>
</svg>
