<svg width="26" height="24" viewBox="0 0 26 24" fill="none" xmlns="http://www.w3.org/2000/svg">
<path d="M2.36364 0H23.6364C24.2632 0 24.8644 0.252856 25.3077 0.702944C25.751 1.15303 26 1.76348 26 2.4V7.2H0V2.4C0 1.76348 0.249025 1.15303 0.692293 0.702944C1.13556 0.252856 1.73676 0 2.36364 0ZM0 9.6H26V21.6C26 22.2365 25.751 22.847 25.3077 23.2971C24.8644 23.7471 24.2632 24 23.6364 24H2.36364C1.73676 24 1.13556 23.7471 0.692293 23.2971C0.249025 22.847 0 22.2365 0 21.6L0 9.6ZM14.9694 18.4003V20.8003H17.333V18.4003H14.9694ZM18.1215 18.4003V20.8003H20.4852V18.4003H18.1215ZM21.2727 18.4003V20.8003H23.6364V18.4003H21.2727Z" fill="#9ECE3F"/>
</svg>
