<svg width="26" height="26" viewBox="0 0 26 26" fill="none" xmlns="http://www.w3.org/2000/svg">
<path d="M2.82104 2.7038V23.2958C2.82104 24.0628 3.45804 24.6998 4.22504 24.6998H16.315C20.098 24.6998 23.179 21.6058 23.179 17.8358V2.7038C23.179 1.9368 22.542 1.2998 21.775 1.2998H4.22504C3.45804 1.2998 2.82104 1.9368 2.82104 2.7038ZM14.599 16.9778H8.41105C8.04705 16.9778 7.74804 16.6788 7.73505 16.3278C7.72205 15.8208 7.95605 15.5738 8.35905 15.5738H14.495C14.885 15.5738 15.223 15.8728 15.236 16.2628C15.236 16.6658 14.924 16.9778 14.599 16.9778ZM17.407 11.9858H8.41105C8.04705 11.9858 7.74804 11.6868 7.73505 11.3358C7.72205 10.8288 7.95605 10.5818 8.35905 10.5818H17.329C17.706 10.5818 18.005 10.8808 18.018 11.2448C18.057 11.7388 17.732 11.9858 17.407 11.9858ZM17.797 7.69581H8.41105C8.04705 7.69581 7.74804 7.4098 7.73505 7.0458C7.72205 6.5388 7.95605 6.2918 8.35905 6.2918H17.706C18.096 6.2918 18.421 6.6038 18.421 6.9938C18.434 7.3838 18.2 7.69581 17.797 7.69581Z" fill="#FFB66D"/>
</svg>
