<svg width="58" height="59" viewBox="0 0 58 59" fill="none" xmlns="http://www.w3.org/2000/svg">
<g filter="url(#filter0_d_1410_530)">
<rect x="4" y="0.619141" width="50" height="50" rx="25" fill="#C478FF" fill-opacity="0.9" shape-rendering="crispEdges"/>
<rect x="4.5" y="1.11914" width="49" height="49" rx="24.5" stroke="white" shape-rendering="crispEdges"/>
</g>
<path d="M42.6845 16.7391V16.6323L42.6632 16.611V16.5256L42.6418 16.5043V16.4829L42.6205 16.4616H42.5992L42.5778 16.4402V16.4189L42.5138 16.3549V16.3335L42.4925 16.3122V16.2695H42.4284L42.4071 16.2481H42.3644L42.343 16.2268V16.2055H42.3217V16.1841H42.3003L42.279 16.1628H42.2577V16.1415H42.1723V16.1201H42.0015L41.9801 16.1415H41.9588V16.1628H41.9161L41.8948 16.1841H41.8521L15.7423 26.1326C15.4007 26.2606 15.2299 26.6236 15.358 26.9865C15.4434 27.1786 15.5928 27.3067 15.7636 27.3708L23.5986 30.5091L24.4099 35.0137C24.4739 35.3766 24.8155 35.5901 25.1571 35.5474C25.3065 35.526 25.4346 35.4406 25.52 35.3339L28.4235 32.4305L34.3371 34.8002C34.6787 34.9283 35.0416 34.7788 35.191 34.4586L42.6204 17.0806L42.6418 17.0593V17.038V16.9953V16.8245L42.6845 16.7391ZM24.0897 29.2708L17.7704 26.7517L37.8383 19.0874L24.0897 29.2708ZM25.456 33.5192L25.029 31.0428L27.0998 31.8754L25.456 33.5192ZM34.2517 33.3485L25.4987 29.8473L40.5069 18.7459L34.2517 33.3485Z" fill="white"/>
<defs>
<filter id="filter0_d_1410_530" x="0" y="0.619141" width="58" height="58" filterUnits="userSpaceOnUse" color-interpolation-filters="sRGB">
<feFlood flood-opacity="0" result="BackgroundImageFix"/>
<feColorMatrix in="SourceAlpha" type="matrix" values="0 0 0 0 0 0 0 0 0 0 0 0 0 0 0 0 0 0 127 0" result="hardAlpha"/>
<feOffset dy="4"/>
<feGaussianBlur stdDeviation="2"/>
<feComposite in2="hardAlpha" operator="out"/>
<feColorMatrix type="matrix" values="0 0 0 0 0 0 0 0 0 0 0 0 0 0 0 0 0 0 0.1 0"/>
<feBlend mode="normal" in2="BackgroundImageFix" result="effect1_dropShadow_1410_530"/>
<feBlend mode="normal" in="SourceGraphic" in2="effect1_dropShadow_1410_530" result="shape"/>
</filter>
</defs>
</svg>
