<svg width="22" height="22" viewBox="0 0 22 22" fill="none" xmlns="http://www.w3.org/2000/svg">
<path d="M20.7051 13.0372C20.0342 10.4882 18.8554 9.11281 15.8481 6.82511C15.7021 6.71339 15.4205 6.56232 14.9528 6.32745L14.8766 6.28988L14.8695 6.28657C15.1516 5.98443 15.418 5.66806 15.6676 5.33849C15.9657 4.94417 16.4562 4.09968 16.5547 3.7272L16.5664 3.67236C16.7533 2.63718 16.6278 2.08798 15.9156 1.47175C15.0945 0.761575 14.3216 0.750149 13.1534 1.19855C11.8681 0.201458 10.0484 0.183177 8.74634 1.14929L8.54905 1.07896C8.41524 1.033 8.29261 0.993645 8.17352 0.960638C7.78708 0.852981 7.46944 0.812102 7.17034 0.875071C5.9973 1.12212 5.17718 1.87876 5.35136 3.28337C5.47856 4.30687 5.84419 4.98226 6.66024 5.90902C6.7227 5.97935 6.78644 6.0413 7.03983 6.27413C3.67253 8.18097 0.970459 11.6666 0.73712 15.0578C0.639873 16.468 0.671866 17.5989 0.911299 18.5495C1.37569 20.3944 3.14593 21.5669 5.16981 21.5623C6.66177 21.5585 8.14128 21.558 10.3056 21.5585C12.4463 21.5606 14.5872 21.5603 16.7279 21.5573C18.2521 21.5545 19.7646 20.8402 20.5652 19.6484C20.9356 19.0969 21.0674 18.6003 21.2271 17.5641C21.4328 16.2247 21.2764 15.2076 20.7051 13.0372ZM19.8362 17.3505C19.708 18.1828 19.6123 18.5429 19.3969 18.8633C18.8734 19.6426 17.8065 20.1468 16.7269 20.1486C15.2626 20.1509 14.0908 20.1509 11.4535 20.1504C9.35825 20.1481 7.26302 20.1491 5.16753 20.1537C3.75124 20.157 2.57286 19.3765 2.27858 18.2054C2.08435 17.4346 2.05616 16.4271 2.14401 15.1535C2.35856 12.0332 5.1919 8.64232 8.54093 7.08384C8.88142 6.81952 8.88142 6.81952 8.94794 6.47066C8.92915 6.25331 8.92915 6.25331 8.88979 6.16089C8.83114 6.04816 8.83114 6.04816 8.79864 6.00601C8.77325 5.97275 8.74837 5.94406 8.7179 5.91206C8.68134 5.87398 8.63436 5.82751 8.57343 5.76988C8.48431 5.68482 8.38274 5.59163 8.18851 5.4139L8.18571 5.41111C7.8729 5.12521 7.74011 5.00181 7.71903 4.97743C7.0736 4.24517 6.83747 3.80845 6.75114 3.10894C6.68538 2.58259 6.91923 2.36677 7.46233 2.25277C7.48163 2.24845 7.61392 2.26546 7.798 2.3165C7.88636 2.34087 7.98157 2.37159 8.08948 2.40892C8.18393 2.44142 8.46958 2.54654 8.4838 2.55111C8.54474 2.57345 8.60644 2.59325 8.66915 2.61027C8.72069 2.62423 8.76893 2.63363 8.82556 2.63845C9.02233 2.65546 9.1955 2.62956 9.38974 2.44548C10.2459 1.63755 11.6195 1.64568 12.4711 2.46529C12.6255 2.61407 12.8246 2.70447 13.0546 2.6999C13.2021 2.69659 13.257 2.67831 13.3949 2.61966C14.2952 2.23804 14.6268 2.21697 14.9957 2.53613C15.271 2.77454 15.2882 2.82913 15.1887 3.38493C15.1257 3.568 14.7342 4.23831 14.545 4.48917C14.2664 4.85688 13.9644 5.2063 13.6409 5.53527C13.4987 5.67974 13.2382 5.92577 13.1747 5.9829L12.9942 6.2848L13.0026 6.7073L13.0668 6.84568C13.1818 6.9937 13.1818 6.9937 13.2227 7.02646C13.2763 7.06632 13.2763 7.06632 13.2979 7.08054C13.3266 7.09755 13.3266 7.09755 13.339 7.1039L13.3717 7.12142L13.4365 7.15341C13.7089 7.28367 13.9801 7.4162 14.2505 7.55052L14.3236 7.58734C14.6842 7.76761 14.9526 7.91259 14.9965 7.94535C17.7755 10.0596 18.7721 11.2225 19.3439 13.3954C19.8672 15.382 20.0028 16.2651 19.8362 17.3505Z" fill="#C1C1C1"/>
<path d="M8.12842 13.8717C8.44454 14.1878 8.96149 14.1878 9.27735 13.8717L10.1876 12.9614L10.1876 17.5C10.1876 17.9469 10.5532 18.3125 11.0001 18.3125C11.447 18.3125 11.8126 17.9469 11.8126 17.5L11.8126 12.9614L12.7226 13.8714C13.0387 14.1875 13.5557 14.1875 13.8715 13.8714C14.1876 13.5553 14.1876 13.0384 13.8715 12.7225L11.6069 10.4579C11.5968 10.4465 11.5864 10.4353 11.5755 10.4244C11.4173 10.2662 11.2088 10.1872 11.0004 10.1875L10.9993 10.1875C10.7909 10.1872 10.5824 10.2665 10.4242 10.4244C10.4133 10.4353 10.4029 10.4465 10.3928 10.4579L8.12817 12.7225C7.81256 13.0386 7.81256 13.5556 8.12842 13.8717Z" fill="#C1C1C1"/>
</svg>
