<svg width="48" height="48" viewBox="0 0 48 48" fill="none" xmlns="http://www.w3.org/2000/svg">
<rect x="0.5" y="0.5" width="47" height="47" rx="13.5" stroke="white" stroke-opacity="0.2"/>
<g clip-path="url(#clip0_38_2846)">
<path d="M30.54 28.3601C32.948 28.3601 34.9 26.4081 34.9 24.0001C34.9 21.5922 32.948 19.6401 30.54 19.6401" stroke="white" stroke-width="2" stroke-linejoin="round"/>
<path d="M17.46 19.6401C15.0521 19.6401 13.1 21.5922 13.1 24.0001C13.1 26.4081 15.0521 28.3601 17.46 28.3601" stroke="white" stroke-width="2" stroke-linejoin="round"/>
<path d="M17.46 28.3601V28.0876V26.7251V24.0001V19.6401C17.46 16.0282 20.3881 13.1001 24 13.1001C27.612 13.1001 30.54 16.0282 30.54 19.6401V28.3601C30.54 31.972 27.612 34.9001 24 34.9001" stroke="white" stroke-width="2" stroke-linecap="round" stroke-linejoin="round"/>
</g>
<defs>
<clipPath id="clip0_38_2846">
<rect width="24" height="24" fill="white" transform="translate(12 12)"/>
</clipPath>
</defs>
</svg>
