<svg width="26" height="26" viewBox="0 0 26 26" fill="none" xmlns="http://www.w3.org/2000/svg">
<path d="M18.954 18.9669C17.94 18.3039 16.822 17.8229 15.678 17.4199C15.561 17.3809 15.431 17.3029 15.353 17.2119C14.885 16.7309 14.846 15.4179 15.366 14.9759C15.574 14.8069 15.717 14.5599 15.873 14.3389C16.796 12.9999 17.355 11.5309 17.238 9.87993C17.173 8.89193 16.848 7.99493 16.159 7.26693C15.119 6.17493 13.819 5.81093 12.363 5.99293C10.478 6.23993 9.13897 7.55293 8.87897 9.43793C8.60597 11.5309 9.26897 13.3509 10.595 14.9499C10.855 15.2619 10.998 15.5869 11.011 15.9769C11.024 16.6529 10.647 17.2249 10.036 17.4719C9.56797 17.6539 9.11297 17.8489 8.65797 18.0569C7.70897 18.5119 6.78597 19.0189 6.01897 19.7729C5.62897 20.1629 5.30397 20.5919 5.26497 21.1769C5.17397 22.3079 5.48597 22.9059 6.52597 23.3739C6.95497 23.5689 7.40997 23.7249 7.87797 23.8419C9.56797 24.2449 11.297 24.2839 13.65 24.3229C14.352 24.2709 15.665 24.2059 16.978 24.0629C17.901 23.9719 18.785 23.7379 19.63 23.3349C20.852 22.7499 21.021 21.5149 20.527 20.4749C20.189 19.7989 19.578 19.3699 18.954 18.9669Z" fill="#85D6C9"/>
<path d="M7.38404 16.965C7.39704 16.952 7.41004 16.952 7.42304 16.939C8.07304 16.627 8.73604 16.328 9.36004 16.029C8.97004 15.418 8.54104 14.82 8.21604 14.17C7.41004 12.623 7.08504 10.972 7.34504 9.22996C7.59204 7.55296 8.38504 6.20096 9.82804 5.27796C9.95804 5.18696 9.94504 5.09596 9.91904 4.97896C9.67204 3.30196 8.52804 2.27496 6.83804 2.18396C5.47304 2.11896 4.26404 2.87296 3.73104 4.13396C3.38004 4.96596 3.36704 5.83696 3.49704 6.70796C3.65304 7.79996 4.04304 8.80096 4.75804 9.64596C5.03104 9.97096 5.12204 10.309 5.12204 10.699C5.10904 11.31 4.87504 11.635 4.31604 11.843C3.45804 12.155 2.63904 12.532 1.88504 13.039C1.41704 13.351 0.988041 13.689 0.676041 14.157C0.273041 14.768 0.299041 15.769 0.741041 16.25C1.09204 16.627 1.54704 16.835 2.02804 16.991C3.01604 17.316 4.04304 17.381 5.07004 17.472C5.88904 17.537 6.69504 17.524 7.38404 16.965ZM25.298 14.105C24.973 13.637 24.531 13.299 24.076 13C23.27 12.467 22.412 12.09 21.502 11.765C21.385 11.726 21.268 11.661 21.19 11.583C20.774 11.167 20.761 10.218 21.138 9.76296C22.256 8.38496 22.737 6.81196 22.503 5.05696C22.204 2.80796 20.28 1.81996 18.369 2.28796C16.991 2.62596 16.328 3.62696 16.068 4.96596C16.042 5.13496 16.081 5.22596 16.237 5.32996C17.251 5.97996 18.005 6.85096 18.434 7.99496C19.149 9.93196 18.889 11.817 18.083 13.663C17.706 14.521 17.186 15.314 16.549 16.042C16.614 16.081 16.64 16.094 16.679 16.107C17.654 16.458 18.59 16.9 19.5 17.433C19.591 17.485 19.708 17.498 19.812 17.498C20.683 17.446 21.554 17.394 22.425 17.303C23.218 17.225 23.998 17.043 24.713 16.653C25.623 16.146 25.896 15.002 25.298 14.105Z" fill="#85D6C9"/>
</svg>
