<svg width="121" height="120" viewBox="0 0 121 120" fill="none" xmlns="http://www.w3.org/2000/svg">
<path d="M54.6069 14.2988C58.1182 11.7375 62.882 11.7375 66.3933 14.2988L70.9913 17.6529C72.7079 18.9051 74.7788 19.5779 76.9036 19.5739L82.5948 19.563C86.9411 19.5548 90.7951 22.3548 92.1303 26.491L93.8787 31.9071C94.5314 33.9292 95.8113 35.6908 97.5327 36.9364L102.143 40.2729C105.664 42.8209 107.136 47.3515 105.786 51.4824L104.017 56.8918C103.356 58.9113 103.356 61.0887 104.017 63.1082L105.786 68.5176C107.136 72.6486 105.664 77.1791 102.143 79.7271L97.5327 83.0636C95.8113 84.3092 94.5314 86.0708 93.8787 88.0928L92.1302 93.509C90.795 97.6451 86.9411 100.445 82.5949 100.437L76.9035 100.426C74.7788 100.422 72.708 101.095 70.9914 102.347L66.3933 105.701C62.8819 108.263 58.1182 108.263 54.6069 105.701L50.0088 102.347C48.2922 101.095 46.2214 100.422 44.0967 100.426L38.4053 100.437C34.059 100.445 30.2051 97.6451 28.8699 93.509L27.1215 88.0929C26.4687 86.0708 25.1889 84.3092 23.4675 83.0636L18.8568 79.7271C15.3358 77.1791 13.8637 72.6485 15.2146 68.5175L16.9836 63.1083C17.644 61.0887 17.644 58.9113 16.9836 56.8917L15.2146 51.4825C13.8637 47.3515 15.3358 42.8209 18.8568 40.2729L23.4675 36.9364C25.1889 35.6908 26.4687 33.9292 27.1215 31.9071L28.8699 26.491C30.2051 22.3548 34.0591 19.5548 38.4054 19.563L44.0966 19.5739C46.2214 19.5779 48.2922 18.9051 50.0089 17.6529L54.6069 14.2988Z" fill="url(#paint0_linear_137_3442)"/>
<path d="M54.6069 14.2988C58.1182 11.7375 62.882 11.7375 66.3933 14.2988L70.9913 17.6529C72.7079 18.9051 74.7788 19.5779 76.9036 19.5739L82.5948 19.563C86.9411 19.5548 90.7951 22.3548 92.1303 26.491L93.8787 31.9071C94.5314 33.9292 95.8113 35.6908 97.5327 36.9364L102.143 40.2729C105.664 42.8209 107.136 47.3515 105.786 51.4824L104.017 56.8918C103.356 58.9113 103.356 61.0887 104.017 63.1082L105.786 68.5176C107.136 72.6486 105.664 77.1791 102.143 79.7271L97.5327 83.0636C95.8113 84.3092 94.5314 86.0708 93.8787 88.0928L92.1302 93.509C90.795 97.6451 86.9411 100.445 82.5949 100.437L76.9035 100.426C74.7788 100.422 72.708 101.095 70.9914 102.347L66.3933 105.701C62.8819 108.263 58.1182 108.263 54.6069 105.701L50.0088 102.347C48.2922 101.095 46.2214 100.422 44.0967 100.426L38.4053 100.437C34.059 100.445 30.2051 97.6451 28.8699 93.509L27.1215 88.0929C26.4687 86.0708 25.1889 84.3092 23.4675 83.0636L18.8568 79.7271C15.3358 77.1791 13.8637 72.6485 15.2146 68.5175L16.9836 63.1083C17.644 61.0887 17.644 58.9113 16.9836 56.8917L15.2146 51.4825C13.8637 47.3515 15.3358 42.8209 18.8568 40.2729L23.4675 36.9364C25.1889 35.6908 26.4687 33.9292 27.1215 31.9071L28.8699 26.491C30.2051 22.3548 34.0591 19.5548 38.4054 19.563L44.0966 19.5739C46.2214 19.5779 48.2922 18.9051 50.0089 17.6529L54.6069 14.2988Z" stroke="url(#paint1_linear_137_3442)" stroke-width="2" stroke-linecap="round" stroke-linejoin="round"/>
<path d="M54.6069 14.2988C58.1182 11.7375 62.882 11.7375 66.3933 14.2988L70.9913 17.6529C72.7079 18.9051 74.7788 19.5779 76.9036 19.5739L82.5948 19.563C86.9411 19.5548 90.7951 22.3548 92.1303 26.491L93.8787 31.9071C94.5314 33.9292 95.8113 35.6908 97.5327 36.9364L102.143 40.2729C105.664 42.8209 107.136 47.3515 105.786 51.4824L104.017 56.8918C103.356 58.9113 103.356 61.0887 104.017 63.1082L105.786 68.5176C107.136 72.6486 105.664 77.1791 102.143 79.7271L97.5327 83.0636C95.8113 84.3092 94.5314 86.0708 93.8787 88.0928L92.1302 93.509C90.795 97.6451 86.9411 100.445 82.5949 100.437L76.9035 100.426C74.7788 100.422 72.708 101.095 70.9914 102.347L66.3933 105.701C62.8819 108.263 58.1182 108.263 54.6069 105.701L50.0088 102.347C48.2922 101.095 46.2214 100.422 44.0967 100.426L38.4053 100.437C34.059 100.445 30.2051 97.6451 28.8699 93.509L27.1215 88.0929C26.4687 86.0708 25.1889 84.3092 23.4675 83.0636L18.8568 79.7271C15.3358 77.1791 13.8637 72.6485 15.2146 68.5175L16.9836 63.1083C17.644 61.0887 17.644 58.9113 16.9836 56.8917L15.2146 51.4825C13.8637 47.3515 15.3358 42.8209 18.8568 40.2729L23.4675 36.9364C25.1889 35.6908 26.4687 33.9292 27.1215 31.9071L28.8699 26.491C30.2051 22.3548 34.0591 19.5548 38.4054 19.563L44.0966 19.5739C46.2214 19.5779 48.2922 18.9051 50.0089 17.6529L54.6069 14.2988Z" stroke="url(#paint2_radial_137_3442)" stroke-width="2" stroke-linecap="round" stroke-linejoin="round"/>
<path d="M43 60L55.5 72.5L80.5 47.5" stroke="url(#paint3_linear_137_3442)" stroke-width="10" stroke-linecap="round" stroke-linejoin="round"/>
<defs>
<linearGradient id="paint0_linear_137_3442" x1="60.5001" y1="10" x2="60.5001" y2="110" gradientUnits="userSpaceOnUse">
<stop stop-color="#D2C65F"/>
<stop offset="1" stop-color="#6BC729"/>
</linearGradient>
<linearGradient id="paint1_linear_137_3442" x1="60.5001" y1="10" x2="60.5001" y2="110" gradientUnits="userSpaceOnUse">
<stop stop-color="#EDEAD3"/>
<stop offset="1" stop-color="#43A40E"/>
</linearGradient>
<radialGradient id="paint2_radial_137_3442" cx="0" cy="0" r="1" gradientUnits="userSpaceOnUse" gradientTransform="translate(60.5 11.5) rotate(15.9454) scale(7.28011 2.24965)">
<stop stop-color="white"/>
<stop offset="1" stop-color="white" stop-opacity="0"/>
</radialGradient>
<linearGradient id="paint3_linear_137_3442" x1="61.75" y1="47.5" x2="62" y2="76.5" gradientUnits="userSpaceOnUse">
<stop stop-color="#FAFEE8"/>
<stop offset="1" stop-color="white"/>
</linearGradient>
</defs>
</svg>
