<svg width="18" height="18" viewBox="0 0 18 18" fill="none" xmlns="http://www.w3.org/2000/svg">
<g id="Frame">
<path id="Vector" d="M13.05 17.8883H5.73752C3.78752 17.8883 2.21252 16.3133 2.21252 14.3633V4.01328C2.21252 2.06328 3.78752 0.488281 5.73752 0.488281H13.05C15 0.488281 16.575 2.06328 16.575 4.01328V14.3633C16.575 16.3133 15 17.8883 13.05 17.8883ZM5.73752 1.65078C4.42502 1.65078 3.33752 2.73828 3.33752 4.05078V14.4008C3.33752 15.7133 4.42502 16.8008 5.73752 16.8008H13.05C14.3625 16.8008 15.45 15.7133 15.45 14.4008V4.01328C15.45 2.70078 14.3625 1.61328 13.05 1.61328H5.73752V1.65078Z" fill="#333333"/>
<path id="Vector_2" d="M9.63755 5.25H6.67505C6.37505 5.25 6.11255 4.9875 6.11255 4.6875C6.11255 4.3875 6.37505 4.125 6.67505 4.125H9.63755C9.93755 4.125 10.2 4.3875 10.2 4.6875C10.2 4.9875 9.93755 5.25 9.63755 5.25ZM10.9125 9.225H6.67505C6.37505 9.225 6.11255 8.9625 6.11255 8.6625C6.11255 8.3625 6.37505 8.1 6.67505 8.1H10.9125C11.2125 8.1 11.475 8.3625 11.475 8.6625C11.475 8.9625 11.2125 9.225 10.9125 9.225Z" fill="#F7B52C"/>
</g>
</svg>
