<svg width="18" height="18" viewBox="0 0 18 18" fill="none" xmlns="http://www.w3.org/2000/svg">
<g id="Frame">
<path id="Vector" d="M3.68283 15.6602C2.58221 15.6602 1.68719 14.7651 1.68719 13.6645V4.90188C1.68719 3.80126 2.58221 2.90625 3.68283 2.90625H14.6346C15.7352 2.90625 16.6302 3.80126 16.6302 4.90188V13.6645C16.6302 14.7651 15.7352 15.6602 14.6346 15.6602H3.68283ZM3.68283 3.97663C3.17485 3.97663 2.75758 4.39088 2.75758 4.90188V13.6645C2.75758 14.1725 3.17182 14.5898 3.68283 14.5898H14.6346C15.1426 14.5898 15.5599 14.1755 15.5599 13.6645V4.90188C15.5599 4.3939 15.1456 3.97663 14.6346 3.97663H3.68283ZM13.9059 12.3734C13.6096 12.3734 13.3707 12.1315 13.3707 11.8382C13.3707 10.9251 12.6299 10.1843 11.7168 10.1843C10.8036 10.1843 10.0628 10.9251 10.0628 11.8382C10.0628 12.1345 9.82091 12.3734 9.52761 12.3734C9.23129 12.3734 8.99242 12.1315 8.99242 11.8382C8.99242 10.9039 9.47318 10.0421 10.2654 9.54324C9.91767 9.17435 9.72415 8.69056 9.72415 8.1856C9.72415 7.08498 10.6192 6.18997 11.7198 6.18997C12.8204 6.18997 13.7154 7.08498 13.7154 8.1856C13.7154 8.69056 13.5189 9.17133 13.1742 9.54324C13.9634 10.0421 14.4471 10.9009 14.4471 11.8382C14.4441 12.1315 14.2022 12.3734 13.9059 12.3734ZM11.7168 7.26338C11.2088 7.26338 10.7915 7.67763 10.7915 8.18863C10.7915 8.69963 11.2058 9.11388 11.7168 9.11388C12.2278 9.11388 12.642 8.69963 12.642 8.18863C12.642 7.67763 12.2247 7.26338 11.7168 7.26338Z" fill="black"/>
<path id="Vector_2" d="M7.63784 7.2752H4.36319C4.05175 7.2752 3.80078 7.02424 3.80078 6.7128C3.80078 6.40136 4.05175 6.15039 4.36319 6.15039H7.63784C7.94928 6.15039 8.20024 6.40136 8.20024 6.7128C8.20024 7.02424 7.94928 7.2752 7.63784 7.2752Z" fill="#FAAC08"/>
<path id="Vector_3" d="M7.63784 9.84161H4.36319C4.05175 9.84161 3.80078 9.59064 3.80078 9.2792C3.80078 8.96776 4.05175 8.7168 4.36319 8.7168H7.63784C7.94928 8.7168 8.20024 8.96776 8.20024 9.2792C8.20024 9.59064 7.94928 9.84161 7.63784 9.84161Z" fill="#FAAC08"/>
<path id="Vector_4" d="M7.63784 12.3826H4.36319C4.05175 12.3826 3.80078 12.1317 3.80078 11.8202C3.80078 11.5088 4.05175 11.2578 4.36319 11.2578H7.63784C7.94928 11.2578 8.20024 11.5088 8.20024 11.8202C8.20024 12.1317 7.94928 12.3826 7.63784 12.3826Z" fill="#FAAC08"/>
</g>
</svg>
