<svg width="18" height="18" viewBox="0 0 18 18" fill="none" xmlns="http://www.w3.org/2000/svg">
<g id="Frame" clip-path="url(#clip0_2309_1265)">
<path id="Vector" d="M9 0.5625C10.108 0.5625 11.2052 0.780742 12.2289 1.20477C13.2526 1.62879 14.1827 2.25029 14.9662 3.03379C15.7497 3.81728 16.3712 4.74742 16.7952 5.77111C17.2193 6.79479 17.4375 7.89197 17.4375 9C17.4375 10.108 17.2193 11.2052 16.7952 12.2289C16.3712 13.2526 15.7497 14.1827 14.9662 14.9662C14.1827 15.7497 13.2526 16.3712 12.2289 16.7952C11.2052 17.2193 10.108 17.4375 9 17.4375C6.76224 17.4375 4.61612 16.5486 3.03379 14.9662C1.45145 13.3839 0.5625 11.2378 0.5625 9C0.5625 6.76224 1.45145 4.61612 3.03379 3.03379C4.61612 1.45145 6.76224 0.5625 9 0.5625ZM9 1.6875C7.0606 1.6875 5.20064 2.45792 3.82928 3.82928C2.45792 5.20064 1.6875 7.0606 1.6875 9C1.6875 10.9394 2.45792 12.7994 3.82928 14.1707C5.20064 15.5421 7.0606 16.3125 9 16.3125C10.9394 16.3125 12.7994 15.5421 14.1707 14.1707C15.5421 12.7994 16.3125 10.9394 16.3125 9C16.3125 7.0606 15.5421 5.20064 14.1707 3.82928C12.7994 2.45792 10.9394 1.6875 9 1.6875ZM6.1875 8.4375V12.9375H5.0625V8.4375H6.1875ZM9.5625 4.5V12.9375H8.4375V4.5H9.5625ZM12.9375 6.75V12.9375H11.8125V6.75H12.9375Z" fill="#F7B52C"/>
<path id="Vector_2" d="M9 0.5625C10.108 0.5625 11.2052 0.780742 12.2289 1.20477C13.2526 1.62879 14.1827 2.25029 14.9662 3.03379C15.7497 3.81728 16.3712 4.74742 16.7952 5.77111C17.2193 6.79479 17.4375 7.89197 17.4375 9C17.4375 10.108 17.2193 11.2052 16.7952 12.2289C16.3712 13.2526 15.7497 14.1827 14.9662 14.9662C14.1827 15.7497 13.2526 16.3712 12.2289 16.7952C11.2052 17.2193 10.108 17.4375 9 17.4375C6.76224 17.4375 4.61612 16.5486 3.03379 14.9662C1.45145 13.3839 0.5625 11.2378 0.5625 9C0.5625 6.76224 1.45145 4.61612 3.03379 3.03379C4.61612 1.45145 6.76224 0.5625 9 0.5625ZM9 1.6875C7.0606 1.6875 5.20064 2.45792 3.82928 3.82928C2.45792 5.20064 1.6875 7.0606 1.6875 9C1.6875 10.9394 2.45792 12.7994 3.82928 14.1707C5.20064 15.5421 7.0606 16.3125 9 16.3125C10.9394 16.3125 12.7994 15.5421 14.1707 14.1707C15.5421 12.7994 16.3125 10.9394 16.3125 9C16.3125 7.0606 15.5421 5.20064 14.1707 3.82928C12.7994 2.45792 10.9394 1.6875 9 1.6875Z" fill="#1C1C1E"/>
</g>
<defs>
<clipPath id="clip0_2309_1265">
<rect width="18" height="18" fill="white"/>
</clipPath>
</defs>
</svg>
