<svg width="16" height="16" viewBox="0 0 16 16" fill="none" xmlns="http://www.w3.org/2000/svg">
<g id="Frame">
<path id="Vector" d="M9.49841 12.0016C9.22157 12.0016 8.99849 11.7785 8.99849 11.5017V5.99992C8.99849 5.72308 9.22157 5.5 9.49841 5.5C9.77524 5.5 9.99832 5.72308 9.99832 5.99992V11.499C9.99832 11.7758 9.77524 12.0016 9.49841 12.0016Z" fill="#333333"/>
<path id="Vector_2" d="M6.49891 12.0016C6.22207 12.0016 5.99899 11.7785 5.99899 11.5017V5.99992C5.99899 5.72308 6.22207 5.5 6.49891 5.5C6.77574 5.5 6.99883 5.72308 6.99883 5.99992V11.499C6.99883 11.7758 6.77574 12.0016 6.49891 12.0016Z" fill="#333333"/>
<path id="Vector_3" d="M14.5003 3.49958H12.0007V2.49975C12.0007 1.67193 11.3341 1 10.5117 1H5.49908C4.67126 1 3.99933 1.67193 3.99933 2.49975V3.49958H1.49975C1.22291 3.49958 0.999832 3.72266 0.999832 3.9995C0.999832 4.27633 1.22291 4.49941 1.49975 4.49941H14.5003C14.7771 4.49941 15.0002 4.27633 15.0002 3.9995C15.0002 3.72266 14.7771 3.49958 14.5003 3.49958ZM4.99916 2.49975C4.99916 2.2256 5.22493 1.99983 5.49908 1.99983H10.5117C10.7858 1.99983 11.0008 2.22023 11.0008 2.49975V3.49958H4.99916V2.49975Z" fill="#333333"/>
<path id="Vector_4" d="M11.5008 15.0006H4.50193C3.67411 15.0006 3.00218 14.3287 3.00218 13.5009V5.99406C3.00218 5.71722 3.22526 5.49414 3.5021 5.49414C3.77893 5.49414 4.00201 5.71722 4.00201 5.99406V13.5009C4.00201 13.7777 4.22778 14.0008 4.50193 14.0008H11.5034C11.7803 14.0008 12.0034 13.7777 12.0034 13.5009V6.01287C12.0034 5.73604 12.2264 5.51295 12.5033 5.51295C12.7801 5.51295 13.0032 5.73604 13.0032 6.01287V13.5009C13.0005 14.326 12.3286 15.0006 11.5008 15.0006Z" fill="#333333"/>
</g>
</svg>
