<svg width="16" height="16" viewBox="0 0 16 16" fill="none" xmlns="http://www.w3.org/2000/svg">
<g id="Frame" clip-path="url(#clip0_1566_1301)">
<path id="Vector" d="M15.5425 15.2102C15.486 15.2995 15.4078 15.373 15.315 15.4238C15.2223 15.4745 15.1182 15.5008 15.0125 15.5002H1.25C1.14454 15.5011 1.04057 15.4752 0.947868 15.4249C0.855162 15.3746 0.776753 15.3016 0.719999 15.2127C0.666057 15.1269 0.637436 15.0277 0.637436 14.9264C0.637436 14.8251 0.666057 14.7259 0.719999 14.6402C0.776505 14.5507 0.854729 14.4769 0.947395 14.4258C1.04006 14.3746 1.14416 14.3478 1.25 14.3477H15C15.1059 14.3463 15.2104 14.372 15.3035 14.4224C15.3967 14.4727 15.4755 14.5459 15.5325 14.6352C15.589 14.72 15.62 14.8193 15.6218 14.9212C15.6236 15.0231 15.596 15.1234 15.5425 15.2102ZM8.5225 10.7502C7.87956 11.3359 7.07241 11.7102 6.21 11.8227L4.71 11.9452C3.9875 12.0052 3.59 12.0377 3.515 12.0377C3.439 12.0381 3.36366 12.0235 3.2933 11.9948C3.22295 11.966 3.15896 11.9237 3.105 11.8702C2.9075 11.6752 2.9075 11.6752 3.025 10.2677L3.15 8.76767C3.26247 7.90525 3.63681 7.0981 4.2225 6.45517L9.7225 0.967667C10.0513 0.656088 10.487 0.482422 10.94 0.482422C11.393 0.482422 11.8287 0.656088 12.1575 0.967667L14.015 2.82517C14.3367 3.1472 14.5173 3.58375 14.5173 4.03892C14.5173 4.49408 14.3367 4.93063 14.015 5.25267L8.5225 10.7502ZM13.2025 3.63767L11.345 1.78017C11.2367 1.6745 11.0913 1.61535 10.94 1.61535C10.7887 1.61535 10.6433 1.6745 10.535 1.78017L5.035 7.28017C4.63329 7.72729 4.3724 8.28298 4.285 8.87767L4.16 10.3777L4.12 10.8602L4.6025 10.8202L6.1025 10.6952C6.69689 10.6068 7.2523 10.346 7.7 9.94517L13.2 4.46017C13.3057 4.35184 13.3648 4.2065 13.3648 4.05517C13.3648 3.90383 13.3057 3.7585 13.2 3.65017L13.2025 3.63767Z" fill="#666666"/>
</g>
<defs>
<clipPath id="clip0_1566_1301">
<rect width="16" height="16" fill="white"/>
</clipPath>
</defs>
</svg>
