<svg width="18" height="18" viewBox="0 0 18 18" fill="none" xmlns="http://www.w3.org/2000/svg">
<g id="&#229;&#174;&#137;&#229;&#133;&#168;&#233;&#170;&#140;&#232;&#175;&#129; 1">
<path id="Vector" d="M9 2.7C7.42655 4.05329 5.4477 4.84483 3.375 4.95V5.87363C3.3779 7.78631 3.88133 9.66493 4.83524 11.3228C5.78915 12.9806 7.16034 14.3599 8.8125 15.3236C8.86951 15.3565 8.93417 15.3739 9 15.3739C9.06583 15.3739 9.13049 15.3565 9.1875 15.3236C10.8397 14.3599 12.2108 12.9806 13.1648 11.3228C14.1187 9.66493 14.6221 7.78631 14.625 5.87363V4.95C12.5523 4.84483 10.5735 4.05329 9 2.7ZM9 1.5C9.22303 1.49994 9.4382 1.58235 9.60413 1.73138C11.1162 3.08566 13.0747 3.83459 15.1046 3.83475C15.1895 3.8348 15.2735 3.85156 15.3518 3.88408C15.4302 3.9166 15.5013 3.96425 15.5613 4.02428C15.6212 4.08432 15.6687 4.15558 15.7011 4.23399C15.7335 4.3124 15.7501 4.39642 15.75 4.48125V5.87287C15.7507 7.98354 15.197 10.0574 14.1445 11.8869C13.092 13.7164 11.5776 15.2375 9.75262 16.2979C9.52397 16.4305 9.26433 16.5004 9 16.5004C8.73567 16.5004 8.47603 16.4305 8.24738 16.2979C6.42244 15.2375 4.90796 13.7164 3.85546 11.8869C2.80296 10.0574 2.24935 7.98354 2.25 5.87287V4.48125C2.24995 4.39645 2.26661 4.31247 2.29901 4.2341C2.33142 4.15574 2.37894 4.08452 2.43887 4.02453C2.4988 3.96453 2.56996 3.91692 2.64829 3.88442C2.72661 3.85193 2.81057 3.83517 2.89538 3.83512C4.92528 3.83497 6.88379 3.08604 8.39588 1.73175C8.56171 1.58253 8.77691 1.49997 9 1.5Z" fill="#333333"/>
<path id="Vector_2" d="M11.4529 8.10337L8.60588 11.0707C8.55603 11.1237 8.49588 11.1658 8.42914 11.1946C8.36239 11.2235 8.29046 11.2383 8.21776 11.2383C8.14506 11.2383 8.07312 11.2235 8.00638 11.1946C7.93963 11.1658 7.87949 11.1237 7.82963 11.0707L6.53551 9.72075C6.43216 9.61138 6.37457 9.4666 6.37457 9.31612C6.37457 9.16565 6.43216 9.02087 6.53551 8.9115C6.58539 8.85857 6.64557 8.81641 6.71235 8.78758C6.77913 8.75876 6.85109 8.74389 6.92382 8.74389C6.99655 8.74389 7.06851 8.75876 7.13529 8.78758C7.20207 8.81641 7.26225 8.85857 7.31213 8.9115L8.21776 9.85575L10.6766 7.293C10.7265 7.24008 10.7866 7.19792 10.8534 7.1691C10.9201 7.14029 10.9921 7.12542 11.0648 7.12542C11.1375 7.12542 11.2094 7.14029 11.2761 7.1691C11.3429 7.19792 11.403 7.24008 11.4529 7.293C11.5566 7.40243 11.6143 7.54744 11.6143 7.69819C11.6143 7.84893 11.5566 7.99394 11.4529 8.10337Z" fill="#FF9C00"/>
</g>
</svg>
