<svg width="18" height="18" viewBox="0 0 18 18" fill="none" xmlns="http://www.w3.org/2000/svg">
<g id="&#232;&#186;&#171;&#228;&#187;&#189;&#232;&#175;&#129; 1" clip-path="url(#clip0_1566_1284)">
<path id="Vector" d="M16.8984 5.67577H12.7603C12.2526 5.67577 11.8031 5.34713 11.6492 4.86328C11.4952 4.37939 11.0458 4.05078 10.538 4.05078H7.46202C6.95426 4.05078 6.50482 4.37942 6.35087 4.86328C6.19692 5.34717 5.74752 5.67577 5.23972 5.67577H1.10155C0.493207 5.67577 0 6.16898 0 6.77736V16.293C0 16.9013 0.493207 17.3945 1.10155 17.3945H16.8984C17.5068 17.3945 18 16.9013 18 16.293V6.77736C18 6.16898 17.5068 5.67577 16.8984 5.67577ZM10.3437 5.67577H7.65622C7.35416 5.67577 7.10933 5.43095 7.10933 5.12888C7.10933 4.82682 7.35416 4.58199 7.65622 4.58199H10.3437C10.6458 4.58199 10.8906 4.82682 10.8906 5.12888C10.8906 5.43095 10.6458 5.67577 10.3437 5.67577Z" fill="url(#paint0_linear_1566_1284)"/>
<path id="Vector_2" d="M1.38736 6.06445H16.6126C17.0639 6.06445 17.4298 6.43029 17.4298 6.88159V16.1909C17.4298 16.6422 17.0639 17.008 16.6126 17.008H1.38736C0.936092 17.008 0.570221 16.6422 0.570221 16.1909V6.88159C0.570221 6.43032 0.936092 6.06445 1.38736 6.06445Z" fill="url(#paint1_linear_1566_1284)"/>
<path id="Vector_3" d="M16.3868 16.7535H1.61313C1.17522 16.7535 0.820251 16.3985 0.820251 15.9606V7.10928C0.820251 6.67138 1.17522 6.31641 1.61313 6.31641H16.3868C16.8247 6.31641 17.1797 6.67138 17.1797 7.10928V15.9606C17.1797 16.3985 16.8247 16.7535 16.3868 16.7535Z" fill="url(#paint2_linear_1566_1284)"/>
<path id="Vector_4" d="M6.61823 15.2383H2.82136C2.34242 15.2383 1.95419 14.85 1.95419 14.3711V8.6992C1.95419 8.22026 2.34246 7.83203 2.82136 7.83203H6.61823C7.09717 7.83203 7.4854 8.2203 7.4854 8.6992V14.3711C7.48543 14.85 7.0972 15.2383 6.61823 15.2383Z" fill="url(#paint3_linear_1566_1284)"/>
<g id="Group">
<path id="Vector_5" d="M16.0458 7.87305H8.62801V9.0448H16.0458V7.87305Z" fill="#D3B4A0"/>
<path id="Vector_6" d="M16.0458 9.92383H8.62801V11.0956H16.0458V9.92383Z" fill="#D3B4A0"/>
<path id="Vector_7" d="M16.0458 11.9766H8.62801V13.1483H16.0458V11.9766Z" fill="#D3B4A0"/>
<path id="Vector_8" d="M14.118 14.0273H8.62801V15.1991H14.118V14.0273Z" fill="#D3B4A0"/>
</g>
<path id="Vector_9" d="M11.6491 4.86328C11.4952 4.37939 11.0457 4.05078 10.538 4.05078H7.46198C7.43801 4.05078 7.41431 4.05222 7.39058 4.05366V4.65104C7.46926 4.6072 7.55975 4.58203 7.65622 4.58203H10.3437C10.6458 4.58203 10.8906 4.82686 10.8906 5.12892C10.8906 5.43098 10.6458 5.67581 10.3437 5.67581H8.10049L12.5748 10.1501C12.6697 10.2748 12.8192 10.3557 12.9879 10.3557H15.1683C15.4551 10.3557 15.6875 10.1233 15.6875 9.83655V6.20245C15.6875 6.03366 15.6066 5.88418 15.4819 5.78933L15.3682 5.6757H12.7603C12.2525 5.67574 11.8031 5.34717 11.6491 4.86328Z" fill="url(#paint4_linear_1566_1284)"/>
<path id="Vector_10" d="M10.0902 5.27784H7.90976C7.62303 5.27784 7.39061 5.04539 7.39061 4.75869V1.12462C7.39061 0.837887 7.62306 0.605469 7.90976 0.605469H10.0902C10.3769 0.605469 10.6093 0.837922 10.6093 1.12462V4.75869C10.6094 5.04542 10.3769 5.27784 10.0902 5.27784Z" fill="url(#paint5_linear_1566_1284)"/>
<path id="Vector_11" d="M7.58169 3.94211L8.91735 5.27777H10.0902C10.3769 5.27777 10.6093 5.04532 10.6093 4.75862V1.12455C10.6093 1.00006 10.5654 0.88591 10.4924 0.796508C10.4806 0.782059 10.468 0.768348 10.4548 0.755234C10.4537 0.754145 10.4525 0.753195 10.4514 0.752141C10.4398 0.740855 10.4276 0.730062 10.4149 0.719867C10.411 0.716738 10.4069 0.713891 10.4029 0.710867C10.3927 0.703133 10.3823 0.695609 10.3715 0.688684C10.3663 0.685344 10.361 0.682215 10.3557 0.679051C10.3456 0.673039 10.3354 0.667309 10.3249 0.661965C10.3189 0.658906 10.3128 0.655988 10.3067 0.653176C10.2964 0.64843 10.2858 0.64407 10.2752 0.639992C10.2686 0.637496 10.2621 0.635 10.2555 0.632785C10.2446 0.629129 10.2335 0.626 10.2222 0.623047C10.2155 0.621289 10.209 0.619391 10.2022 0.617879C10.19 0.615207 10.1775 0.613238 10.165 0.611445C10.159 0.610566 10.1531 0.609371 10.147 0.608703C10.1283 0.606664 10.1094 0.605469 10.0902 0.605469H7.90981C7.62307 0.605469 7.39066 0.837922 7.39066 1.12462V3.53993C7.39062 3.70214 7.46512 3.84691 7.58169 3.94211Z" fill="url(#paint6_linear_1566_1284)"/>
<path id="Vector_12" d="M10.0902 0.605469H7.90976C7.62303 0.605469 7.39061 0.837922 7.39061 1.12462V3.53993C7.39061 3.82666 7.62306 4.05908 7.90976 4.05908H10.0902C10.3769 4.05908 10.6093 3.82663 10.6093 3.53993V1.12462C10.6094 0.837922 10.3769 0.605469 10.0902 0.605469Z" fill="url(#paint7_linear_1566_1284)"/>
<path id="Vector_13" d="M10.6094 3.53971V2.85841L9.56785 1.81687C9.4274 1.66219 9.22539 1.56445 9 1.56445C8.57609 1.56445 8.23244 1.90811 8.23244 2.33202C8.23244 2.55741 8.33017 2.75941 8.48486 2.89986L9.64382 4.05882H10.0902C10.3769 4.05882 10.6094 3.82644 10.6094 3.53971Z" fill="url(#paint8_linear_1566_1284)"/>
<path id="Vector_14" d="M9 3.09959C9.42392 3.09959 9.76757 2.75593 9.76757 2.33202C9.76757 1.9081 9.42392 1.56445 9 1.56445C8.57609 1.56445 8.23244 1.9081 8.23244 2.33202C8.23244 2.75593 8.57609 3.09959 9 3.09959Z" fill="url(#paint9_linear_1566_1284)"/>
</g>
<defs>
<linearGradient id="paint0_linear_1566_1284" x1="8.99981" y1="6.61319" x2="8.99981" y2="25.2862" gradientUnits="userSpaceOnUse">
<stop stop-color="#E6E6E6"/>
<stop offset="1" stop-color="#999999"/>
</linearGradient>
<linearGradient id="paint1_linear_1566_1284" x1="8.99979" y1="19.7706" x2="8.99979" y2="3.05141" gradientUnits="userSpaceOnUse">
<stop stop-color="#FFF2EB"/>
<stop offset="1" stop-color="#F1DACB"/>
</linearGradient>
<linearGradient id="paint2_linear_1566_1284" x1="8.9998" y1="8.86327" x2="8.9998" y2="17.262" gradientUnits="userSpaceOnUse">
<stop stop-color="#FFF2EB"/>
<stop offset="1" stop-color="#F1DACB"/>
</linearGradient>
<linearGradient id="paint3_linear_1566_1284" x1="4.71971" y1="11.004" x2="4.71971" y2="20.3808" gradientUnits="userSpaceOnUse">
<stop stop-color="#67DCDC"/>
<stop offset="1" stop-color="#019394"/>
</linearGradient>
<linearGradient id="paint4_linear_1566_1284" x1="13.9879" y1="7.92985" x2="6.88478" y2="0.826382" gradientUnits="userSpaceOnUse">
<stop stop-color="#E6E6E6" stop-opacity="0"/>
<stop offset="0.143" stop-color="#DCDCDC" stop-opacity="0.143"/>
<stop offset="0.384" stop-color="#C2C2C2" stop-opacity="0.384"/>
<stop offset="0.692" stop-color="#979797" stop-opacity="0.692"/>
<stop offset="1" stop-color="#666666"/>
</linearGradient>
<linearGradient id="paint5_linear_1566_1284" x1="8.99978" y1="4.51631" x2="8.99978" y2="5.4304" gradientUnits="userSpaceOnUse">
<stop stop-color="#FE7695"/>
<stop offset="1" stop-color="#FE547B"/>
</linearGradient>
<linearGradient id="paint6_linear_1566_1284" x1="11.031" y1="4.3637" x2="9.06552" y2="2.39832" gradientUnits="userSpaceOnUse">
<stop stop-color="#BF3F5C" stop-opacity="0"/>
<stop offset="1" stop-color="#BF3F5C"/>
</linearGradient>
<linearGradient id="paint7_linear_1566_1284" x1="8.99978" y1="2.66482" x2="8.99978" y2="4.3769" gradientUnits="userSpaceOnUse">
<stop stop-color="#FE7695"/>
<stop offset="1" stop-color="#FE547B"/>
</linearGradient>
<linearGradient id="paint8_linear_1566_1284" x1="10.0819" y1="3.41455" x2="8.60311" y2="1.93565" gradientUnits="userSpaceOnUse">
<stop stop-color="#BF3F5C" stop-opacity="0"/>
<stop offset="1" stop-color="#BF3F5C"/>
</linearGradient>
<linearGradient id="paint9_linear_1566_1284" x1="8.99981" y1="1.55695" x2="8.99981" y2="4.74465" gradientUnits="userSpaceOnUse">
<stop stop-color="#67DCDC"/>
<stop offset="1" stop-color="#019394"/>
</linearGradient>
<clipPath id="clip0_1566_1284">
<rect width="18" height="18" fill="white"/>
</clipPath>
</defs>
</svg>
