<svg width="140" height="140" viewBox="0 0 140 140" fill="none" xmlns="http://www.w3.org/2000/svg">
<g id="&#232;&#186;&#171;&#228;&#187;&#189;&#232;&#175;&#129; 1">
<path id="Vector" d="M131.432 44.1466H99.2469C95.2976 44.1466 91.802 41.5905 90.6046 37.8272C89.4072 34.0636 85.9119 31.5078 81.9623 31.5078H58.0379C54.0887 31.5078 50.593 34.0639 49.3957 37.8272C48.1983 41.5908 44.7029 44.1466 40.7534 44.1466H8.56762C3.83605 44.1466 0 47.9827 0 52.7145V126.725C0 131.457 3.83605 135.292 8.56762 135.292H131.432C136.164 135.292 140 131.456 140 126.725V52.7145C140 47.9827 136.164 44.1466 131.432 44.1466ZM80.4513 44.1466H59.5484C57.199 44.1466 55.2948 42.2424 55.2948 39.893C55.2948 37.5437 57.199 35.6395 59.5484 35.6395H80.4513C82.8007 35.6395 84.7049 37.5437 84.7049 39.893C84.7049 42.2424 82.8004 44.1466 80.4513 44.1466Z" fill="url(#paint0_linear_1566_1174)"/>
<path id="Vector_2" d="M10.7907 47.1602H129.209C132.719 47.1602 135.565 50.0055 135.565 53.5157V125.921C135.565 129.431 132.719 132.277 129.209 132.277H10.7907C7.28085 132.277 4.43518 129.431 4.43518 125.921V53.5157C4.43518 50.0058 7.28085 47.1602 10.7907 47.1602Z" fill="url(#paint1_linear_1566_1174)"/>
<path id="Vector_3" d="M127.453 130.308H12.5467C9.14078 130.308 6.37988 127.547 6.37988 124.141V55.2977C6.37988 51.8918 9.14078 49.1309 12.5467 49.1309H127.453C130.859 49.1309 133.62 51.8918 133.62 55.2977V124.141C133.62 127.547 130.859 130.308 127.453 130.308Z" fill="url(#paint2_linear_1566_1174)"/>
<path id="Vector_4" d="M51.4751 118.52H21.9439C18.2188 118.52 15.1993 115.5 15.1993 111.776V67.6606C15.1993 63.9356 18.2191 60.916 21.9439 60.916H51.4751C55.2002 60.916 58.2197 63.9359 58.2197 67.6606V111.775C58.22 115.5 55.2004 118.52 51.4751 118.52Z" fill="url(#paint3_linear_1566_1174)"/>
<g id="Group">
<path id="Vector_5" d="M124.8 61.2305H67.1068V70.3441H124.8V61.2305Z" fill="#D3B4A0"/>
<path id="Vector_6" d="M124.8 77.1855H67.1068V86.2992H124.8V77.1855Z" fill="#D3B4A0"/>
<path id="Vector_7" d="M124.8 93.1387H67.1068V102.252H124.8V93.1387Z" fill="#D3B4A0"/>
<path id="Vector_8" d="M109.807 109.094H67.1068V118.207H109.807V109.094Z" fill="#D3B4A0"/>
</g>
<path id="Vector_9" d="M90.6043 37.8272C89.4069 34.0636 85.9113 31.5078 81.9621 31.5078H58.0377C57.8512 31.5078 57.6669 31.519 57.4823 31.5302V36.1765C58.0943 35.8355 58.7981 35.6397 59.5484 35.6397H80.4513C82.8007 35.6397 84.7049 37.5439 84.7049 39.8933C84.7049 42.2427 82.8007 44.1469 80.4513 44.1469H63.0038L97.8042 78.9468C98.5419 79.9169 99.7046 80.5461 101.017 80.5461H117.976C120.206 80.5461 122.014 78.7381 122.014 76.5082V48.243C122.014 46.9302 121.385 45.7676 120.414 45.0298L119.531 44.1461H99.2466C95.2973 44.1464 91.802 41.5908 90.6043 37.8272Z" fill="url(#paint4_linear_1566_1174)"/>
<path id="Vector_10" d="M78.4795 41.0496H61.5204C59.2902 41.0496 57.4825 39.2417 57.4825 37.0118V8.74684C57.4825 6.51668 59.2905 4.70898 61.5204 4.70898H78.4793C80.7094 4.70898 82.5171 6.51695 82.5171 8.74684V37.0118C82.5174 39.242 80.7094 41.0496 78.4795 41.0496Z" fill="url(#paint5_linear_1566_1174)"/>
<path id="Vector_11" d="M58.9687 30.6607L69.3571 41.0491H78.479C80.7092 41.0491 82.5169 39.2411 82.5169 37.0112V8.74629C82.5169 7.77805 82.1754 6.8902 81.6074 6.19484C81.5158 6.08246 81.4179 5.97582 81.3151 5.87383C81.3066 5.86535 81.2971 5.85797 81.2886 5.84977C81.1981 5.76199 81.1032 5.67805 81.0048 5.59875C80.9744 5.57441 80.9421 5.55227 80.9112 5.52875C80.8319 5.46859 80.751 5.41008 80.6673 5.35621C80.6269 5.33023 80.5853 5.3059 80.544 5.28129C80.4658 5.23453 80.3862 5.18996 80.3048 5.1484C80.258 5.12461 80.2107 5.10191 80.1628 5.08004C80.0827 5.04312 80.001 5.00922 79.9178 4.9775C79.867 4.95809 79.8164 4.93867 79.7647 4.92144C79.68 4.89301 79.5936 4.86867 79.5061 4.8457C79.4541 4.83203 79.403 4.81727 79.3502 4.80551C79.2553 4.78473 79.1582 4.76941 79.0609 4.75547C79.0141 4.74863 78.9685 4.73934 78.9212 4.73414C78.776 4.71828 78.6289 4.70898 78.4796 4.70898H61.5207C59.2905 4.70898 57.4828 6.51695 57.4828 8.74684V27.5325C57.4826 28.7942 58.062 29.9202 58.9687 30.6607Z" fill="url(#paint6_linear_1566_1174)"/>
<path id="Vector_12" d="M78.4795 4.70898H61.5204C59.2902 4.70898 57.4825 6.51695 57.4825 8.74684V27.5325C57.4825 29.7627 59.2905 31.5704 61.5204 31.5704H78.4793C80.7094 31.5704 82.5171 29.7624 82.5171 27.5325V8.74684C82.5174 6.51695 80.7094 4.70898 78.4795 4.70898Z" fill="url(#paint7_linear_1566_1174)"/>
<path id="Vector_13" d="M82.5174 27.533V22.2341L74.4166 14.1332C73.3242 12.9301 71.753 12.1699 70 12.1699C66.7029 12.1699 64.03 14.8428 64.03 18.1399C64.03 19.8929 64.7902 21.4641 65.9933 22.5564L75.0074 31.5706H78.4796C80.7094 31.5706 82.5174 29.7632 82.5174 27.533Z" fill="url(#paint8_linear_1566_1174)"/>
<path id="Vector_14" d="M70 24.1098C73.2971 24.1098 75.97 21.437 75.97 18.1399C75.97 14.8428 73.2971 12.1699 70 12.1699C66.7029 12.1699 64.03 14.8428 64.03 18.1399C64.03 21.437 66.7029 24.1098 70 24.1098Z" fill="url(#paint9_linear_1566_1174)"/>
</g>
<defs>
<linearGradient id="paint0_linear_1566_1174" x1="69.9985" y1="51.4377" x2="69.9985" y2="196.672" gradientUnits="userSpaceOnUse">
<stop stop-color="#E6E6E6"/>
<stop offset="1" stop-color="#999999"/>
</linearGradient>
<linearGradient id="paint1_linear_1566_1174" x1="69.9985" y1="153.763" x2="69.9985" y2="23.7254" gradientUnits="userSpaceOnUse">
<stop stop-color="#FFF2EB"/>
<stop offset="1" stop-color="#F1DACB"/>
</linearGradient>
<linearGradient id="paint2_linear_1566_1174" x1="69.9985" y1="68.9398" x2="69.9985" y2="134.263" gradientUnits="userSpaceOnUse">
<stop stop-color="#FFF2EB"/>
<stop offset="1" stop-color="#F1DACB"/>
</linearGradient>
<linearGradient id="paint3_linear_1566_1174" x1="36.7089" y1="85.5871" x2="36.7089" y2="158.517" gradientUnits="userSpaceOnUse">
<stop stop-color="#67DCDC"/>
<stop offset="1" stop-color="#019394"/>
</linearGradient>
<linearGradient id="paint4_linear_1566_1174" x1="108.795" y1="61.6783" x2="53.5483" y2="6.42916" gradientUnits="userSpaceOnUse">
<stop stop-color="#E6E6E6" stop-opacity="0"/>
<stop offset="0.143" stop-color="#DCDCDC" stop-opacity="0.143"/>
<stop offset="0.384" stop-color="#C2C2C2" stop-opacity="0.384"/>
<stop offset="0.692" stop-color="#979797" stop-opacity="0.692"/>
<stop offset="1" stop-color="#666666"/>
</linearGradient>
<linearGradient id="paint5_linear_1566_1174" x1="69.9983" y1="35.1266" x2="69.9983" y2="42.2363" gradientUnits="userSpaceOnUse">
<stop stop-color="#FE7695"/>
<stop offset="1" stop-color="#FE547B"/>
</linearGradient>
<linearGradient id="paint6_linear_1566_1174" x1="85.7967" y1="33.9397" x2="70.5096" y2="18.6534" gradientUnits="userSpaceOnUse">
<stop stop-color="#BF3F5C" stop-opacity="0"/>
<stop offset="1" stop-color="#BF3F5C"/>
</linearGradient>
<linearGradient id="paint7_linear_1566_1174" x1="69.9983" y1="20.7261" x2="69.9983" y2="34.0423" gradientUnits="userSpaceOnUse">
<stop stop-color="#FE7695"/>
<stop offset="1" stop-color="#FE547B"/>
</linearGradient>
<linearGradient id="paint8_linear_1566_1174" x1="78.4148" y1="26.5596" x2="66.9131" y2="15.057" gradientUnits="userSpaceOnUse">
<stop stop-color="#BF3F5C" stop-opacity="0"/>
<stop offset="1" stop-color="#BF3F5C"/>
</linearGradient>
<linearGradient id="paint9_linear_1566_1174" x1="69.9985" y1="12.1116" x2="69.9985" y2="36.9048" gradientUnits="userSpaceOnUse">
<stop stop-color="#67DCDC"/>
<stop offset="1" stop-color="#019394"/>
</linearGradient>
</defs>
</svg>
