<svg width="18" height="18" viewBox="0 0 18 18" fill="none" xmlns="http://www.w3.org/2000/svg">
<g id="vuesax/bulk/buy-crypto">
<g id="Group 48095824">
<path id="Vector" d="M17.5 6C17.5 9.0377 15.0377 11.5 12 11.5C11.9895 11.5 11.9789 11.5 11.9683 11.4999C11.5502 8.68348 9.31651 6.44985 6.50014 6.03175C6.50005 6.0211 6.5 6.01052 6.5 6C6.5 2.9623 8.9623 0.5 12 0.5C15.0377 0.5 17.5 2.9623 17.5 6Z" stroke="black"/>
<path id="Vector_2" d="M11.5 12C11.5 15.0377 9.0377 17.5 6 17.5C2.9623 17.5 0.5 15.0377 0.5 12C0.5 8.9623 2.9623 6.5 6 6.5C6.13871 6.5 6.2892 6.50812 6.44555 6.5173C9.12269 6.73083 11.2692 8.8773 11.4827 11.5544C11.4919 11.7107 11.5 11.8613 11.5 12Z" stroke="black"/>
<path id="Vector_3" d="M5.296 11.296L6 10L6.704 11.296L8 12L6.704 12.704L6 14L5.296 12.704L4 12L5.296 11.296Z" fill="#F7B52C"/>
</g>
</g>
</svg>
