<svg width="18" height="18" viewBox="0 0 18 18" fill="none" xmlns="http://www.w3.org/2000/svg">
<g id="&#230;&#148;&#182;&#230;&#172;&#190; 1">
<path id="Vector" d="M12.375 1.6875C12.8226 1.6875 13.2518 1.86529 13.5683 2.18176C13.8847 2.49822 14.0625 2.92745 14.0625 3.375V9.57375H14.0181V10.1363H13.5C13.3508 10.1363 13.2078 10.077 13.1023 9.9715C12.9968 9.86601 12.9375 9.72293 12.9375 9.57375V3.375C12.9375 3.22582 12.8782 3.08274 12.7728 2.97725C12.6673 2.87176 12.5242 2.8125 12.375 2.8125H5.62501C5.47583 2.8125 5.33275 2.87176 5.22726 2.97725C5.12177 3.08274 5.06251 3.22582 5.06251 3.375V9.57375C5.06251 9.72293 5.00325 9.86601 4.89776 9.9715C4.79227 10.077 4.64919 10.1363 4.50001 10.1363H2.87832L9.35101 15.3107L9.22895 15.4637L9.63001 15.9671L9.35045 16.1899C9.25082 16.2693 9.12716 16.3126 8.99973 16.3126C8.8723 16.3126 8.74864 16.2693 8.64901 16.1899L1.5497 10.5137C1.41306 10.4045 1.3137 10.2556 1.26539 10.0876C1.21707 9.91948 1.22217 9.74054 1.27999 9.57549C1.3378 9.41044 1.44548 9.26744 1.58812 9.16625C1.73076 9.06507 1.90131 9.01071 2.0762 9.01069H3.93751V3.375C3.93751 2.92745 4.1153 2.49822 4.43177 2.18176C4.74824 1.86529 5.17746 1.6875 5.62501 1.6875H12.375ZM11.1364 5.103C11.2321 5.21724 11.2787 5.36482 11.2657 5.51332C11.2527 5.66182 11.1813 5.7991 11.0672 5.895L9.8297 6.93281L10.6914 6.93338C10.8292 6.93339 10.9622 6.98398 11.0652 7.07553C11.1681 7.16708 11.2339 7.29323 11.25 7.43006L11.2539 7.49588C11.2539 7.63374 11.2033 7.76678 11.1116 7.86975C11.0199 7.97272 10.8936 8.03845 10.7567 8.05444L10.6914 8.05838H9.56251V8.9595L10.6875 8.96006C10.8254 8.9601 10.9584 9.01076 11.0614 9.10243C11.1644 9.19409 11.2301 9.32038 11.2461 9.45731L11.25 9.52256C11.25 9.66034 11.1994 9.79331 11.1079 9.89627C11.0163 9.99923 10.8902 10.065 10.7533 10.0811L10.6875 10.0856H9.56251V12.447C9.56249 12.5848 9.51191 12.7178 9.42036 12.8207C9.32881 12.9237 9.20265 12.9894 9.06582 13.0056L9.00001 13.0095C8.86215 13.0095 8.7291 12.9588 8.62613 12.8671C8.52316 12.7755 8.45744 12.6492 8.44145 12.5122L8.43751 12.4464V10.0845L7.31251 10.0851C7.17474 10.085 7.04176 10.0345 6.9388 9.94291C6.83584 9.85136 6.77007 9.7252 6.75395 9.58837L6.75001 9.52256C6.75003 9.38479 6.80061 9.25181 6.89216 9.14885C6.98371 9.0459 7.10987 8.98012 7.2467 8.964L7.31251 8.96006H8.43751V8.05781L7.31645 8.05838C7.17867 8.05836 7.0457 8.00777 6.94274 7.91622C6.83978 7.82467 6.774 7.69852 6.75789 7.56169L6.75395 7.49588C6.75397 7.3581 6.80455 7.22512 6.8961 7.12217C6.98765 7.01921 7.11381 6.95343 7.25064 6.93731L7.31645 6.93338H8.16976L6.93282 5.895C6.82798 5.80699 6.75884 5.68377 6.73833 5.54843C6.71783 5.4131 6.74738 5.27493 6.82145 5.15981L6.86364 5.103C6.95167 4.99802 7.075 4.92877 7.21046 4.90827C7.34593 4.88776 7.48422 4.9174 7.59939 4.99162L7.65564 5.03325L9.00001 6.16106L10.3444 5.03325C10.4587 4.93755 10.6063 4.89114 10.7548 4.90422C10.9033 4.9173 11.0406 4.9888 11.1364 5.103Z" fill="#1C1C1E"/>
<path id="Vector_2" d="M8.64955 15.3101C8.53601 15.4041 8.46389 15.5388 8.44868 15.6854C8.43348 15.832 8.4764 15.9787 8.56823 16.094C8.66006 16.2092 8.79345 16.2839 8.93972 16.3018C9.086 16.3197 9.23347 16.2795 9.35042 16.1899L16.47 10.5148C16.6068 10.4058 16.7064 10.2569 16.7548 10.0887C16.8033 9.9206 16.7983 9.74157 16.7405 9.57641C16.6828 9.41125 16.5751 9.26813 16.4324 9.16688C16.2897 9.06562 16.119 9.01124 15.944 9.01125H13.5C13.3508 9.01125 13.2077 9.07051 13.1022 9.176C12.9967 9.28149 12.9375 9.42456 12.9375 9.57375C12.9375 9.72293 12.9967 9.866 13.1022 9.97149C13.2077 10.077 13.3508 10.1362 13.5 10.1362H15.1397L8.64955 15.3101Z" fill="#FAAC08"/>
</g>
</svg>
