<svg width="18" height="18" viewBox="0 0 18 18" fill="none" xmlns="http://www.w3.org/2000/svg">
<g id="&#232;&#174;&#190;&#231;&#189;&#174; 1">
<path id="Vector" d="M9.03621 16.8657C8.37844 16.8657 7.72242 16.7829 7.08451 16.617L6.59127 16.4886L6.6368 15.981C6.6876 15.4148 6.40424 14.8686 5.91504 14.5895C5.42426 14.3095 4.8085 14.3443 4.34655 14.6783L3.93451 14.9762L3.57205 14.6195C3.06668 14.1221 2.63778 13.5745 2.29746 12.9922C1.96506 12.4232 1.70244 11.7944 1.51717 11.1231L1.38182 10.6332L1.84219 10.4178C2.35547 10.1779 2.68524 9.66041 2.68242 9.09931C2.67944 8.53224 2.34018 8.01562 1.81793 7.78341L1.35211 7.57617L1.48008 7.08258C1.82321 5.75806 2.51684 4.53884 3.48574 3.55675L3.8424 3.19517L4.25865 3.48609C4.72307 3.81076 5.33637 3.83765 5.82082 3.55465C6.30862 3.2697 6.58635 2.71916 6.52817 2.15244L6.47631 1.64724L6.96569 1.51136C8.29582 1.14222 9.69856 1.12886 11.0218 1.47304L11.5153 1.60136L11.4701 2.10937C11.4193 2.67556 11.7026 3.22172 12.1918 3.50086C12.6826 3.78088 13.2984 3.74607 13.7603 3.41209L14.1725 3.11414L14.535 3.4708C15.0405 3.96826 15.4693 4.51582 15.8096 5.09818C16.142 5.66718 16.4046 6.29595 16.5899 6.96726L16.7252 7.45716L16.2649 7.6725C15.7516 7.91244 15.4218 8.42994 15.4246 8.99086C15.4274 9.55793 15.7669 10.0745 16.2891 10.3068L16.7549 10.514L16.627 11.0076C16.2839 12.3321 15.5902 13.5513 14.6213 14.5334L14.2647 14.895L13.8484 14.6041C13.3838 14.2794 12.7707 14.2525 12.2862 14.5355C11.7984 14.8205 11.5207 15.371 11.5789 15.9377L11.6307 16.4429L11.1414 16.5788C10.4518 16.7699 9.74321 16.8657 9.03621 16.8657ZM7.8293 15.551C8.66901 15.7078 9.53684 15.699 10.3806 15.5252C10.4641 14.6897 10.9401 13.928 11.6787 13.4963C12.1252 13.2354 12.6336 13.112 13.1484 13.1391C13.4678 13.156 13.7797 13.23 14.0702 13.3562C14.632 12.7039 15.0616 11.9498 15.333 11.1393C14.6486 10.6497 14.2253 9.85535 14.2209 8.99683C14.2182 8.47986 14.3654 7.978 14.6463 7.54558C14.8198 7.2786 15.0397 7.04487 15.2956 6.85547C15.1543 6.4466 14.9783 6.06111 14.7702 5.70498C14.5557 5.33795 14.2984 4.98621 14.0024 4.65504C13.237 5.00097 12.3388 4.96968 11.5954 4.5457C11.1451 4.28871 10.7833 3.9092 10.5493 3.44812C10.405 3.16385 10.3129 2.85598 10.2774 2.53916C9.4377 2.38236 8.56987 2.39115 7.72612 2.565C7.64262 3.40048 7.1666 4.16214 6.42797 4.59386C5.98149 4.85472 5.47313 4.97812 4.95826 4.95105C4.63887 4.93418 4.32703 4.86017 4.03647 4.73396C3.47467 5.38629 3.04506 6.14039 2.77365 6.95091C3.45815 7.44047 3.88143 8.235 3.88582 9.09316C3.88846 9.61031 3.74133 10.112 3.46026 10.5444C3.28677 10.8114 3.06685 11.0451 2.81092 11.2345C2.95225 11.6434 3.12821 12.0289 3.33633 12.385C3.55078 12.752 3.80813 13.1038 4.10414 13.4348C4.86949 13.0888 5.76774 13.1201 6.51112 13.5443C6.96147 13.8013 7.32323 14.1808 7.55719 14.6419C7.70166 14.9262 7.79383 15.2341 7.8293 15.551Z" fill="#231815"/>
<path id="Vector_2" d="M8.97309 11.8447C8.72225 11.8447 8.46966 11.8123 8.22057 11.7469C7.45979 11.5472 6.82206 11.0631 6.42532 10.3839C6.02858 9.70471 5.91995 8.91159 6.11964 8.1508C6.31932 7.39002 6.80343 6.75246 7.48264 6.35555C8.16186 5.95881 8.95499 5.85018 9.71577 6.04987C10.4767 6.24955 11.1141 6.73366 11.511 7.41287C11.9079 8.09209 12.0164 8.88522 11.8167 9.646C11.617 10.4068 11.1329 11.0443 10.4537 11.4413C9.99684 11.7081 9.48848 11.8447 8.97309 11.8447ZM8.96518 7.15606C8.66038 7.15606 8.35979 7.23674 8.08962 7.39459C7.68796 7.62926 7.40161 8.00631 7.28366 8.45631C7.16571 8.90631 7.2297 9.3753 7.46436 9.77696C7.69903 10.1786 8.07608 10.465 8.52608 10.5831C8.97608 10.7012 9.44507 10.6371 9.84673 10.4024C10.2484 10.1677 10.5347 9.79067 10.6527 9.34067C10.7708 8.89067 10.7066 8.42168 10.472 8.02002C10.2373 7.61836 9.86026 7.33201 9.41026 7.21407C9.26502 7.17564 9.11542 7.15615 8.96518 7.15606Z" fill="#F7B52C"/>
</g>
</svg>
