<svg width="18" height="18" viewBox="0 0 18 18" fill="none" xmlns="http://www.w3.org/2000/svg">
<g id="&#230;&#136;&#145;&#228;&#187;&#172;  &#229;&#155;&#162;&#233;&#152;&#159; 1">
<path id="Vector" d="M11 2C11.868 1.99987 12.7124 2.27161 13.4059 2.77421C14.0994 3.27681 14.6044 3.983 14.8445 4.78619C15.0846 5.58939 15.0469 6.446 14.7371 7.22676C14.4273 8.00752 13.8622 8.67005 13.127 9.11437C15.3905 9.94107 17 12.0485 17 14.5185C17 14.6462 16.9473 14.7687 16.8536 14.859C16.7598 14.9493 16.6326 15 16.5 15C16.3674 15 16.2402 14.9493 16.1464 14.859C16.0527 14.7687 16 14.6462 16 14.5185C16 11.8593 13.7615 9.7037 11 9.7037C8.2385 9.7037 6 11.8593 6 14.5185C6 14.6462 5.94732 14.7687 5.85355 14.859C5.75979 14.9493 5.63261 15 5.5 15C5.36739 15 5.24021 14.9493 5.14645 14.859C5.05268 14.7687 5 14.6462 5 14.5185C5 12.0485 6.6095 9.94107 8.873 9.11437C8.13783 8.67005 7.57269 8.00752 7.26287 7.22676C6.95306 6.446 6.91537 5.58939 7.1555 4.78619C7.39564 3.983 7.90056 3.27681 8.59407 2.77421C9.28757 2.27161 10.132 1.99987 11 2ZM11 2.96296C10.2044 2.96296 9.44129 3.26733 8.87868 3.8091C8.31607 4.35087 8 5.08567 8 5.85185C8 6.61803 8.31607 7.35283 8.87868 7.8946C9.44129 8.43638 10.2044 8.74074 11 8.74074C11.7956 8.74074 12.5587 8.43638 13.1213 7.8946C13.6839 7.35283 14 6.61803 14 5.85185C14 5.08567 13.6839 4.35087 13.1213 3.8091C12.5587 3.26733 11.7956 2.96296 11 2.96296Z" fill="#1C1C1E"/>
<path id="Vector_2" d="M6.54545 3C6.66601 3 6.78162 3.05428 6.86687 3.15091C6.95211 3.24753 7 3.37858 7 3.51522C7 3.65187 6.95211 3.78292 6.86687 3.87954C6.78162 3.97616 6.66601 4.03044 6.54545 4.03044C6.01502 4.03044 5.50631 4.26929 5.13124 4.69443C4.75617 5.11957 4.54545 5.69618 4.54545 6.29742C4.54545 6.89866 4.75617 7.47528 5.13124 7.90042C5.50631 8.32556 6.01502 8.5644 6.54545 8.5644C6.66601 8.5644 6.78162 8.61869 6.86687 8.71531C6.95211 8.81193 7 8.94298 7 9.07963C7 9.21627 6.95211 9.34732 6.86687 9.44394C6.78162 9.54057 6.66601 9.59485 6.54545 9.59485C6.49682 9.59485 6.44864 9.5933 6.40045 9.59073L6.39409 9.59124L6.34091 9.59485C5.43073 9.59485 4.55784 10.0047 3.91425 10.7342C3.27066 11.4637 2.90909 12.4531 2.90909 13.4848C2.90909 13.6214 2.8612 13.7525 2.77596 13.8491C2.69071 13.9457 2.5751 14 2.45455 14C2.33399 14 2.21838 13.9457 2.13313 13.8491C2.04789 13.7525 2 13.6214 2 13.4848C1.99996 12.4946 2.26339 11.5275 2.75586 10.7097C3.24833 9.89195 3.94695 9.26153 4.76045 8.90084C4.2818 8.47911 3.93134 7.89841 3.75806 7.2399C3.58478 6.58138 3.59734 5.87796 3.79397 5.22793C3.9906 4.57789 4.36149 4.01374 4.8548 3.61429C5.34812 3.21485 5.9392 3.00008 6.54545 3Z" fill="#FAAC08"/>
</g>
</svg>
