<svg width="24" height="24" viewBox="0 0 24 24" fill="none" xmlns="http://www.w3.org/2000/svg">
<g id="zhengjianbanli 1">
<path id="Vector" d="M2.51026 2.87793H21.4891C22.778 2.87793 23.8336 3.93256 23.8336 5.22145V5.80065H0.166451V5.22145C0.166451 3.93256 1.22137 2.87793 2.51026 2.87793ZM14.7921 12.0689H21.1337V13.356H14.7921V12.0689ZM6.2656 14.9346H6.65732C7.02034 15.1016 7.43914 15.197 7.88515 15.197C8.33119 15.197 8.74995 15.1016 9.11297 14.9346H9.50469C10.6317 14.9346 11.5538 15.8566 11.5538 16.9837V17.2093C11.5538 17.6976 11.1543 18.0972 10.6659 18.0972H5.10448C4.61612 18.0972 4.21655 17.6977 4.21655 17.2093V16.9837C4.21655 15.8566 5.13863 14.9346 6.2656 14.9346ZM7.88515 9.71702C9.02039 9.71702 9.94074 10.6373 9.94074 11.7726C9.94074 12.9079 9.02039 13.8282 7.88515 13.8282C6.7499 13.8282 5.82955 12.9079 5.82955 11.7726C5.82955 10.6373 6.7499 9.71702 7.88515 9.71702ZM14.7921 14.7347H21.1337V16.0212H14.7921V14.7347ZM14.7921 9.40348H21.1337V10.6903H14.7921V9.40348ZM23.8335 7.19013H0.166451V18.7785C0.166451 20.0674 1.22137 21.1217 2.51026 21.1217H21.4891C22.778 21.1217 23.8336 20.0674 23.8336 18.7785L23.8335 7.19013Z" fill="#F6C944"/>
</g>
</svg>
