<svg width="12" height="12" viewBox="0 0 12 12" fill="none" xmlns="http://www.w3.org/2000/svg">
<g id="Frame" clip-path="url(#clip0_2700_1756)">
<path id="Vector" d="M5.99999 11.864C2.76163 11.864 0.136353 9.23872 0.136353 6.00036C0.136353 2.76199 2.76163 0.136719 5.99999 0.136719C9.23835 0.136719 11.8636 2.76199 11.8636 6.00036C11.8636 9.23872 9.23835 11.864 5.99999 11.864ZM5.99999 11.0458C8.78644 11.0458 11.0454 8.78681 11.0454 6.00036C11.0454 3.2139 8.78644 0.954901 5.99999 0.954901C3.21353 0.954901 0.954534 3.2139 0.954534 6.00036C0.954534 8.78681 3.21353 11.0458 5.99999 11.0458ZM8.02172 5.20126H8.02144C8.2219 5.20126 8.39644 5.38345 8.39644 5.5839V5.62617C8.39644 5.82772 8.2219 5.97908 8.02144 5.97908H6.38317V6.6609H7.68053C7.88535 6.66526 8.05063 6.82999 8.05553 7.03481V7.07763C8.05553 7.27808 7.88099 7.42808 7.68053 7.42808H6.38317V9.01726C6.38051 9.11723 6.33892 9.2122 6.26727 9.28196C6.19563 9.35173 6.09958 9.39076 5.99958 9.39076C5.89958 9.39076 5.80353 9.35173 5.73188 9.28196C5.66024 9.2122 5.61865 9.11723 5.61599 9.01726V7.42754H4.31099C4.11081 7.42754 3.95399 7.27754 3.95399 7.07763V7.03481C3.95399 6.83435 4.11081 6.6609 4.31099 6.6609H5.61681V5.97908H3.97144C3.87529 5.97974 3.78281 5.94218 3.71433 5.87468C3.64585 5.80717 3.60698 5.71524 3.60626 5.61908V5.5839C3.60708 5.38208 3.7699 5.21845 3.97172 5.21626H5.74553C5.73763 5.21626 5.73053 5.2059 5.72263 5.19799L4.46372 3.9399C4.39183 3.86752 4.35161 3.76958 4.35186 3.66757C4.35212 3.56557 4.39284 3.46783 4.46508 3.39581C4.53699 3.32346 4.63467 3.28259 4.73667 3.28218C4.83868 3.28177 4.93668 3.32185 5.00917 3.39363L5.99917 4.38226L6.98317 3.39663C7.01867 3.36089 7.06087 3.3325 7.10736 3.31311C7.15386 3.29372 7.20372 3.2837 7.25409 3.28362C7.30447 3.28354 7.35436 3.29342 7.40091 3.31267C7.44746 3.33192 7.48975 3.36017 7.52535 3.39581C7.6759 3.54499 7.67453 3.78581 7.52453 3.93581L6.26535 5.1909C6.25772 5.19799 6.25035 5.20126 6.24272 5.20126H8.02172Z" fill="#888888"/>
</g>
<defs>
<clipPath id="clip0_2700_1756">
<rect width="12" height="12" fill="white"/>
</clipPath>
</defs>
</svg>
