<svg width="14" height="14" viewBox="0 0 14 14" fill="none" xmlns="http://www.w3.org/2000/svg">
<g id="Frame" opacity="0.5">
<path id="Vector" d="M11.2292 3.49935C11.2292 3.38332 11.2753 3.27204 11.3573 3.18999C11.4394 3.10794 11.5506 3.06185 11.6667 3.06185C11.7827 3.06185 11.894 3.10794 11.976 3.18999C12.0581 3.27204 12.1042 3.38332 12.1042 3.49935V11.2285C12.1042 12.1145 11.3859 12.8327 10.5 12.8327H3.50001C2.61407 12.8327 1.89584 12.1145 1.89584 11.2285V2.77018C1.89584 1.88424 2.61407 1.16602 3.50001 1.16602H11.6667C11.7827 1.16602 11.894 1.21211 11.976 1.29416C12.0581 1.3762 12.1042 1.48748 12.1042 1.60352C12.1042 1.71955 12.0581 1.83083 11.976 1.91287C11.894 1.99492 11.7827 2.04102 11.6667 2.04102H3.50001C3.40425 2.04102 3.30944 2.05988 3.22097 2.09652C3.1325 2.13316 3.05212 2.18687 2.98441 2.25458C2.9167 2.32229 2.86299 2.40268 2.82635 2.49114C2.7897 2.57961 2.77084 2.67443 2.77084 2.77018V11.2285C2.77084 11.3243 2.7897 11.4191 2.82635 11.5076C2.86299 11.596 2.9167 11.6764 2.98441 11.7441C3.05212 11.8118 3.1325 11.8655 3.22097 11.9022C3.30944 11.9388 3.40425 11.9577 3.50001 11.9577H10.5C10.5958 11.9577 10.6906 11.9388 10.779 11.9022C10.8675 11.8655 10.9479 11.8118 11.0156 11.7441C11.0833 11.6764 11.137 11.596 11.1737 11.5076C11.2103 11.4191 11.2292 11.3243 11.2292 11.2285V3.49935ZM4.66668 5.97852C4.55064 5.97852 4.43936 5.93242 4.35732 5.85037C4.27527 5.76833 4.22918 5.65705 4.22918 5.54102C4.22918 5.42498 4.27527 5.3137 4.35732 5.23166C4.43936 5.14961 4.55064 5.10352 4.66668 5.10352H9.33334C9.44938 5.10352 9.56066 5.14961 9.6427 5.23166C9.72475 5.3137 9.77084 5.42498 9.77084 5.54102C9.77084 5.65705 9.72475 5.76833 9.6427 5.85037C9.56066 5.93242 9.44938 5.97852 9.33334 5.97852H4.66668ZM4.66668 8.31185C4.55064 8.31185 4.43936 8.26576 4.35732 8.18371C4.27527 8.10166 4.22918 7.99038 4.22918 7.87435C4.22918 7.75832 4.27527 7.64704 4.35732 7.56499C4.43936 7.48294 4.55064 7.43685 4.66668 7.43685H7.58334C7.69938 7.43685 7.81066 7.48294 7.8927 7.56499C7.97475 7.64704 8.02084 7.75832 8.02084 7.87435C8.02084 7.99038 7.97475 8.10166 7.8927 8.18371C7.81066 8.26576 7.69938 8.31185 7.58334 8.31185H4.66668Z" fill="black"/>
</g>
</svg>
