<svg width="20" height="20" viewBox="0 0 20 20" fill="none" xmlns="http://www.w3.org/2000/svg">
<g id="Group 48095661">
<path id="Vector" d="M17.875 16.8421H13.375C13.375 17.6796 13.0194 18.4829 12.3865 19.0751C11.7535 19.6673 10.8951 20 10 20C9.1049 20 8.24645 19.6673 7.61352 19.0751C6.98058 18.4829 6.625 17.6796 6.625 16.8421H2.125C1.97726 16.8421 1.83097 16.8149 1.69448 16.762C1.55799 16.7091 1.43397 16.6315 1.3295 16.5338C1.22504 16.4361 1.14217 16.32 1.08564 16.1923C1.0291 16.0646 1 15.9277 1 15.7895V14.7368H3.25V8.42105C3.25427 6.93141 3.82113 5.49113 4.85043 4.35469C5.87973 3.21825 7.30521 2.45879 8.875 2.21053V1.05263C8.875 0.773456 8.99353 0.505715 9.20451 0.308309C9.41548 0.110902 9.70163 0 10 0C10.2984 0 10.5845 0.110902 10.7955 0.308309C11.0065 0.505715 11.125 0.773456 11.125 1.05263V2.21053C12.6948 2.45879 14.1203 3.21825 15.1496 4.35469C16.1789 5.49113 16.7457 6.93141 16.75 8.42105V14.7368H19V15.7895C19 16.0686 18.8815 16.3364 18.6705 16.5338C18.4595 16.7312 18.1734 16.8421 17.875 16.8421ZM10 17.8947C10.2984 17.8947 10.5845 17.7838 10.7955 17.5864C11.0065 17.389 11.125 17.1213 11.125 16.8421H8.875C8.875 17.1213 8.99353 17.389 9.20451 17.5864C9.41548 17.7838 9.70163 17.8947 10 17.8947ZM14.5 8.42105C14.5 7.86812 14.3836 7.3206 14.1575 6.80975C13.9313 6.29891 13.5998 5.83474 13.182 5.44376C12.7641 5.05278 12.268 4.74263 11.7221 4.53103C11.1761 4.31943 10.5909 4.21053 10 4.21053C8.80653 4.21053 7.66193 4.65413 6.81802 5.44376C5.97411 6.23339 5.5 7.30435 5.5 8.42105V14.7368H14.5V8.42105Z" fill="#333333"/>
</g>
</svg>
