<svg width="24" height="24" viewBox="0 0 24 24" fill="none" xmlns="http://www.w3.org/2000/svg">
<path d="M18.0141 14.8883H18.0047C17.5898 14.8836 17.2594 14.5437 17.2617 14.1312C17.2805 12.3289 17.2898 10.2781 17.2687 9.99452C17.2148 9.59608 17.4867 9.22343 17.8875 9.15546C18.2953 9.08514 18.682 9.36171 18.7523 9.76952C18.7687 9.86327 18.7898 9.99218 18.7781 12.1156C18.7734 13.1351 18.7617 14.1359 18.7617 14.1476C18.7594 14.5578 18.4242 14.8883 18.0141 14.8883ZM17.2711 10.0016C17.2711 10.0086 17.2734 10.0156 17.2734 10.0203C17.2734 10.0133 17.2711 10.0086 17.2711 10.0016Z" fill="white"/>
<path d="M18.0094 10.6883C17.5945 10.6883 17.2594 10.3531 17.2594 9.93828C17.2594 7.05313 14.9133 4.70703 12.0281 4.70703C9.14297 4.70703 6.79688 7.05313 6.79688 9.93828C6.79688 10.3531 6.46172 10.6883 6.04688 10.6883C5.63203 10.6883 5.29688 10.3531 5.29688 9.93828C5.29688 8.14063 5.99766 6.45078 7.26797 5.17812C8.53828 3.90781 10.2305 3.20703 12.0281 3.20703C13.8258 3.20703 15.5156 3.90781 16.7883 5.17812C18.0586 6.44844 18.7594 8.14063 18.7594 9.93828C18.7594 10.3531 18.4219 10.6883 18.0094 10.6883Z" fill="white"/>
<path d="M13.7414 4.95625C13.6687 4.95625 13.5961 4.94688 13.5258 4.92578C13.0406 4.78047 12.5367 4.70781 12.0281 4.70781C11.5195 4.70781 11.0156 4.78047 10.5305 4.92578C10.3242 4.98672 10.1039 4.95859 9.92109 4.84609C9.73828 4.73359 9.61406 4.54844 9.57656 4.3375C9.55078 4.19688 9.53906 4.05156 9.53906 3.90859C9.53906 3.23828 9.80625 2.62188 10.2891 2.17656C10.7508 1.75 11.3672 1.51562 12.0281 1.51562C12.6891 1.51562 13.3055 1.75 13.7672 2.17656C14.25 2.62422 14.5172 3.24063 14.5172 3.90859C14.5172 4.05156 14.5055 4.19688 14.4797 4.3375C14.4422 4.54844 14.318 4.73359 14.1352 4.84609C14.0156 4.91641 13.8797 4.95625 13.7414 4.95625ZM12.0281 3.00859C11.7797 3.00859 11.5312 3.08594 11.3437 3.24063C11.7961 3.19375 12.2578 3.19375 12.7125 3.24063C12.525 3.08828 12.2766 3.00859 12.0281 3.00859ZM6.04922 14.7672H6.03984C5.625 14.7625 5.29453 14.4227 5.29687 14.0102C5.31562 12.2078 5.325 10.157 5.3039 9.87344C5.25 9.475 5.52187 9.10234 5.92265 9.03437C6.33047 8.96406 6.71718 9.24062 6.7875 9.64844C6.8039 9.74219 6.825 9.87109 6.81328 11.9945C6.80859 13.0141 6.79687 14.0148 6.79687 14.0266C6.79453 14.4367 6.45937 14.7672 6.04922 14.7672ZM5.30625 9.88047C5.30625 9.8875 5.30859 9.89453 5.30859 9.90156C5.30859 9.89219 5.30859 9.88516 5.30625 9.88047Z" fill="white"/>
<path d="M18.9188 19.6398H18.9141L5.07657 19.546C4.54688 19.546 4.0711 19.2929 3.80625 18.871C3.55547 18.4749 3.52969 17.978 3.7336 17.5351L5.35782 13.7218C5.51953 13.3397 5.96016 13.164 6.34219 13.3257C6.72422 13.4874 6.9 13.928 6.73828 14.3101L5.14922 18.046L18.893 18.1398L17.3039 14.3054C17.1445 13.9233 17.3273 13.4851 17.7094 13.3257C18.0914 13.1663 18.5297 13.3491 18.6891 13.7312L20.2898 17.5937V17.596C20.4773 18.053 20.4258 18.5733 20.1492 18.9835C19.875 19.3937 19.4156 19.6398 18.9188 19.6398Z" fill="white"/>
<path d="M11.9109 22.5367C10.95 22.5367 10.043 22.143 9.35625 21.4258C8.6836 20.7227 8.31563 19.8086 8.31563 18.8477C8.31563 18.4328 8.65078 18.0977 9.06563 18.0977C9.48047 18.0977 9.81563 18.4328 9.81563 18.8477C9.81563 20.0336 10.7742 21.0367 11.9109 21.0367C13.0922 21.0367 14.0063 19.8602 14.0063 18.8477C14.0063 18.4328 14.3414 18.0977 14.7563 18.0977C15.1711 18.0977 15.5063 18.4328 15.5063 18.8477C15.5063 19.75 15.1289 20.6734 14.4703 21.3789C13.7742 22.1266 12.8648 22.5367 11.9109 22.5367Z" fill="white"/>
</svg>
