<svg width="20" height="20" viewBox="0 0 20 20" fill="none" xmlns="http://www.w3.org/2000/svg">
<g id="Group 48095707">
<g id="Group 48095683">
<g id="Group 238094">
<path id="Vector" d="M12.2954 13.1475C11.9721 13.1475 11.7084 13.4021 11.7084 13.7161V15.6672C11.7084 15.9812 11.9721 16.2369 12.2954 16.2369C12.6196 16.2369 12.8839 15.9812 12.8839 15.6672V13.7161C12.8839 13.4022 12.6196 13.1475 12.2954 13.1475ZM10.3966 3.56769C10.3535 2.76286 9.72328 2.1 8.91735 2.01241V2.00027H4.66439C3.77905 2.00027 3.05024 2.6967 3.00322 3.56769L3.00054 7.59015C3.00054 7.64093 3.00947 7.69093 3.02539 7.73684C3.16112 8.53651 3.85047 9.11756 4.66441 9.11756H8.83575L8.91739 9.11269V9.10589C9.65623 9.02702 10.2503 8.47414 10.3713 7.74908C10.3902 7.69147 10.3999 7.64095 10.3999 7.59017V3.64893V3.56769H10.3966ZM9.40438 3.74141V7.37632C9.40438 7.78925 9.06703 8.12467 8.65198 8.12467H4.7471C4.33249 8.12467 3.99529 7.78925 3.99529 7.37632V3.74141C3.99529 3.32843 4.33249 2.99261 4.7471 2.99261H8.652C9.06703 2.99262 9.40438 3.32845 9.40438 3.74141ZM10.2016 11.5953C10.1583 10.8127 9.54598 10.168 8.76221 10.0819V10.0701H4.62171C3.75963 10.0701 3.04997 10.7473 3.00348 11.5953L3 15.5111C3 15.5624 3.01001 15.6143 3.02456 15.6548C3.15677 16.4336 3.82886 17 4.62171 17H8.68117L8.76221 16.9957V16.9881C9.48166 16.9109 10.0594 16.3725 10.1762 15.6683C10.1956 15.617 10.2053 15.5645 10.2053 15.5111V11.6769L10.2042 11.5953H10.2016ZM9.23249 11.7661V15.3035C9.23249 15.7041 8.90547 16.0299 8.50285 16.0299H4.70222C4.30011 16.0299 3.97309 15.7041 3.97309 15.3035V11.7661C3.97309 11.3661 4.30011 11.0398 4.70222 11.0398H8.50283C8.90547 11.0398 9.23249 11.3661 9.23249 11.7661ZM14.4805 10.7073C14.1568 10.7073 13.893 10.9624 13.893 11.2764V13.2286C13.893 13.5421 14.1568 13.7977 14.4805 13.7977C14.8037 13.7977 15.068 13.5421 15.068 13.2286V11.2764C15.068 10.9624 14.8037 10.7073 14.4805 10.7073ZM17.9996 3.52923H17.9973C17.9535 2.74446 17.3396 2.09808 16.5537 2.01168V2H12.8331C11.9705 2 11.2587 2.67913 11.2111 3.52923L11.2084 7.45553C11.2084 7.50745 11.2182 7.56072 11.2333 7.59872C11.3652 8.37972 12.0386 8.94696 12.8331 8.94696H16.4727L16.5537 8.94234V8.93593C17.2747 8.85725 17.8535 8.3176 17.9725 7.61198C17.9908 7.55879 18 7.50634 18 7.45553V3.61064L17.9996 3.52923ZM17.0251 3.70037V7.24669C17.0251 7.6485 16.6969 7.97523 16.2933 7.97523H12.9153C12.5111 7.97523 12.1829 7.6485 12.1829 7.24669V3.70037C12.1829 3.299 12.5111 2.97256 12.9153 2.97256H16.2933C16.6969 2.97256 17.0251 3.299 17.0251 3.70037ZM16.6375 10.7068C16.3137 10.7068 16.05 10.9624 16.05 11.2764V12.252C16.05 12.566 16.3137 12.8211 16.6375 12.8211C16.9613 12.8211 17.2256 12.566 17.2256 12.252V11.2764C17.2256 10.9624 16.9613 10.7068 16.6375 10.7068ZM16.6375 13.6345C16.3137 13.6345 16.05 13.8896 16.05 14.2036V15.6672C16.05 15.9818 16.3137 16.2369 16.6375 16.2369C16.9613 16.2369 17.2256 15.9818 17.2256 15.6672V14.2036C17.2256 13.8896 16.9613 13.6345 16.6375 13.6345ZM14.4805 14.1231C14.1568 14.1231 13.893 14.3782 13.893 14.6917V15.6678C13.893 15.9813 14.1568 16.2369 14.4805 16.2369C14.8037 16.2369 15.068 15.9812 15.068 15.6678V14.6917C15.068 14.3782 14.8037 14.1231 14.4805 14.1231ZM12.2954 10.7068C11.9721 10.7068 11.7084 10.9624 11.7084 11.2764V11.7645C11.7084 12.078 11.9721 12.3337 12.2954 12.3337C12.6196 12.3337 12.8839 12.078 12.8839 11.7645V11.2764C12.8839 10.9624 12.6196 10.7068 12.2954 10.7068Z" fill="#272636"/>
</g>
</g>
<rect id="Rectangle 4241" x="5" y="4" width="3" height="3" fill="#FAAC08"/>
</g>
</svg>
