<svg width="20" height="20" viewBox="0 0 20 20" fill="none" xmlns="http://www.w3.org/2000/svg">
<g id="Group 48095662">
<g id="Group 238092">
<path id="Vector" d="M3.54466 6.39883V3.95384C3.54466 3.83574 3.59158 3.72247 3.67509 3.63896C3.7586 3.55544 3.87187 3.50853 3.98997 3.50853H6.43497C6.55307 3.50853 6.66634 3.46161 6.74985 3.3781C6.83337 3.29458 6.88028 3.18132 6.88028 3.06321V1.40918C6.88028 1.29108 6.83337 1.17781 6.74985 1.0943C6.66634 1.01078 6.55307 0.963867 6.43497 0.963867H1.44532C1.32721 0.963867 1.21394 1.01078 1.13043 1.0943C1.04692 1.17781 1 1.29108 1 1.40918V6.39883C1 6.51694 1.04692 6.63021 1.13043 6.71372C1.21394 6.79723 1.32721 6.84415 1.44532 6.84415H3.09934C3.21745 6.84415 3.33072 6.79723 3.41423 6.71372C3.49774 6.63021 3.54466 6.51694 3.54466 6.39883ZM13.4222 3.50853H15.8693C15.987 3.50909 16.0998 3.55625 16.1828 3.6397C16.2659 3.72316 16.3125 3.8361 16.3125 3.95384V6.39883C16.3125 6.51694 16.3594 6.63021 16.4429 6.71372C16.5264 6.79723 16.6397 6.84415 16.7578 6.84415H18.4139C18.5317 6.84359 18.6444 6.79642 18.7275 6.71297C18.8105 6.62952 18.8571 6.51657 18.8571 6.39883V1.40918C18.8571 1.29144 18.8105 1.1785 18.7275 1.09504C18.6444 1.01159 18.5317 0.964428 18.4139 0.963867L13.4222 0.963867C13.3041 0.963867 13.1908 1.01078 13.1073 1.0943C13.0238 1.17781 12.9769 1.29108 12.9769 1.40918V3.06321C12.9769 3.18132 13.0238 3.29458 13.1073 3.3781C13.1908 3.46161 13.3041 3.50853 13.4222 3.50853ZM6.43497 16.2764H3.98997C3.87224 16.2764 3.75929 16.2297 3.67584 16.1467C3.59238 16.0636 3.54522 15.9509 3.54466 15.8332V13.386C3.54466 13.2679 3.49774 13.1547 3.41423 13.0712C3.33072 12.9876 3.21745 12.9407 3.09934 12.9407H1.44532C1.32721 12.9407 1.21394 12.9876 1.13043 13.0712C1.04692 13.1547 1 13.2679 1 13.386V18.3778C1.00056 18.4956 1.04773 18.6083 1.13118 18.6913C1.21463 18.7744 1.32758 18.821 1.44532 18.821H6.43497C6.55271 18.821 6.66565 18.7744 6.74911 18.6913C6.83256 18.6083 6.87972 18.4956 6.88028 18.3778V16.7217C6.88028 16.6036 6.83337 16.4903 6.74985 16.4068C6.66634 16.3233 6.55307 16.2764 6.43497 16.2764ZM16.3125 13.386V15.8332C16.3119 15.9505 16.2651 16.0629 16.1821 16.1459C16.0991 16.2289 15.9867 16.2758 15.8693 16.2764H13.4222C13.3041 16.2764 13.1908 16.3233 13.1073 16.4068C13.0238 16.4903 12.9769 16.6036 12.9769 16.7217V18.3778C12.9774 18.4956 13.0246 18.6083 13.108 18.6913C13.1915 18.7744 13.3044 18.821 13.4222 18.821H18.4139C18.5313 18.8205 18.6437 18.7736 18.7267 18.6906C18.8097 18.6076 18.8566 18.4952 18.8571 18.3778V13.386C18.8571 13.2683 18.8105 13.1554 18.7275 13.0719C18.6444 12.9885 18.5317 12.9413 18.4139 12.9407H16.7578C16.6397 12.9407 16.5264 12.9876 16.4429 13.0712C16.3594 13.1547 16.3125 13.2679 16.3125 13.386Z" fill="#040000"/>
<path id="Vector_2" d="M1.44532 8.595H18.4118C18.7087 8.595 18.8571 8.74344 18.8571 9.04032V10.6943C18.8571 10.9912 18.7087 11.1397 18.4118 11.1397H1.44532C1.14844 11.1397 1 10.9912 1 10.6943V9.04032C1 8.74344 1.14844 8.595 1.44532 8.595Z" fill="#040000"/>
</g>
</g>
</svg>
