<svg width="20" height="20" viewBox="0 0 20 20" fill="none" xmlns="http://www.w3.org/2000/svg">
<g id="Group 48095684">
<g id="Group 238098">
<path id="Vector" d="M16.0611 9.1616C15.9985 5.75321 13.4109 3 10.2333 3H9.76667C6.58913 3 4.00147 5.75321 3.93893 9.16112C3.3808 9.49134 3 10.1008 3 10.8055V11.7585C3 12.8097 3.8372 13.6645 4.86667 13.6645C5.89613 13.6645 6.73333 12.8097 6.73333 11.7585V10.8055C6.73262 10.3035 6.53809 9.8221 6.19196 9.46564C5.84582 9.10918 5.37599 8.90645 4.8844 8.90143C5.06687 6.14012 7.18413 3.953 9.76667 3.953H10.2333C12.8163 3.953 14.9331 6.14012 15.1156 8.90143C14.624 8.90645 14.1542 9.10918 13.808 9.46564C13.4619 9.8221 13.2674 10.3035 13.2667 10.8055V11.7585C13.2667 12.6191 13.8313 13.3395 14.5995 13.5754C13.9062 14.5071 12.9163 15.1627 11.8004 15.429C11.7234 15.1931 11.5757 14.9878 11.3782 14.8422C11.1808 14.6966 10.9436 14.618 10.7 14.6175C10.3906 14.6175 10.0938 14.743 9.87504 14.9664C9.65625 15.1898 9.53333 15.4928 9.53333 15.8088C9.53333 16.1247 9.65625 16.4277 9.87504 16.6511C10.0938 16.8745 10.3906 17 10.7 17C10.8987 16.9997 11.0941 16.9474 11.2674 16.8481C11.4407 16.7487 11.5861 16.6056 11.6898 16.4325C12.5308 16.2823 13.3296 15.9465 14.0304 15.4486C14.7312 14.9507 15.3172 14.3026 15.7475 13.5497C16.4745 13.2895 17 12.5891 17 11.7585V10.8055C17 10.1008 16.6192 9.49134 16.0611 9.1616ZM5.8 10.8055V11.7585C5.8 12.2841 5.3814 12.7115 4.86667 12.7115C4.35193 12.7115 3.93333 12.2841 3.93333 11.7585V10.8055C3.93333 10.2799 4.35193 9.85252 4.86667 9.85252C5.3814 9.85252 5.8 10.2799 5.8 10.8055ZM16.0667 11.7585C16.0667 12.2693 15.67 12.6844 15.1753 12.7072L15.1389 12.6896C15.1357 12.6972 15.1305 12.7034 15.1273 12.7106C14.8809 12.7089 14.6452 12.6079 14.4715 12.4296C14.2978 12.2513 14.2002 12.01 14.2 11.7585V10.8055C14.2 10.2799 14.6186 9.85252 15.1333 9.85252C15.6481 9.85252 16.0667 10.2799 16.0667 10.8055V11.7585Z" fill="#333333"/>
</g>
<circle id="Ellipse 19" cx="11" cy="16" r="2" fill="#FAAC08"/>
</g>
</svg>
