<svg width="20" height="20" viewBox="0 0 20 20" fill="none" xmlns="http://www.w3.org/2000/svg">
<g id="Group 238097">
<g id="Group 238096">
<path id="Vector" d="M15.4678 9.48283C15.1756 9.48283 14.939 9.71944 14.939 10.0116V14.9392H4.3488V4.34907H9.19218C9.48436 4.34907 9.72097 4.11246 9.72097 3.82028C9.72097 3.5281 9.48436 3.29149 9.19218 3.29149H4.3488C4.17852 3.29149 4.02615 3.313 3.89709 3.35602C3.62463 3.44564 3.44358 3.62669 3.35396 3.89915C3.31094 4.02821 3.28943 4.18058 3.28943 4.35086V14.941C3.28943 15.1131 3.31094 15.2637 3.35396 15.3945C3.44358 15.6652 3.62463 15.848 3.89709 15.9359C4.02794 15.9789 4.17852 16.0004 4.3488 16.0004H14.939C15.1111 16.0004 15.2616 15.9789 15.3925 15.9359C15.6649 15.848 15.846 15.6652 15.9356 15.3945C15.9786 15.2637 16.0001 15.1131 16.0001 14.941V10.0134C15.9984 9.71944 15.7617 9.48283 15.4678 9.48283Z" fill="#1C1C1E"/>
<path id="Vector_2" d="M15.9356 3.89662C15.846 3.62416 15.6649 3.44311 15.3925 3.35349C15.2616 3.31047 15.111 3.28896 14.939 3.28896H12.2556C11.9634 3.28896 11.7268 3.52557 11.7268 3.81775C11.7268 4.10993 11.9652 4.34654 12.2556 4.34654H14.014L8.943 9.41935C8.73507 9.62549 8.73507 9.96069 8.943 10.1686C9.04696 10.2726 9.1814 10.3228 9.31763 10.3228C9.45207 10.3228 9.5883 10.2708 9.69227 10.1686L14.9336 4.92552C14.9354 4.92373 14.9354 4.92014 14.939 4.91835V7.11239C14.939 7.40457 15.1756 7.64118 15.4677 7.64118C15.7599 7.64118 15.9983 7.40457 15.9983 7.11239V4.34833C15.9983 4.17625 15.9768 4.02568 15.9356 3.89662Z" fill="#FAAC08"/>
</g>
</g>
</svg>
