<svg width="18" height="18" viewBox="0 0 18 18" fill="none" xmlns="http://www.w3.org/2000/svg">
<g id="zhuanzhang 1">
<path id="Vector" d="M11.943 5.26331C12.2046 5.44725 12.2676 5.80781 12.0836 6.06937L10.2735 8.6445H11.5166C11.6545 8.64453 11.7875 8.69519 11.8905 8.78686C11.9935 8.87853 12.0592 9.00482 12.0752 9.14175L12.0786 9.20756C12.0786 9.35675 12.0193 9.49982 11.9138 9.60531C11.8083 9.7108 11.6653 9.77006 11.5161 9.77006L9.97764 9.7695V10.8945H11.5161C11.654 10.8944 11.7872 10.945 11.8903 11.0367C11.9934 11.1284 12.0592 11.2547 12.0752 11.3917L12.0786 11.4576C12.0786 11.6067 12.0193 11.7498 11.9138 11.8553C11.8083 11.9608 11.6653 12.0201 11.5161 12.0201L9.97764 12.0195L9.9782 13.1788C9.97818 13.3166 9.9276 13.4496 9.83605 13.5525C9.7445 13.6555 9.61834 13.7213 9.48151 13.7374L9.4157 13.7413C9.26652 13.7413 9.12344 13.682 9.01795 13.5766C8.91246 13.4711 8.8532 13.328 8.8532 13.1788V12.0195H7.07233C6.93455 12.0195 6.80157 11.9689 6.69862 11.8773C6.59566 11.7858 6.52988 11.6596 6.51376 11.5228L6.50983 11.4576C6.50983 11.3084 6.56909 11.1653 6.67458 11.0598C6.78007 10.9543 6.92314 10.8951 7.07233 10.8951L8.85264 10.8945V9.7695H7.07233C6.93455 9.76948 6.80157 9.7189 6.69862 9.62735C6.59566 9.53579 6.52988 9.40964 6.51376 9.27281L6.50983 9.20756C6.50983 9.05838 6.56909 8.9153 6.67458 8.80981C6.78007 8.70432 6.92314 8.64506 7.07233 8.64506L8.47914 8.6445L6.66901 6.06937C6.58759 5.95338 6.55155 5.81155 6.56772 5.67076C6.5839 5.52997 6.65116 5.4 6.75676 5.3055L6.80964 5.26331C6.87178 5.21958 6.94194 5.18852 7.0161 5.17191C7.09025 5.15531 7.16696 5.15349 7.24182 5.16655C7.31668 5.17961 7.38823 5.2073 7.45239 5.24803C7.51654 5.28876 7.57204 5.34174 7.6157 5.40394L9.37633 7.90987L11.137 5.40394C11.1806 5.34174 11.2361 5.28876 11.3003 5.24803C11.3644 5.2073 11.436 5.17961 11.5108 5.16655C11.5857 5.15349 11.6624 5.15531 11.7366 5.17191C11.8107 5.18852 11.8809 5.21958 11.943 5.26331Z" fill="#1C1C1E"/>
<path id="Vector_2" d="M9.22611 1.6875C10.4153 1.6866 11.5877 1.96814 12.6468 2.50893C13.7059 3.04973 14.6214 3.83432 15.318 4.79813C15.3626 4.85962 15.3946 4.9293 15.4122 5.00317C15.4299 5.07705 15.4328 5.15367 15.4209 5.22868C15.4089 5.30369 15.3823 5.3756 15.3425 5.44032C15.3028 5.50504 15.2507 5.5613 15.1892 5.60588C15.1277 5.65046 15.058 5.68249 14.9841 5.70014C14.9102 5.71779 14.8336 5.72072 14.7586 5.70876C14.6836 5.6968 14.6117 5.67018 14.547 5.63043C14.4823 5.59067 14.426 5.53856 14.3814 5.47706C13.7921 4.66126 13.0174 3.99716 12.121 3.53947C11.2247 3.08178 10.2325 2.84361 9.22611 2.84456C5.71217 2.84456 2.86311 5.69306 2.86311 9.20756C2.86311 9.60019 2.47667 9.95569 2.02667 9.74981C1.92935 9.70562 1.84393 9.63891 1.77748 9.55519C1.70716 9.47164 1.64144 9.38432 1.58061 9.29363L1.41186 9.04163C1.35561 8.95388 1.29261 8.856 1.22342 8.74631L0.999543 8.38631L0.645168 7.80356C0.566688 7.67706 0.54002 7.52516 0.570717 7.37949C0.601413 7.23382 0.687107 7.1056 0.809961 7.02153C0.932815 6.93745 1.08336 6.90399 1.23026 6.92812C1.37716 6.95225 1.5091 7.03211 1.59861 7.15106L1.63629 7.20731L1.87761 7.60444C2.61167 4.22156 5.62329 1.6875 9.22611 1.6875Z" fill="#1C1C1E"/>
<path id="Vector_3" d="M15.5891 9.20756C15.5891 8.6535 16.2816 8.42737 16.614 8.83912L16.6534 8.89368L17.7862 10.6498C17.8669 10.7738 17.897 10.9239 17.8704 11.0694C17.8438 11.2149 17.7624 11.3447 17.643 11.432C17.5236 11.5193 17.3753 11.5576 17.2286 11.5389C17.0819 11.5202 16.9479 11.446 16.8542 11.3316L16.8142 11.277L16.5589 10.881L16.5178 11.0537C15.6949 14.3139 12.7423 16.7271 9.22612 16.7271C8.04053 16.728 6.87157 16.4482 5.81489 15.9106C4.75821 15.373 3.84385 14.5928 3.14661 13.6339C3.05621 13.5099 3.01875 13.3551 3.04249 13.2035C3.06622 13.0519 3.1492 12.916 3.27318 12.8256C3.39715 12.7352 3.55196 12.6977 3.70355 12.7214C3.85513 12.7452 3.99108 12.8281 4.08149 12.9521C4.67134 13.7638 5.44505 14.4241 6.33927 14.8792C7.23349 15.3342 8.22278 15.5709 9.22612 15.57C12.7401 15.57 15.5891 12.7215 15.5891 9.20756Z" fill="#FAAC08"/>
</g>
</svg>
