<svg width="16" height="16" viewBox="0 0 16 16" fill="none" xmlns="http://www.w3.org/2000/svg">
<g id="&#230;&#159;&#165;&#231;&#156;&#139; 1" clip-path="url(#clip0_227_460)">
<path id="Vector" d="M8 12.7998C2 12.7998 0 7.7998 0 7.7998C0 7.7998 2 2.7998 8 2.7998C14 2.7998 16 7.7998 16 7.7998C16 7.7998 13.9 12.7998 8 12.7998ZM8 4.8998C6.4 4.8998 5 6.19981 5 7.89981C5 9.4998 6.3 10.8998 8 10.8998C9.6 10.8998 11 9.5998 11 7.89981C10.9 6.19981 9.6 4.8998 8 4.8998ZM8 9.7998C6.9 9.7998 6 8.8998 6 7.7998H8L6.5 6.4998C6.9 6.0998 7.4 5.8998 8 5.8998C9.1 5.8998 10 6.79981 10 7.89981C9.9 8.9998 9.1 9.7998 8 9.7998Z" fill="#333333"/>
<line id="Line 5" x1="0.353553" y1="-0.353553" x2="16.3536" y2="15.6464" stroke="#333333"/>
</g>
<defs>
<clipPath id="clip0_227_460">
<rect width="16" height="16" fill="white"/>
</clipPath>
</defs>
</svg>
