<svg width="18" height="18" viewBox="0 0 18 18" fill="none" xmlns="http://www.w3.org/2000/svg">
<g id="&#232;&#175;&#157;&#232;&#180;&#185; 1" clip-path="url(#clip0_227_892)">
<path id="Vector" d="M13.932 0C14.16 0 14.373 0.042 14.571 0.126C14.769 0.21 14.943 0.327 15.093 0.477C15.243 0.627 15.36 0.801 15.444 0.999C15.528 1.197 15.57 1.41 15.57 1.638V16.362C15.57 16.818 15.411 17.205 15.093 17.523C14.775 17.841 14.388 18 13.932 18H4.104C3.648 18 3.261 17.841 2.943 17.523C2.625 17.205 2.466 16.818 2.466 16.362V1.638C2.466 1.41 2.508 1.197 2.592 0.999C2.676 0.801 2.793 0.627 2.943 0.477C3.093 0.327 3.267 0.21 3.465 0.126C3.663 0.042 3.876 0 4.104 0L13.932 0ZM7.38 1.638H10.638V0.81H7.38V1.638ZM9 17.172C9.228 17.172 9.441 17.13 9.639 17.046C9.837 16.962 10.011 16.845 10.161 16.695C10.311 16.545 10.428 16.371 10.512 16.173C10.596 15.975 10.638 15.762 10.638 15.534C10.638 15.306 10.596 15.093 10.512 14.895C10.428 14.697 10.311 14.526 10.161 14.382C10.011 14.238 9.837 14.124 9.639 14.04C9.441 13.956 9.228 13.914 9 13.914C8.544 13.914 8.16 14.07 7.848 14.382C7.536 14.694 7.38 15.078 7.38 15.534C7.38 15.99 7.536 16.377 7.848 16.695C8.16 17.013 8.544 17.172 9 17.172ZM13.932 2.448H4.104V13.086H13.932V2.448Z" fill="#666666"/>
</g>
<defs>
<clipPath id="clip0_227_892">
<rect width="18" height="18" fill="white"/>
</clipPath>
</defs>
</svg>
