<svg width="81" height="80" viewBox="0 0 81 80" fill="none" xmlns="http://www.w3.org/2000/svg">
<path d="M8.83921 70.3848C8.83921 71.0925 9.4298 71.6662 10.1584 71.6662L70.8369 71.6663C71.5654 71.6663 72.156 71.0927 72.156 70.3852V68.8548C72.1864 68.3937 72.248 66.0922 70.731 63.5478C69.7744 61.9435 68.386 60.5575 66.6044 59.4285C64.449 58.0627 61.7072 57.073 58.3909 56.4772C58.3663 56.474 55.9074 56.148 53.3882 55.5047C49.0014 54.3842 48.6179 53.3925 48.6153 53.3828C48.5895 53.2848 48.5522 53.1907 48.5043 53.1022C48.4685 52.9172 48.3798 52.221 48.5493 50.3557C48.9797 45.618 51.521 42.818 53.563 40.5683C54.207 39.8588 54.8152 39.1887 55.2837 38.5315C57.3042 35.6965 57.4917 32.4728 57.5002 32.273C57.5002 31.8682 57.4537 31.5353 57.3542 31.2268C57.1559 30.6095 56.7827 30.2248 56.5102 29.944L56.5084 29.942C56.4397 29.8713 56.3749 29.8043 56.3219 29.7428C56.3017 29.7193 56.248 29.6572 56.2968 29.338C56.4762 28.1632 56.5838 27.1795 56.6355 26.2423C56.7275 24.5727 56.7994 22.0757 56.3687 19.6455C56.3155 19.2305 56.2242 18.7922 56.082 18.27C55.627 16.5966 54.896 15.1659 53.8804 13.9851C53.7057 13.795 49.459 9.32101 37.131 8.40302C35.4263 8.27611 33.7412 8.34447 32.0823 8.42926C31.6825 8.44902 31.135 8.47616 30.6227 8.60891C29.3498 8.93862 29.0102 9.74539 28.921 10.1969C28.7732 10.9448 29.033 11.5266 29.2048 11.9116C29.2298 11.9675 29.2607 12.0366 29.2069 12.2163C28.9207 12.6595 28.4705 13.059 28.0115 13.4376C27.8788 13.5503 24.7875 16.2158 24.6175 19.6978C24.1592 22.346 24.1938 26.472 24.7358 29.3237C24.7673 29.4812 24.8138 29.7143 24.7383 29.8718C24.1555 30.3942 23.4948 30.9862 23.4965 32.337C23.5035 32.4728 23.691 35.6965 25.7117 38.5315C26.1797 39.1882 26.7873 39.8578 27.4308 40.5668L27.4323 40.5683C29.4743 42.818 32.0155 45.618 32.446 50.3555C32.6154 52.2208 32.5267 52.9172 32.4908 53.102C32.443 53.1905 32.4057 53.2847 32.38 53.3827C32.3773 53.3923 31.9953 54.3808 27.6283 55.499C25.109 56.1442 22.6288 56.4738 22.5548 56.4845C19.332 57.0285 16.607 57.9935 14.4555 59.3522C12.6799 60.4737 11.2889 61.8622 10.3212 63.4792C8.77496 66.0628 8.81676 68.4158 8.83921 68.8453V70.3848Z" fill="#5E5E5E"/>
<path d="M64 34C64 34 65.125 36.25 64 39" stroke="#B89B69" stroke-width="2" stroke-linecap="round" stroke-linejoin="round"/>
<path d="M67.5 32C67.5 32 69.75 36.05 67.5 41" stroke="#B89B69" stroke-width="2" stroke-linecap="round" stroke-linejoin="round"/>
</svg>
