<svg width="57" height="36" viewBox="0 0 57 36" fill="none" xmlns="http://www.w3.org/2000/svg">
<rect x="0.500015" y="0.5" width="56" height="35" rx="2" fill="white" fill-opacity="0.06"/>
<rect x="4.46461" y="5.5" width="11.3982" height="2.5" rx="0.5" fill="white" fill-opacity="0.05"/>
<rect x="4.46461" y="15.5" width="23.292" height="2.5" rx="0.5" fill="white" fill-opacity="0.05"/>
<rect x="4.46461" y="20" width="26.2655" height="2.5" rx="0.5" fill="white" fill-opacity="0.05"/>
<rect x="4.46461" y="27.5" width="48.0708" height="2.5" rx="0.5" fill="white" fill-opacity="0.05"/>
<rect x="4.46461" y="10.5" width="8.42478" height="2.5" rx="0.5" fill="white" fill-opacity="0.05"/>
<rect x="14.8717" y="10.5" width="8.42478" height="2.5" rx="0.5" fill="white" fill-opacity="0.05"/>
<path d="M35.6875 22.156C35.6875 22.346 35.8446 22.5 36.0385 22.5L52.1817 22.5C52.3755 22.5 52.5326 22.346 52.5326 22.1561V21.7453C52.5407 21.6215 52.5571 21.0038 52.1535 20.3208C51.899 19.8902 51.5297 19.5182 51.0557 19.2151C50.4822 18.8485 49.7528 18.5828 48.8705 18.4229C48.864 18.4221 48.2098 18.3346 47.5396 18.1619C46.3725 17.8611 46.2704 17.5949 46.2698 17.5923C46.2629 17.566 46.253 17.5407 46.2402 17.517C46.2307 17.4673 46.2071 17.2805 46.2522 16.7798C46.3667 15.5081 47.0428 14.7565 47.5861 14.1526C47.7574 13.9622 47.9192 13.7823 48.0438 13.6059C48.5814 12.8449 48.6313 11.9796 48.6335 11.926C48.6335 11.8173 48.6212 11.728 48.5947 11.6452C48.5419 11.4795 48.4426 11.3762 48.3701 11.3008L48.3697 11.3003C48.3514 11.2813 48.3341 11.2634 48.32 11.2468C48.3147 11.2405 48.3004 11.2239 48.3134 11.1382C48.3611 10.8228 48.3897 10.5588 48.4035 10.3072C48.428 9.85907 48.4471 9.18882 48.3325 8.53651C48.3184 8.42512 48.2941 8.30746 48.2562 8.1673C48.1352 7.71811 47.9407 7.33408 47.6705 7.01713C47.624 6.96612 46.4942 5.7652 43.2144 5.51879C42.7609 5.48473 42.3126 5.50308 41.8712 5.52584C41.7649 5.53114 41.6192 5.53842 41.4829 5.57406C41.1443 5.66256 41.0539 5.87911 41.0302 6.00031C40.9908 6.20106 41.06 6.35722 41.1057 6.46058C41.1123 6.47556 41.1205 6.49411 41.1062 6.54235C41.0301 6.66131 40.9103 6.76856 40.7882 6.87017C40.7529 6.90043 39.9305 7.61591 39.8852 8.55056C39.7633 9.26138 39.7725 10.3689 39.9167 11.1343C39.9251 11.1766 39.9375 11.2392 39.9174 11.2815C39.7623 11.4217 39.5866 11.5806 39.587 11.9432C39.5889 11.9796 39.6388 12.8449 40.1763 13.6059C40.3009 13.7822 40.4625 13.9619 40.6337 14.1522L40.6341 14.1526C41.1774 14.7565 41.8535 15.5081 41.968 16.7797C42.013 17.2804 41.9894 17.4673 41.9799 17.5169C41.9672 17.5407 41.9573 17.566 41.9504 17.5923C41.9497 17.5949 41.8481 17.8602 40.6863 18.1603C40.016 18.3335 39.3562 18.422 39.3365 18.4249C38.4791 18.5709 37.7541 18.8299 37.1817 19.1946C36.7093 19.4957 36.3392 19.8684 36.0818 20.3024C35.6704 20.9959 35.6815 21.6275 35.6875 21.7428V22.156Z" fill="white" fill-opacity="0.05"/>
</svg>
