<svg width="131" height="80" viewBox="0 0 131 80" fill="none" xmlns="http://www.w3.org/2000/svg">
<rect x="0.5" width="130" height="80" rx="4.60177" fill="white" fill-opacity="0.04"/>
<rect x="24.6593" y="61.7158" width="80.531" height="5.71429" rx="1.15044" fill="white" fill-opacity="0.04"/>
<rect x="24.6593" y="50.2832" width="80.531" height="5.71429" rx="1.15044" fill="white" fill-opacity="0.04"/>
<rect x="52.2699" y="27.4277" width="65.5752" height="5.71429" rx="1.15044" fill="white" fill-opacity="0.04"/>
<rect x="52.2699" y="16.001" width="65.5752" height="5.71429" rx="1.15044" fill="white" fill-opacity="0.04"/>
<g clip-path="url(#clip0_38_3596)">
<path d="M13.1548 21.714C13.1548 23.3649 13.4822 24.9996 14.1181 26.5249C14.7541 28.0501 15.6863 29.436 16.8614 30.6033C18.0365 31.7707 19.4315 32.6967 20.9669 33.3285C22.5023 33.9603 24.1478 34.2854 25.8097 34.2854C27.4716 34.2854 29.1172 33.9603 30.6525 33.3285C32.1879 32.6967 33.5829 31.7707 34.7581 30.6033C35.9332 29.436 36.8653 28.0501 37.5013 26.5249C38.1372 24.9996 38.4646 23.3649 38.4646 21.714C38.4646 18.3799 37.1313 15.1823 34.758 12.8247C32.3848 10.4671 29.166 9.14258 25.8097 9.14258C22.4534 9.14258 19.2346 10.4671 16.8614 12.8247C14.4881 15.1823 13.1548 18.3799 13.1548 21.714Z" fill="#373737"/>
<path d="M17.7566 28.5703H33.8628V33.0147C33.8628 33.3515 33.7316 33.6745 33.498 33.9126C33.2644 34.1508 32.9475 34.2846 32.6172 34.2846H19.0023C18.6719 34.2846 18.3551 34.1508 18.1215 33.9126C17.8879 33.6745 17.7566 33.3515 17.7566 33.0147V28.5703Z" fill="#373737"/>
<path d="M15.1988 21.6071C15.1988 22.9988 15.4732 24.3768 16.0065 25.6625C16.5397 26.9483 17.3213 28.1165 18.3066 29.1006C19.292 30.0846 20.4617 30.8652 21.7491 31.3978C23.0365 31.9304 24.4163 32.2045 25.8098 32.2045C27.2032 32.2045 28.583 31.9304 29.8704 31.3978C31.1578 30.8652 32.3275 30.0846 33.3129 29.1006C34.2982 28.1165 35.0798 26.9483 35.613 25.6625C36.1463 24.3768 36.4208 22.9988 36.4208 21.6071C36.4208 18.7965 35.3028 16.101 33.3129 14.1137C31.3229 12.1263 28.624 11.0098 25.8098 11.0098C22.9955 11.0098 20.2966 12.1263 18.3066 14.1137C16.3167 16.101 15.1988 18.7965 15.1988 21.6071Z" fill="white" fill-opacity="0.06"/>
<path d="M25.2592 18.0113C25.1905 18.0267 25.1192 18.0273 25.0502 18.0132C24.9811 17.999 24.9159 17.9704 24.8588 17.9293C24.8018 17.8882 24.7542 17.8354 24.7193 17.7746C24.6843 17.7138 24.6628 17.6463 24.6562 17.5766L24.6559 17.5731C24.6209 17.2043 24.5048 16.8477 24.3158 16.5284L24.3149 16.5267C24.2791 16.4661 24.2566 16.3987 24.2489 16.3288C24.2413 16.2589 24.2486 16.1883 24.2705 16.1214C24.2924 16.0546 24.3283 15.9932 24.3758 15.9411C24.4234 15.8891 24.4815 15.8477 24.5464 15.8197C24.887 15.6723 25.1907 15.452 25.4358 15.1745L25.4367 15.1736C25.4832 15.1209 25.5406 15.0787 25.605 15.0498C25.6693 15.0208 25.7391 15.0059 25.8097 15.0059C25.8803 15.0059 25.9501 15.0208 26.0144 15.0498C26.0788 15.0787 26.1361 15.1209 26.1827 15.1736L26.1836 15.1745C26.4286 15.452 26.7324 15.6723 27.073 15.8197C27.1379 15.8477 27.196 15.8891 27.2436 15.9411C27.2911 15.9932 27.327 16.0546 27.3489 16.1214C27.3708 16.1883 27.3781 16.2589 27.3705 16.3288C27.3628 16.3987 27.3403 16.4661 27.3045 16.5267L27.3036 16.5281C27.1146 16.8474 26.9985 17.204 26.9635 17.5728V17.5766C26.9568 17.6463 26.9353 17.7139 26.9004 17.7747C26.8654 17.8355 26.8178 17.8883 26.7607 17.9294C26.7037 17.9706 26.6384 17.9991 26.5693 18.0133C26.5003 18.0274 26.4289 18.0267 26.3601 18.0113C25.9977 17.9305 25.6217 17.9305 25.2592 18.0113ZM21.0736 19.4184C21.0277 19.4286 20.9801 19.4291 20.9341 19.4197C20.888 19.4103 20.8444 19.3912 20.8064 19.3637C20.7683 19.3363 20.7365 19.3011 20.7132 19.2605C20.6899 19.2199 20.6756 19.1748 20.6712 19.1283V19.126C20.6479 18.8801 20.5704 18.6423 20.4444 18.4295L20.4438 18.4283C20.42 18.3879 20.405 18.343 20.3999 18.2964C20.3948 18.2499 20.3997 18.2028 20.4143 18.1582C20.4289 18.1137 20.4528 18.0727 20.4844 18.0381C20.5161 18.0034 20.5548 17.9758 20.598 17.9571C20.8253 17.8589 21.0279 17.712 21.1914 17.527L21.1917 17.5264C21.2227 17.4912 21.261 17.463 21.3039 17.4436C21.3468 17.4243 21.3934 17.4143 21.4405 17.4143C21.4876 17.4143 21.5341 17.4243 21.577 17.4436C21.62 17.463 21.6582 17.4912 21.6893 17.5264L21.6895 17.527C21.853 17.712 22.0556 17.8589 22.2829 17.9571C22.3261 17.9758 22.3648 18.0034 22.3965 18.0381C22.4282 18.0727 22.4521 18.1137 22.4666 18.1582C22.4812 18.2028 22.4861 18.2499 22.481 18.2964C22.4759 18.343 22.461 18.3879 22.4371 18.4283L22.4365 18.4295C22.3105 18.6423 22.2331 18.8801 22.2097 19.126V19.1283C22.2053 19.1748 22.191 19.2199 22.1677 19.2605C22.1444 19.3011 22.1126 19.3363 22.0746 19.3637C22.0365 19.3912 21.993 19.4103 21.9469 19.4197C21.9008 19.4291 21.8532 19.4286 21.8073 19.4184C21.5658 19.3645 21.3152 19.3645 21.0736 19.4184ZM23.5703 21.9117C23.5244 21.922 23.4768 21.9225 23.4308 21.913C23.3847 21.9036 23.3411 21.8846 23.3031 21.8571C23.265 21.8297 23.2332 21.7945 23.2099 21.7539C23.1866 21.7133 23.1723 21.6682 23.1679 21.6217V21.6194C23.1446 21.3735 23.0671 21.1357 22.9411 20.9228L22.9405 20.922C22.9166 20.8816 22.9016 20.8366 22.8965 20.79C22.8914 20.7434 22.8963 20.6963 22.9108 20.6517C22.9254 20.6072 22.9493 20.5662 22.981 20.5315C23.0127 20.4968 23.0515 20.4692 23.0948 20.4504C23.322 20.3522 23.5246 20.2054 23.6881 20.0203L23.6884 20.0197C23.7194 19.9845 23.7577 19.9563 23.8006 19.937C23.8435 19.9177 23.8901 19.9077 23.9372 19.9077C23.9843 19.9077 24.0308 19.9177 24.0738 19.937C24.1167 19.9563 24.1549 19.9845 24.186 20.0197L24.1863 20.0203C24.3497 20.2054 24.5523 20.3522 24.7796 20.4504C24.8228 20.4692 24.8616 20.4968 24.8933 20.5315C24.925 20.5662 24.9489 20.6072 24.9635 20.6517C24.9781 20.6963 24.983 20.7434 24.9778 20.79C24.9727 20.8366 24.9577 20.8816 24.9338 20.922L24.9332 20.9228C24.8072 21.1357 24.7298 21.3735 24.7064 21.6194V21.6217C24.702 21.6682 24.6877 21.7133 24.6644 21.7539C24.6411 21.7945 24.6093 21.8297 24.5713 21.8571C24.5332 21.8846 24.4897 21.9036 24.4436 21.913C24.3975 21.9225 24.3499 21.922 24.304 21.9117C24.0625 21.8579 23.8119 21.8579 23.5703 21.9117ZM27.3154 21.9117C27.2695 21.922 27.2219 21.9225 27.1758 21.913C27.1297 21.9036 27.0862 21.8846 27.0481 21.8571C27.0101 21.8297 26.9783 21.7945 26.955 21.7539C26.9317 21.7133 26.9173 21.6682 26.9129 21.6217V21.6194C26.8896 21.3735 26.8122 21.1357 26.6862 20.9228L26.6856 20.922C26.6617 20.8816 26.6467 20.8366 26.6415 20.79C26.6364 20.7434 26.6413 20.6963 26.6559 20.6517C26.6705 20.6072 26.6944 20.5662 26.7261 20.5315C26.7578 20.4968 26.7966 20.4692 26.8398 20.4504C27.0671 20.3522 27.2697 20.2054 27.4331 20.0203L27.4334 20.0197C27.4645 19.9845 27.5027 19.9563 27.5456 19.937C27.5885 19.9177 27.6351 19.9077 27.6822 19.9077C27.7293 19.9077 27.7759 19.9177 27.8188 19.937C27.8617 19.9563 27.9 19.9845 27.931 20.0197L27.9313 20.0203C28.0948 20.2054 28.2974 20.3522 28.5246 20.4504C28.5679 20.4692 28.6066 20.4968 28.6384 20.5315C28.6701 20.5662 28.694 20.6072 28.7086 20.6517C28.7231 20.6963 28.728 20.7434 28.7229 20.79C28.7178 20.8366 28.7028 20.8816 28.6789 20.922L28.6783 20.9228C28.5522 21.1357 28.4748 21.3735 28.4515 21.6194V21.6217C28.4471 21.6682 28.4328 21.7133 28.4095 21.7539C28.3862 21.7945 28.3544 21.8297 28.3163 21.8571C28.2782 21.8846 28.2347 21.9036 28.1886 21.913C28.1426 21.9225 28.095 21.922 28.0491 21.9117C27.8075 21.8579 27.5569 21.8579 27.3154 21.9117ZM29.8121 19.4184C29.7662 19.4286 29.7186 19.4291 29.6725 19.4197C29.6264 19.4103 29.5829 19.3912 29.5448 19.3637C29.5068 19.3363 29.475 19.3011 29.4517 19.2605C29.4284 19.2199 29.4141 19.1748 29.4097 19.1283V19.126C29.3863 18.8801 29.3089 18.6423 29.1829 18.4295L29.1823 18.4283C29.1584 18.3879 29.1435 18.343 29.1384 18.2964C29.1333 18.2499 29.1382 18.2028 29.1527 18.1582C29.1673 18.1137 29.1912 18.0727 29.2229 18.0381C29.2546 18.0034 29.2933 17.9758 29.3365 17.9571C29.5638 17.8589 29.7664 17.712 29.9298 17.527L29.9301 17.5264C29.9612 17.4912 29.9994 17.463 30.0423 17.4436C30.0853 17.4243 30.1318 17.4143 30.1789 17.4143C30.226 17.4143 30.2726 17.4243 30.3155 17.4436C30.3584 17.463 30.3967 17.4912 30.4277 17.5264L30.428 17.527C30.5915 17.712 30.7941 17.8589 31.0213 17.9571C31.0646 17.9758 31.1033 18.0034 31.135 18.0381C31.1666 18.0727 31.1905 18.1137 31.2051 18.1582C31.2197 18.2028 31.2246 18.2499 31.2195 18.2964C31.2144 18.343 31.1994 18.3879 31.1756 18.4283L31.175 18.4295C31.049 18.6423 30.9715 18.8801 30.9482 19.126V19.1283C30.9438 19.1748 30.9295 19.2199 30.9062 19.2605C30.8829 19.3011 30.8511 19.3363 30.813 19.3637C30.775 19.3912 30.7314 19.4103 30.6853 19.4197C30.6393 19.4291 30.5917 19.4286 30.5458 19.4184C30.3042 19.3645 30.0536 19.3645 29.8121 19.4184Z" fill="white" fill-opacity="0.04"/>
<path d="M16.4471 26.5957H35.1723V27.8425H16.4471V26.5957Z" fill="#373737"/>
<path d="M22.6921 24.7266H28.9274C29.3456 24.7266 29.5548 24.9343 29.5548 25.3498V26.5967C29.5548 27.0122 29.3456 27.2199 28.9274 27.2199H22.6921C22.2738 27.2199 22.0647 27.0122 22.0647 26.5967V25.3498C22.0647 24.9343 22.2738 24.7266 22.6921 24.7266Z" fill="#373737"/>
<path d="M24.5646 30.9609H27.679C28.0973 30.9609 28.3064 31.1687 28.3064 31.5842V32.831C28.3064 33.2466 28.0973 33.4543 27.679 33.4543H24.5646C24.1463 33.4543 23.9372 33.2466 23.9372 32.831V31.5842C23.9372 31.1687 24.1463 30.9609 24.5646 30.9609Z" fill="#373737"/>
</g>
<defs>
<clipPath id="clip0_38_3596">
<rect width="27.6106" height="27.4286" fill="white" transform="translate(12.0044 9.14258)"/>
</clipPath>
</defs>
</svg>
