<svg width="131" height="80" viewBox="0 0 131 80" fill="none" xmlns="http://www.w3.org/2000/svg">
<rect x="0.5" width="130" height="80" rx="4.60177" fill="white" fill-opacity="0.04"/>
<rect x="9.70361" y="11.4277" width="26.4602" height="5.71429" rx="1.15044" fill="white" fill-opacity="0.04"/>
<rect x="9.70355" y="34.2861" width="54.0708" height="5.71429" rx="1.15044" fill="white" fill-opacity="0.04"/>
<rect x="9.70355" y="44.5713" width="60.9734" height="5.71429" rx="1.15044" fill="white" fill-opacity="0.04"/>
<rect x="9.70355" y="61.7158" width="111.593" height="5.71429" rx="1.15044" fill="white" fill-opacity="0.04"/>
<rect x="9.70361" y="22.8564" width="19.5575" height="5.71429" rx="1.15044" fill="white" fill-opacity="0.04"/>
<rect x="33.8628" y="22.8564" width="19.5575" height="5.71429" rx="1.15044" fill="white" fill-opacity="0.04"/>
<path d="M82.1852 49.4986C82.1852 49.9328 82.55 50.2848 82.9999 50.2848L120.475 50.2849C120.925 50.2849 121.29 49.9329 121.29 49.4988V48.5599C121.309 48.277 121.347 46.8649 120.41 45.3039C119.819 44.3196 118.962 43.4692 117.861 42.7766C116.53 41.9386 114.837 41.3314 112.789 40.9658C112.773 40.9639 111.255 40.7639 109.699 40.3691C106.99 39.6817 106.753 39.0733 106.751 39.0673C106.735 39.0072 106.712 38.9494 106.683 38.8951C106.66 38.7816 106.606 38.3545 106.71 37.2101C106.976 34.3033 108.546 32.5854 109.807 31.2052C110.205 30.7699 110.58 30.3587 110.87 29.9555C112.117 28.2162 112.233 26.2383 112.239 26.1157C112.239 25.8674 112.21 25.6631 112.148 25.4739C112.026 25.0951 111.795 24.8591 111.627 24.6868L111.626 24.6856C111.584 24.6422 111.543 24.6011 111.511 24.5634C111.498 24.549 111.465 24.5108 111.495 24.315C111.606 23.5942 111.673 22.9907 111.704 22.4157C111.761 21.3913 111.806 19.8593 111.54 18.3683C111.507 18.1137 111.45 17.8448 111.363 17.5244C111.082 16.4977 110.63 15.6199 110.003 14.8955C109.895 14.7789 107.272 12.0339 99.6584 11.4707C98.6056 11.3928 97.5648 11.4348 96.5403 11.4868C96.2934 11.4989 95.9552 11.5156 95.6388 11.597C94.8527 11.7993 94.6429 12.2943 94.5879 12.5713C94.4966 13.0302 94.657 13.3871 94.7632 13.6233C94.7786 13.6576 94.7976 13.7 94.7644 13.8103C94.5877 14.0822 94.3096 14.3273 94.0261 14.5595C93.9442 14.6287 92.035 16.2641 91.93 18.4004C91.6469 20.0252 91.6683 22.5566 92.0031 24.3062C92.0225 24.4029 92.0512 24.5459 92.0046 24.6425C91.6447 24.963 91.2366 25.3262 91.2377 26.155C91.242 26.2383 91.3578 28.2162 92.6058 29.9555C92.8948 30.3584 93.2701 30.7693 93.6675 31.2043L93.6684 31.2052C94.9296 32.5854 96.499 34.3033 96.7649 37.21C96.8695 38.3544 96.8147 38.7816 96.7926 38.895C96.7631 38.9493 96.74 39.0071 96.7242 39.0672C96.7225 39.0732 96.4866 39.6796 93.7895 40.3657C92.2335 40.7615 90.7018 40.9638 90.6561 40.9703C88.6656 41.3041 86.9826 41.8961 85.6539 42.7297C84.5573 43.4178 83.6982 44.2697 83.1005 45.2618C82.1455 46.8469 82.1714 48.2906 82.1852 48.5541V49.4986Z" fill="white" fill-opacity="0.04"/>
</svg>
