<svg width="121" height="120" viewBox="0 0 121 120" fill="none" xmlns="http://www.w3.org/2000/svg">
<path d="M54.6067 14.2988C58.1181 11.7375 62.8819 11.7375 66.3932 14.2988L70.9912 17.6529C72.7078 18.9051 74.7787 19.5779 76.9035 19.5739L82.5947 19.563C86.941 19.5548 90.7949 22.3548 92.1301 26.491L93.8786 31.9071C94.5313 33.9292 95.8112 35.6908 97.5325 36.9364L102.143 40.2729C105.664 42.8209 107.136 47.3515 105.785 51.4824L104.016 56.8918C103.356 58.9113 103.356 61.0887 104.016 63.1082L105.785 68.5176C107.136 72.6486 105.664 77.1791 102.143 79.7271L97.5325 83.0636C95.8112 84.3092 94.5313 86.0708 93.8786 88.0928L92.1301 93.509C90.7949 97.6451 86.941 100.445 82.5948 100.437L76.9034 100.426C74.7786 100.422 72.7078 101.095 70.9913 102.347L66.3932 105.701C62.8818 108.263 58.1181 108.263 54.6068 105.701L50.0087 102.347C48.2921 101.095 46.2213 100.422 44.0966 100.426L38.4051 100.437C34.0589 100.445 30.205 97.6451 28.8698 93.509L27.1214 88.0929C26.4686 86.0708 25.1887 84.3092 23.4674 83.0636L18.8567 79.7271C15.3356 77.1791 13.8635 72.6485 15.2145 68.5175L16.9835 63.1083C17.6439 61.0887 17.6439 58.9113 16.9835 56.8917L15.2145 51.4825C13.8635 47.3515 15.3356 42.8209 18.8567 40.2729L23.4674 36.9364C25.1888 35.6908 26.4686 33.9292 27.1214 31.9071L28.8698 26.491C30.205 22.3548 34.059 19.5548 38.4053 19.563L44.0965 19.5739C46.2213 19.5779 48.2921 18.9051 50.0087 17.6529L54.6067 14.2988Z" fill="url(#paint0_linear_38_3870)"/>
<path d="M54.6067 14.2988C58.1181 11.7375 62.8819 11.7375 66.3932 14.2988L70.9912 17.6529C72.7078 18.9051 74.7787 19.5779 76.9035 19.5739L82.5947 19.563C86.941 19.5548 90.7949 22.3548 92.1301 26.491L93.8786 31.9071C94.5313 33.9292 95.8112 35.6908 97.5325 36.9364L102.143 40.2729C105.664 42.8209 107.136 47.3515 105.785 51.4824L104.016 56.8918C103.356 58.9113 103.356 61.0887 104.016 63.1082L105.785 68.5176C107.136 72.6486 105.664 77.1791 102.143 79.7271L97.5325 83.0636C95.8112 84.3092 94.5313 86.0708 93.8786 88.0928L92.1301 93.509C90.7949 97.6451 86.941 100.445 82.5948 100.437L76.9034 100.426C74.7786 100.422 72.7078 101.095 70.9913 102.347L66.3932 105.701C62.8818 108.263 58.1181 108.263 54.6068 105.701L50.0087 102.347C48.2921 101.095 46.2213 100.422 44.0966 100.426L38.4051 100.437C34.0589 100.445 30.205 97.6451 28.8698 93.509L27.1214 88.0929C26.4686 86.0708 25.1887 84.3092 23.4674 83.0636L18.8567 79.7271C15.3356 77.1791 13.8635 72.6485 15.2145 68.5175L16.9835 63.1083C17.6439 61.0887 17.6439 58.9113 16.9835 56.8917L15.2145 51.4825C13.8635 47.3515 15.3356 42.8209 18.8567 40.2729L23.4674 36.9364C25.1888 35.6908 26.4686 33.9292 27.1214 31.9071L28.8698 26.491C30.205 22.3548 34.059 19.5548 38.4053 19.563L44.0965 19.5739C46.2213 19.5779 48.2921 18.9051 50.0087 17.6529L54.6067 14.2988Z" stroke="url(#paint1_linear_38_3870)" stroke-width="2" stroke-linecap="round" stroke-linejoin="round"/>
<path d="M54.6067 14.2988C58.1181 11.7375 62.8819 11.7375 66.3932 14.2988L70.9912 17.6529C72.7078 18.9051 74.7787 19.5779 76.9035 19.5739L82.5947 19.563C86.941 19.5548 90.7949 22.3548 92.1301 26.491L93.8786 31.9071C94.5313 33.9292 95.8112 35.6908 97.5325 36.9364L102.143 40.2729C105.664 42.8209 107.136 47.3515 105.785 51.4824L104.016 56.8918C103.356 58.9113 103.356 61.0887 104.016 63.1082L105.785 68.5176C107.136 72.6486 105.664 77.1791 102.143 79.7271L97.5325 83.0636C95.8112 84.3092 94.5313 86.0708 93.8786 88.0928L92.1301 93.509C90.7949 97.6451 86.941 100.445 82.5948 100.437L76.9034 100.426C74.7786 100.422 72.7078 101.095 70.9913 102.347L66.3932 105.701C62.8818 108.263 58.1181 108.263 54.6068 105.701L50.0087 102.347C48.2921 101.095 46.2213 100.422 44.0966 100.426L38.4051 100.437C34.0589 100.445 30.205 97.6451 28.8698 93.509L27.1214 88.0929C26.4686 86.0708 25.1887 84.3092 23.4674 83.0636L18.8567 79.7271C15.3356 77.1791 13.8635 72.6485 15.2145 68.5175L16.9835 63.1083C17.6439 61.0887 17.6439 58.9113 16.9835 56.8917L15.2145 51.4825C13.8635 47.3515 15.3356 42.8209 18.8567 40.2729L23.4674 36.9364C25.1888 35.6908 26.4686 33.9292 27.1214 31.9071L28.8698 26.491C30.205 22.3548 34.059 19.5548 38.4053 19.563L44.0965 19.5739C46.2213 19.5779 48.2921 18.9051 50.0087 17.6529L54.6067 14.2988Z" stroke="url(#paint2_radial_38_3870)" stroke-width="2" stroke-linecap="round" stroke-linejoin="round"/>
<path d="M46.5001 45.999L74.5001 73.999" stroke="url(#paint3_linear_38_3870)" stroke-width="9.65804" stroke-linecap="round" stroke-linejoin="round"/>
<path d="M46.5001 74L74.5001 46" stroke="url(#paint4_linear_38_3870)" stroke-width="9.65804" stroke-linecap="round" stroke-linejoin="round"/>
<defs>
<linearGradient id="paint0_linear_38_3870" x1="60.4999" y1="10" x2="60.4999" y2="110" gradientUnits="userSpaceOnUse">
<stop stop-color="#E8DB6D"/>
<stop offset="1" stop-color="#EC626C"/>
</linearGradient>
<linearGradient id="paint1_linear_38_3870" x1="60.4999" y1="10" x2="60.4999" y2="110" gradientUnits="userSpaceOnUse">
<stop stop-color="#FCF8DE"/>
<stop offset="1" stop-color="#DD4651"/>
</linearGradient>
<radialGradient id="paint2_radial_38_3870" cx="0" cy="0" r="1" gradientUnits="userSpaceOnUse" gradientTransform="translate(60.4999 11.5) rotate(15.9454) scale(7.28011 2.24965)">
<stop stop-color="white"/>
<stop offset="1" stop-color="white" stop-opacity="0"/>
</radialGradient>
<linearGradient id="paint3_linear_38_3870" x1="68.9753" y1="50.7966" x2="48.641" y2="71.4746" gradientUnits="userSpaceOnUse">
<stop stop-color="#FAFEE8"/>
<stop offset="1" stop-color="white"/>
</linearGradient>
<linearGradient id="paint4_linear_38_3870" x1="51.2977" y1="51.5248" x2="71.9757" y2="71.8591" gradientUnits="userSpaceOnUse">
<stop stop-color="#FAFEE8"/>
<stop offset="1" stop-color="white"/>
</linearGradient>
</defs>
</svg>
