<svg width="40" height="12" viewBox="0 0 40 12" fill="none" xmlns="http://www.w3.org/2000/svg">
<path d="M39.3252 3.45558C38.9628 2.45784 38.0207 1.75212 36.8853 1.75212H36.8611C36.1364 1.75212 35.4599 2.04414 35.0009 2.53084C34.5178 2.01981 33.8414 1.75212 33.1408 1.75212H33.1166C32.4644 1.75212 31.8846 1.99547 31.4256 2.3605V2.16582C31.4014 1.97114 31.2565 1.82513 31.039 1.82513H29.2997C29.0823 1.82513 28.9131 1.99547 28.9131 2.21449V11.6078C28.9131 11.8268 29.0823 11.9972 29.2997 11.9972H31.039C31.2323 11.9972 31.3773 11.8512 31.4256 11.6808V4.86701V4.794C31.4497 4.50198 31.6671 4.25863 32.0295 4.2343H32.3436C32.4885 4.2343 32.6093 4.3073 32.7059 4.38031C32.8509 4.50198 32.9475 4.67233 32.9475 4.86701V11.6078C32.9475 11.8268 33.1166 11.9728 33.334 11.9728H35.0734C35.2908 11.9728 35.4358 11.8025 35.4599 11.6078V4.86701C35.4599 4.64799 35.5566 4.45331 35.7498 4.33164C35.8465 4.28297 35.9431 4.2343 36.0639 4.2343H36.3779C36.7403 4.25863 36.9819 4.55065 36.9819 4.86701V11.6078C36.9819 11.8268 37.151 11.9728 37.3684 11.9728H39.1078C39.3252 11.9728 39.4943 11.8025 39.4943 11.6078V4.35597C39.446 3.86927 39.3977 3.67459 39.3252 3.45558ZM27.4878 1.92247H26.4974V0.340691C26.4974 0.14601 26.3524 0 26.1591 0H26.0867C24.9754 0.292021 25.217 1.80079 23.2119 1.92247H22.9461C22.777 1.97114 22.6562 2.11715 22.6562 2.28749V3.99095C22.6562 4.20996 22.8254 4.38031 23.0428 4.38031H24.0816V11.6078C24.0816 11.8268 24.2507 11.9728 24.4681 11.9728H26.1833C26.4007 11.9728 26.5698 11.8025 26.5698 11.6078V4.40464H27.5361C27.7536 4.40464 27.9227 4.2343 27.9227 4.01528V2.31183C27.8744 2.09281 27.7053 1.92247 27.4878 1.92247Z" fill="#5D4C30"/>
<path d="M21.2571 1.92578H19.5178C19.3003 1.92578 19.1312 2.09613 19.1312 2.29081V5.84372C19.1312 6.06274 18.938 6.23308 18.7206 6.23308H17.9958C17.7784 6.23308 17.5851 6.06274 17.5851 5.84372V2.31514C17.5851 2.09613 17.416 1.95012 17.1986 1.95012H15.4834C15.266 1.95012 15.0969 2.12046 15.0969 2.31514V6.18441C15.0969 7.64452 16.1598 8.69092 17.6576 8.69092H18.8172C19.0104 8.71526 19.1796 8.8856 19.1796 9.08028C19.1796 9.27496 19.0346 9.44531 18.8172 9.46964H16.2564C16.039 9.46964 15.8699 9.63999 15.8699 9.83467V11.5868C15.8699 11.8058 16.039 11.9518 16.2564 11.9518H19.1071C20.6049 11.9518 21.6678 10.9054 21.6678 9.44531V2.26647C21.6437 2.09613 21.4746 1.92578 21.2571 1.92578ZM4.66065 1.92578H0.867862C0.674599 1.92578 0.505493 2.09613 0.505493 2.29081V11.6111C0.505493 11.8301 0.650441 11.9762 0.843704 12.0005H2.60723C2.82465 12.0005 2.99376 11.8301 2.99376 11.6355V8.98294H4.66065C6.03765 8.98294 7.00397 8.03388 7.00397 6.67111V4.26195C7.00397 2.87485 6.03765 1.92578 4.66065 1.92578ZM4.51571 5.065V6.11141C4.51571 6.33042 4.32244 6.50077 4.10502 6.50077H2.99376V4.38362H4.10502C4.32244 4.38362 4.51571 4.55397 4.51571 4.77298V5.065ZM11.908 9.25063V8.03388C11.908 7.81486 11.7148 7.64452 11.4973 7.64452H10.7726C10.5552 7.64452 10.3619 7.81486 10.3619 8.03388V9.49398C10.3619 9.713 10.5552 9.88334 10.7726 9.88334H11.4973C11.6906 9.88334 11.8356 9.786 11.8839 9.61565C11.8839 9.59132 11.8839 9.59132 11.908 9.56699V9.25063ZM11.6181 1.97445C13.6232 1.97445 14.4688 2.97219 14.4688 4.5783V11.0271C14.4688 11.5625 14.0098 11.9762 13.43 11.9762H10.2411C8.71918 11.9762 7.77702 10.9784 7.77702 9.56699V7.69319C7.77702 6.28175 8.86413 5.28402 10.4102 5.28402H11.5698C11.7389 5.25968 11.8839 5.11367 11.908 4.91899V4.67564C11.8839 4.45663 11.7389 4.33495 11.5698 4.31062H9.20234C8.98492 4.31062 8.79165 4.14027 8.79165 3.92125V2.33948C8.79165 2.1448 8.96076 1.97445 9.17818 1.97445H11.6181Z" fill="#5D4C30"/>
</svg>
