<svg width="80" height="32" viewBox="0 0 80 32" fill="none" xmlns="http://www.w3.org/2000/svg">
<path d="M46.1834 19.1521H44.6301C44.5553 19.1476 44.485 19.1148 44.4336 19.0603C44.3822 19.0058 44.3535 18.9337 44.3533 18.8588V10.6895C44.3603 10.6152 44.3951 10.5463 44.4507 10.4967C44.5064 10.447 44.5788 10.4202 44.6534 10.4216H46.0993C46.231 10.426 46.3429 10.519 46.375 10.6497V11.8996H46.4049C46.8411 10.7814 47.4522 10.25 48.5284 10.25C49.2259 10.25 49.9079 10.508 50.3474 11.2121C50.7548 11.8652 50.7548 12.9657 50.7548 13.7562V18.8964C50.7444 18.968 50.7083 19.0333 50.6534 19.0804C50.5984 19.1274 50.5282 19.1529 50.4559 19.1521H48.8882C48.8192 19.1488 48.7536 19.1211 48.703 19.0742C48.6523 19.0272 48.6199 18.9638 48.6114 18.8953V14.4603L48.6136 14.2455C48.6214 13.3709 48.6302 12.2605 47.6371 12.2605C47.4398 12.2708 47.2496 12.338 47.0895 12.4538C46.9294 12.5697 46.8062 12.7294 46.7348 12.9137C46.5167 13.4119 46.4879 13.91 46.4879 14.4636V18.8588C46.4859 18.9377 46.4529 19.0126 46.3962 19.0675C46.3395 19.1223 46.2635 19.1527 46.1845 19.1521H46.1834ZM39.5981 10.2577C41.9121 10.2577 43.1631 12.2859 43.1631 14.8633C43.1631 17.3553 41.7836 19.3315 39.5981 19.3315C37.3285 19.3315 36.0929 17.3033 36.0929 14.778C36.0929 12.2527 37.344 10.2577 39.5981 10.2577ZM39.6092 11.9306C38.46 11.9306 38.3869 13.5281 38.3869 14.5256V14.5588C38.3869 15.5685 38.3869 17.652 39.5937 17.652C40.8149 17.652 40.8603 15.9338 40.8603 14.8865C40.8603 14.199 40.8315 13.3731 40.6278 12.721C40.4518 12.1575 40.103 11.9306 39.6092 11.9306ZM10.8058 19.1732H9.24914C9.17842 19.1689 9.11157 19.1394 9.06077 19.0901C9.00997 19.0407 8.97859 18.9747 8.97235 18.9041V10.7338C8.97437 10.6559 9.00676 10.5818 9.0626 10.5274C9.11844 10.473 9.19332 10.4426 9.27128 10.4426H10.7227C10.7956 10.4472 10.8642 10.4786 10.9153 10.5307C10.9664 10.5828 10.9964 10.652 10.9995 10.7249V11.7911H11.0283C11.4059 10.7582 12.1189 10.2777 13.0787 10.2777C14.0397 10.2777 14.6642 10.7582 15.1015 11.7911C15.2414 11.4037 15.4823 11.0607 15.7991 10.7976C16.116 10.5344 16.4974 10.3607 16.9039 10.2943C17.309 10.2315 17.7234 10.2793 18.1036 10.4324C18.4838 10.5856 18.8155 10.8385 19.064 11.1645C19.488 11.7523 19.4736 12.5705 19.4625 13.341C19.4592 13.4705 19.457 13.599 19.457 13.7252V18.8787C19.4557 18.9578 19.4235 19.0333 19.3673 19.089C19.3397 19.1164 19.3068 19.1379 19.2707 19.1524C19.2345 19.1668 19.1959 19.1739 19.157 19.1732H17.5992C17.5248 19.1684 17.455 19.1356 17.4038 19.0813C17.3526 19.0271 17.3239 18.9555 17.3235 18.8809V14.5499L17.3257 14.3053C17.3313 13.8979 17.339 13.2856 17.2792 13.0211C17.1641 12.4719 16.8142 12.3169 16.3636 12.3169C16.1599 12.3244 15.9628 12.3919 15.7972 12.5108C15.6316 12.6298 15.5047 12.7949 15.4325 12.9856C15.2842 13.3698 15.2853 13.9887 15.2864 14.447V18.8787C15.2851 18.9578 15.2529 19.0333 15.1967 19.089C15.169 19.1164 15.1362 19.1379 15.1001 19.1524C15.0639 19.1668 15.0253 19.1739 14.9864 19.1732H13.4253C13.351 19.1679 13.2815 19.1349 13.2304 19.0808C13.1794 19.0267 13.1505 18.9553 13.1496 18.8809V14.5499L13.1518 14.2732C13.1651 13.3908 13.1795 12.297 12.1842 12.297C11.1069 12.297 11.1069 13.5414 11.108 14.4824V18.8787C11.1064 18.958 11.0738 19.0335 11.0172 19.089C10.9896 19.1164 10.9567 19.1379 10.9206 19.1524C10.8845 19.1668 10.8458 19.1739 10.8069 19.1732H10.8058ZM28.168 17.7583L28.0772 17.6321C27.8226 17.2823 27.579 16.9501 27.579 16.2848V13.8049L27.5801 13.5514C27.5856 12.5993 27.5912 11.7313 26.8904 11.0659C26.2925 10.4792 25.3027 10.2744 24.5443 10.2744C23.0619 10.2744 21.4067 10.8379 21.059 12.71C21.0518 12.7476 21.0522 12.7863 21.0602 12.8237C21.0682 12.8612 21.0836 12.8967 21.1055 12.9281C21.1498 12.9912 21.2162 13.0332 21.2926 13.0432L22.8028 13.2093C22.8746 13.1976 22.9405 13.1626 22.9905 13.1098C23.0405 13.057 23.0718 12.9893 23.0796 12.917C23.2091 12.2727 23.7361 11.9616 24.3306 11.9616C24.6517 11.9616 25.0204 12.0833 25.2053 12.3756C25.4024 12.669 25.399 13.0598 25.3968 13.4107V13.7307L24.9617 13.7772C24.1369 13.8624 23.1803 13.961 22.4662 14.282C21.4897 14.7127 20.8044 15.5906 20.8044 16.8837C20.8044 18.5355 21.8252 19.3625 23.1371 19.3625C24.2399 19.3625 24.8499 19.0968 25.7057 18.2056L25.8164 18.3738V18.375C26.0246 18.6905 26.1552 18.8898 26.5992 19.2673C26.7165 19.3337 26.8649 19.3193 26.9667 19.2296C27.2767 18.9484 27.8425 18.4458 28.1625 18.1735C28.2953 18.076 28.2732 17.9044 28.168 17.7583ZM25.109 17.042C24.8621 17.4882 24.4668 17.7649 24.0306 17.7649C23.4327 17.7649 23.084 17.3 23.084 16.6114C23.084 15.2541 24.2742 15.0094 25.4013 15.0094V15.4157C25.4013 16.0091 25.4012 16.5084 25.109 17.042ZM29.4822 11.8608V10.6984C29.4803 10.659 29.4866 10.6197 29.5007 10.5829C29.5148 10.5462 29.5364 10.5127 29.5641 10.4847C29.5914 10.457 29.6243 10.4355 29.6605 10.4215C29.6968 10.4076 29.7357 10.4016 29.7745 10.4039H34.895C34.9338 10.4023 34.9725 10.4088 35.0087 10.4229C35.0449 10.437 35.0778 10.4584 35.1054 10.4858C35.1607 10.5412 35.1917 10.6187 35.1906 10.6984V11.6992C35.1906 11.8675 35.0522 12.0867 34.8053 12.4332L32.1515 16.3014C33.1369 16.277 34.1776 16.4276 35.0744 16.9424C35.2382 17.0321 35.3434 17.2059 35.3489 17.3963V18.6473C35.3489 18.82 35.1663 19.0182 34.9714 18.9152C34.1367 18.4762 33.2073 18.2477 32.2642 18.2497C31.321 18.2516 30.3926 18.4839 29.5597 18.9263C29.3825 19.0226 29.1954 18.8266 29.1954 18.655V17.4649C29.1791 17.1849 29.2453 16.9062 29.3859 16.6634L32.4604 12.1553H29.7789C29.7401 12.1569 29.7014 12.1504 29.6652 12.1363C29.629 12.1222 29.5961 12.1008 29.5685 12.0734C29.5408 12.0457 29.5189 12.0127 29.504 11.9764C29.4892 11.9401 29.4818 11.9011 29.4822 11.8619V11.8608ZM56.5518 11.4468C56.9416 11.0954 57.3887 10.8134 57.8738 10.6131C58.3304 10.4269 58.8188 10.331 59.3119 10.3308C59.8013 10.322 60.2862 10.4216 60.7335 10.6242C61.1553 10.8213 61.5251 11.1191 61.8108 11.4922C62.123 11.9051 62.3533 12.3756 62.4894 12.8782C62.6549 13.4743 62.7347 14.0908 62.7264 14.7094C62.734 15.341 62.6486 15.9703 62.4728 16.577C62.3256 17.0918 62.0853 17.5734 61.7632 17.9952C61.4642 18.3794 61.0834 18.6905 60.6505 18.9053C60.1965 19.1211 59.6994 19.2263 59.1979 19.2163C58.258 19.2308 57.3497 18.8772 56.667 18.231V22.1413C56.6735 22.1864 56.6696 22.2324 56.6556 22.2758C56.6415 22.3191 56.6178 22.3587 56.5862 22.3915C56.5547 22.4238 56.516 22.4482 56.4733 22.4626C56.4305 22.4771 56.385 22.4812 56.3404 22.4745H55.3749C55.3303 22.4812 55.2848 22.4771 55.242 22.4626C55.1993 22.4482 55.1606 22.4238 55.1292 22.3915C55.0973 22.3588 55.0734 22.3193 55.0592 22.2759C55.045 22.2325 55.0409 22.1865 55.0472 22.1413V10.9131C55.0411 10.8679 55.0454 10.8218 55.0598 10.7784C55.0742 10.7351 55.0983 10.6956 55.1303 10.6629C55.1615 10.6309 55.1998 10.6066 55.2421 10.592C55.2844 10.5774 55.3295 10.5729 55.3738 10.5788H56.0935C56.14 10.5745 56.187 10.5799 56.2313 10.5945C56.2757 10.6092 56.3166 10.6329 56.3514 10.6641C56.3868 10.6955 56.4156 10.7338 56.4359 10.7766C56.4563 10.8194 56.4678 10.8658 56.4699 10.9131L56.5518 11.4468ZM58.8591 11.6649C58.0647 11.6723 57.2951 11.9425 56.6703 12.4332V17.0819C57.3678 17.6166 58.0863 17.8834 58.8259 17.8834C60.3283 17.8834 61.08 16.8494 61.08 14.7835C61.08 12.7177 60.3394 11.6781 58.8591 11.6638V11.666V11.6649ZM64.7735 12.0723L64.8964 12.0302C65.6726 11.7857 66.4807 11.6573 67.2944 11.6494C67.9477 11.6494 68.4049 11.7734 68.6673 12.0169C68.9275 12.2605 69.0581 12.6834 69.0581 13.2845V14.3806C68.3858 14.2046 67.6948 14.1102 66.9999 14.0994C66.0423 14.0983 65.2794 14.3396 64.7126 14.8245C64.1468 15.3094 63.8634 15.9571 63.8634 16.7686C63.8656 17.5236 64.0959 18.1281 64.5532 18.5787C65.0115 19.0292 65.6315 19.254 66.4154 19.254C66.9003 19.2518 67.3786 19.1566 67.8292 18.9728C68.3031 18.7846 68.7426 18.5133 69.1268 18.1724L69.2098 18.7237C69.2142 18.8145 69.2541 18.9008 69.3227 18.9606C69.3903 19.0204 69.4788 19.0492 69.5685 19.0403H70.2727C70.317 19.0463 70.3621 19.0418 70.4044 19.0271C70.4467 19.0125 70.485 18.9882 70.5162 18.9562C70.5482 18.9235 70.5723 18.884 70.5867 18.8407C70.6011 18.7973 70.6054 18.7513 70.5993 18.706V13.0078C70.5982 12.0944 70.3524 11.4213 69.8619 10.9884C69.3726 10.5567 68.6108 10.3397 67.5757 10.3397C67.0608 10.3397 66.546 10.3862 66.04 10.4803C65.5972 10.5522 65.1654 10.6762 64.7502 10.8478C64.6495 10.8831 64.5598 10.9442 64.49 11.025C64.4365 11.1242 64.4134 11.237 64.4236 11.3493V11.7955C64.4236 11.997 64.4978 12.0977 64.6362 12.0977C64.6831 12.0969 64.7295 12.0883 64.7735 12.0723ZM67.9399 17.7904C67.5779 17.9277 67.197 18.0008 66.8117 18.0052C66.3866 18.0063 66.06 17.8934 65.8308 17.6653C65.6016 17.4361 65.4876 17.1118 65.4876 16.6889C65.4876 15.7201 66.102 15.2363 67.3343 15.2363C67.6266 15.2363 67.9189 15.2563 68.2078 15.295C68.4957 15.3327 68.7836 15.3858 69.0659 15.4533V17.156C68.7227 17.424 68.344 17.6376 67.9388 17.7904H67.9399ZM78.3891 10.5744L78.4832 10.5755H79.3977C79.5505 10.5755 79.6269 10.643 79.6269 10.7748C79.6104 10.914 79.5715 11.0497 79.5118 11.1766L75.9169 20.5183C75.6224 21.2855 75.2814 21.8357 74.895 22.1712C74.5086 22.5055 74.0026 22.6716 73.3782 22.6705C73.0639 22.675 72.7506 22.6359 72.4471 22.5542C72.3444 22.5317 72.252 22.4756 72.1847 22.3948C72.1228 22.2924 72.0945 22.1731 72.1039 22.0538V21.6198C72.1039 21.4095 72.1847 21.3032 72.3486 21.3032C72.4316 21.3076 72.5135 21.3176 72.5943 21.3364C72.7394 21.3619 72.8866 21.373 73.0339 21.3696C73.3815 21.3918 73.7236 21.2855 74.0004 21.0696C74.2285 20.8703 74.4355 20.5028 74.6204 19.9681L74.9304 19.1233L71.7828 11.1766C71.7236 11.0501 71.6855 10.9147 71.6699 10.7759C71.6699 10.643 71.7463 10.5766 71.8979 10.5766H72.8789C73.0045 10.564 73.1309 10.5928 73.2387 10.6585C73.3314 10.7642 73.3981 10.89 73.4336 11.0261L75.722 17.4992L77.9286 11.025C77.964 10.8889 78.0307 10.7631 78.1234 10.6574C78.2311 10.5913 78.3575 10.5621 78.4832 10.5744H78.3891ZM4.11974 10.2755C4.87813 10.2755 5.86903 10.4803 6.46467 11.0659C7.16439 11.7346 7.15996 12.6103 7.15442 13.568V16.2837C7.15442 16.9512 7.39689 17.2834 7.65264 17.6332L7.74342 17.7583C7.84306 17.8989 7.86521 18.076 7.74342 18.1812C7.34024 18.528 6.94164 18.8801 6.54771 19.2374L6.53664 19.2352C6.48693 19.2794 6.42456 19.3068 6.35838 19.3136C6.2922 19.3203 6.22557 19.3061 6.16796 19.2728C5.72621 18.8975 5.59335 18.6949 5.38964 18.3838L5.2756 18.2122C4.41867 19.1023 3.81417 19.368 2.70592 19.368C1.39395 19.368 0.373169 18.5421 0.373169 16.8881C0.373169 15.5962 1.06292 14.7182 2.02835 14.2876C2.74135 13.9687 3.69238 13.8691 4.51499 13.7838L4.74085 13.7595L4.95785 13.7351V13.4107C4.96117 13.0598 4.96449 12.669 4.76964 12.3745C4.57921 12.0822 4.21717 11.9627 3.89499 11.9627C3.30046 11.9627 2.77013 12.2727 2.6406 12.917C2.63329 12.9894 2.60232 13.0574 2.55248 13.1104C2.50265 13.1634 2.43673 13.1986 2.36492 13.2104L0.866955 13.0432C0.829627 13.0376 0.793845 13.0245 0.761842 13.0045C0.72984 12.9845 0.702304 12.9581 0.680955 12.927C0.659365 12.8956 0.644232 12.8603 0.636439 12.823C0.628645 12.7858 0.628347 12.7473 0.635562 12.71C0.980991 10.839 2.63728 10.2744 4.11974 10.2744V10.2755ZM4.97003 15.0094C3.84296 15.0094 2.65278 15.2563 2.65278 16.6114C2.65278 17.3011 3.00153 17.7661 3.59938 17.7661C4.03781 17.7661 4.42974 17.4893 4.67885 17.042C4.97113 16.5106 4.97114 16.0146 4.97003 15.429V15.0094Z" fill="#5D4C30"/>
<path d="M32.0406 24.3667C32.3949 23.4655 33.1843 21.4484 32.809 20.9602H32.8112C32.4381 20.4697 30.3422 20.7277 29.3978 20.8428H29.3956C29.1089 20.8782 29.0657 20.6236 29.3226 20.4387C30.9977 19.2375 33.7412 19.5807 34.06 19.987C34.3789 20.3922 33.9726 23.2009 32.4048 24.5416C32.1635 24.7475 31.9332 24.6379 32.0395 24.3656L32.0406 24.3667ZM20.7721 25.7506C24.419 25.7506 28.666 24.5737 31.5922 22.3695V22.3739C32.076 22.0019 31.6608 21.455 31.1671 21.6698C27.9808 23.0435 24.5507 23.7619 21.081 23.7821C16.2716 23.7821 11.6204 22.4359 7.85727 20.2007C7.52734 20.0047 7.28156 20.3502 7.55834 20.6015C11.1809 23.9394 15.8929 25.776 20.7721 25.7495V25.7506Z" fill="#5D4C30"/>
</svg>
