<svg width="32" height="14" viewBox="0 0 32 14" fill="none" xmlns="http://www.w3.org/2000/svg">
<path d="M10.89 6.0277C10.89 5.65938 10.859 5.2928 10.7953 4.92969H5.56519V7.01105H8.56169C8.49797 7.34463 8.36881 7.66083 8.17938 7.94402C7.98995 8.22547 7.74196 8.4687 7.45264 8.6546V10.0063H9.24021C10.2873 9.06462 10.89 7.67473 10.89 6.0277Z" fill="#5D4C30"/>
<path d="M5.56555 11.3124C7.06208 11.3124 8.32096 10.8329 9.24057 10.0059L7.453 8.65423C6.95531 8.98433 6.3164 9.17197 5.56555 9.17197C4.88139 9.17055 4.21451 8.95506 3.65685 8.5552C3.09919 8.15535 2.6782 7.59083 2.45193 6.93945H0.609253V8.33282C1.07251 9.22757 1.7803 9.98158 2.65514 10.5063C3.53566 11.0344 4.54117 11.3129 5.56555 11.3124Z" fill="#5D4C30"/>
<path d="M2.45358 6.94109C2.22153 6.27122 2.22153 5.54175 2.45358 4.87188V3.47852H0.610904C0.224069 4.22834 0.0220947 5.06118 0.0220947 5.90649C0.0220947 6.75179 0.224069 7.58463 0.610904 8.33446L2.45358 6.94109Z" fill="#5D4C30"/>
<path d="M5.56858 2.64098C6.36076 2.62708 7.12367 2.91896 7.69542 3.45059L9.27978 1.90781C8.26266 0.983727 6.93722 0.481125 5.56858 0.500542C4.54047 0.500542 3.53303 0.778521 2.65818 1.30494C1.78994 1.82385 1.08211 2.57645 0.614014 3.47839L2.45669 4.87176C2.68287 4.22066 3.10359 3.65634 3.66091 3.25651C4.21822 2.85668 4.88472 2.64102 5.56858 2.63924V2.64098Z" fill="#5D4C30"/>
<path d="M14.2779 6.85019V10.662H13.038V1.25065H16.3272C16.7193 1.24252 17.1092 1.31035 17.4759 1.45045C17.841 1.58944 18.1734 1.79792 18.4575 2.06548C18.7417 2.31566 18.969 2.62144 19.1223 2.9637C19.2755 3.30596 19.3513 3.67602 19.3461 4.05129C19.3547 4.42656 19.279 4.79836 19.1257 5.14583C18.9707 5.48983 18.7434 5.79734 18.4558 6.04926C17.8806 6.58263 17.1711 6.85019 16.3272 6.84845H14.2779V6.85019ZM14.2779 2.40948V5.6931H16.3582C16.6936 5.70355 17.0244 5.61293 17.3084 5.43283C17.5924 5.25273 17.8168 4.99131 17.9529 4.68195C18.0825 4.38443 18.1166 4.05348 18.0505 3.73542C17.9845 3.41736 17.8215 3.1281 17.5844 2.9081C17.4245 2.74503 17.2333 2.61667 17.0224 2.53092C16.8115 2.44517 16.5855 2.40384 16.3582 2.40948H14.2779ZM22.2049 4.01307C23.121 4.01307 23.8443 4.25109 24.3748 4.72886C24.9052 5.20664 25.1704 5.86162 25.1687 6.69209V10.662H23.9838V9.76722H23.9287C23.4155 10.5039 22.7336 10.8722 21.8794 10.8722C21.1526 10.8722 20.5447 10.662 20.0539 10.2415C19.8199 10.0505 19.6316 9.80887 19.5028 9.53442C19.3768 9.2628 19.3143 8.96558 19.3203 8.66573C19.3203 7.99859 19.5786 7.46695 20.0953 7.07431C20.6119 6.68166 21.3007 6.4836 22.1618 6.4836C22.8989 6.4836 23.5051 6.6139 23.9821 6.87625V6.60174C23.9843 6.39566 23.9393 6.19185 23.8506 6.00621C23.7619 5.82056 23.6318 5.65811 23.4706 5.53152C23.1385 5.242 22.7126 5.08558 22.2738 5.09197C21.5815 5.09197 21.0338 5.3769 20.6291 5.94675L19.5373 5.27613C20.1383 4.43351 21.0269 4.01307 22.2049 4.01307ZM20.5998 8.69006C20.5982 8.84565 20.635 8.99921 20.7069 9.1369C20.7787 9.27459 20.8834 9.39209 21.0114 9.47882C21.2852 9.68904 21.6262 9.80023 21.9758 9.79502C22.4976 9.79502 22.9988 9.59001 23.3707 9.23038C23.7806 8.85337 23.9856 8.41034 23.9856 7.90303C23.5998 7.60247 23.059 7.45131 22.3667 7.45131C21.8639 7.45131 21.4437 7.57119 21.1096 7.80747C20.7686 8.04723 20.5998 8.33911 20.5998 8.69006ZM31.978 4.22155L27.8362 13.4991H26.5567L28.0928 10.2537L25.3719 4.22155H26.7186L28.687 8.84816H28.7128L30.6278 4.22155H31.978Z" fill="#5D4C30"/>
</svg>
