<svg width="38" height="10" viewBox="0 0 38 10" fill="none" xmlns="http://www.w3.org/2000/svg">
<path d="M28.7289 9.95481H26.7647L29.494 0H31.4583L28.7289 9.95481ZM27.7088 0.311794C27.5745 0.122006 27.3642 0.0271127 27.0779 0.0271127H16.2858L15.7533 1.97921H25.57L24.9973 4.06236H17.1448V4.05784H15.1806L13.5519 10H15.5162L16.6079 6.01446H25.4358C25.7132 6.01446 25.9727 5.91957 26.2143 5.72978C26.4559 5.53999 26.617 5.30502 26.6931 5.02485L27.7848 1.03931C27.8698 0.741075 27.843 0.501582 27.7088 0.311794ZM12.4065 9.33122C12.2991 9.72436 11.9412 10 11.5385 10H1.41302C1.13561 10 0.929787 9.90511 0.795556 9.71532C0.661326 9.52553 0.630005 9.29056 0.710543 9.01039L3.18038 0.0271127H5.14462L2.93877 8.05242H10.7957L13.0016 0.0271127H14.9658L12.4065 9.33122Z" fill="#5D4C30"/>
<path d="M34.8502 0.015625L37.3335 5.00433L32.1119 9.99303L34.8502 0.015625Z" fill="#5D4C30"/>
<path d="M33.1034 0.015625L35.5867 5.00433L30.3606 9.99303L33.1034 0.015625Z" fill="#5D4C30"/>
</svg>
