<svg width="12" height="16" viewBox="0 0 12 16" fill="none" xmlns="http://www.w3.org/2000/svg">
<path d="M4.60113 6.50286H7.27632V10.7592C6.91165 10.9416 6.42542 11.0023 6.06074 11.0023C5.08827 11.0023 4.60113 10.5161 4.60113 9.42117V6.50286ZM11.168 5.53039C11.1643 5.322 11.0798 5.12318 10.9325 4.97581C10.7851 4.82843 10.5863 4.74399 10.3779 4.74026H8.91827L5.57451 0.91026C5.27061 0.545584 4.78437 0.424026 4.29814 0.545584L3.14243 0.909353C2.96009 0.970132 2.89931 1.21325 3.02087 1.33481L6.66853 4.80013H1.13581C0.953468 4.80013 0.831909 4.92169 0.831909 5.10403V5.71182C0.831909 6.13728 1.19659 6.50195 1.62204 6.50195H2.47295V9.42026C2.47295 11.6092 3.62775 12.8856 5.5736 12.8856C6.18139 12.8856 6.66762 12.8248 7.27632 12.5817V14.5275C7.27632 15.0745 7.70178 15.5 8.24879 15.5H9.0997C9.19432 15.4936 9.28342 15.4532 9.35048 15.3861C9.41754 15.319 9.45801 15.2299 9.46438 15.1353V6.44208H10.8632C11.0455 6.44208 11.1671 6.32052 11.1671 6.13818V5.53039H11.168Z" fill="#5D4C30"/>
</svg>
