<svg width="20" height="12" viewBox="0 0 20 12" fill="none" xmlns="http://www.w3.org/2000/svg">
<path d="M9.37629 7.23309C9.37629 4.47858 7.76536 2.18359 4.85159 2.18359C2.01876 2.18359 0.0919189 4.3167 0.0919189 7.11299C0.0919189 10.0111 1.91694 12.0006 4.85159 12.0006C7.07347 12.0006 8.51208 11.0006 9.20397 8.86751H6.95076C6.70533 9.66384 5.70797 10.0816 4.93253 10.0816C3.43387 10.0816 2.6506 9.20432 2.6506 7.71349H9.35801C9.36584 7.55945 9.37629 7.39758 9.37629 7.23309ZM2.6506 6.09995C2.73154 4.87544 3.54875 4.11044 4.77065 4.11044C6.05522 4.11044 6.6975 4.865 6.80977 6.09995H2.6506Z" fill="#5D4C30"/>
<path d="M18.7937 11.9643H16.034L12.9315 7.81621H10.8746V6.18783H13.9428C15.0398 6.18783 15.6569 5.69075 15.7255 4.71372H10.8746V3.08535H15.7255C15.6569 1.98833 15.0227 1.62838 13.9428 1.62838H10.8746V0H19.9078V1.62838H16.5997V1.69694C17.0625 1.74836 17.6452 2.15974 17.8681 3.08535H19.9078V4.71372H17.9195C17.7138 6.18783 16.8739 7.2677 15.3827 7.61052L18.7937 11.9643Z" fill="#5D4C30"/>
</svg>
