<svg width="22" height="16" viewBox="0 0 22 16" fill="none" xmlns="http://www.w3.org/2000/svg">
<rect x="3.05176e-05" width="22" height="16" rx="4" fill="white" fill-opacity="0.08"/>
<path d="M8.24961 7.47594C8.24961 7.27764 8.23292 7.08027 8.19862 6.88477H5.38269V8.00539H6.99603C6.96172 8.18499 6.89218 8.35523 6.79019 8.5077C6.6882 8.65924 6.55468 8.7902 6.39891 8.89028V9.61803H7.36135C7.92509 9.11104 8.24961 8.36271 8.24961 7.47594Z" fill="#6D6D6D"/>
<path d="M5.38274 10.3212C6.18848 10.3212 6.86627 10.0631 7.36139 9.6178L6.39895 8.89005C6.13099 9.06777 5.787 9.1688 5.38274 9.1688C5.01438 9.16803 4.65533 9.05201 4.35508 8.83673C4.05483 8.62144 3.82817 8.3175 3.70634 7.9668H2.71423V8.717C2.96365 9.19873 3.34473 9.6047 3.81576 9.88719C4.28983 10.1715 4.8312 10.3215 5.38274 10.3212Z" fill="#6D6D6D"/>
<path d="M3.70647 7.96779C3.58153 7.60713 3.58153 7.21438 3.70647 6.85371V6.10352H2.71436C2.50608 6.50723 2.39734 6.95564 2.39734 7.41075C2.39734 7.86587 2.50608 8.31428 2.71436 8.71799L3.70647 7.96779Z" fill="#6D6D6D"/>
<path d="M5.38324 5.65272C5.80976 5.64523 6.22051 5.80238 6.52834 6.08862L7.38137 5.25797C6.83375 4.76044 6.12013 4.48984 5.38324 4.50029C4.8297 4.50029 4.28728 4.64996 3.81626 4.93339C3.3488 5.21277 2.96769 5.61797 2.71567 6.10358L3.70778 6.85378C3.82955 6.50323 4.05607 6.19939 4.35614 5.98412C4.6562 5.76885 5.01504 5.65274 5.38324 5.65178V5.65272Z" fill="#6D6D6D"/>
<path d="M10.0727 7.91947V9.97176H9.40515V4.90465H11.1761C11.3872 4.90027 11.5971 4.93679 11.7946 5.01222C11.9911 5.08705 12.1701 5.1993 12.3231 5.34336C12.4761 5.47806 12.5985 5.64269 12.681 5.82696C12.7635 6.01124 12.8043 6.21048 12.8015 6.41253C12.8061 6.61458 12.7653 6.81476 12.6828 7.00184C12.5994 7.18705 12.477 7.35262 12.3221 7.48825C12.0125 7.77542 11.6304 7.91947 11.1761 7.91854H10.0727V7.91947ZM10.0727 5.52857V7.29649H11.1928C11.3733 7.30212 11.5515 7.25333 11.7044 7.15636C11.8573 7.05939 11.9781 6.91864 12.0514 6.75208C12.1212 6.59189 12.1395 6.41371 12.104 6.24246C12.0684 6.07122 11.9806 5.91548 11.853 5.79703C11.7669 5.70923 11.6639 5.64012 11.5504 5.59395C11.4369 5.54779 11.3152 5.52553 11.1928 5.52857H10.0727ZM14.3407 6.39195C14.8339 6.39195 15.2234 6.5201 15.509 6.77734C15.7945 7.03458 15.9373 7.38723 15.9364 7.83435V9.97176H15.2985V9.49003H15.2688C14.9925 9.88664 14.6253 10.0849 14.1654 10.0849C13.7742 10.0849 13.4468 9.97176 13.1826 9.74539C13.0566 9.64257 12.9552 9.51245 12.8859 9.36468C12.818 9.21844 12.7844 9.05842 12.7876 8.89698C12.7876 8.53778 12.9267 8.25155 13.2048 8.04014C13.483 7.82874 13.8539 7.7221 14.3175 7.7221C14.7143 7.7221 15.0407 7.79226 15.2976 7.93351V7.78571C15.2987 7.67476 15.2745 7.56502 15.2267 7.46507C15.179 7.36512 15.109 7.27765 15.0222 7.2095C14.8434 7.05362 14.6141 6.9694 14.3778 6.97284C14.005 6.97284 13.7102 7.12625 13.4923 7.43306L12.9044 7.07199C13.228 6.61832 13.7065 6.39195 14.3407 6.39195ZM13.4765 8.91007C13.4756 8.99385 13.4954 9.07653 13.5341 9.15066C13.5728 9.22479 13.6292 9.28806 13.6981 9.33475C13.8455 9.44793 14.0291 9.5078 14.2174 9.50499C14.4983 9.50499 14.7681 9.39462 14.9684 9.20099C15.1891 8.998 15.2994 8.75947 15.2994 8.48633C15.0917 8.32451 14.8006 8.24313 14.4278 8.24313C14.1571 8.24313 13.9308 8.30767 13.751 8.43489C13.5674 8.56397 13.4765 8.72112 13.4765 8.91007ZM19.6026 6.5042L17.3726 11.4993H16.6837L17.5108 9.75194L16.0458 6.5042H16.7709L17.8307 8.9952H17.8446L18.8756 6.5042H19.6026Z" fill="#6D6D6D"/>
</svg>
