<svg width="80" height="13" viewBox="0 0 80 13" fill="none" xmlns="http://www.w3.org/2000/svg">
<path d="M46.1834 9.15213H44.6301C44.5553 9.14763 44.485 9.11477 44.4336 9.06026C44.3822 9.00576 44.3534 8.93369 44.3533 8.85876V0.689516C44.3603 0.61524 44.3951 0.546348 44.4507 0.496658C44.5064 0.446968 44.5787 0.420155 44.6533 0.421599H46.0993C46.231 0.426027 46.3428 0.519023 46.3749 0.64966V1.89957H46.4048C46.841 0.781404 47.4522 0.25 48.5283 0.25C49.2258 0.25 49.9078 0.507953 50.3474 1.21206C50.7548 1.86525 50.7548 2.9657 50.7548 3.75616V8.8964C50.7444 8.96798 50.7083 9.03334 50.6533 9.08037C50.5984 9.12739 50.5282 9.15289 50.4559 9.15213H48.8882C48.8192 9.14875 48.7536 9.12114 48.7029 9.07415C48.6523 9.02717 48.6199 8.96383 48.6114 8.89529V4.46027L48.6136 4.2455C48.6213 3.37089 48.6302 2.26048 47.6371 2.26048C47.4397 2.27081 47.2495 2.33795 47.0895 2.45384C46.9294 2.56972 46.8062 2.72941 46.7348 2.91367C46.5167 3.41186 46.4879 3.91005 46.4879 4.4636V8.85876C46.4858 8.93765 46.4529 9.0126 46.3962 9.06747C46.3394 9.12234 46.2634 9.15274 46.1845 9.15213H46.1834ZM39.5981 0.257749C41.912 0.257749 43.1631 2.28594 43.1631 4.86326C43.1631 7.35532 41.7836 9.33148 39.5981 9.33148C37.3285 9.33148 36.0929 7.30329 36.0929 4.77801C36.0929 2.25273 37.344 0.257749 39.5981 0.257749ZM39.6092 1.93057C38.46 1.93057 38.3869 3.5281 38.3869 4.52559V4.55881C38.3869 5.56847 38.3869 7.65202 39.5937 7.65202C40.8149 7.65202 40.8603 5.93381 40.8603 4.8865C40.8603 4.199 40.8315 3.37311 40.6278 2.72103C40.4517 2.15752 40.103 1.93057 39.6092 1.93057ZM10.8058 9.17317H9.24911C9.17839 9.16893 9.11154 9.13944 9.06074 9.09007C9.00994 9.04069 8.97856 8.97471 8.97232 8.90415V0.733799C8.97434 0.655873 9.00673 0.581818 9.06257 0.527426C9.11841 0.473034 9.19329 0.442607 9.27125 0.442633H10.7227C10.7956 0.447214 10.8641 0.478586 10.9153 0.530708C10.9664 0.582831 10.9964 0.652017 10.9995 0.724942V1.79107H11.0283C11.4058 0.758155 12.1188 0.277677 13.0787 0.277677C14.0397 0.277677 14.6641 0.758155 15.1015 1.79107C15.2414 1.40369 15.4822 1.06071 15.7991 0.797567C16.116 0.534427 16.4974 0.36068 16.9039 0.294283C17.3089 0.231544 17.7234 0.279266 18.1036 0.432419C18.4837 0.585571 18.8155 0.838475 19.0639 1.16446C19.488 1.75232 19.4736 2.57047 19.4625 3.341C19.4592 3.47053 19.457 3.59896 19.457 3.72516V8.87868C19.4557 8.95781 19.4235 9.0333 19.3673 9.08903C19.3396 9.1164 19.3068 9.13794 19.2706 9.1524C19.2345 9.16685 19.1958 9.17391 19.1569 9.17317H17.5992C17.5248 9.1684 17.4549 9.13559 17.4038 9.08134C17.3526 9.0271 17.3239 8.95546 17.3235 8.8809V4.54995L17.3257 4.30528C17.3313 3.89787 17.339 3.28565 17.2792 3.02105C17.1641 2.47194 16.8142 2.31694 16.3636 2.31694C16.1598 2.32443 15.9628 2.39187 15.7972 2.51082C15.6315 2.62976 15.5047 2.79493 15.4325 2.98563C15.2841 3.36979 15.2853 3.98865 15.2864 4.44699V8.87868C15.2851 8.95781 15.2529 9.0333 15.1967 9.08903C15.169 9.1164 15.1362 9.13794 15.1 9.1524C15.0639 9.16685 15.0252 9.17391 14.9863 9.17317H13.4253C13.351 9.1679 13.2815 9.13493 13.2304 9.08079C13.1793 9.02665 13.1505 8.95531 13.1496 8.8809V4.54995L13.1518 4.27318C13.1651 3.39082 13.1795 2.29701 12.1841 2.29701C11.1069 2.29701 11.1069 3.54139 11.108 4.48242V8.87868C11.1064 8.95797 11.0738 9.03348 11.0172 9.08903C10.9896 9.1164 10.9567 9.13794 10.9206 9.1524C10.8844 9.16685 10.8458 9.17391 10.8069 9.17317H10.8058ZM28.168 7.7583L28.0772 7.63209C27.8225 7.28225 27.579 6.95013 27.579 6.28476V3.80487L27.5801 3.55135C27.5856 2.59925 27.5911 1.73129 26.8903 1.06593C26.2925 0.479168 25.3027 0.274355 24.5443 0.274355C23.0618 0.274355 21.4066 0.837866 21.059 2.70996C21.0518 2.74758 21.0522 2.78626 21.0602 2.82371C21.0682 2.86117 21.0836 2.89665 21.1055 2.92806C21.1498 2.99116 21.2162 3.03323 21.2926 3.04319L22.8028 3.20926C22.8745 3.19756 22.9405 3.16263 22.9905 3.10983C23.0405 3.05703 23.0718 2.98928 23.0795 2.91699C23.2091 2.27266 23.7361 1.96156 24.3306 1.96156C24.6517 1.96156 25.0204 2.08335 25.2053 2.37562C25.4023 2.669 25.399 3.0598 25.3968 3.41075V3.7307L24.9617 3.7772C24.1369 3.86244 23.1803 3.96098 22.4662 4.28203C21.4897 4.71269 20.8044 5.59062 20.8044 6.8837C20.8044 8.53548 21.8251 9.36248 23.1371 9.36248C24.2398 9.36248 24.8499 9.09678 25.7057 8.20557L25.8164 8.37385V8.37496C26.0245 8.69048 26.1552 8.88975 26.5991 9.26727C26.7165 9.3337 26.8649 9.3193 26.9667 9.22963C27.2767 8.94843 27.8425 8.44581 28.1624 8.17346C28.2953 8.07604 28.2731 7.90444 28.168 7.7583ZM25.1089 7.04201C24.862 7.48817 24.4668 7.76495 24.0306 7.76495C23.4327 7.76495 23.084 7.29997 23.084 6.61135C23.084 5.25406 24.2741 5.00939 25.4012 5.00939V5.41569C25.4012 6.0091 25.4012 6.5084 25.1089 7.04201ZM29.4822 1.86082V0.698372C29.4803 0.659026 29.4866 0.619718 29.5007 0.582938C29.5148 0.546158 29.5364 0.512708 29.5641 0.484704C29.5913 0.457003 29.6242 0.435458 29.6605 0.421519C29.6968 0.407579 29.7356 0.401567 29.7744 0.403886H34.895C34.9338 0.402336 34.9725 0.408812 35.0087 0.422908C35.0449 0.437005 35.0778 0.458419 35.1053 0.48581C35.1607 0.541165 35.1917 0.618661 35.1906 0.698372V1.69918C35.1906 1.86746 35.0522 2.08667 34.8053 2.43319L32.1515 6.30137C33.1368 6.27701 34.1775 6.42758 35.0743 6.94238C35.2382 7.03205 35.3434 7.20586 35.3489 7.39628V8.6473C35.3489 8.82001 35.1662 9.01818 34.9714 8.91522C34.1366 8.4762 33.2073 8.24773 32.2641 8.24966C31.321 8.25159 30.3926 8.48386 29.5597 8.92629C29.3825 9.0226 29.1954 8.82665 29.1954 8.65505V7.46492C29.179 7.18486 29.2452 6.90616 29.3858 6.66339L32.4604 2.15531H29.7789C29.7401 2.15686 29.7013 2.15038 29.6651 2.13628C29.6289 2.12219 29.596 2.10077 29.5685 2.07338C29.5408 2.04566 29.5188 2.01268 29.504 1.97637C29.4892 1.94006 29.4817 1.90115 29.4822 1.86193V1.86082ZM56.5518 1.44677C56.9415 1.09537 57.3887 0.813401 57.8737 0.613126C58.3303 0.426885 58.8188 0.331011 59.3119 0.330818C59.8013 0.321961 60.2862 0.421599 60.7335 0.624197C61.1553 0.821259 61.5251 1.11907 61.8107 1.49216C62.1229 1.9051 62.3532 2.37562 62.4894 2.87824C62.6548 3.47429 62.7346 4.09084 62.7263 4.70937C62.734 5.341 62.6486 5.97031 62.4728 6.57704C62.3256 7.09183 62.0853 7.57342 61.7631 7.99522C61.4642 8.37938 61.0833 8.69048 60.6504 8.90525C60.1965 9.12114 59.6994 9.22631 59.1979 9.21634C58.258 9.23077 57.3497 8.87716 56.6669 8.23103V12.1413C56.6734 12.1864 56.6695 12.2324 56.6555 12.2758C56.6415 12.3191 56.6178 12.3587 56.5861 12.3915C56.5547 12.4238 56.516 12.4482 56.4732 12.4626C56.4305 12.4771 56.385 12.4812 56.3403 12.4745H55.3749C55.3303 12.4812 55.2847 12.4771 55.242 12.4626C55.1993 12.4482 55.1606 12.4238 55.1291 12.3915C55.0973 12.3588 55.0733 12.3193 55.0591 12.2759C55.0449 12.2325 55.0408 12.1865 55.0472 12.1413V0.913149C55.0411 0.867874 55.0454 0.821799 55.0598 0.778438C55.0741 0.735077 55.0983 0.695576 55.1302 0.662945C55.1614 0.63089 55.1997 0.606584 55.242 0.591974C55.2843 0.577364 55.3294 0.572855 55.3738 0.578807H56.0934C56.14 0.574513 56.1869 0.579867 56.2313 0.594535C56.2757 0.609203 56.3166 0.632869 56.3514 0.664053C56.3868 0.695543 56.4155 0.733812 56.4359 0.776598C56.4562 0.819384 56.4678 0.865817 56.4699 0.913149L56.5518 1.44677ZM58.8591 1.66486C58.0647 1.67232 57.295 1.94248 56.6703 2.43319V7.08187C57.3678 7.6166 58.0863 7.88341 58.8259 7.88341C60.3283 7.88341 61.08 6.84938 61.08 4.78355C61.08 2.71771 60.3393 1.67815 58.8591 1.66376V1.66597V1.66486ZM64.7735 2.07228L64.8963 2.0302C65.6725 1.78566 66.4806 1.65732 67.2944 1.64937C67.9476 1.64937 68.4049 1.77336 68.6673 2.01692C68.9275 2.26048 69.0581 2.68339 69.0581 3.28454V4.38056C68.3858 4.20458 67.6948 4.11017 66.9999 4.09936C66.0422 4.09825 65.2794 4.3396 64.7126 4.82451C64.1468 5.30941 63.8634 5.95706 63.8634 6.76856C63.8656 7.5236 64.0959 8.12807 64.5531 8.57866C65.0115 9.02925 65.6315 9.25399 66.4153 9.25399C66.9003 9.25177 67.3786 9.15656 67.8292 8.97279C68.303 8.78458 68.7426 8.51334 69.1267 8.17236L69.2098 8.72369C69.2142 8.81447 69.2541 8.90082 69.3227 8.96061C69.3902 9.02039 69.4788 9.04917 69.5685 9.04032H70.2726C70.317 9.04627 70.3621 9.04176 70.4044 9.02715C70.4467 9.01254 70.485 8.98823 70.5162 8.95618C70.5482 8.92355 70.5723 8.88405 70.5867 8.84068C70.6011 8.79732 70.6054 8.75125 70.5992 8.70598V3.00777C70.5981 2.09442 70.3523 1.4213 69.8619 0.988431C69.3725 0.556665 68.6108 0.339675 67.5756 0.339675C67.0608 0.339675 66.546 0.386172 66.04 0.480275C65.5972 0.552236 65.1654 0.67623 64.7502 0.847829C64.6495 0.883146 64.5598 0.944217 64.49 1.02496C64.4365 1.12421 64.4134 1.23704 64.4236 1.34934V1.7955C64.4236 1.99699 64.4978 2.09774 64.6362 2.09774C64.683 2.09694 64.7294 2.08833 64.7735 2.07228ZM67.9399 7.79041C67.5778 7.92769 67.197 8.00076 66.8117 8.00519C66.3866 8.00629 66.0599 7.89337 65.8308 7.66531C65.6016 7.43614 65.4876 7.11176 65.4876 6.68885C65.4876 5.72015 66.102 5.23635 67.3343 5.23635C67.6265 5.23635 67.9188 5.25627 68.2078 5.29502C68.4957 5.33266 68.7835 5.3858 69.0658 5.45334V7.15605C68.7226 7.42396 68.344 7.63763 67.9388 7.79041H67.9399ZM78.3891 0.574378L78.4832 0.575485H79.3977C79.5505 0.575485 79.6269 0.643018 79.6269 0.774762C79.6103 0.914032 79.5714 1.04973 79.5117 1.17664L75.9168 10.5183C75.6223 11.2855 75.2813 11.8357 74.895 12.1712C74.5086 12.5055 74.0026 12.6716 73.3782 12.6705C73.0639 12.675 72.7506 12.6359 72.4471 12.5542C72.3443 12.5317 72.252 12.4756 72.1847 12.3948C72.1227 12.2924 72.0945 12.1731 72.1038 12.0538V11.6198C72.1038 11.4095 72.1847 11.3032 72.3485 11.3032C72.4316 11.3076 72.5135 11.3176 72.5943 11.3364C72.7393 11.3619 72.8866 11.373 73.0338 11.3696C73.3815 11.3918 73.7236 11.2855 74.0004 11.0696C74.2284 10.8703 74.4355 10.5028 74.6204 9.96806L74.9304 9.12335L71.7828 1.17664C71.7236 1.05007 71.6855 0.914703 71.6698 0.775869C71.6698 0.643017 71.7462 0.576593 71.8979 0.576593H72.8788C73.0045 0.564011 73.1308 0.592774 73.2387 0.658517C73.3314 0.764185 73.3981 0.890049 73.4335 1.02607L75.722 7.49924L77.9285 1.02496C77.964 0.888941 78.0307 0.763079 78.1234 0.65741C78.2311 0.591282 78.3574 0.562127 78.4832 0.574378H78.3891ZM4.11971 0.275463C4.8781 0.275463 5.869 0.480275 6.46464 1.06593C7.16435 1.73461 7.15993 2.61032 7.15439 3.56796V6.28366C7.15439 6.95123 7.39685 7.28336 7.65261 7.6332L7.74339 7.7583C7.84303 7.89891 7.86518 8.07604 7.74339 8.18121C7.34021 8.52802 6.94161 8.8801 6.54768 9.23738L6.53661 9.23517C6.4869 9.27937 6.42453 9.3068 6.35835 9.31355C6.29217 9.32031 6.22554 9.30605 6.16793 9.27281C5.72618 8.8975 5.59332 8.69491 5.3896 8.38381L5.27557 8.21221C4.41864 9.10231 3.81414 9.36802 2.70589 9.36802C1.39392 9.36802 0.373138 8.54213 0.373138 6.88813C0.373138 5.59615 1.06289 4.71823 2.02832 4.28757C2.74132 3.96872 3.69235 3.86909 4.51496 3.78384L4.74082 3.75948L4.95782 3.73513V3.41075C4.96114 3.0598 4.96446 2.669 4.7696 2.37451C4.57918 2.08224 4.21714 1.96267 3.89496 1.96267C3.30043 1.96267 2.7701 2.27266 2.64057 2.91699C2.63326 2.98939 2.60229 3.05736 2.55245 3.1104C2.50262 3.16343 2.4367 3.19857 2.36489 3.21037L0.866924 3.04319C0.829596 3.03764 0.793814 3.02445 0.761812 3.00445C0.729809 2.98445 0.702274 2.95807 0.680924 2.92695C0.659334 2.8956 0.644202 2.86027 0.636408 2.82302C0.628615 2.78576 0.628317 2.74733 0.635531 2.70996C0.98096 0.838974 2.63725 0.274355 4.11971 0.274355V0.275463ZM4.97 5.00939C3.84293 5.00939 2.65275 5.25627 2.65275 6.61135C2.65275 7.30107 3.0015 7.76605 3.59935 7.76605C4.03778 7.76605 4.42971 7.48928 4.67882 7.04201C4.9711 6.51061 4.9711 6.01463 4.97 5.42898V5.00939Z" fill="#6D6D6D"/>
</svg>
