<svg width="20" height="20" viewBox="0 0 20 20" fill="none" xmlns="http://www.w3.org/2000/svg">
<path d="M17.8351 16.4376C17.7346 16.4175 17.6304 16.429 17.5367 16.4706C16.0995 17.1419 14.5905 17.6474 13.0389 17.9772C9.89205 18.6179 6.82578 18.2829 3.84371 16.974C3.01445 16.6079 1.86299 15.9928 0.389348 15.1214C0.351517 15.0918 0.305506 15.0746 0.257544 15.072C0.211835 15.0672 0.165678 15.0748 0.123909 15.094C0.0871399 15.1119 0.0556154 15.139 0.0323783 15.1727C0.00858033 15.2038 0.00308847 15.2496 0.0213946 15.3063C0.0360395 15.3612 0.0744823 15.4253 0.136723 15.493C0.39667 15.7969 0.718858 16.1228 1.10329 16.4688C1.48588 16.8129 1.99296 17.2047 2.62636 17.6403C3.25975 18.0742 3.92243 18.4641 4.61074 18.8009C5.30271 19.1378 6.10269 19.4234 7.01616 19.654C7.93147 19.8847 8.84311 20 9.75476 20C10.6609 20 11.5414 19.9085 12.3945 19.7254C13.2512 19.5442 13.9725 19.3282 14.5601 19.0792C15.12 18.8435 15.662 18.5676 16.182 18.2536C16.6763 17.9515 17.0424 17.6971 17.2804 17.4939C17.5184 17.2889 17.6886 17.1278 17.7857 17.0088C17.901 16.866 17.9596 16.7433 17.9596 16.6353C17.9614 16.5237 17.9156 16.4578 17.8333 16.4376H17.8351ZM10.3845 5.90795C9.9229 5.95348 9.46401 6.02313 9.0097 6.11664C8.50265 6.21174 8.00242 6.34017 7.51226 6.50107C7.05095 6.65484 6.58048 6.86719 6.10269 7.13629C5.65192 7.3852 5.23893 7.69711 4.87618 8.06258C4.51895 8.43896 4.23796 8.88095 4.04874 9.36414C3.82803 9.91067 3.7179 10.4955 3.72472 11.0849C3.72472 11.7622 3.84371 12.3663 4.08352 12.8972C4.3215 13.4318 4.6382 13.8491 5.0391 14.1603C5.43818 14.4716 5.89034 14.7132 6.39193 14.8908C6.89168 15.0683 7.42256 15.147 7.97357 15.1269C8.52276 15.1031 9.06096 15.0171 9.58451 14.8688C10.1044 14.7205 10.595 14.4844 11.0508 14.1603C11.5067 13.8363 11.8801 13.4537 12.173 13.0162C12.281 13.181 12.3744 13.3036 12.4604 13.3842L12.6782 13.6075C12.8247 13.754 13.0444 13.9736 13.3464 14.2592C13.6448 14.5484 13.9505 14.8267 14.2544 15.1031L16.8685 12.6025L16.7184 12.4798C16.5817 12.3718 16.4543 12.2523 16.3376 12.1229C16.1855 11.9596 16.0419 11.7885 15.9074 11.6103C15.7573 11.4111 15.6336 11.1933 15.5395 10.9623C15.4406 10.737 15.3877 10.4943 15.3839 10.2483V3.66911C15.3839 3.41648 15.3363 3.14372 15.2411 2.84716C15.1177 2.50372 14.943 2.18093 14.723 1.88975C14.4631 1.53394 14.1486 1.22133 13.7913 0.963465C13.3358 0.652949 12.8315 0.420913 12.2993 0.276985C11.6231 0.0849305 10.9226 -0.00817675 10.2197 0.000562674C9.43623 0.000562674 8.70765 0.0920933 8.02666 0.273324C7.34934 0.456385 6.76903 0.698026 6.28209 1.00374C5.79881 1.30945 5.38509 1.66276 5.03727 2.06549C4.69312 2.46823 4.435 2.88927 4.26841 3.32678C4.1 3.7643 4.01579 4.20548 4.01579 4.65581L7.39876 4.95237C7.53606 4.54231 7.72095 4.18717 7.94795 3.88146C8.18043 3.57575 8.39828 3.35607 8.59598 3.21878C8.79552 3.08148 9.01153 2.96982 9.23853 2.88927C9.38903 2.82994 9.54468 2.78459 9.7035 2.7538C9.78405 2.74465 9.84629 2.74282 9.89389 2.74282C10.5621 2.74282 11.0252 2.94053 11.2852 3.33411C11.4499 3.57209 11.5286 3.93089 11.5286 4.41783V5.83472C11.1479 5.84937 10.7671 5.87317 10.3882 5.90795H10.3845ZM11.5286 9.71013C11.5286 10.1257 11.4737 10.5028 11.3657 10.836C11.1369 11.5645 10.6975 12.0222 10.055 12.2089C9.49481 12.3737 8.9621 12.2913 8.45502 11.9618C8.20143 11.8082 7.9932 11.5899 7.85167 11.3294C7.71014 11.0688 7.64039 10.7753 7.64956 10.479C7.64956 9.98106 7.77587 9.55453 8.02483 9.19939C8.27563 8.84608 8.6088 8.58064 9.02618 8.40673C9.44356 8.23099 9.85178 8.10651 10.2527 8.03329C10.6739 7.95575 11.1005 7.91046 11.5286 7.89782V9.71013ZM19.9183 15.1892C19.8103 15.0537 19.5211 14.9658 19.0451 14.9201C18.6312 14.8741 18.2133 14.8778 17.8003 14.931C17.4177 14.975 17.0223 15.0866 16.6177 15.266C16.2095 15.4436 16.0319 15.5955 16.0777 15.7109L16.096 15.7438L16.1161 15.7621L16.1528 15.7676H16.2662L16.3468 15.7621L16.4456 15.7511C16.4749 15.7493 16.5189 15.7438 16.5738 15.742C16.6235 15.7386 16.673 15.7325 16.7221 15.7237L16.9802 15.7017L17.339 15.6688C17.5935 15.6479 17.8489 15.6405 18.1042 15.6468L18.4447 15.6743C18.5514 15.6795 18.6566 15.7024 18.7559 15.742C18.8253 15.7674 18.8862 15.8118 18.9316 15.8701C19.0634 16.0349 19.0378 16.401 18.8584 16.9685C18.6772 17.536 18.5069 17.99 18.3458 18.3232C18.2763 18.4678 18.2763 18.5556 18.3458 18.5923C18.4172 18.6289 18.5142 18.5941 18.6442 18.4916C19.036 18.1877 19.36 17.7264 19.6236 17.1076C19.7755 16.7415 19.8854 16.3626 19.9513 15.9653C20.0117 15.5663 20.0007 15.3081 19.9183 15.1892Z" fill="#A0A0A0"/>
</svg>
