<svg width="16" height="22" viewBox="0 0 16 22" fill="none" xmlns="http://www.w3.org/2000/svg">
<path d="M15.234 7.54255C15.234 6.94681 14.7234 6.43617 14.1276 6.43617H12.0851L7.40426 1.07447C6.97873 0.563829 6.29788 0.393617 5.61703 0.56383L4.00002 1.07447C3.7447 1.15957 3.6596 1.5 3.82981 1.67021L8.93617 6.52128H1.19152C0.936203 6.52128 0.765991 6.69149 0.765991 6.94681V7.79787C0.765991 8.39362 1.27663 8.90425 1.87237 8.90425H3.06385V12.9894C3.06385 16.0532 4.68087 17.8404 7.40426 17.8404C8.25532 17.8404 8.93617 17.7553 9.78723 17.4149V20.1383C9.78723 20.9043 10.383 21.5 11.1489 21.5H12.3404C12.5957 21.5 12.851 21.2447 12.851 20.9894V8.81915H14.8085C15.0638 8.81915 15.234 8.64894 15.234 8.39362V7.54255ZM9.78723 14.8617C9.27659 15.117 8.59575 15.2021 8.08511 15.2021C6.72341 15.2021 6.04256 14.5213 6.04256 12.9894V8.90425H9.78723V14.8617Z" fill="#A0A0A0"/>
</svg>
