<svg width="36" height="10" viewBox="0 0 36 10" fill="none" xmlns="http://www.w3.org/2000/svg">
<path d="M27.5529 9.81676H25.6243L28.3041 0.138672H30.2327L27.5529 9.81676ZM26.5513 0.441799C26.4195 0.257287 26.213 0.165031 25.9318 0.165031H15.3356L14.8128 2.06287H24.4513L23.889 4.08811H16.1791V4.08371H14.2505L12.6514 9.86069H14.58L15.6519 5.98594H24.3195C24.5919 5.98594 24.8467 5.89369 25.0839 5.70918C25.3212 5.52466 25.4793 5.29622 25.554 5.02384L26.6259 1.14909C26.7094 0.859147 26.683 0.626311 26.5513 0.441799ZM11.5268 9.21051C11.4213 9.59271 11.0699 9.86069 10.6745 9.86069H0.732841C0.460467 9.86069 0.258384 9.76844 0.12659 9.58393C-0.00520413 9.39941 -0.035956 9.17097 0.0431202 8.8986L2.46813 0.165031H4.39671L2.2309 7.96725H9.94523L12.111 0.165031H14.0396L11.5268 9.21051Z" fill="#A0A0A0"/>
<path d="M33.5616 0.15625L35.9998 5.00628L30.873 9.85631L33.5616 0.15625Z" fill="#A0A0A0" fill-opacity="0.7"/>
<path d="M31.8492 0.15625L34.2874 5.00628L29.1562 9.85631L31.8492 0.15625Z" fill="#A0A0A0"/>
</svg>
