<svg width="16" height="16" viewBox="0 0 16 16" fill="none" xmlns="http://www.w3.org/2000/svg">
<rect width="16" height="16" rx="4" fill="white" fill-opacity="0.08"/>
<path d="M7.63618 8.71937C7.63618 7.11236 6.69635 5.77344 4.99642 5.77344C3.34372 5.77344 2.21957 7.01792 2.21957 8.6493C2.21957 10.3401 3.28431 11.5008 4.99642 11.5008C6.29269 11.5008 7.13199 10.9174 7.53565 9.67291H6.2211C6.07792 10.1375 5.49604 10.3812 5.04364 10.3812C4.16931 10.3812 3.71234 9.86941 3.71234 8.99965H7.62552C7.63009 8.90978 7.63618 8.81534 7.63618 8.71937ZM3.71234 8.05829C3.75956 7.34389 4.23633 6.89758 4.9492 6.89758C5.69863 6.89758 6.07335 7.3378 6.13885 8.05829H3.71234Z" fill="#6D6D6D"/>
<path d="M13.1309 11.4801H11.5208L9.71082 9.06007H8.5108V8.11005H10.3008C10.9408 8.11005 11.3008 7.82005 11.3408 7.25004H8.5108V6.30003H11.3408C11.3008 5.66002 10.9308 5.45001 10.3008 5.45001H8.5108V4.5H13.7809V5.45001H11.8508V5.49001C12.1208 5.52002 12.4609 5.76002 12.5909 6.30003H13.7809V7.25004H12.6209C12.5009 8.11005 12.0108 8.74006 11.1408 8.94007L13.1309 11.4801Z" fill="#6D6D6D"/>
</svg>
