<svg width="40" height="16" viewBox="0 0 40 16" fill="none" xmlns="http://www.w3.org/2000/svg">
<rect x="3.05176e-05" width="40" height="16" rx="4" fill="white" fill-opacity="0.08"/>
<path d="M22.7924 9.52012H22.0909C22.0571 9.51808 22.0254 9.50324 22.0022 9.47863C21.979 9.45401 21.966 9.42147 21.9659 9.38763V5.69848C21.9691 5.66494 21.9848 5.63383 22.0099 5.61139C22.035 5.58895 22.0677 5.57684 22.1014 5.57749H22.7544C22.8139 5.57949 22.8644 5.62149 22.8789 5.68048V6.24493H22.8924C23.0894 5.73998 23.3654 5.5 23.8513 5.5C24.1663 5.5 24.4743 5.61649 24.6728 5.93446C24.8568 6.22943 24.8568 6.72638 24.8568 7.08335V9.40463C24.8521 9.43695 24.8358 9.46647 24.811 9.48771C24.7861 9.50894 24.7545 9.52046 24.7218 9.52012H24.0138C23.9827 9.51859 23.953 9.50612 23.9302 9.4849C23.9073 9.46368 23.8927 9.43508 23.8888 9.40413V7.40132L23.8898 7.30433C23.8933 6.90937 23.8973 6.40791 23.4488 6.40791C23.3597 6.41258 23.2738 6.4429 23.2015 6.49523C23.1293 6.54756 23.0736 6.61968 23.0414 6.70288C22.9429 6.92786 22.9299 7.15284 22.9299 7.40282V9.38763C22.929 9.42326 22.9141 9.4571 22.8885 9.48188C22.8628 9.50666 22.8285 9.52039 22.7929 9.52012H22.7924ZM19.8185 5.5035C20.8635 5.5035 21.4284 6.41941 21.4284 7.5833C21.4284 8.70869 20.8055 9.60111 19.8185 9.60111C18.7936 9.60111 18.2356 8.6852 18.2356 7.5448C18.2356 6.40441 18.8006 5.5035 19.8185 5.5035ZM19.8235 6.25893C19.3046 6.25893 19.2716 6.98036 19.2716 7.43082V7.44581C19.2716 7.90177 19.2716 8.84268 19.8165 8.84268C20.368 8.84268 20.3885 8.06675 20.3885 7.5938C20.3885 7.28333 20.3755 6.91036 20.2835 6.61589C20.204 6.36142 20.0465 6.25893 19.8235 6.25893ZM6.81618 9.52961H6.11322C6.08128 9.5277 6.0511 9.51438 6.02815 9.49209C6.00521 9.46979 5.99104 9.43999 5.98822 9.40813V5.71848C5.98914 5.68329 6.00376 5.64985 6.02898 5.62528C6.0542 5.60072 6.08801 5.58698 6.12322 5.58699H6.77869C6.81158 5.58906 6.84256 5.60323 6.86563 5.62677C6.88871 5.6503 6.90226 5.68155 6.90368 5.71448V6.19593H6.91668C7.08717 5.72948 7.40915 5.5125 7.84263 5.5125C8.27661 5.5125 8.5586 5.72948 8.75609 6.19593C8.81928 6.021 8.92804 5.86611 9.07114 5.74728C9.21423 5.62844 9.38647 5.54998 9.57005 5.52C9.75295 5.49167 9.94012 5.51322 10.1118 5.58238C10.2835 5.65154 10.4333 5.76575 10.5455 5.91296C10.737 6.17844 10.7305 6.5479 10.7255 6.89587C10.724 6.95436 10.723 7.01236 10.723 7.06935V9.39663C10.7224 9.43236 10.7079 9.46645 10.6825 9.49162C10.67 9.50398 10.6552 9.51371 10.6388 9.52023C10.6225 9.52676 10.6051 9.52995 10.5875 9.52961H9.88403C9.85042 9.52746 9.81888 9.51264 9.79578 9.48815C9.77267 9.46365 9.75972 9.4313 9.75954 9.39763V7.44181L9.76054 7.33132C9.76304 7.14734 9.76654 6.87087 9.73954 6.75138C9.68754 6.5034 9.52955 6.43341 9.32606 6.43341C9.23403 6.43679 9.14505 6.46725 9.07026 6.52096C8.99546 6.57468 8.93818 6.64926 8.90558 6.73538C8.83858 6.90887 8.83908 7.18834 8.83958 7.39532V9.39663C8.83899 9.43236 8.82446 9.46645 8.79908 9.49162C8.78659 9.50398 8.77175 9.51371 8.75543 9.52023C8.73912 9.52676 8.72166 9.52995 8.70409 9.52961H7.99912C7.9656 9.52724 7.9342 9.51235 7.91114 9.4879C7.88808 9.46345 7.87505 9.43123 7.87463 9.39763V7.44181L7.87563 7.31683C7.88163 6.91836 7.88813 6.42441 7.43865 6.42441C6.95218 6.42441 6.95218 6.98636 6.95268 7.41132V9.39663C6.95195 9.43243 6.93724 9.46653 6.91168 9.49162C6.89919 9.50398 6.88434 9.51371 6.86803 9.52023C6.85171 9.52676 6.83425 9.52995 6.81668 9.52961H6.81618ZM14.6568 8.89068L14.6158 8.83368C14.5008 8.6757 14.3908 8.52571 14.3908 8.22524V7.10535L14.3913 6.99086C14.3938 6.5609 14.3963 6.16894 14.0798 5.86846C13.8098 5.60349 13.3629 5.511 13.0204 5.511C12.3509 5.511 11.6034 5.76547 11.4465 6.61089C11.4432 6.62788 11.4434 6.64535 11.447 6.66226C11.4506 6.67918 11.4575 6.6952 11.4674 6.70938C11.4874 6.73788 11.5174 6.75688 11.5519 6.76138L12.2339 6.83637C12.2663 6.83109 12.2961 6.81531 12.3187 6.79147C12.3413 6.76763 12.3554 6.73703 12.3589 6.70438C12.4174 6.41341 12.6554 6.27293 12.9239 6.27293C13.0689 6.27293 13.2354 6.32792 13.3189 6.45991C13.4079 6.5924 13.4064 6.76888 13.4054 6.92736V7.07185L13.2089 7.09285C12.8364 7.13134 12.4044 7.17584 12.0819 7.32083C11.6409 7.51531 11.3315 7.91177 11.3315 8.49571C11.3315 9.24164 11.7924 9.61511 12.3849 9.61511C12.8829 9.61511 13.1584 9.49512 13.5448 9.09266L13.5948 9.16865V9.16915C13.6888 9.31164 13.7478 9.40163 13.9483 9.57211C14.0013 9.60211 14.0683 9.59561 14.1143 9.55511C14.2543 9.42812 14.5098 9.20115 14.6543 9.07816C14.7143 9.03416 14.7043 8.95667 14.6568 8.89068ZM13.2754 8.56721C13.1639 8.76869 12.9854 8.89368 12.7884 8.89368C12.5184 8.89368 12.3609 8.6837 12.3609 8.37273C12.3609 7.75978 12.8984 7.64929 13.4074 7.64929V7.83278C13.4074 8.10075 13.4074 8.32623 13.2754 8.56721ZM15.2503 6.22743V5.70248C15.2494 5.68471 15.2523 5.66696 15.2586 5.65035C15.265 5.63374 15.2747 5.61864 15.2873 5.60599C15.2996 5.59348 15.3144 5.58375 15.3308 5.57746C15.3472 5.57116 15.3647 5.56845 15.3823 5.56949H17.6946C17.7122 5.56879 17.7296 5.57172 17.746 5.57808C17.7623 5.58445 17.7772 5.59412 17.7896 5.60649C17.8146 5.63149 17.8286 5.66648 17.8281 5.70248V6.15444C17.8281 6.23043 17.7656 6.32942 17.6541 6.48591L16.4557 8.23274C16.9007 8.22174 17.3707 8.28973 17.7756 8.52221C17.8496 8.56271 17.8971 8.6412 17.8996 8.72719V9.29214C17.8996 9.37013 17.8171 9.45962 17.7291 9.41313C17.3522 9.21487 16.9325 9.1117 16.5066 9.11257C16.0807 9.11344 15.6614 9.21833 15.2853 9.41813C15.2053 9.46162 15.1208 9.37313 15.1208 9.29564V8.75819C15.1134 8.63172 15.1433 8.50586 15.2068 8.39622L16.5952 6.36042H15.3843C15.3667 6.36112 15.3492 6.35819 15.3329 6.35183C15.3166 6.34546 15.3017 6.33579 15.2893 6.32342C15.2767 6.3109 15.2668 6.29601 15.2601 6.27961C15.2534 6.26321 15.2501 6.24564 15.2503 6.22793V6.22743ZM27.4746 6.04045C27.6507 5.88176 27.8526 5.75443 28.0716 5.66398C28.2778 5.57988 28.4984 5.53658 28.7211 5.5365C28.9421 5.5325 29.1611 5.57749 29.3631 5.66898C29.5535 5.75798 29.7205 5.89246 29.8495 6.06095C29.9905 6.24743 30.0945 6.45991 30.156 6.68689C30.2307 6.95606 30.2667 7.23449 30.263 7.51381C30.2665 7.79904 30.2279 8.08323 30.1485 8.35723C30.082 8.5897 29.9735 8.80718 29.828 8.99767C29.693 9.17115 29.521 9.31164 29.3256 9.40863C29.1206 9.50612 28.8961 9.55361 28.6696 9.54911C28.2451 9.55563 27.835 9.39594 27.5266 9.10416V10.87C27.5296 10.8904 27.5278 10.9111 27.5215 10.9307C27.5152 10.9503 27.5044 10.9682 27.4901 10.983C27.4759 10.9976 27.4585 11.0086 27.4392 11.0151C27.4199 11.0216 27.3993 11.0235 27.3792 11.0205H26.9432C26.923 11.0235 26.9025 11.0216 26.8832 11.0151C26.8639 11.0086 26.8464 10.9976 26.8322 10.983C26.8178 10.9682 26.807 10.9504 26.8006 10.9308C26.7942 10.9112 26.7923 10.8904 26.7952 10.87V5.79947C26.7924 5.77903 26.7944 5.75822 26.8009 5.73864C26.8074 5.71906 26.8182 5.70122 26.8327 5.68648C26.8468 5.67201 26.8641 5.66103 26.8832 5.65443C26.9023 5.64783 26.9226 5.6458 26.9427 5.64849H27.2677C27.2887 5.64655 27.3099 5.64896 27.3299 5.65559C27.35 5.66221 27.3684 5.6729 27.3842 5.68698C27.4001 5.7012 27.4131 5.71848 27.4223 5.73781C27.4315 5.75713 27.4367 5.7781 27.4376 5.79947L27.4746 6.04045ZM28.5166 6.13894C28.1578 6.14231 27.8103 6.2643 27.5281 6.48591V8.58521C27.8431 8.82668 28.1676 8.94717 28.5016 8.94717C29.1801 8.94717 29.5195 8.48022 29.5195 7.5473C29.5195 6.61439 29.1851 6.14494 28.5166 6.13844V6.13944V6.13894ZM31.1875 6.32292L31.243 6.30392C31.5935 6.19349 31.9584 6.13553 32.3259 6.13194C32.6209 6.13194 32.8274 6.18793 32.9459 6.29792C33.0634 6.40791 33.1224 6.59889 33.1224 6.87037V7.36532C32.8188 7.28585 32.5067 7.24321 32.1929 7.23833C31.7604 7.23783 31.4159 7.34682 31.16 7.5658C30.9045 7.78478 30.7765 8.07725 30.7765 8.44372C30.7775 8.78469 30.8815 9.05766 31.088 9.26114C31.295 9.46462 31.5749 9.56611 31.9289 9.56611C32.1479 9.56511 32.3639 9.52212 32.5674 9.43912C32.7814 9.35413 32.9799 9.23164 33.1534 9.07766L33.1909 9.32663C33.1929 9.36763 33.2109 9.40663 33.2419 9.43362C33.2724 9.46062 33.3124 9.47362 33.3528 9.46962H33.6708C33.6909 9.47231 33.7112 9.47027 33.7303 9.46367C33.7494 9.45708 33.7667 9.4461 33.7808 9.43162C33.7953 9.41689 33.8062 9.39905 33.8127 9.37947C33.8192 9.35989 33.8211 9.33908 33.8183 9.31864V6.74538C33.8178 6.33292 33.7068 6.02895 33.4853 5.83347C33.2644 5.63849 32.9204 5.5405 32.4529 5.5405C32.2204 5.5405 31.9879 5.56149 31.7594 5.60399C31.5594 5.63649 31.3645 5.69248 31.177 5.76997C31.1315 5.78592 31.091 5.8135 31.0595 5.84997C31.0353 5.89478 31.0248 5.94574 31.0295 5.99645V6.19793C31.0295 6.28892 31.063 6.33442 31.1255 6.33442C31.1466 6.33406 31.1676 6.33017 31.1875 6.32292ZM32.6174 8.90517C32.4539 8.96717 32.2819 9.00017 32.1079 9.00216C31.9159 9.00266 31.7684 8.95167 31.6649 8.84868C31.5614 8.74519 31.5099 8.5987 31.5099 8.40772C31.5099 7.97026 31.7874 7.75178 32.3439 7.75178C32.4759 7.75178 32.6079 7.76078 32.7384 7.77828C32.8684 7.79528 32.9984 7.81928 33.1259 7.84978V8.6187C32.9709 8.73969 32.7999 8.83618 32.6169 8.90517H32.6174ZM37.3362 5.64649L37.3787 5.64699H37.7916C37.8606 5.64699 37.8951 5.67748 37.8951 5.73698C37.8876 5.79987 37.8701 5.86115 37.8431 5.91846L36.2197 10.1371C36.0867 10.4835 35.9327 10.732 35.7582 10.8835C35.5837 11.0345 35.3553 11.1095 35.0733 11.109C34.9314 11.111 34.7898 11.0933 34.6528 11.0565C34.6064 11.0463 34.5647 11.021 34.5343 10.9845C34.5063 10.9382 34.4936 10.8844 34.4978 10.8305V10.6345C34.4978 10.5395 34.5343 10.4915 34.6083 10.4915C34.6458 10.4935 34.6828 10.498 34.7193 10.5065C34.7848 10.518 34.8513 10.523 34.9178 10.5215C35.0748 10.5315 35.2293 10.4835 35.3542 10.386C35.4572 10.296 35.5507 10.1301 35.6342 9.88858L35.7742 9.50712L34.3528 5.91846C34.3261 5.8613 34.3089 5.80017 34.3018 5.73748C34.3018 5.67748 34.3363 5.64749 34.4048 5.64749H34.8478C34.9045 5.6418 34.9616 5.65479 35.0103 5.68448C35.0521 5.7322 35.0823 5.78904 35.0983 5.85047L36.1317 8.77369L37.1282 5.84997C37.1442 5.78854 37.1743 5.7317 37.2162 5.68398C37.2648 5.65412 37.3218 5.64095 37.3787 5.64649H37.3362ZM3.79683 5.5115C4.13932 5.5115 4.58679 5.60399 4.85578 5.86846C5.17177 6.17044 5.16977 6.5659 5.16727 6.99836V8.22474C5.16727 8.52621 5.27676 8.6762 5.39225 8.83418L5.43325 8.89068C5.47825 8.95417 5.48825 9.03416 5.43325 9.08166C5.25118 9.23827 5.07117 9.39727 4.89328 9.55861L4.88828 9.55761C4.86583 9.57757 4.83767 9.58996 4.80778 9.59301C4.7779 9.59606 4.74781 9.58962 4.72179 9.57461C4.5223 9.40513 4.4623 9.31364 4.37031 9.17315L4.31881 9.09566C3.93183 9.49762 3.65884 9.61761 3.15837 9.61761C2.5659 9.61761 2.10492 9.24464 2.10492 8.49771C2.10492 7.91427 2.4164 7.51781 2.85238 7.32333C3.17437 7.17934 3.60384 7.13434 3.97533 7.09585L4.07732 7.08485L4.17532 7.07385V6.92736C4.17682 6.76888 4.17832 6.5924 4.09032 6.45941C4.00432 6.32742 3.84083 6.27343 3.69534 6.27343C3.42685 6.27343 3.18737 6.41341 3.12887 6.70438C3.12557 6.73708 3.11158 6.76778 3.08908 6.79173C3.06657 6.81568 3.0368 6.83154 3.00437 6.83687L2.32791 6.76138C2.31105 6.75887 2.29489 6.75292 2.28044 6.74388C2.26599 6.73485 2.25355 6.72294 2.24391 6.70888C2.23416 6.69473 2.22733 6.67877 2.22381 6.66195C2.22029 6.64513 2.22016 6.62777 2.22341 6.61089C2.37941 5.76597 3.12737 5.511 3.79683 5.511V5.5115ZM4.18082 7.64929C3.67184 7.64929 3.13437 7.76078 3.13437 8.37273C3.13437 8.6842 3.29186 8.89418 3.56185 8.89418C3.75984 8.89418 3.93683 8.76919 4.04932 8.56721C4.18132 8.32723 4.18132 8.10325 4.18082 7.83878V7.64929Z" fill="#6D6D6D"/>
<path d="M16.4074 11.8749C16.5674 11.468 16.9238 10.557 16.7544 10.3366H16.7554C16.5869 10.1151 15.6404 10.2316 15.2139 10.2836H15.2129C15.0834 10.2996 15.0639 10.1846 15.1799 10.1011C15.9364 9.55864 17.1753 9.71363 17.3193 9.89711C17.4633 10.0801 17.2798 11.3485 16.5719 11.9539C16.4629 12.0469 16.3589 11.9974 16.4069 11.8744L16.4074 11.8749ZM11.3186 12.4999C12.9655 12.4999 14.8835 11.9684 16.2049 10.973V10.975C16.4234 10.807 16.2359 10.56 16.0129 10.657C14.574 11.2774 13.025 11.6018 11.4581 11.6109C9.28623 11.6109 7.18584 11.003 5.48643 9.9936C5.33743 9.90511 5.22644 10.0611 5.35143 10.1746C6.98735 11.6819 9.11524 12.5114 11.3186 12.4994V12.4999Z" fill="#6D6D6D"/>
</svg>
