<svg width="36" height="12" viewBox="0 0 36 12" fill="none" xmlns="http://www.w3.org/2000/svg">
<path d="M35.8436 3.66916C35.509 2.75468 34.6391 2.10786 33.5908 2.10786H33.5685C32.8994 2.10786 32.2748 2.37551 31.851 2.82159C31.4049 2.35321 30.7804 2.10786 30.1336 2.10786H30.1113C29.5091 2.10786 28.9737 2.3309 28.55 2.66546V2.48703C28.5276 2.3086 28.3938 2.17477 28.1931 2.17477H26.5871C26.3864 2.17477 26.2303 2.3309 26.2303 2.53164V11.1411C26.2303 11.3418 26.3864 11.4979 26.5871 11.4979H28.1931C28.3715 11.4979 28.5053 11.3641 28.55 11.208V4.9628V4.89589C28.5723 4.62824 28.773 4.4052 29.1076 4.38289H29.3975C29.5314 4.38289 29.6429 4.4498 29.7321 4.51672C29.8659 4.62824 29.9551 4.78437 29.9551 4.9628V11.1411C29.9551 11.3418 30.1113 11.4756 30.312 11.4756H31.918C32.1187 11.4756 32.2525 11.3195 32.2748 11.1411V4.9628C32.2748 4.76206 32.364 4.58363 32.5425 4.47211C32.6317 4.4275 32.7209 4.38289 32.8324 4.38289H33.1224C33.457 4.4052 33.68 4.67285 33.68 4.9628V11.1411C33.68 11.3418 33.8362 11.4756 34.0369 11.4756H35.6428C35.8436 11.4756 35.9997 11.3195 35.9997 11.1411V4.49441C35.9551 4.04833 35.9105 3.86989 35.8436 3.66916ZM24.9143 2.26399H23.9998V0.814213C23.9998 0.635779 23.866 0.501953 23.6875 0.501953H23.6206C22.5946 0.769604 22.8177 2.15247 20.9664 2.26399H20.721C20.5649 2.3086 20.4534 2.44242 20.4534 2.59855V4.15985C20.4534 4.36059 20.6095 4.51672 20.8102 4.51672H21.7693V11.1411C21.7693 11.3418 21.9255 11.4756 22.1262 11.4756H23.7098C23.9106 11.4756 24.0667 11.3195 24.0667 11.1411V4.53902H24.9589C25.1596 4.53902 25.3158 4.38289 25.3158 4.18215V2.62086C25.2712 2.42012 25.115 2.26399 24.9143 2.26399Z" fill="#A0A0A0"/>
<path d="M19.1599 2.26562H17.554C17.3533 2.26562 17.1971 2.42175 17.1971 2.60019V5.85661C17.1971 6.05735 17.0187 6.21347 16.8179 6.21347H16.1488C15.9481 6.21347 15.7696 6.05735 15.7696 5.85661V2.62249C15.7696 2.42175 15.6135 2.28793 15.4127 2.28793H13.8291C13.6284 2.28793 13.4722 2.44406 13.4722 2.62249V6.16887C13.4722 7.50712 14.4536 8.4662 15.8365 8.4662H16.9072C17.0856 8.48851 17.2417 8.64464 17.2417 8.82307C17.2417 9.0015 17.1079 9.15763 16.9072 9.17994H14.5429C14.3421 9.17994 14.186 9.33607 14.186 9.5145V11.1204C14.186 11.3211 14.3421 11.455 14.5429 11.455H17.1748C18.5577 11.455 19.5391 10.4959 19.5391 9.15763V2.57788C19.5168 2.42175 19.3607 2.26562 19.1599 2.26562ZM3.83664 2.26562H0.334814C0.156377 2.26562 0.000244141 2.42175 0.000244141 2.60019V11.1427C0.000244141 11.3434 0.134072 11.4773 0.312509 11.4996H1.94075C2.14149 11.4996 2.29762 11.3434 2.29762 11.165V8.73385H3.83664C5.10801 8.73385 6.00019 7.86399 6.00019 6.61495V4.40683C6.00019 3.13549 5.10801 2.26563 3.83664 2.26562ZM3.70281 5.14287V6.10195C3.70281 6.30269 3.52438 6.45882 3.32364 6.45882H2.29762V4.51835H3.32364C3.52438 4.51835 3.70281 4.67448 3.70281 4.87522V5.14287ZM10.528 8.9792V7.86399C10.528 7.66325 10.3496 7.50712 10.1489 7.50712H9.47972C9.27897 7.50712 9.10054 7.66325 9.10054 7.86399V9.20224C9.10054 9.40298 9.27897 9.55911 9.47972 9.55911H10.1489C10.3273 9.55911 10.4611 9.46989 10.5057 9.31376C10.5057 9.29146 10.5057 9.29146 10.528 9.26916V8.9792ZM10.2604 2.31023C12.1117 2.31023 12.8923 3.22471 12.8923 4.69679V10.6074C12.8923 11.0981 12.4685 11.4773 11.9332 11.4773H8.98901C7.58382 11.4773 6.71394 10.5628 6.71394 9.26916V7.55173C6.71394 6.25808 7.71765 5.34361 9.14515 5.34361H10.2158C10.3719 5.32131 10.5057 5.18748 10.528 5.00905V4.786C10.5057 4.58527 10.3719 4.47374 10.2158 4.45144H8.02991C7.82917 4.45144 7.65073 4.29531 7.65073 4.09457V2.6448C7.65073 2.46636 7.80687 2.31023 8.00761 2.31023H10.2604Z" fill="#A0A0A0"/>
</svg>
