<svg width="26" height="16" viewBox="0 0 26 16" fill="none" xmlns="http://www.w3.org/2000/svg">
<rect width="26" height="16" rx="4" fill="white" fill-opacity="0.08"/>
<path d="M18.8374 10.9729H17.6588L19.2964 5H20.475L18.8374 10.9729ZM18.2253 5.18708C18.1447 5.0732 18.0186 5.01627 17.8468 5.01627H11.3715L11.052 6.18753H16.942L16.5984 7.43742H11.8869V7.4347H10.7084L9.73118 11H10.9097L11.5648 8.60868H16.8615C17.0279 8.60868 17.1837 8.55174 17.3286 8.43787C17.4736 8.32399 17.5702 8.18301 17.6159 8.01491L18.2709 5.62359C18.3219 5.44465 18.3058 5.30095 18.2253 5.18708ZM9.04392 10.5987C8.97949 10.8346 8.76472 11 8.5231 11H2.44783C2.28139 11 2.1579 10.9431 2.07736 10.8292C1.99682 10.7153 1.97803 10.5743 2.02635 10.4062L3.50826 5.01627H4.6868L3.36329 9.83145H8.07746L9.40097 5.01627H10.5795L9.04392 10.5987Z" fill="#6D6D6D"/>
<path d="M22.51 5.00977L24 8.00299L20.867 10.9962L22.51 5.00977Z" fill="#6D6D6D"/>
<path d="M21.4624 5.00977L22.9524 8.00299L19.8167 10.9962L21.4624 5.00977Z" fill="#6D6D6D"/>
</svg>
