<svg width="24" height="16" viewBox="0 0 24 16" fill="none" xmlns="http://www.w3.org/2000/svg">
<rect x="3.05176e-05" width="24" height="16" rx="4" fill="white" fill-opacity="0.08"/>
<path d="M21.6636 6.72784C21.4824 6.22896 21.0113 5.87609 20.4436 5.87609H20.4315C20.0691 5.87609 19.7309 6.0221 19.5014 6.26546C19.2598 6.00994 18.9216 5.87609 18.5713 5.87609H18.5592C18.233 5.87609 17.9431 5.99777 17.7136 6.18029V6.08294C17.7015 5.9856 17.6291 5.91259 17.5204 5.91259H16.6506C16.5419 5.91259 16.4574 5.99777 16.4574 6.10728V10.8041C16.4574 10.9136 16.5419 10.9988 16.6506 10.9988H17.5204C17.617 10.9988 17.6895 10.9258 17.7136 10.8406V7.43358V7.39708C17.7257 7.25106 17.8344 7.12938 18.0156 7.11722H18.1726C18.2451 7.11722 18.3055 7.15372 18.3538 7.19022C18.4263 7.25106 18.4746 7.33624 18.4746 7.43358V10.8041C18.4746 10.9136 18.5592 10.9866 18.6679 10.9866H19.5376C19.6463 10.9866 19.7188 10.9014 19.7309 10.8041V7.43358C19.7309 7.32407 19.7792 7.22673 19.8758 7.16589C19.9241 7.14155 19.9725 7.11722 20.0329 7.11722H20.1899C20.3711 7.12938 20.4919 7.2754 20.4919 7.43358V10.8041C20.4919 10.9136 20.5764 10.9866 20.6851 10.9866H21.5549C21.6636 10.9866 21.7481 10.9014 21.7481 10.8041V7.17805C21.724 6.9347 21.6998 6.83735 21.6636 6.72784ZM15.7447 5.96126H15.2494V5.17035C15.2494 5.07301 15.177 5 15.0803 5H15.0441C14.4884 5.14601 14.6092 5.90042 13.6067 5.96126H13.4738C13.3892 5.9856 13.3288 6.05861 13.3288 6.14378V6.99554C13.3288 7.10505 13.4134 7.19022 13.5221 7.19022H14.0415V10.8041C14.0415 10.9136 14.1261 10.9866 14.2348 10.9866H15.0924C15.2011 10.9866 15.2857 10.9014 15.2857 10.8041V7.20239H15.7689C15.8776 7.20239 15.9621 7.11721 15.9621 7.0077V6.15595C15.938 6.04644 15.8534 5.96126 15.7447 5.96126Z" fill="#6D6D6D"/>
<path d="M12.6284 5.96289H11.7587C11.65 5.96289 11.5654 6.04807 11.5654 6.14541V7.92192C11.5654 8.03143 11.4688 8.11661 11.3601 8.11661H10.9977C10.889 8.11661 10.7923 8.03143 10.7923 7.92192V6.15758C10.7923 6.04807 10.7078 5.97506 10.5991 5.97506H9.74144C9.63273 5.97506 9.54818 6.06023 9.54818 6.15758V8.09227C9.54818 8.82235 10.0797 9.34557 10.8286 9.34557H11.4084C11.505 9.35774 11.5896 9.44291 11.5896 9.54025C11.5896 9.6376 11.5171 9.72277 11.4084 9.73494H10.128C10.0193 9.73494 9.93471 9.82012 9.93471 9.91746V10.7935C9.93471 10.9031 10.0193 10.9761 10.128 10.9761H11.5533C12.3023 10.9761 12.8338 10.4528 12.8338 9.72277V6.13324C12.8217 6.04807 12.7371 5.96289 12.6284 5.96289ZM4.3299 5.96289H2.43345C2.33681 5.96289 2.25226 6.04807 2.25226 6.14541V10.8057C2.25226 10.9152 2.32473 10.9882 2.42137 11.0004H3.30316C3.41187 11.0004 3.49643 10.9152 3.49643 10.8179V9.49158H4.3299C5.01843 9.49158 5.5016 9.01703 5.5016 8.33563V7.13101C5.5016 6.43744 5.01843 5.96289 4.3299 5.96289ZM4.25743 7.53255V8.05577C4.25743 8.16528 4.16079 8.25046 4.05208 8.25046H3.49643V7.19185H4.05208C4.16079 7.19185 4.25743 7.27702 4.25743 7.38654V7.53255ZM7.9537 9.62543V9.01703C7.9537 8.90752 7.85707 8.82235 7.74835 8.82235H7.38597C7.27726 8.82235 7.18063 8.90752 7.18063 9.01703V9.74711C7.18063 9.85662 7.27726 9.94179 7.38597 9.94179H7.74835C7.84499 9.94179 7.91747 9.89312 7.94162 9.80795C7.94162 9.79578 7.94162 9.79578 7.9537 9.78361V9.62543ZM7.80875 5.98723C8.81134 5.98723 9.23411 6.48611 9.23411 7.28919V10.5137C9.23411 10.7814 9.00461 10.9882 8.7147 10.9882H7.12023C6.35923 10.9882 5.88814 10.4894 5.88814 9.78361V8.84668C5.88814 8.14095 6.43171 7.64206 7.20478 7.64206H7.78459C7.86915 7.62989 7.94162 7.55689 7.9537 7.45954V7.33786C7.94162 7.22835 7.86915 7.16751 7.78459 7.15535H6.60082C6.4921 7.15535 6.39547 7.07017 6.39547 6.96066V6.16974C6.39547 6.0724 6.48002 5.98723 6.58874 5.98723H7.80875Z" fill="#6D6D6D"/>
</svg>
