<svg width="36" height="14" viewBox="0 0 36 14" fill="none" xmlns="http://www.w3.org/2000/svg">
<path d="M11.6539 5.9676C11.6539 5.5762 11.6207 5.18664 11.5524 4.80078H5.94556V7.01256H9.15791C9.0896 7.36704 8.95113 7.70305 8.74805 8.00399C8.54498 8.30308 8.27913 8.56155 7.96897 8.75909V10.1955H9.8853C11.0078 9.1948 11.6539 7.71782 11.6539 5.9676Z" fill="#A0A0A0"/>
<path d="M5.94636 11.5864C7.55069 11.5864 8.90024 11.0769 9.8861 10.198L7.96977 8.76168C7.43622 9.11246 6.75129 9.31186 5.94636 9.31186C5.21292 9.31035 4.498 9.08135 3.90017 8.65645C3.30234 8.23154 2.85104 7.63164 2.60847 6.93945H0.633057V8.42013C1.12968 9.37094 1.88846 10.1722 2.82632 10.7298C3.77026 11.291 4.8482 11.5869 5.94636 11.5864Z" fill="#A0A0A0"/>
<path d="M2.60688 6.93734C2.35811 6.2255 2.35811 5.45033 2.60688 4.73849V3.25781H0.631466C0.216767 4.05462 0.000244141 4.93965 0.000244141 5.83792C0.000244141 6.73618 0.216767 7.62121 0.631466 8.41802L2.60688 6.93734Z" fill="#A0A0A0"/>
<path d="M5.94451 2.36888C6.79376 2.35411 7.61161 2.66428 8.22454 3.22922L9.92303 1.58977C8.83265 0.607787 7.41173 0.0736922 5.94451 0.0943263C4.84234 0.0943263 3.76233 0.389723 2.82447 0.94913C1.89369 1.50055 1.13487 2.30031 0.633057 3.25876L2.60847 4.73944C2.85093 4.04755 3.30196 3.44786 3.89942 3.02298C4.49688 2.5981 5.21139 2.36893 5.94451 2.36703V2.36888Z" fill="#A0A0A0"/>
<path d="M17.0248 6.84171V10.8923H15.6956V0.891319H19.2218C19.642 0.88268 20.06 0.954755 20.4532 1.10364C20.8445 1.25133 21.2009 1.47288 21.5055 1.7572C21.8101 2.02306 22.0538 2.34799 22.2181 2.7117C22.3824 3.07541 22.4636 3.46865 22.4581 3.86744C22.4673 4.26622 22.3861 4.66132 22.2218 5.03056C22.0556 5.39612 21.8119 5.7229 21.5036 5.9906C20.887 6.55739 20.1264 6.84171 19.2218 6.83987H17.0248V6.84171ZM17.0248 2.12275V5.61212H19.255C19.6145 5.62323 19.9691 5.52694 20.2736 5.33555C20.5781 5.14416 20.8187 4.86636 20.9646 4.53762C21.1035 4.22145 21.14 3.86977 21.0692 3.53178C20.9984 3.19379 20.8236 2.8864 20.5695 2.65262C20.3981 2.47933 20.1931 2.34293 19.967 2.25181C19.7409 2.16069 19.4986 2.11677 19.255 2.12275H17.0248ZM25.5228 3.82682C26.5049 3.82682 27.2803 4.07976 27.8489 4.58747C28.4176 5.09518 28.7019 5.79121 28.7 6.67371V10.8923H27.4299V9.94153H27.3708C26.8206 10.7243 26.0895 11.1157 25.1738 11.1157C24.3947 11.1157 23.743 10.8923 23.2169 10.4455C22.9661 10.2426 22.7641 9.98578 22.6261 9.69413C22.491 9.4055 22.424 9.08966 22.4304 8.77102C22.4304 8.06207 22.7073 7.49712 23.2612 7.07988C23.8151 6.66263 24.5535 6.45216 25.4766 6.45216C26.2668 6.45216 26.9166 6.59063 27.428 6.86941V6.5777C27.4304 6.35871 27.3822 6.14213 27.287 5.94485C27.1919 5.74758 27.0525 5.57494 26.8797 5.44042C26.5237 5.13276 26.0671 4.96654 25.5966 4.97333C24.8544 4.97333 24.2674 5.27611 23.8335 5.88167L22.663 5.16903C23.3074 4.27361 24.26 3.82682 25.5228 3.82682ZM23.8021 8.79687C23.8004 8.96221 23.8398 9.12539 23.9168 9.27171C23.9939 9.41803 24.1061 9.54289 24.2434 9.63505C24.5369 9.85845 24.9024 9.97661 25.2772 9.97107C25.8366 9.97107 26.3739 9.75321 26.7726 9.37105C27.212 8.97041 27.4317 8.49963 27.4317 7.96053C27.0182 7.64113 26.4385 7.48051 25.6963 7.48051C25.1572 7.48051 24.7068 7.6079 24.3486 7.85898C23.9831 8.11376 23.8021 8.42393 23.8021 8.79687ZM35.9998 4.04837L31.5598 13.9072H30.1881L31.8348 10.4585L28.9179 4.04837H30.3616L32.4718 8.96487H32.4995L34.5524 4.04837H35.9998Z" fill="#A0A0A0"/>
</svg>
