<svg width="16" height="16" viewBox="0 0 16 16" fill="none" xmlns="http://www.w3.org/2000/svg">
<rect x="3.05176e-05" width="16" height="16" rx="4" fill="white" fill-opacity="0.08"/>
<path d="M7.254 7.20152H8.68077V9.47158C8.48627 9.56883 8.22695 9.60125 8.03245 9.60125C7.5138 9.60125 7.254 9.34192 7.254 8.75796V7.20152ZM10.7563 6.68287C10.7543 6.57173 10.7093 6.4657 10.6307 6.3871C10.5521 6.30849 10.4461 6.26346 10.3349 6.26147H9.55647L7.77313 4.21881C7.61105 4.02431 7.35173 3.95948 7.0924 4.02431L6.47602 4.21832C6.37877 4.25074 6.34636 4.3804 6.41119 4.44523L8.35661 6.2934H5.40582C5.30858 6.2934 5.24374 6.35823 5.24374 6.45548V6.77964C5.24374 7.00655 5.43824 7.20104 5.66515 7.20104H6.11897V8.75747C6.11897 9.92492 6.73486 10.6056 7.77264 10.6056C8.0968 10.6056 8.35613 10.5732 8.68077 10.4436V11.4813C8.68077 11.7731 8.90767 12 9.19942 12H9.65323C9.7037 11.9966 9.75122 11.975 9.78698 11.9393C9.82275 11.9035 9.84433 11.856 9.84773 11.8055V7.16911H10.5938C10.691 7.16911 10.7558 7.10428 10.7558 7.00703V6.68287H10.7563Z" fill="#6D6D6D"/>
</svg>
