<svg width="16" height="16" viewBox="0 0 16 16" fill="none" xmlns="http://www.w3.org/2000/svg">
<g id="Frame" clip-path="url(#clip0_1540_673)">
<path id="Vector" opacity="0.01" d="M0 0H16V16H0V0Z" fill="#202425"/>
<path id="Vector_2" d="M1.06665 3.19948C1.06665 2.91658 1.17903 2.64527 1.37907 2.44523C1.57911 2.24519 1.85042 2.13281 2.13332 2.13281H13.8666C14.1495 2.13281 14.4209 2.24519 14.6209 2.44523C14.8209 2.64527 14.9333 2.91658 14.9333 3.19948V5.06615C14.9333 5.13687 14.9052 5.2047 14.8552 5.25471C14.8052 5.30472 14.7374 5.33281 14.6666 5.33281H1.33332C1.26259 5.33281 1.19476 5.30472 1.14476 5.25471C1.09475 5.2047 1.06665 5.13687 1.06665 5.06615V3.19948Z" fill="#FFAA44"/>
<path id="Vector_3" d="M1.06665 6.13385C1.06665 6.06313 1.09475 5.9953 1.14476 5.94529C1.19476 5.89528 1.26259 5.86719 1.33332 5.86719H14.6666C14.7374 5.86719 14.8052 5.89528 14.8552 5.94529C14.9052 5.9953 14.9333 6.06313 14.9333 6.13385V12.8005C14.9333 13.0834 14.8209 13.3547 14.6209 13.5548C14.4209 13.7548 14.1495 13.8672 13.8666 13.8672H2.13332C1.85042 13.8672 1.57911 13.7548 1.37907 13.5548C1.17903 13.3547 1.06665 13.0834 1.06665 12.8005V6.13385Z" fill="#11AA66"/>
<path id="Vector_4" d="M8.53333 11.1993C8.53333 11.1293 8.54712 11.06 8.57392 10.9953C8.60072 10.9305 8.64001 10.8717 8.68953 10.8222C8.73906 10.7727 8.79785 10.7334 8.86256 10.7066C8.92727 10.6798 8.99662 10.666 9.06666 10.666H12.2667C12.4081 10.666 12.5438 10.7222 12.6438 10.8222C12.7438 10.9222 12.8 11.0579 12.8 11.1993C12.8 11.3408 12.7438 11.4765 12.6438 11.5765C12.5438 11.6765 12.4081 11.7327 12.2667 11.7327H9.06666C8.99662 11.7327 8.92727 11.7189 8.86256 11.6921C8.79785 11.6653 8.73906 11.626 8.68953 11.5765C8.64001 11.5269 8.60072 11.4682 8.57392 11.4034C8.54712 11.3387 8.53333 11.2694 8.53333 11.1993Z" fill="white"/>
</g>
<defs>
<clipPath id="clip0_1540_673">
<rect width="16" height="16" fill="white"/>
</clipPath>
</defs>
</svg>
