<svg width="20" height="20" viewBox="0 0 20 20" fill="none" xmlns="http://www.w3.org/2000/svg">
<g id="Frame">
<path id="Vector" d="M5.63086 3.54297C5.63086 3.20703 5.9043 2.93359 6.24023 2.93359C6.57617 2.93359 6.84961 3.20703 6.84961 3.54297C6.84961 3.87891 6.57617 4.15234 6.24023 4.15234C5.9043 4.1543 5.63086 3.88086 5.63086 3.54297ZM5.93164 3.54297C5.93164 3.71484 6.07031 3.85352 6.24219 3.85352C6.41406 3.85352 6.55273 3.71484 6.55273 3.54297C6.55273 3.37305 6.41406 3.23242 6.24219 3.23242C6.07031 3.23438 5.93164 3.37305 5.93164 3.54297Z" fill="#47B7F8"/>
<path id="Vector_2" d="M16.125 5.125H16.3926V4.85742C16.3926 4.78516 16.4512 4.72852 16.5215 4.72852C16.5938 4.72852 16.6504 4.78711 16.6504 4.85742V5.125H16.918C16.9902 5.125 17.0469 5.18359 17.0469 5.25391C17.0469 5.32617 16.9883 5.38281 16.918 5.38281H16.6504V5.65039C16.6504 5.72266 16.5918 5.7793 16.5215 5.7793C16.4512 5.7793 16.3926 5.7207 16.3926 5.65039V5.38281H16.125C16.0547 5.38281 15.9961 5.32422 15.9961 5.25391C15.9961 5.18359 16.0547 5.125 16.125 5.125ZM1.38867 7.55859H1.65625V7.29102C1.65625 7.21875 1.71484 7.16211 1.78516 7.16211C1.85742 7.16211 1.91406 7.2207 1.91406 7.29102V7.55859H2.18164C2.25391 7.55859 2.31055 7.61719 2.31055 7.6875C2.31055 7.75977 2.25195 7.81641 2.18164 7.81641H1.91406V8.08398C1.91406 8.15625 1.85547 8.21289 1.78516 8.21289C1.71484 8.21289 1.65625 8.1543 1.65625 8.08398V7.81641H1.38867C1.31836 7.81641 1.25977 7.75781 1.25977 7.6875C1.25977 7.61719 1.31836 7.55859 1.38867 7.55859Z" fill="#F7E42F"/>
<path id="Vector_3" d="M17.6699 11.5273H17.9805V11.2168C17.9805 11.1348 18.0469 11.0664 18.1309 11.0664C18.2129 11.0664 18.2812 11.1328 18.2812 11.2168V11.5273H18.5918C18.6738 11.5273 18.7422 11.5938 18.7422 11.6777C18.7422 11.7617 18.6758 11.8281 18.5918 11.8281H18.2812V12.1387C18.2812 12.2207 18.2148 12.2891 18.1309 12.2891C18.0488 12.2891 17.9805 12.2227 17.9805 12.1387V11.8281H17.6699C17.5879 11.8281 17.5195 11.7617 17.5195 11.6777C17.5195 11.5938 17.5879 11.5273 17.6699 11.5273Z" fill="#F8B62D"/>
<path id="Vector_4" d="M13.8711 3.76953C13.8711 3.8291 13.8948 3.88623 13.9369 3.92835C13.979 3.97048 14.0361 3.99414 14.0957 3.99414C14.1553 3.99414 14.2124 3.97048 14.2545 3.92835C14.2966 3.88623 14.3203 3.8291 14.3203 3.76953C14.3203 3.70996 14.2966 3.65283 14.2545 3.61071C14.2124 3.56859 14.1553 3.54492 14.0957 3.54492C14.0361 3.54492 13.979 3.56859 13.9369 3.61071C13.8948 3.65283 13.8711 3.70996 13.8711 3.76953Z" fill="#F8B62D"/>
<path id="Vector_5" d="M3.73828 4.95508C3.73828 5.03485 3.76997 5.11136 3.82638 5.16776C3.88279 5.22417 3.95929 5.25586 4.03906 5.25586C4.11883 5.25586 4.19534 5.22417 4.25175 5.16776C4.30815 5.11136 4.33984 5.03485 4.33984 4.95508C4.33984 4.87531 4.30815 4.7988 4.25175 4.74239C4.19534 4.68599 4.11883 4.6543 4.03906 4.6543C3.95929 4.6543 3.88279 4.68599 3.82638 4.74239C3.76997 4.7988 3.73828 4.87531 3.73828 4.95508Z" fill="#F8B62D"/>
<path id="Vector_6" d="M15.5762 7.08789C15.5762 7.16766 15.6079 7.24417 15.6643 7.30058C15.7207 7.35698 15.7972 7.38867 15.877 7.38867C15.9567 7.38867 16.0332 7.35698 16.0896 7.30058C16.146 7.24417 16.1777 7.16766 16.1777 7.08789C16.1777 7.00812 16.146 6.93161 16.0896 6.87521C16.0332 6.8188 15.9567 6.78711 15.877 6.78711C15.7972 6.78711 15.7207 6.8188 15.6643 6.87521C15.6079 6.93161 15.5762 7.00812 15.5762 7.08789Z" fill="#F7E42F"/>
<path id="Vector_7" d="M15.2773 9.83203C15.2773 9.49609 15.5508 9.22266 15.8867 9.22266C16.2227 9.22266 16.4961 9.49609 16.4961 9.83203C16.4961 10.168 16.2227 10.4414 15.8867 10.4414C15.5508 10.4414 15.2773 10.168 15.2773 9.83203ZM15.5781 9.83203C15.5781 10.0039 15.7168 10.1426 15.8887 10.1426C16.0605 10.1426 16.1992 10.0039 16.1992 9.83203C16.1992 9.66211 16.0605 9.52148 15.8887 9.52148C15.7168 9.52148 15.5781 9.66016 15.5781 9.83203Z" fill="#F8B62D"/>
<path id="Vector_8" d="M3.99609 9.86914C4.0293 9.83594 4.08203 9.83594 4.11328 9.86914C4.12891 9.88477 4.13672 9.90625 4.13672 9.92773C4.13672 9.94922 4.12891 9.9707 4.11328 9.98633L3.84766 10.252C3.83203 10.2676 3.81055 10.2754 3.78906 10.2754C3.76758 10.2754 3.74609 10.2676 3.73047 10.252C3.69727 10.2188 3.69727 10.166 3.73047 10.1348L3.99609 9.86914ZM3.29102 10.5723C3.30664 10.5566 3.32812 10.5488 3.34961 10.5488C3.37109 10.5488 3.39258 10.5566 3.4082 10.5723C3.44141 10.6055 3.44141 10.6582 3.4082 10.6895L3.14258 10.9551C3.12695 10.9707 3.10547 10.9785 3.08398 10.9785C3.0625 10.9785 3.04102 10.9707 3.02539 10.9551C3.00977 10.9395 3.00195 10.918 3.00195 10.8965C3.00195 10.875 3.00977 10.8535 3.02539 10.8379L3.29102 10.5723ZM3.35156 10.2773C3.33008 10.2773 3.30859 10.2695 3.29297 10.2539L3.02734 9.98828C3.01172 9.97266 3.00391 9.95117 3.00391 9.92969C3.00391 9.9082 3.01172 9.88672 3.02734 9.87109C3.06055 9.83789 3.11328 9.83789 3.14453 9.87109L3.41016 10.1367C3.44336 10.1699 3.44336 10.2227 3.41016 10.2539C3.39453 10.2676 3.37305 10.2773 3.35156 10.2773ZM3.8457 10.5723L4.11133 10.8379C4.12695 10.8535 4.13477 10.875 4.13477 10.8965C4.13477 10.918 4.12695 10.9395 4.11133 10.9551C4.0957 10.9707 4.07422 10.9785 4.05273 10.9785C4.03125 10.9785 4.00977 10.9707 3.99414 10.9551L3.72852 10.6895C3.69531 10.6562 3.69531 10.6035 3.72852 10.5723C3.75977 10.541 3.81445 10.541 3.8457 10.5723ZM3.79492 10.4121C3.79492 10.3672 3.83203 10.3281 3.87695 10.3281H4.25391C4.29883 10.3281 4.33594 10.3652 4.33594 10.4121C4.33594 10.459 4.29883 10.4941 4.25391 10.4941H3.87695C3.83203 10.4941 3.79492 10.457 3.79492 10.4121ZM2.88281 10.3281H3.25977C3.30469 10.3281 3.34375 10.3652 3.34375 10.4121C3.34375 10.459 3.30664 10.4941 3.25977 10.4941H2.88281C2.83789 10.4941 2.79883 10.457 2.79883 10.4121C2.79883 10.3672 2.83789 10.3281 2.88281 10.3281ZM3.56836 9.64258C3.61328 9.64258 3.65234 9.67969 3.65234 9.72461V10.1016C3.65234 10.1465 3.61523 10.1836 3.56836 10.1836C3.52148 10.1836 3.48633 10.1465 3.48633 10.1016V9.72656C3.48633 9.67969 3.52344 9.64258 3.56836 9.64258ZM3.56836 10.6387C3.61328 10.6387 3.65234 10.6758 3.65234 10.7227V11.0996C3.65234 11.1445 3.61523 11.1836 3.56836 11.1836C3.52148 11.1836 3.48633 11.1465 3.48633 11.0996V10.7227C3.48633 10.6758 3.52344 10.6387 3.56836 10.6387Z" fill="#FAEE00"/>
<path id="Vector_9" d="M10.834 1.74805C10.8672 1.71484 10.9199 1.71484 10.9512 1.74805C10.9668 1.76367 10.9746 1.78516 10.9746 1.80664C10.9746 1.82812 10.9668 1.84961 10.9512 1.86523L10.6855 2.13086C10.6699 2.14648 10.6484 2.1543 10.627 2.1543C10.6055 2.1543 10.584 2.14648 10.5684 2.13086C10.5352 2.09766 10.5352 2.04492 10.5684 2.01367L10.834 1.74805ZM10.1309 2.45117C10.1465 2.43555 10.168 2.42773 10.1895 2.42773C10.2109 2.42773 10.2324 2.43555 10.248 2.45117C10.2813 2.48438 10.2813 2.53711 10.248 2.56836L9.98242 2.83398C9.9668 2.84961 9.94531 2.85742 9.92383 2.85742C9.90234 2.85742 9.88086 2.84961 9.86523 2.83398C9.84961 2.81836 9.8418 2.79688 9.8418 2.77539C9.8418 2.75391 9.84961 2.73242 9.86523 2.7168L10.1309 2.45117ZM10.1895 2.15625C10.168 2.15625 10.1465 2.14844 10.1309 2.13281L9.86523 1.86719C9.84961 1.85156 9.8418 1.83008 9.8418 1.80859C9.8418 1.78711 9.84961 1.76562 9.86523 1.75C9.89844 1.7168 9.95117 1.7168 9.98242 1.75L10.248 2.01562C10.2813 2.04883 10.2813 2.10156 10.248 2.13281C10.2324 2.14844 10.2109 2.15625 10.1895 2.15625ZM10.6855 2.45117L10.9512 2.7168C10.9668 2.73242 10.9746 2.75391 10.9746 2.77539C10.9746 2.79688 10.9668 2.81836 10.9512 2.83398C10.9355 2.84961 10.9141 2.85742 10.8926 2.85742C10.8711 2.85742 10.8496 2.84961 10.834 2.83398L10.5684 2.56836C10.5352 2.53516 10.5352 2.48242 10.5684 2.45117C10.5996 2.41992 10.6543 2.41992 10.6855 2.45117ZM10.6348 2.29297C10.6348 2.24805 10.6719 2.20898 10.7168 2.20898H11.0938C11.1387 2.20898 11.1758 2.24609 11.1758 2.29297C11.1758 2.33984 11.1387 2.375 11.0938 2.375H10.7168C10.6719 2.375 10.6348 2.33789 10.6348 2.29297ZM9.72266 2.20898H10.0996C10.1445 2.20898 10.1836 2.24609 10.1836 2.29297C10.1836 2.33984 10.1465 2.375 10.0996 2.375H9.72266C9.67773 2.375 9.63867 2.33789 9.63867 2.29297C9.63867 2.24805 9.67578 2.20898 9.72266 2.20898ZM10.4082 1.52344C10.4531 1.52344 10.4922 1.56055 10.4922 1.60547V1.98242C10.4922 2.02734 10.4551 2.06445 10.4082 2.06445C10.3613 2.06445 10.3262 2.02734 10.3262 1.98242V1.60742C10.3242 1.56055 10.3613 1.52344 10.4082 1.52344ZM10.4082 2.51758C10.4531 2.51758 10.4922 2.55469 10.4922 2.60156V2.97852C10.4922 3.02344 10.4551 3.0625 10.4082 3.0625C10.3613 3.0625 10.3262 3.02539 10.3262 2.97852V2.60156C10.3242 2.55469 10.3613 2.51758 10.4082 2.51758Z" fill="#F8B62D"/>
<path id="Vector_10" d="M15.1875 16.5879H5.33008C5.0332 16.5879 4.79102 16.3418 4.79102 16.0391L6.13867 13.6973V9.95703C6.13867 7.65234 7.99219 5.76758 10.2578 5.76758C12.5234 5.76758 14.377 7.65234 14.377 9.95703V13.6973L15.7246 16.0391C15.7266 16.3418 15.4844 16.5879 15.1875 16.5879Z" fill="#FCEE21"/>
<path id="Vector_11" d="M8.72656 5.32031C8.72656 4.66406 9.25977 4.13086 9.91602 4.13086C10.5723 4.13086 11.1055 4.66406 11.1055 5.32031" fill="#F8B62D"/>
<path id="Vector_12" d="M11.1055 5.54492C10.9805 5.54492 10.8809 5.44336 10.8809 5.32031C10.8809 4.78906 10.4473 4.35547 9.91602 4.35547C9.38477 4.35547 8.95117 4.78906 8.95117 5.32031C8.95117 5.44531 8.84961 5.54492 8.72656 5.54492C8.60352 5.54492 8.50195 5.44336 8.50195 5.32031C8.50195 4.54102 9.13672 3.90625 9.91602 3.90625C10.6973 3.90625 11.3301 4.54102 11.3301 5.32031C11.3301 5.44531 11.2305 5.54492 11.1055 5.54492Z" fill="#3E3A39"/>
<path id="Vector_13" d="M11.5977 16.5684C11.5977 17.498 10.8438 18.252 9.91406 18.252C8.98438 18.252 8.23047 17.498 8.23047 16.5684" fill="#F8B62D"/>
<path id="Vector_14" d="M9.91602 18.4766C8.86328 18.4766 8.00781 17.6211 8.00781 16.5684C8.00781 16.4434 8.10938 16.3438 8.23242 16.3438C8.35547 16.3438 8.45703 16.4453 8.45703 16.5684C8.45703 17.373 9.11133 18.0254 9.91406 18.0254C10.7188 18.0254 11.3711 17.3711 11.3711 16.5684C11.3711 16.4434 11.4727 16.3438 11.5957 16.3438C11.7188 16.3438 11.8203 16.4453 11.8203 16.5684C11.8242 17.6211 10.9668 18.4766 9.91602 18.4766Z" fill="#3E3A39"/>
<path id="Vector_15" d="M14.5059 9.80469C14.5059 8.13281 13.3555 6.71289 11.6895 6.05664C12.8828 7.37695 13.207 9.36719 13.1641 10.7187L13.0762 13.5547C13.0723 13.709 13.125 13.8613 13.2285 13.9766L14.0723 14.9375C14.3926 15.3027 14.1797 15.8789 13.6973 15.9453L10.1699 16.4355H15.3301C15.6309 16.4355 15.8789 16.1895 15.8789 15.8867L14.5078 13.5449V9.80469H14.5059Z" fill="#F8B62D"/>
<path id="Vector_16" d="M6.25196 7.42955C6.22266 7.42955 6.19141 7.42369 6.16211 7.41197C6.04883 7.36315 5.9961 7.23033 6.04492 7.1151C6.14258 6.89049 6.29297 6.68932 6.48438 6.53502C6.58008 6.4569 6.72266 6.47057 6.80078 6.56627C6.87891 6.66197 6.86524 6.80455 6.76953 6.88268C6.63477 6.99205 6.52735 7.13463 6.45899 7.29283C6.42188 7.37877 6.33985 7.42955 6.25196 7.42955Z" fill="#3E3A39"/>
<path id="Vector_17" d="M15.1543 16.8125H4.67773C4.23828 16.8125 3.87891 16.4551 3.87891 16.0137C3.87891 15.9746 3.88867 15.9336 3.91016 15.9004L5.3125 13.5059V9.65625C5.3125 9.02539 5.43945 8.41406 5.6875 7.83789C5.73633 7.72461 5.86914 7.67187 5.98437 7.7207C6.09766 7.76953 6.15039 7.90234 6.10156 8.01562C5.87695 8.53516 5.76172 9.08594 5.76172 9.6543V13.5645C5.76172 13.6035 5.75195 13.6445 5.73047 13.6777L4.33398 16.0645C4.35937 16.2305 4.50391 16.3594 4.67773 16.3594H15.1543C15.3281 16.3594 15.4727 16.2324 15.498 16.0645L14.1016 13.6777C14.082 13.6426 14.0703 13.6035 14.0703 13.5645V9.65625C14.0703 7.36523 12.207 5.50195 9.91602 5.50195C8.9668 5.50195 8.03516 5.83398 7.29688 6.4375C7.20117 6.51562 7.05859 6.50195 6.98047 6.40625C6.90234 6.31055 6.91602 6.16797 7.01172 6.08984C7.83203 5.41992 8.86328 5.05273 9.91602 5.05273C12.4551 5.05273 14.5195 7.11719 14.5195 9.65625V13.5059L15.9219 15.9004C15.9414 15.9355 15.9531 15.9746 15.9531 16.0137C15.9512 16.4551 15.5938 16.8125 15.1543 16.8125Z" fill="#3E3A39"/>
<path id="Vector_18" d="M6.92773 12.7871C6.80273 12.7871 6.70312 12.6855 6.70312 12.5625V9.8125C6.70312 9.6875 6.80469 9.58789 6.92773 9.58789C7.05078 9.58789 7.15234 9.68945 7.15234 9.8125V12.5625C7.15234 12.6855 7.05273 12.7871 6.92773 12.7871Z" fill="white"/>
<path id="Vector_19" d="M6.97266 9.27139C6.95703 9.27139 6.94336 9.26944 6.92774 9.26748C6.80664 9.24209 6.72657 9.12491 6.75196 9.00186C6.83594 8.57803 6.93946 8.31436 7.05664 8.22256C7.1543 8.14444 7.29493 8.16006 7.37305 8.25772C7.44727 8.34952 7.43555 8.48233 7.35157 8.56241C7.31055 8.62491 7.23828 8.86709 7.19336 9.0917C7.17188 9.19717 7.07813 9.27139 6.97266 9.27139Z" fill="white"/>
</g>
</svg>
