<svg width="20" height="20" viewBox="0 0 20 20" fill="none" xmlns="http://www.w3.org/2000/svg">
<g id="guanbi1 1">
<path id="Vector" d="M10.885 10.0244L16.0663 4.87003C16.3113 4.62628 16.3125 4.23127 16.0687 3.98628C15.8244 3.74064 15.43 3.74004 15.185 3.98379L10.0025 9.13878L4.86501 3.98564C4.6219 3.74189 4.22625 3.74064 3.98126 3.9844C3.73687 4.22815 3.73627 4.62376 3.98002 4.86879L9.11626 10.0206L3.93752 15.1719C3.69252 15.4157 3.69128 15.8107 3.93503 16.0557C4.05689 16.1782 4.21752 16.24 4.37815 16.24C4.53754 16.24 4.69689 16.1794 4.81878 16.0582L9.9988 10.9057L15.1832 16.1057C15.305 16.2282 15.4651 16.2894 15.6257 16.2894C15.7857 16.2894 15.9451 16.2282 16.0669 16.1069C16.3113 15.8632 16.3119 15.4682 16.0682 15.2232L10.885 10.0244Z" fill="#999999"/>
</g>
</svg>
