<svg width="18" height="18" viewBox="0 0 18 18" fill="none" xmlns="http://www.w3.org/2000/svg">
<g id="&#229;&#164;&#141;&#229;&#136;&#182; 1">
<path id="Vector" d="M1.68927 10.1199C1.68927 10.2696 1.7489 10.4131 1.85505 10.5189C1.9612 10.6247 2.10517 10.6842 2.25529 10.6842C2.4054 10.6842 2.54937 10.6247 2.65552 10.5189C2.76167 10.4131 2.8213 10.2696 2.8213 10.1199C2.8213 9.97027 2.76167 9.82675 2.65552 9.72093C2.54937 9.61511 2.4054 9.55566 2.25529 9.55566C2.10517 9.55566 1.9612 9.61511 1.85505 9.72093C1.7489 9.82675 1.68927 9.97027 1.68927 10.1199Z" fill="#F6C944"/>
<path id="Vector_2" d="M13.0447 7.92267L8.30743 7.88575C8.05607 7.88399 7.8504 8.12833 7.8504 8.43067C7.8504 8.73302 8.05607 8.98087 8.30743 8.98263L13.0447 9.01954C13.2961 9.0213 13.5018 8.77696 13.5018 8.47462C13.5018 8.17228 13.2961 7.92442 13.0447 7.92267ZM13.0447 10.1551L8.30743 10.1182C8.05607 10.1164 7.8504 10.3608 7.8504 10.6631C7.8504 10.9654 8.05607 11.2133 8.30743 11.215L13.0447 11.252C13.2961 11.2555 13.5018 11.0094 13.5018 10.707C13.5018 10.4047 13.2961 10.1568 13.0447 10.1551Z" fill="#F6C944"/>
<path id="Vector_3" d="M12.9393 1.12305H7.33008C6.09258 1.12305 5.08008 2.13555 5.08008 3.37305H3.93926C2.70176 3.37305 1.68926 4.38555 1.68926 5.62305V7.87305C1.6875 8.18418 1.94238 8.43555 2.25527 8.43555C2.56816 8.43555 2.82129 8.18242 2.82129 7.87129V5.62481C2.82129 5.00606 3.32754 4.49981 3.94629 4.49981H5.08008V12.3713C5.08008 13.6088 6.09258 14.6213 7.33008 14.6213H11.8143C11.8125 15.24 11.308 15.7428 10.6893 15.7428H3.94629C3.32754 15.7428 2.82129 15.2365 2.82129 14.6178V12.366C2.82129 12.0549 2.56816 11.8018 2.25527 11.8018C1.94238 11.8018 1.6875 12.0549 1.6875 12.366V14.6213C1.6875 15.8588 2.7 16.8713 3.9375 16.8713H10.6893C11.9268 16.8713 12.9393 15.8588 12.9393 14.6213H14.0818C15.3193 14.6213 16.3318 13.6088 16.3318 12.3713V4.49805L12.9393 1.12305ZM12.941 2.2375L15.1857 4.49277H14.0625C13.4438 4.49277 12.9375 3.98652 12.9375 3.36777V2.2375H12.941ZM14.066 13.5051H7.31426C6.69551 13.5051 6.18926 12.9988 6.18926 12.3801V3.3625C6.18926 2.74375 6.69551 2.2375 7.31426 2.2375H11.7949V3.35723C11.7949 4.59473 12.8074 5.60723 14.0449 5.60723H15.191V12.3801C15.191 12.9988 14.6848 13.5051 14.066 13.5051Z" fill="#F6C944"/>
</g>
</svg>
