<svg width="22" height="22" viewBox="0 0 22 22" fill="none" xmlns="http://www.w3.org/2000/svg">
<g id="Frame">
<g id="Vector">
<path d="M16.7318 15.3969C16.582 15.5766 16.5 15.8031 16.5 16.037V18.1376C16.5 18.398 16.3529 18.6361 16.12 18.7525C15.6628 18.9811 15.125 18.6487 15.125 18.1376V16.037C15.125 15.8031 15.043 15.5766 14.8932 15.3969L13.7418 14.0152C13.199 13.3639 13.6622 12.375 14.51 12.375H17.115C17.9628 12.375 18.426 13.3639 17.8832 14.0152L16.7318 15.3969ZM4.125 16.875C4.125 17.4273 4.57272 17.875 5.125 17.875H13.0625C13.4422 17.875 13.75 18.1828 13.75 18.5625C13.75 18.9422 13.4422 19.25 13.0625 19.25H3.75C3.19771 19.25 2.75 18.8023 2.75 18.25V3.75C2.75 3.19772 3.19772 2.75 3.75 2.75H18.25C18.8023 2.75 19.25 3.19772 19.25 3.75V10.3125C19.25 10.6922 18.9422 11 18.5625 11C18.1828 11 17.875 10.6922 17.875 10.3125V5.125C17.875 4.57272 17.4273 4.125 16.875 4.125H5.125C4.57272 4.125 4.125 4.57272 4.125 5.125V16.875ZM5.5 6.5C5.5 5.94772 5.94772 5.5 6.5 5.5H15.5C16.0523 5.5 16.5 5.94772 16.5 6.5V8.625C16.5 9.17728 16.0523 9.625 15.5 9.625H6.5C5.94772 9.625 5.5 9.17728 5.5 8.625V6.5Z" fill="#48484A"/>
<path d="M16.7318 15.3969C16.582 15.5766 16.5 15.8031 16.5 16.037V18.1376C16.5 18.398 16.3529 18.6361 16.12 18.7525C15.6628 18.9811 15.125 18.6487 15.125 18.1376V16.037C15.125 15.8031 15.043 15.5766 14.8932 15.3969L13.7418 14.0152C13.199 13.3639 13.6622 12.375 14.51 12.375H17.115C17.9628 12.375 18.426 13.3639 17.8832 14.0152L16.7318 15.3969ZM4.125 16.875C4.125 17.4273 4.57272 17.875 5.125 17.875H13.0625C13.4422 17.875 13.75 18.1828 13.75 18.5625C13.75 18.9422 13.4422 19.25 13.0625 19.25H3.75C3.19771 19.25 2.75 18.8023 2.75 18.25V3.75C2.75 3.19772 3.19772 2.75 3.75 2.75H18.25C18.8023 2.75 19.25 3.19772 19.25 3.75V10.3125C19.25 10.6922 18.9422 11 18.5625 11C18.1828 11 17.875 10.6922 17.875 10.3125V5.125C17.875 4.57272 17.4273 4.125 16.875 4.125H5.125C4.57272 4.125 4.125 4.57272 4.125 5.125V16.875ZM5.5 6.5C5.5 5.94772 5.94772 5.5 6.5 5.5H15.5C16.0523 5.5 16.5 5.94772 16.5 6.5V8.625C16.5 9.17728 16.0523 9.625 15.5 9.625H6.5C5.94772 9.625 5.5 9.17728 5.5 8.625V6.5Z" fill="#48484A"/>
</g>
<g id="Vector_2">
<path d="M15.5 5.5H6.5C5.94772 5.5 5.5 5.94772 5.5 6.5V8.625C5.5 9.17728 5.94772 9.625 6.5 9.625H15.5C16.0523 9.625 16.5 9.17728 16.5 8.625V6.5C16.5 5.94772 16.0523 5.5 15.5 5.5Z" fill="#F5CB2B"/>
</g>
</g>
</svg>
