<svg width="118" height="118" viewBox="0 0 118 118" fill="none" xmlns="http://www.w3.org/2000/svg">
<g id="&#230;&#182;&#136;&#230;&#129;&#175;">
<path id="Vector" opacity="0.3" fill-rule="evenodd" clip-rule="evenodd" d="M69.469 100.484L91.4177 88.364C94.6985 86.5525 93.6233 81.5859 89.8828 81.2921L68.6797 79.627L69.469 100.484Z" fill="#F7C472"/>
<path id="Vector_2" fill-rule="evenodd" clip-rule="evenodd" d="M86.8026 23.3406L83.9701 21.1731L82.7671 22.7472L55.3713 21.1673C55.3713 21.1673 50.6202 20.5785 47.1147 25.5197L31.4429 88.1934C31.3064 88.8809 31.2266 89.5785 31.2043 90.2791L27.4258 92.5331L29.7305 95.7597C30.5371 96.912 32.6494 98.1865 34.3398 98.4101L63.6094 101.637C63.6094 101.637 72.252 102.098 74.3262 94.6073L88.8457 32.3693C88.8457 32.3693 89.8828 28.1056 88.2834 25.1164C87.9411 24.4757 87.4249 23.7152 86.8026 23.3406Z" fill="#F8A247"/>
<path id="Vector_3" fill-rule="evenodd" clip-rule="evenodd" d="M51.4683 18.5527C51.4683 18.5527 45.6328 18.668 43.5586 24.3145L26.8127 85.5811C26.8127 85.5811 24.5449 93.916 31.6687 95.1559L61.9131 98.6406C61.9131 98.6406 69.2559 99.5625 71.4879 92.547L86.2852 29.8734C86.2852 29.8734 88.4562 21.966 81.9339 20.2974L51.4683 18.5527Z" fill="#FFBF59"/>
<path id="Vector_4" fill-rule="evenodd" clip-rule="evenodd" d="M52.9536 21.1916C52.9536 21.1916 47.8222 20.2812 46.0937 25.9277L30.4449 84.0969C30.4449 84.0969 27.8867 91.7265 34.3502 92.4836L60.3828 95.1559C60.3828 95.1559 67.1263 94.8183 68.7292 89.7929L83.1992 29.7304C83.1992 29.7304 85.1582 22.9316 78.7051 22.7242L52.9536 21.1916Z" fill="#FEEDD0"/>
<path id="Vector_5" fill-rule="evenodd" clip-rule="evenodd" d="M61.9327 83.303L39.3572 80.9453C38.8956 80.9327 38.458 80.7373 38.1404 80.4022C37.8228 80.0671 37.6511 79.6196 37.6632 79.1581C37.6897 78.197 38.4906 77.7441 39.4517 77.4641L62.0272 79.823C62.2594 79.8236 62.4892 79.8708 62.7029 79.9615C62.9166 80.0523 63.11 80.1849 63.2717 80.3516C63.4334 80.5182 63.5602 80.7155 63.6445 80.9319C63.7288 81.1482 63.769 81.3793 63.7627 81.6114C63.7564 81.8435 63.7037 82.072 63.6078 82.2835C63.5119 82.495 63.3746 82.6851 63.2041 82.8427C63.0336 83.0004 62.8333 83.1223 62.6149 83.2013C62.3966 83.2804 62.1646 83.315 61.9327 83.303ZM61.7899 88.5243C61.7657 89.4854 60.959 90.2425 60.1524 90.2171L37.7059 87.8583C36.4648 87.8329 35.763 87.2706 36.0234 86.071C35.7596 85.1099 36.5604 84.3528 37.5215 84.3782L60.0971 86.7359C60.3256 86.7421 60.5508 86.7934 60.7595 86.8866C60.9683 86.9799 61.1567 87.1134 61.3139 87.2795C61.4711 87.4456 61.594 87.641 61.6757 87.8546C61.7573 88.0681 61.7961 88.2957 61.7899 88.5243Z" fill="#F4D9AC"/>
<path id="Vector_6" opacity="0.1" fill-rule="evenodd" clip-rule="evenodd" d="M34.6982 33.3787C34.6982 33.3787 29.1071 31.7181 26.8623 37.7311L19.0264 62.9743C19.0264 62.9743 17.4926 69.2362 22.7819 69.9379L60.8092 73.7556C60.8092 73.7556 66.1296 74.5784 67.774 69.0679L74.7387 42.0835C74.7387 42.0835 77.4974 35.7755 70.3875 35.1199L34.6982 33.3787Z" fill="#A57D38"/>
<path id="Vector_7" fill-rule="evenodd" clip-rule="evenodd" d="M31.4475 29.8734C31.4475 29.8734 25.8552 28.2117 23.6115 34.2246L16.6491 59.4679C16.6491 59.4679 15.1165 65.7297 20.1315 66.4315L57.5607 69.9139C57.5607 69.9139 62.88 71.0731 64.7179 65.7032L71.488 38.577C71.488 38.577 74.2455 32.6655 67.1356 31.6134L31.4475 29.8734Z" fill="url(#paint0_linear_22_1842)"/>
<path id="Vector_8" fill-rule="evenodd" clip-rule="evenodd" d="M33.4987 45.5764L39.5508 51.0259C39.7405 51.1964 39.9822 51.2978 40.2367 51.3137C40.4913 51.3296 40.7438 51.259 40.9532 51.1135L58.3536 39.0139C58.3536 39.0139 59.9219 38.1427 60.6133 38.8041C60.9452 39.1222 61.3047 39.8712 60.1627 41.0097L42.4489 57.4375C42.4489 57.4375 38.7188 60.1524 36.7874 57.1898L31.5305 47.4018C31.5305 47.4018 30.8172 46.0604 31.8047 45.4024C32.4961 44.9415 32.9571 45.0567 33.4987 45.5764Z" fill="#FEEDD0"/>
</g>
<defs>
<linearGradient id="paint0_linear_22_1842" x1="45.5801" y1="69.1872" x2="45.5801" y2="28.8374" gradientUnits="userSpaceOnUse">
<stop stop-color="#FF6700"/>
<stop offset="1" stop-color="#FF9503"/>
</linearGradient>
</defs>
</svg>
