<svg width="20" height="20" viewBox="0 0 20 20" fill="none" xmlns="http://www.w3.org/2000/svg">
<g id="Frame">
<path id="Vector" d="M10 3.2168C10.252 3.2168 10.5059 3.23047 10.7637 3.25781C13.9531 3.60742 16.5156 6.26172 16.7598 9.46094C16.8652 10.8516 16.5567 12.1562 15.9356 13.2734C15.627 13.8281 15.666 14.5098 15.9824 15.0586L16.5195 15.9863C16.7227 16.3379 16.4688 16.7754 16.0645 16.7754H10.4785L10.4922 16.7559C10.3281 16.7695 10.1641 16.7754 10.002 16.7754C9.54689 16.7754 9.09376 16.7246 8.63869 16.627C5.86134 16.0254 3.66017 13.75 3.28126 10.9355C2.72462 6.77539 5.94728 3.21875 10 3.2168ZM10 1.25391C7.47853 1.25391 5.08009 2.34375 3.41798 4.24219C1.75783 6.14062 1.00001 8.67383 1.33791 11.1953C1.82228 14.8027 4.58791 17.7578 8.22072 18.5469C8.81251 18.6758 9.41212 18.7402 10.002 18.7402C10.1094 18.7402 10.2168 18.7383 10.3223 18.7344C10.375 18.7383 10.4258 18.7402 10.4785 18.7402H16.0645C16.9512 18.7402 17.7774 18.2637 18.2207 17.4941C18.6641 16.7266 18.6641 15.7715 18.2188 15.0039L17.709 14.1211C18.4981 12.6562 18.8457 10.9961 18.7168 9.31055C18.4043 5.19727 15.0762 1.75586 10.9766 1.30859C10.6524 1.27148 10.3242 1.25391 10 1.25391Z" fill="#333333"/>
<path id="Vector_2" d="M5.49023 9.99805C5.49023 10.1271 5.51565 10.2548 5.56502 10.374C5.61439 10.4932 5.68675 10.6015 5.77798 10.6927C5.86921 10.784 5.97751 10.8563 6.0967 10.9057C6.21589 10.9551 6.34364 10.9805 6.47266 10.9805C6.60167 10.9805 6.72942 10.9551 6.84861 10.9057C6.96781 10.8563 7.07611 10.784 7.16733 10.6927C7.25856 10.6015 7.33092 10.4932 7.3803 10.374C7.42967 10.2548 7.45508 10.1271 7.45508 9.99805C7.45508 9.73749 7.35157 9.48761 7.16733 9.30337C6.98309 9.11913 6.73321 9.01562 6.47266 9.01562C6.2121 9.01562 5.96222 9.11913 5.77798 9.30337C5.59374 9.48761 5.49023 9.73749 5.49023 9.99805Z" fill="#333333"/>
<path id="Vector_3" d="M9.01758 9.99805C9.01758 10.2586 9.12108 10.5085 9.30532 10.6927C9.48956 10.877 9.73945 10.9805 10 10.9805C10.2606 10.9805 10.5104 10.877 10.6947 10.6927C10.8789 10.5085 10.9824 10.2586 10.9824 9.99805C10.9824 9.73749 10.8789 9.48761 10.6947 9.30337C10.5104 9.11913 10.2606 9.01562 10 9.01562C9.73945 9.01562 9.48956 9.11913 9.30532 9.30337C9.12108 9.48761 9.01758 9.73749 9.01758 9.99805Z" fill="#333333"/>
<path id="Vector_4" d="M12.5449 9.99805C12.5449 10.2586 12.6484 10.5085 12.8327 10.6927C13.0169 10.877 13.2668 10.9805 13.5273 10.9805C13.7879 10.9805 14.0378 10.877 14.222 10.6927C14.4063 10.5085 14.5098 10.2586 14.5098 9.99805C14.5098 9.73749 14.4063 9.48761 14.222 9.30337C14.0378 9.11913 13.7879 9.01562 13.5273 9.01562C13.2668 9.01562 13.0169 9.11913 12.8327 9.30337C12.6484 9.48761 12.5449 9.73749 12.5449 9.99805Z" fill="#333333"/>
</g>
</svg>
