<svg width="16" height="16" viewBox="0 0 16 16" fill="none" xmlns="http://www.w3.org/2000/svg">
<g id="Frame">
<path id="Vector" d="M11.8 14.6H4.20001C2.80001 14.6 1.66667 13.4667 1.66667 12.0667V3.93334C1.66667 2.53333 2.80001 1.4 4.20001 1.4H11.8C13.2 1.4 14.3333 2.53333 14.3333 3.93334V12.0667C14.3333 13.4667 13.2 14.6 11.8 14.6ZM4.20001 2.2C3.26667 2.2 2.46667 3 2.46667 3.93334V12.0667C2.46667 13 3.26667 13.8 4.20001 13.8H11.8C12.7333 13.8 13.5333 13 13.5333 12.0667V3.93334C13.5333 3 12.7333 2.2 11.8 2.2H4.20001Z" fill="#48484A"/>
<path id="Vector_2" d="M10.9333 12.8667H5.06666C4.13333 12.8667 3.39999 12.1333 3.39999 11.2V4.8C3.39999 3.86667 4.13333 3.13334 5.06666 3.13334H10.9333C11.8667 3.13334 12.6 3.86667 12.6 4.8V11.2C12.6 12.1333 11.8667 12.8667 10.9333 12.8667Z" fill="#F5CB2B"/>
<path id="Vector_3" d="M11.5333 6.26667H4.46667C4.26667 6.26667 4.06667 6.06667 4.06667 5.86667C4.06667 5.66667 4.26667 5.46667 4.46667 5.46667H11.5333C11.7333 5.46667 11.9333 5.66667 11.9333 5.86667C11.9333 6.13333 11.8 6.26667 11.5333 6.26667ZM9.13333 9.4H4.46667C4.26667 9.4 4.06667 9.2 4.06667 9C4.06667 8.8 4.26667 8.6 4.46667 8.6H9.13333C9.33333 8.6 9.53333 8.8 9.53333 9C9.53333 9.2 9.33333 9.4 9.13333 9.4Z" fill="#48484A"/>
</g>
</svg>
