<svg width="14" height="14" viewBox="0 0 14 14" fill="none" xmlns="http://www.w3.org/2000/svg">
<g id="Frame" clip-path="url(#clip0_306_3681)">
<path id="Vector" d="M9.20769 9.20769H11.2538V7.16154H13.3V10.2308H11.2538V11.2538H9.20769V10.2308H7.16154V7.16154H9.20769V9.20769ZM0 7.16154H6.13846V13.3H0V7.16154ZM2.04615 9.20769V11.2538H4.09231V9.20769H2.04615ZM0 0H6.13846V6.13846H0V0ZM2.04615 2.04615V4.09231H4.09231V2.04615H2.04615ZM7.16154 0H13.3V6.13846H7.16154V0ZM9.20769 2.04615V4.09231H11.2538V2.04615H9.20769ZM11.2538 11.2538H13.3V13.3H11.2538V11.2538ZM7.16154 11.2538H9.20769V13.3H7.16154V11.2538Z" fill="#666666"/>
</g>
<defs>
<clipPath id="clip0_306_3681">
<rect width="14" height="14" fill="white"/>
</clipPath>
</defs>
</svg>
