<svg width="32" height="32" viewBox="0 0 32 32" fill="none" xmlns="http://www.w3.org/2000/svg">
<g id="Frame">
<path id="Vector" d="M16.1125 24.0691C17.625 24.0691 18.9656 23.091 19.4312 21.6504C19.4625 21.5535 19.4187 21.4504 19.325 21.4066C19.2312 21.366 19.1219 21.4004 19.0719 21.4879C19.0656 21.4972 18.5344 22.3566 16.4562 22.6379C16.1594 22.6785 15.8562 22.7004 15.5562 22.7004C14.1031 22.7004 13.4531 22.1504 13.4469 22.1472C13.3719 22.0816 13.2625 22.0816 13.1844 22.1441C13.1094 22.2066 13.0906 22.3191 13.1437 22.4035C13.7812 23.4285 14.9156 24.066 16.1125 24.0691Z" fill="#333333"/>
<path id="Vector_2" d="M25.2594 12.466C23.8312 8.60039 20.1344 5.83789 15.7844 5.83789C11.4531 5.83789 7.76562 8.57539 6.32812 12.416C6.25312 12.3316 6.175 12.2504 6.09062 12.1785C6.90625 7.49727 10.9344 3.93789 15.7906 3.93789C20.625 3.93789 24.6406 7.46289 25.4844 12.1098C25.3969 12.2223 25.3219 12.341 25.2594 12.466ZM27.2781 11.2004C27.2594 11.2004 27.2437 11.2035 27.225 11.2035C26.0094 5.93789 21.3594 2.00977 15.7875 2.00977C10.0625 2.00977 5.30625 6.15664 4.25312 11.641C3.20625 11.8348 2.44375 12.7504 2.45 13.816V18.1754C2.45 19.3973 3.43125 20.3879 4.64062 20.3879C5.32187 20.3879 5.925 20.066 6.325 19.5723C7.29375 22.1254 9.25 24.1879 11.7562 25.2816C11.7875 25.2191 11.825 25.1598 11.8656 25.1035C11.9062 25.0535 11.95 25.0098 11.9875 25.0098C12.025 25.0098 12.0625 25.0223 12.0937 25.0441C11.5156 24.6129 9.43125 22.4066 8.97812 19.3223C8.78125 17.966 9.79687 16.6316 10.9812 16.4129C12.8812 16.0598 14.7719 15.6566 16.6719 15.3098C17.8812 15.091 18.7062 14.4254 19.2094 13.3223C19.3281 13.0629 19.5 12.541 19.5781 11.791C19.5969 11.6785 19.6937 11.5941 19.8094 11.5941C19.8844 11.5941 19.9531 11.6316 19.9969 11.691L20.05 11.6598C20.8 12.7473 22.2844 15.1566 22.4969 17.6941C22.7406 20.5973 22.6062 22.5848 20.3844 24.6191L20.375 24.6285C20.3437 24.6629 20.325 24.7066 20.325 24.7535C20.325 24.8129 20.3562 24.8691 20.4062 24.9004C20.425 24.9066 20.4437 24.9191 20.4625 24.9254C20.4781 24.9285 20.4906 24.9316 20.5062 24.9348C20.5219 24.9348 20.5344 24.9316 20.5469 24.9254C20.5781 24.9098 20.6094 24.891 20.6406 24.8723C22.9094 23.6191 24.6156 21.5473 25.4062 19.0785C25.7364 19.5649 26.2431 19.9034 26.8187 20.0223C25.8812 24.3004 22.0625 26.9816 17.3344 27.3848C17.0344 26.6535 16.3219 26.1785 15.5344 26.1816C14.4656 26.1816 13.5969 27.0285 13.5969 28.0723C13.5969 29.116 14.4656 29.9629 15.5344 29.9629C16.3656 29.966 17.1062 29.4348 17.3687 28.6473C22.8406 28.2035 27.2281 24.9504 28.1437 19.8973C28.9781 19.5535 29.5219 18.741 29.5219 17.8379V13.4348C29.5281 12.2004 28.5219 11.2004 27.2781 11.2004Z" fill="#333333"/>
</g>
</svg>
