<svg width="11" height="11" viewBox="0 0 11 11" fill="none" xmlns="http://www.w3.org/2000/svg">
<path id="Vector" d="M5.45234 0C2.4459 0 0 2.4459 0 5.45234C0 8.46016 2.4459 10.9061 5.45234 10.9061C8.45879 10.9061 10.9047 8.46016 10.9047 5.45371C10.9047 2.44727 8.45879 0 5.45234 0ZM6.55977 6.18789C6.55977 6.49551 6.31094 6.74434 6.00332 6.74434H3.32363C2.92578 6.74434 2.57578 6.45039 2.53613 6.05391C2.49102 5.59863 2.85195 5.21035 3.29902 5.21035H5.02578V3.50684C5.02578 3.10898 5.31973 2.75898 5.71621 2.71934C6.17148 2.67422 6.55977 3.03516 6.55977 3.48223V6.18789Z" fill="#999999"/>
</svg>
