<svg width="22" height="22" viewBox="0 0 22 22" fill="none" xmlns="http://www.w3.org/2000/svg">
<g id="USDT 1" clip-path="url(#clip0_306_3611)">
<path id="Vector" d="M21.9803 10.9962C21.9803 17.0413 17.0801 21.9415 11.035 21.9415C4.99014 21.9415 0.0897217 17.0413 0.0897217 10.9962C0.0897217 4.95121 4.99014 0.0509033 11.035 0.0509033C17.0801 0.0509033 21.9803 4.95121 21.9803 10.9962Z" fill="#1BA27A"/>
<path id="Vector_2" d="M16.1719 5.57019H5.80786V8.07228H9.73886V11.7499H12.2409V8.07228H16.1719V5.57019Z" fill="white"/>
<path id="Vector_3" d="M11.0137 12.1415C7.76186 12.1415 5.12547 11.6269 5.12547 10.992C5.12547 10.3571 7.76175 9.84238 11.0137 9.84238C14.2655 9.84238 16.9018 10.3571 16.9018 10.992C16.9018 11.6269 14.2655 12.1415 11.0137 12.1415ZM17.6252 11.1836C17.6252 10.3649 14.6652 9.70129 11.0137 9.70129C7.36236 9.70129 4.4021 10.3649 4.4021 11.1836C4.4021 11.9046 6.69743 12.5053 9.73902 12.6383V17.9177H12.2409V12.6404C15.3059 12.5115 17.6252 11.9083 17.6252 11.1836Z" fill="white"/>
</g>
<defs>
<clipPath id="clip0_306_3611">
<rect width="22" height="22" fill="white"/>
</clipPath>
</defs>
</svg>
