<svg width="36" height="36" viewBox="0 0 36 36" fill="none" xmlns="http://www.w3.org/2000/svg">
<g id="Frame" clip-path="url(#clip0_854_606)">
<rect width="36" height="36" fill="white"/>
<path id="Vector" d="M18 0C14.4399 0 10.9598 1.05568 7.99974 3.03355C5.03966 5.01141 2.73255 7.82263 1.37018 11.1117C0.00779906 14.4008 -0.348661 18.02 0.345873 21.5116C1.04041 25.0033 2.75474 28.2106 5.27209 30.7279C7.78943 33.2453 10.9967 34.9596 14.4884 35.6541C17.98 36.3487 21.5992 35.9922 24.8883 34.6298C28.1774 33.2675 30.9886 30.9604 32.9665 28.0003C34.9443 25.0402 36 21.5601 36 18C36 13.2261 34.1036 8.64773 30.7279 5.27208C27.3523 1.89642 22.7739 0 18 0ZM18 28.8C17.644 28.8 17.296 28.6944 17 28.4966C16.704 28.2989 16.4733 28.0177 16.337 27.6888C16.2008 27.3599 16.1651 26.998 16.2346 26.6488C16.304 26.2997 16.4755 25.9789 16.7272 25.7272C16.979 25.4755 17.2997 25.304 17.6488 25.2346C17.998 25.1651 18.3599 25.2008 18.6888 25.337C19.0177 25.4733 19.2989 25.704 19.4967 26C19.6944 26.296 19.8 26.644 19.8 27C19.8 27.4774 19.6104 27.9352 19.2728 28.2728C18.9352 28.6104 18.4774 28.8 18 28.8ZM19.8 23.4H16.2V7.2H19.8V23.4Z" fill="url(#paint0_linear_854_606)"/>
</g>
<defs>
<linearGradient id="paint0_linear_854_606" x1="18" y1="1.49011e-08" x2="18" y2="44.5" gradientUnits="userSpaceOnUse">
<stop offset="0.355265" stop-color="#F6C944"/>
<stop offset="1" stop-color="#F6C944" stop-opacity="0.5"/>
</linearGradient>
<clipPath id="clip0_854_606">
<rect width="36" height="36" fill="white"/>
</clipPath>
</defs>
</svg>
