<svg width="16" height="16" viewBox="0 0 16 16" fill="none" xmlns="http://www.w3.org/2000/svg">
<g id="Frame">
<path id="Vector" d="M15.7938 9.81245C15.7938 7.6062 13.586 5.80933 11.1078 5.80933C8.48284 5.80933 6.41565 7.60776 6.41565 9.81245C6.41565 12.0218 8.48284 13.8156 11.1078 13.8156C11.6578 13.8156 12.2125 13.6765 12.7641 13.539L14.2766 14.3671L13.861 12.989C14.9688 12.1578 15.7938 11.0562 15.7938 9.81245ZM9.65627 9.19995C9.31096 9.19995 9.03127 8.92026 9.03127 8.57495C9.03127 8.22964 9.31096 7.94995 9.65627 7.94995C10.0016 7.94995 10.2813 8.22964 10.2813 8.57495C10.2813 8.9187 10.0016 9.19995 9.65627 9.19995ZM12.6922 9.19526C12.3469 9.19526 12.0672 8.91558 12.0672 8.57026C12.0672 8.22495 12.3469 7.94526 12.6922 7.94526C13.0375 7.94526 13.3172 8.22495 13.3172 8.57026C13.3172 8.91558 13.0375 9.19526 12.6922 9.19526Z" fill="#00C800"/>
<path id="Vector_2" d="M5.72349 1.67041C2.69067 1.67041 0.206299 3.7376 0.206299 6.3626C0.206299 7.87822 1.03286 9.12197 2.41411 10.0876L1.86255 11.747L3.79067 10.7798C4.4813 10.9157 5.03442 11.0563 5.72349 11.0563C5.89692 11.0563 6.0688 11.0485 6.23911 11.0345C6.1313 10.6657 6.0688 10.2798 6.0688 9.87822C6.0688 7.46729 8.13911 5.51104 10.7594 5.51104C10.9391 5.51104 11.1157 5.52354 11.2907 5.54385C10.8125 3.32197 8.43599 1.67041 5.72349 1.67041ZM3.87036 5.45635C3.4563 5.45635 3.12036 5.12041 3.12036 4.70635C3.12036 4.29229 3.4563 3.95635 3.87036 3.95635C4.28442 3.95635 4.62036 4.29229 4.62036 4.70635C4.62036 5.12041 4.28442 5.45635 3.87036 5.45635ZM7.72349 5.45635C7.30942 5.45635 6.97349 5.12041 6.97349 4.70635C6.97349 4.29229 7.30942 3.95635 7.72349 3.95635C8.13755 3.95635 8.47349 4.29229 8.47349 4.70635C8.47349 5.12041 8.13755 5.45635 7.72349 5.45635Z" fill="#00C800"/>
</g>
</svg>
