<svg width="22" height="22" viewBox="0 0 22 22" fill="none" xmlns="http://www.w3.org/2000/svg">
<g clip-path="url(#clip0_38_3158)">
<path d="M6.11963 20.1663H11.0064C13.5119 20.1663 15.8725 19.1724 17.6118 17.3502C19.3512 15.5281 20.2623 13.1468 20.1587 10.6413C19.9724 5.87875 16.1209 2.02732 11.3584 1.84096C8.85291 1.73742 6.45094 2.64852 4.64946 4.38787C2.84798 6.12723 1.83335 8.46708 1.83335 10.9933C1.83335 13.1605 2.58267 15.2136 3.96573 16.8637C4.30645 17.2703 4.52522 17.7725 4.52522 18.3029V18.5719C4.52522 19.4416 5.24995 20.1663 6.11963 20.1663Z" stroke="white" stroke-width="1.6" stroke-linecap="round"/>
<path d="M7.94446 8.86035H14.0556" stroke="white" stroke-width="1.6" stroke-linecap="round"/>
<path d="M7.94446 13.1387H11" stroke="white" stroke-width="1.6" stroke-linecap="round"/>
</g>
<defs>
<clipPath id="clip0_38_3158">
<rect width="20" height="20" fill="white" transform="translate(1 1)"/>
</clipPath>
</defs>
</svg>
