<svg width="22" height="22" viewBox="0 0 22 22" fill="none" xmlns="http://www.w3.org/2000/svg">
<path fill-rule="evenodd" clip-rule="evenodd" d="M11 20.1663C16.0626 20.1663 20.1667 16.0623 20.1667 10.9997C20.1667 5.93706 16.0626 1.83301 11 1.83301C5.93738 1.83301 1.83333 5.93706 1.83333 10.9997C1.83333 16.0623 5.93738 20.1663 11 20.1663Z" stroke="white" stroke-width="1.375" stroke-linecap="round" stroke-linejoin="round"/>
<path d="M11 10.5413C12.2656 10.5413 13.2917 9.51532 13.2917 8.24967C13.2917 6.98403 12.2656 5.95801 11 5.95801C9.73435 5.95801 8.70833 6.98403 8.70833 8.24967C8.70833 9.51532 9.73435 10.5413 11 10.5413Z" stroke="white" stroke-width="1.375" stroke-linejoin="round"/>
<path d="M4.5934 17.5692C4.75093 15.1806 6.73822 13.292 9.16665 13.292H12.8333C15.2585 13.292 17.2438 15.1756 17.406 17.5597" stroke="white" stroke-width="1.375" stroke-linecap="round" stroke-linejoin="round"/>
</svg>
