<svg width="98" height="98" viewBox="0 0 98 98" fill="none" xmlns="http://www.w3.org/2000/svg">
<path d="M63.3733 44.427L56.1867 51.4503V44.427H52.43C49.49 44.427 47.2033 42.1403 47.2033 39.2003V34.627C35.6067 34.7903 26.2967 44.2636 26.2967 55.8603C26.2967 67.6203 35.77 77.0936 47.53 77.0936C59.29 77.0936 68.7633 67.6203 68.7633 55.8603C68.7633 51.6136 67.4567 47.6936 65.3333 44.427H63.3733Z" fill="#84BDC0"/>
<path d="M56.1867 51.4499V44.4266H52.43C49.8166 44.4266 47.6933 42.4666 47.2033 40.0166C38.5466 40.1799 31.5233 47.2033 31.5233 56.0233C31.5233 64.8433 38.71 72.0299 47.53 72.0299C56.35 72.0299 63.5367 64.8433 63.5367 56.0233C63.5367 52.7566 62.5567 49.6533 60.76 47.0399L56.1867 51.4499Z" fill="#31B58E"/>
<path d="M47.53 60.107L40.9967 55.207L47.53 45.2437L54.0633 55.207L47.53 60.107Z" fill="white"/>
<path d="M47.53 66.6401L40.9967 56.3501L47.53 61.5768L54.0633 56.3501L47.53 66.6401Z" fill="white"/>
<path d="M30.87 75.2968L31.36 75.4601L30.87 75.6234C27.7666 76.4401 25.48 78.7268 24.6633 81.8301L24.5 82.3201V81.8301C23.6833 78.7268 21.3966 76.4401 18.2933 75.6234L17.8033 75.4601L18.2933 75.2968C21.3966 74.4801 23.6833 72.1934 24.5 69.0901L24.6633 68.6001L24.8266 69.0901C25.48 72.0301 27.93 74.4801 30.87 75.2968Z" fill="#31B58E"/>
<path d="M40.5066 24.0102L41.16 24.1735L40.5066 24.3368C37.0766 25.1535 34.3 27.9302 33.4833 31.3602L33.32 32.0135L33.1566 31.3602C32.34 27.9302 29.5633 25.1535 26.1333 24.3368L25.48 24.1735L26.1333 24.0102C29.5633 23.1935 32.34 20.4168 33.1566 16.9868L33.32 16.3335L33.4833 16.9868C34.3 20.4168 36.9133 23.1935 40.5066 24.0102Z" fill="#84BDC0"/>
<path d="M25.97 35.4437L26.2967 35.607L25.97 35.7704C23.6833 36.4237 21.8867 38.2204 21.2333 40.507L21.07 40.8337L20.9067 40.507C20.2533 38.2204 18.4567 36.4237 16.17 35.7704L15.8433 35.607L16.17 35.4437C18.4567 34.7904 20.2533 32.9937 20.9067 30.707L21.07 30.3804L21.2333 30.707C21.7233 33.157 23.52 34.9537 25.97 35.4437Z" fill="#84BDC0"/>
<path d="M75.2967 21.5601H52.43C49.49 21.5601 47.2033 23.8467 47.2033 26.7867V39.2001C47.2033 42.1401 49.49 44.4267 52.43 44.4267H56.1867V51.4501L63.3733 44.4267H75.2967C78.2367 44.4267 80.5233 42.1401 80.5233 39.2001V26.7867C80.5233 23.8467 78.2367 21.5601 75.2967 21.5601Z" fill="#0D8467"/>
<path d="M62.0667 40.0166C61.5767 40.0166 60.9233 39.8533 60.5967 39.3633L56.1867 35.1166C55.37 34.3 55.37 32.83 56.1867 32.0133C57.0033 31.1966 58.4733 31.1966 59.29 32.0133L62.0667 34.79L68.9267 26.6233C69.7433 25.6433 71.05 25.6433 72.03 26.2966C73.01 27.1133 73.01 28.42 72.3567 29.4L63.7 39.3633C63.3733 39.69 62.72 40.0166 62.0667 40.0166Z" fill="white"/>
<path d="M82.9733 60.5968L83.3 60.7601L82.9733 60.9234C80.5233 61.5768 78.7267 63.3734 78.0733 65.8234L77.91 66.1501L77.7467 65.8234C77.0933 63.3734 75.2967 61.5768 72.8467 60.9234L72.52 60.7601L72.8467 60.5968C75.2967 59.9434 77.0933 58.1468 77.7467 55.6968L77.91 55.3701L78.0733 55.6968C78.7267 58.1468 80.5233 60.1068 82.9733 60.5968Z" fill="#0D8467"/>
</svg>
