<svg width="118" height="95" viewBox="0 0 118 95" fill="none" xmlns="http://www.w3.org/2000/svg">
<circle cx="59" cy="49" r="41" fill="url(#paint0_linear_21_1084)"/>
<circle cx="59" cy="49" r="33" fill="#F4F4F4"/>
<path d="M54.6615 66.5369C53.374 67.8243 51.4112 68.0255 49.913 67.1406C49.6353 66.9763 49.1352 66.3356 49.1352 66.3356L33.0591 50.2596C31.5332 48.7336 31.5332 46.4606 33.0591 44.9348C34.5848 43.4089 37.0591 43.61 38.585 45.1359L51.8982 58.449L77.0574 33.29C78.5833 31.7641 81.0576 31.5629 82.5835 33.0889C84.1094 34.6151 84.1095 36.8881 82.5835 38.4138L54.6623 66.5356C54.6623 66.5356 54.6619 66.5364 54.6615 66.5367V66.5369ZM59 13C39.1178 13 23 29.1177 23 49C23 68.8822 39.1178 85 59 85C78.8821 85 95 68.8821 95 49C95.0001 29.1179 78.8821 13 59 13Z" fill="#E65157"/>
<g clip-path="url(#clip0_21_1084)">
<path d="M117.761 1.91672L116.225 1.7633C116.178 1.75754 116.133 1.73834 116.095 1.70771C116.057 1.67709 116.027 1.63617 116.009 1.58926L115.454 0.174062C115.434 0.12261 115.4 0.078569 115.357 0.0475645C115.313 0.01656 115.262 0 115.21 0C115.157 0 115.106 0.01656 115.063 0.0475645C115.019 0.078569 114.985 0.12261 114.966 0.174062L114.419 1.58926C114.402 1.63659 114.372 1.67791 114.334 1.70863C114.296 1.73935 114.251 1.75827 114.203 1.7633L112.665 1.91672C112.613 1.92248 112.565 1.94384 112.525 1.97822C112.485 2.01259 112.456 2.0585 112.44 2.11038C112.424 2.16226 112.423 2.21788 112.436 2.27049C112.45 2.3231 112.477 2.37044 112.516 2.40678L113.674 3.48535C113.71 3.51851 113.737 3.5617 113.752 3.61018C113.767 3.65867 113.769 3.71056 113.758 3.76014L113.399 5.26694C113.387 5.32058 113.391 5.3767 113.409 5.42837C113.427 5.48003 113.459 5.52497 113.5 5.55762C113.542 5.59028 113.592 5.60921 113.644 5.61208C113.696 5.61496 113.748 5.60165 113.792 5.5738L115.074 4.77689C115.114 4.75103 115.16 4.73737 115.208 4.73737C115.255 4.73737 115.301 4.75103 115.342 4.77689L116.64 5.58067C116.685 5.60582 116.736 5.61669 116.787 5.61198C116.838 5.60728 116.886 5.58719 116.926 5.55412C116.967 5.52106 116.997 5.4764 117.014 5.42548C117.031 5.37457 117.034 5.31953 117.022 5.26694L116.679 3.75328C116.668 3.70369 116.67 3.6518 116.685 3.60331C116.699 3.55483 116.727 3.51164 116.763 3.47848L117.921 2.39991C117.958 2.362 117.984 2.31374 117.996 2.2608C118.008 2.20786 118.005 2.15242 117.988 2.10098C117.972 2.04955 117.941 2.00425 117.901 1.9704C117.861 1.93655 117.812 1.91555 117.761 1.90985V1.91672Z" fill="#E65157"/>
<path d="M113.691 3.51067L113.754 3.24275C113.763 3.19452 113.76 3.14463 113.745 3.09803C113.73 3.05143 113.704 3.00974 113.669 2.97711L112.572 1.94434C112.533 1.96486 112.501 1.99487 112.476 2.03183C112.451 2.06879 112.435 2.11159 112.429 2.15658C112.423 2.20157 112.427 2.24742 112.441 2.29021C112.456 2.333 112.48 2.37147 112.511 2.40233L113.669 3.4809C113.677 3.49018 113.684 3.50014 113.691 3.51067ZM117.856 1.94663L116.763 2.97711C116.727 3.01078 116.7 3.05439 116.685 3.10322C116.67 3.15205 116.668 3.20426 116.679 3.2542L116.739 3.52441L116.763 3.49693L117.921 2.41836C117.954 2.38684 117.98 2.34714 117.995 2.30278C118.01 2.25842 118.014 2.21077 118.008 2.16408C118.002 2.1174 117.984 2.07311 117.958 2.03517C117.932 1.99723 117.897 1.96682 117.856 1.94663ZM116.962 5.00602C116.922 5.05525 116.866 5.08792 116.805 5.09838C116.745 5.10884 116.682 5.09641 116.629 5.06327L115.344 4.26407C115.303 4.23937 115.257 4.22638 115.21 4.22638C115.163 4.22638 115.117 4.23937 115.076 4.26407L113.795 5.06327C113.742 5.09598 113.68 5.10795 113.619 5.09706C113.559 5.08618 113.504 5.05315 113.464 5.00373L113.399 5.26707C113.387 5.32071 113.391 5.37684 113.409 5.4285C113.427 5.48016 113.459 5.5251 113.5 5.55775C113.542 5.59041 113.592 5.60934 113.644 5.61222C113.696 5.61509 113.748 5.60178 113.792 5.57393L115.074 4.77702C115.114 4.75117 115.16 4.7375 115.208 4.7375C115.255 4.7375 115.301 4.75117 115.342 4.77702L116.64 5.5808C116.685 5.60595 116.736 5.61682 116.787 5.61211C116.838 5.60741 116.886 5.58732 116.926 5.55426C116.967 5.52119 116.997 5.47654 117.014 5.42562C117.031 5.3747 117.034 5.31966 117.022 5.26707L116.962 5.00602Z" fill="#FF9397"/>
<path d="M112.818 8.50703C112.906 8.41957 112.968 8.30713 112.997 8.18319C113.026 8.05925 113.021 7.92906 112.982 7.80822C112.943 7.68738 112.872 7.58103 112.777 7.50189C112.683 7.42276 112.569 7.3742 112.449 7.36205L108.862 7.00481C108.75 6.99325 108.643 6.94965 108.552 6.87867C108.462 6.80769 108.391 6.71199 108.348 6.60178L107.069 3.30423C107.023 3.18382 106.945 3.08064 106.843 3.00798C106.742 2.93531 106.622 2.89648 106.5 2.89648C106.377 2.89648 106.257 2.93531 106.156 3.00798C106.055 3.08064 105.976 3.18382 105.93 3.30423L104.656 6.60178C104.614 6.71269 104.544 6.80913 104.453 6.8803C104.363 6.95148 104.256 6.99459 104.143 7.00481L100.559 7.36434C100.439 7.37653 100.325 7.42576 100.231 7.50595C100.137 7.58613 100.067 7.69376 100.03 7.81555C99.9929 7.93733 99.9903 8.06793 100.023 8.19122C100.055 8.31452 100.12 8.4251 100.211 8.50932L102.91 11.0283C102.995 11.1066 103.058 11.2078 103.092 11.3212C103.127 11.4345 103.132 11.5557 103.106 11.6718L102.294 15.1869C102.266 15.3117 102.274 15.4424 102.316 15.5628C102.357 15.6832 102.431 15.7881 102.528 15.8645C102.625 15.941 102.741 15.9856 102.862 15.993C102.983 16.0003 103.103 15.97 103.208 15.9059L106.017 14.1541C107.067 13.2724 107.041 12.1984 106.853 11.8481C106.637 11.4519 106.347 11.2825 106.075 11.4313C105.803 11.5802 105.785 11.7176 105.785 11.7176C105.844 11.68 105.909 11.6552 105.977 11.6447C106.045 11.6343 106.114 11.6383 106.18 11.6566C106.246 11.6749 106.308 11.7071 106.362 11.7512C106.417 11.7954 106.462 11.8507 106.496 11.9138C106.53 11.9768 106.551 12.0465 106.559 12.1185C106.567 12.1906 106.562 12.2636 106.542 12.3333C106.523 12.4029 106.491 12.4678 106.448 12.5241C106.405 12.5804 106.351 12.627 106.291 12.661C106.291 12.661 105.697 13.0526 105.297 12.3038C104.898 11.555 105.572 11.0008 105.716 10.9161C105.863 10.8383 106.024 10.7925 106.188 10.7814C106.352 10.7703 106.517 10.7942 106.672 10.8516C106.827 10.909 106.97 10.9988 107.092 11.1157C107.214 11.2326 107.313 11.3741 107.382 11.5321C107.793 12.2992 107.624 13.2976 106.963 14.1335L109.811 15.9059C109.915 15.9712 110.036 16.0024 110.157 15.9955C110.278 15.9887 110.395 15.9441 110.492 15.8674C110.59 15.7907 110.664 15.6852 110.705 15.5642C110.746 15.4431 110.753 15.3119 110.724 15.1869L109.923 11.6626C109.897 11.5467 109.902 11.4256 109.936 11.3122C109.97 11.1988 110.033 11.0975 110.117 11.0191L112.818 8.50703Z" fill="#E65157"/>
<path d="M103.029 11.1501L103.106 10.7631C103.132 10.6474 103.127 10.5265 103.092 10.4135C103.058 10.3005 102.995 10.1997 102.91 10.1219L100.22 7.6098C100.199 7.59777 100.182 7.57946 100.17 7.55713C100.113 7.62229 100.069 7.69892 100.041 7.78248C100.012 7.86603 100 7.95479 100.005 8.04347C100.009 8.13215 100.031 8.21893 100.068 8.29864C100.105 8.37836 100.157 8.44937 100.22 8.50746L102.918 11.0264C102.96 11.0626 102.997 11.1042 103.029 11.1501ZM112.848 7.57545L112.818 7.6098L110.117 10.1288C110.033 10.2068 109.97 10.3077 109.936 10.4207C109.902 10.5337 109.897 10.6544 109.923 10.7699L110.011 11.1547C110.041 11.1065 110.077 11.0626 110.117 11.0241L112.818 8.50517C112.937 8.38559 113.008 8.22093 113.013 8.04689C113.019 7.87286 112.96 7.70347 112.848 7.57545ZM106.794 13.1378C106.702 13.0854 106.599 13.0589 106.494 13.0609C106.389 13.0629 106.286 13.0933 106.196 13.1492L103.208 15.011C103.072 15.0958 102.91 15.1217 102.756 15.0833C102.603 15.0449 102.469 14.9452 102.383 14.8049L102.294 15.1873C102.266 15.3121 102.274 15.4428 102.315 15.5632C102.357 15.6837 102.431 15.7885 102.528 15.865C102.625 15.9414 102.741 15.9861 102.862 15.9934C102.983 16.0008 103.103 15.9705 103.208 15.9063L106.017 14.1545C106.35 13.888 106.617 13.5389 106.794 13.1378ZM110.724 15.1873L110.638 14.8072C110.552 14.9477 110.417 15.0474 110.263 15.0854C110.109 15.1234 109.947 15.0967 109.811 15.011L107.363 13.4858C107.255 13.7183 107.121 13.936 106.963 14.1339L109.811 15.9063C109.915 15.9716 110.036 16.0028 110.157 15.9959C110.278 15.9891 110.395 15.9445 110.492 15.8678C110.59 15.7911 110.664 15.6856 110.705 15.5646C110.746 15.4436 110.753 15.3123 110.724 15.1873Z" fill="#FF9397"/>
</g>
<g clip-path="url(#clip1_21_1084)">
<path d="M17.7613 17.9167L16.2252 17.7633C16.1777 17.7575 16.1326 17.7383 16.0946 17.7077C16.0566 17.6771 16.0271 17.6362 16.0091 17.5893L15.4539 16.1741C15.4341 16.1226 15.4003 16.0786 15.3569 16.0476C15.3134 16.0166 15.2621 16 15.2097 16C15.1573 16 15.1061 16.0166 15.0626 16.0476C15.0191 16.0786 14.9854 16.1226 14.9656 16.1741L14.419 17.5893C14.4016 17.6366 14.3723 17.6779 14.3342 17.7086C14.296 17.7394 14.2506 17.7583 14.2029 17.7633L12.6646 17.9167C12.6135 17.9225 12.565 17.9438 12.5251 17.9782C12.4852 18.0126 12.4555 18.0585 12.4398 18.1104C12.424 18.1623 12.4227 18.2179 12.4362 18.2705C12.4496 18.3231 12.4772 18.3704 12.5155 18.4068L13.6736 19.4853C13.7101 19.5185 13.7373 19.5617 13.7522 19.6102C13.7671 19.6587 13.769 19.7106 13.7579 19.7601L13.3992 21.2669C13.3874 21.3206 13.3907 21.3767 13.4087 21.4284C13.4267 21.48 13.4586 21.525 13.5005 21.5576C13.5423 21.5903 13.5923 21.6092 13.6442 21.6121C13.6961 21.615 13.7476 21.6016 13.7924 21.5738L15.0736 20.7769C15.114 20.751 15.1604 20.7374 15.2076 20.7374C15.2548 20.7374 15.3011 20.751 15.3415 20.7769L16.64 21.5807C16.6851 21.6058 16.7361 21.6167 16.7869 21.612C16.8377 21.6073 16.8861 21.5872 16.9264 21.5541C16.9667 21.5211 16.9972 21.4764 17.0142 21.4255C17.0312 21.3746 17.0341 21.3195 17.0224 21.2669L16.6789 19.7533C16.6677 19.7037 16.6697 19.6518 16.6846 19.6033C16.6994 19.5548 16.7266 19.5116 16.7632 19.4785L17.9212 18.3999C17.9581 18.362 17.9839 18.3137 17.9958 18.2608C18.0077 18.2079 18.0051 18.1524 17.9883 18.101C17.9715 18.0495 17.9413 18.0043 17.9011 17.9704C17.8609 17.9365 17.8124 17.9155 17.7613 17.9099V17.9167Z" fill="#E65157"/>
<path d="M13.6909 19.5107L13.7536 19.2427C13.7626 19.1945 13.7596 19.1446 13.7448 19.098C13.73 19.0514 13.704 19.0097 13.6693 18.9771L12.5717 17.9443C12.5335 17.9649 12.5005 17.9949 12.4756 18.0318C12.4507 18.0688 12.4345 18.1116 12.4286 18.1566C12.4226 18.2016 12.4271 18.2474 12.4415 18.2902C12.4558 18.333 12.4798 18.3715 12.5112 18.4023L13.6693 19.4809C13.6772 19.4902 13.6845 19.5001 13.6909 19.5107ZM17.8564 17.9466L16.7632 18.9771C16.7267 19.0108 16.6995 19.0544 16.6847 19.1032C16.6698 19.1521 16.6678 19.2043 16.6789 19.2542L16.7394 19.5244L16.7632 19.4969L17.9212 18.4184C17.9544 18.3868 17.9796 18.3471 17.9948 18.3028C18.0099 18.2584 18.0145 18.2108 18.0081 18.1641C18.0017 18.1174 17.9845 18.0731 17.958 18.0352C17.9315 17.9972 17.8966 17.9668 17.8564 17.9466ZM16.962 21.006C16.9215 21.0552 16.8661 21.0879 16.8054 21.0984C16.7446 21.1088 16.6823 21.0964 16.6292 21.0633L15.3437 20.2641C15.3029 20.2394 15.2567 20.2264 15.2098 20.2264C15.1628 20.2264 15.1166 20.2394 15.0758 20.2641L13.7946 21.0633C13.7417 21.096 13.6796 21.1079 13.6191 21.0971C13.5587 21.0862 13.5038 21.0531 13.464 21.0037L13.3992 21.2671C13.3874 21.3207 13.3908 21.3768 13.4088 21.4285C13.4268 21.4802 13.4586 21.5251 13.5005 21.5578C13.5423 21.5904 13.5923 21.6093 13.6442 21.6122C13.6961 21.6151 13.7476 21.6018 13.7924 21.5739L15.0736 20.777C15.1141 20.7512 15.1604 20.7375 15.2076 20.7375C15.2548 20.7375 15.3011 20.7512 15.3415 20.777L16.64 21.5808C16.6851 21.6059 16.7361 21.6168 16.7869 21.6121C16.8377 21.6074 16.8861 21.5873 16.9264 21.5543C16.9667 21.5212 16.9972 21.4765 17.0142 21.4256C17.0313 21.3747 17.0341 21.3197 17.0224 21.2671L16.962 21.006Z" fill="#FF9397"/>
<path d="M12.818 24.507C12.9058 24.4196 12.968 24.3071 12.997 24.1832C13.0261 24.0592 13.0208 23.9291 12.9818 23.8082C12.9428 23.6874 12.8718 23.581 12.7772 23.5019C12.6826 23.4228 12.5685 23.3742 12.4486 23.362L8.86209 23.0048C8.74999 22.9932 8.64295 22.9497 8.55239 22.8787C8.46184 22.8077 8.39115 22.712 8.34788 22.6018L7.06884 19.3042C7.02317 19.1838 6.94454 19.0806 6.84309 19.008C6.74163 18.9353 6.62199 18.8965 6.49954 18.8965C6.37709 18.8965 6.25745 18.9353 6.15599 19.008C6.05454 19.0806 5.97592 19.1838 5.93024 19.3042L4.65552 22.6018C4.61385 22.7127 4.54388 22.8091 4.45345 22.8803C4.36303 22.9515 4.2557 22.9946 4.14348 23.0048L0.559144 23.3643C0.438983 23.3765 0.324823 23.4258 0.230763 23.5059C0.136702 23.5861 0.0668602 23.6938 0.0298623 23.8155C-0.00713567 23.9373 -0.00966935 24.0679 0.0225741 24.1912C0.0548176 24.3145 0.120426 24.4251 0.211297 24.5093L2.90981 27.0283C2.99453 27.1066 3.05758 27.2078 3.09221 27.3212C3.12684 27.4345 3.13175 27.5557 3.10642 27.6718L2.29406 31.1869C2.26645 31.3117 2.2739 31.4424 2.3155 31.5628C2.3571 31.6832 2.43103 31.7881 2.52818 31.8645C2.62532 31.941 2.74145 31.9856 2.86224 31.993C2.98302 32.0003 3.1032 31.97 3.20796 31.9059L6.01666 30.1541C7.06668 29.2724 7.04076 28.1984 6.85279 27.8481C6.63674 27.4519 6.34722 27.2825 6.075 27.4313C5.80277 27.5802 5.78548 27.7176 5.78548 27.7176C5.84403 27.68 5.9091 27.6552 5.97683 27.6447C6.04456 27.6343 6.11359 27.6383 6.17983 27.6566C6.24607 27.6749 6.30817 27.7071 6.36247 27.7512C6.41677 27.7954 6.46217 27.8507 6.49597 27.9138C6.52978 27.9768 6.55131 28.0465 6.55929 28.1185C6.56726 28.1906 6.56153 28.2636 6.54243 28.3333C6.52332 28.4029 6.49123 28.4678 6.44806 28.5241C6.40488 28.5804 6.35149 28.627 6.29105 28.661C6.29105 28.661 5.6969 29.0526 5.2972 28.3038C4.8975 27.555 5.57159 27.0008 5.71635 26.9161C5.86349 26.8383 6.02384 26.7925 6.18794 26.7814C6.35204 26.7703 6.51658 26.7942 6.67183 26.8516C6.82709 26.909 6.96993 26.9988 7.09192 27.1157C7.21391 27.2326 7.31258 27.3741 7.38212 27.5321C7.79262 28.2992 7.6241 29.2976 6.96298 30.1335L9.81056 31.9059C9.91521 31.9712 10.0357 32.0024 10.1569 31.9955C10.2782 31.9887 10.3948 31.9441 10.4923 31.8674C10.5898 31.7907 10.6638 31.6852 10.7051 31.5642C10.7464 31.4431 10.7531 31.3119 10.7245 31.1869L9.92291 27.6626C9.89708 27.5467 9.90154 27.4256 9.9358 27.3122C9.97006 27.1988 10.0328 27.0975 10.1174 27.0191L12.818 24.507Z" fill="#E65157"/>
<path d="M3.02861 27.1501L3.10639 26.7631C3.13179 26.6474 3.1269 26.5265 3.09225 26.4135C3.05761 26.3005 2.99451 26.1997 2.90978 26.1219L0.219913 23.6098C0.198844 23.5978 0.181566 23.5795 0.170221 23.5571C0.113279 23.6223 0.0692941 23.6989 0.0408855 23.7825C0.0124769 23.866 0.000226129 23.9548 0.00486302 24.0435C0.00949991 24.1321 0.0309296 24.2189 0.0678754 24.2986C0.104821 24.3784 0.156527 24.4494 0.219913 24.5075L2.91842 27.0264C2.95984 27.0626 2.99686 27.1042 3.02861 27.1501ZM12.8483 23.5754L12.818 23.6098L10.1173 26.1288C10.033 26.2068 9.97031 26.3077 9.93605 26.4207C9.90179 26.5337 9.89724 26.6544 9.92289 26.7699L10.0115 27.1547C10.0413 27.1065 10.0769 27.0626 10.1173 27.0241L12.818 24.5052C12.9374 24.3856 13.0076 24.2209 13.0133 24.0469C13.0189 23.8729 12.9596 23.7035 12.8483 23.5754ZM6.79443 29.1378C6.70205 29.0854 6.59855 29.0589 6.49379 29.0609C6.38903 29.0629 6.28649 29.0933 6.19596 29.1492L3.20794 31.011C3.07178 31.0958 2.91001 31.1217 2.75628 31.0833C2.60256 31.0449 2.46872 30.9452 2.38261 30.8049L2.29403 31.1873C2.26642 31.3121 2.27387 31.4428 2.31548 31.5632C2.35708 31.6837 2.431 31.7885 2.52815 31.865C2.6253 31.9414 2.74142 31.9861 2.86221 31.9934C2.983 32.0008 3.10318 31.9705 3.20794 31.9063L6.01664 30.1545C6.35035 29.888 6.6174 29.5389 6.79443 29.1378ZM10.7244 31.1873L10.638 30.8072C10.5515 30.9477 10.4172 31.0474 10.2629 31.0854C10.1087 31.1234 9.94663 31.0967 9.81054 31.011L7.36265 29.4858C7.25485 29.7183 7.12062 29.936 6.96295 30.1339L9.81054 31.9063C9.91518 31.9716 10.0356 32.0028 10.1569 31.9959C10.2782 31.9891 10.3948 31.9445 10.4923 31.8678C10.5898 31.7911 10.6638 31.6856 10.7051 31.5646C10.7464 31.4436 10.7531 31.3123 10.7244 31.1873Z" fill="#FF9397"/>
</g>
<g clip-path="url(#clip2_21_1084)">
<path d="M117.841 67.198L116.817 67.1021C116.785 67.0985 116.755 67.0865 116.73 67.0673C116.704 67.0482 116.685 67.0226 116.673 66.9933L116.303 66.1088C116.289 66.0766 116.267 66.0491 116.238 66.0297C116.209 66.0104 116.175 66 116.14 66C116.105 66 116.071 66.0104 116.042 66.0297C116.013 66.0491 115.99 66.0766 115.977 66.1088L115.613 66.9933C115.601 67.0229 115.582 67.0487 115.556 67.0679C115.531 67.0871 115.5 67.0989 115.469 67.1021L114.443 67.198C114.409 67.2016 114.377 67.2149 114.35 67.2364C114.323 67.2579 114.304 67.2866 114.293 67.319C114.283 67.3514 114.282 67.3862 114.291 67.4191C114.3 67.4519 114.318 67.4815 114.344 67.5042L115.116 68.1783C115.14 68.1991 115.158 68.2261 115.168 68.2564C115.178 68.2867 115.179 68.3191 115.172 68.3501L114.933 69.2918C114.925 69.3254 114.927 69.3604 114.939 69.3927C114.951 69.425 114.972 69.4531 115 69.4735C115.028 69.4939 115.061 69.5058 115.096 69.5076C115.131 69.5093 115.165 69.501 115.195 69.4836L116.049 68.9856C116.076 68.9694 116.107 68.9609 116.138 68.9609C116.17 68.9609 116.201 68.9694 116.228 68.9856L117.093 69.4879C117.123 69.5036 117.157 69.5104 117.191 69.5075C117.225 69.5045 117.257 69.492 117.284 69.4713C117.311 69.4507 117.331 69.4228 117.343 69.3909C117.354 69.3591 117.356 69.3247 117.348 69.2918L117.119 68.3458C117.112 68.3148 117.113 68.2824 117.123 68.2521C117.133 68.2218 117.151 68.1948 117.175 68.174L117.947 67.4999C117.972 67.4762 117.989 67.4461 117.997 67.413C118.005 67.3799 118.003 67.3453 117.992 67.3131C117.981 67.281 117.961 67.2527 117.934 67.2315C117.907 67.2103 117.875 67.1972 117.841 67.1937V67.198Z" fill="#E65157"/>
<path d="M115.127 68.1943L115.169 68.0268C115.175 67.9967 115.173 67.9655 115.163 67.9364C115.153 67.9073 115.136 67.8812 115.113 67.8608L114.381 67.2153C114.356 67.2282 114.334 67.2469 114.317 67.27C114.3 67.2931 114.29 67.3199 114.286 67.348C114.282 67.3761 114.285 67.4048 114.294 67.4315C114.304 67.4582 114.32 67.4823 114.341 67.5016L115.113 68.1757C115.118 68.1815 115.123 68.1877 115.127 68.1943ZM117.904 67.2168L117.175 67.8608C117.151 67.8819 117.133 67.9091 117.123 67.9396C117.113 67.9702 117.112 68.0028 117.119 68.034L117.16 68.2029L117.175 68.1857L117.947 67.5116C117.97 67.4919 117.986 67.4671 117.996 67.4394C118.007 67.4116 118.01 67.3819 118.005 67.3527C118.001 67.3235 117.99 67.2958 117.972 67.2721C117.954 67.2484 117.931 67.2294 117.904 67.2168ZM117.308 69.1289C117.281 69.1597 117.244 69.1801 117.204 69.1866C117.163 69.1931 117.121 69.1854 117.086 69.1647L116.229 68.6652C116.202 68.6497 116.171 68.6416 116.14 68.6416C116.108 68.6416 116.078 68.6497 116.051 68.6652L115.196 69.1647C115.161 69.1851 115.12 69.1926 115.079 69.1858C115.039 69.179 115.003 69.1583 114.976 69.1275L114.933 69.292C114.925 69.3256 114.927 69.3606 114.939 69.3929C114.951 69.4252 114.972 69.4533 115 69.4737C115.028 69.4941 115.062 69.506 115.096 69.5078C115.131 69.5096 115.165 69.5012 115.195 69.4838L116.049 68.9858C116.076 68.9696 116.107 68.9611 116.138 68.9611C116.17 68.9611 116.201 68.9696 116.228 68.9858L117.093 69.4881C117.123 69.5038 117.157 69.5106 117.191 69.5077C117.225 69.5048 117.257 69.4922 117.284 69.4715C117.311 69.4509 117.331 69.423 117.343 69.3911C117.354 69.3593 117.356 69.3249 117.348 69.292L117.308 69.1289Z" fill="#E65157"/>
<path d="M114.545 71.3171C114.604 71.2625 114.645 71.1922 114.665 71.1147C114.684 71.0373 114.68 70.9559 114.654 70.8804C114.629 70.8049 114.581 70.7384 114.518 70.6889C114.455 70.6395 114.379 70.6091 114.299 70.6015L111.908 70.3783C111.833 70.371 111.762 70.3438 111.702 70.2994C111.641 70.2551 111.594 70.1952 111.565 70.1264L110.713 68.0654C110.682 67.9901 110.63 67.9256 110.562 67.8802C110.494 67.8348 110.415 67.8105 110.333 67.8105C110.251 67.8105 110.172 67.8348 110.104 67.8802C110.036 67.9256 109.984 67.9901 109.953 68.0654L109.104 70.1264C109.076 70.1957 109.029 70.2559 108.969 70.3004C108.909 70.3449 108.837 70.3719 108.762 70.3783L106.373 70.603C106.293 70.6106 106.217 70.6413 106.154 70.6915C106.091 70.7416 106.045 70.8088 106.02 70.885C105.995 70.9611 105.994 71.0427 106.015 71.1198C106.037 71.1968 106.08 71.2659 106.141 71.3186L107.94 72.8929C107.996 72.9419 108.038 73.0051 108.061 73.076C108.085 73.1468 108.088 73.2225 108.071 73.2951L107.529 75.492C107.511 75.5701 107.516 75.6517 107.544 75.727C107.571 75.8023 107.621 75.8678 107.685 75.9156C107.75 75.9634 107.828 75.9913 107.908 75.9958C107.989 76.0004 108.069 75.9815 108.139 75.9414L110.011 74.8465C110.711 74.2955 110.694 73.6243 110.569 73.4053C110.424 73.1577 110.231 73.0518 110.05 73.1448C109.868 73.2378 109.857 73.3237 109.857 73.3237C109.896 73.3002 109.939 73.2848 109.985 73.2782C110.03 73.2717 110.076 73.2742 110.12 73.2856C110.164 73.297 110.205 73.3172 110.242 73.3448C110.278 73.3724 110.308 73.4069 110.331 73.4463C110.353 73.4858 110.368 73.5293 110.373 73.5743C110.378 73.6194 110.374 73.665 110.362 73.7085C110.349 73.7521 110.327 73.7926 110.299 73.8278C110.27 73.863 110.234 73.8921 110.194 73.9134C110.194 73.9134 109.798 74.1581 109.531 73.6901C109.265 73.2221 109.714 72.8757 109.811 72.8228C109.909 72.7742 110.016 72.7455 110.125 72.7386C110.235 72.7317 110.344 72.7466 110.448 72.7825C110.551 72.8184 110.647 72.8745 110.728 72.9476C110.809 73.0206 110.875 73.1091 110.921 73.2078C111.195 73.6872 111.083 74.3113 110.642 74.8337L112.54 75.9414C112.61 75.9822 112.69 76.0017 112.771 75.9974C112.852 75.9932 112.93 75.9653 112.995 75.9174C113.06 75.8694 113.109 75.8035 113.137 75.7279C113.164 75.6522 113.169 75.5702 113.15 75.492L112.615 73.2894C112.598 73.217 112.601 73.1412 112.624 73.0704C112.647 72.9995 112.689 72.9362 112.745 72.8872L114.545 71.3171Z" fill="#E65157"/>
<path d="M108.019 72.9687L108.071 72.7269C108.088 72.6545 108.085 72.579 108.062 72.5084C108.038 72.4377 107.996 72.3747 107.94 72.3261L106.147 70.7561C106.133 70.7485 106.121 70.7371 106.114 70.7231C106.076 70.7639 106.046 70.8118 106.027 70.864C106.008 70.9162 106 70.9717 106.003 71.0271C106.006 71.0825 106.021 71.1368 106.045 71.1866C106.07 71.2364 106.104 71.2808 106.147 71.3171L107.946 72.8915C107.973 72.9141 107.998 72.9401 108.019 72.9687ZM114.566 70.7346L114.545 70.7561L112.745 72.3304C112.689 72.3792 112.647 72.4423 112.624 72.5129C112.601 72.5835 112.598 72.659 112.615 72.7312L112.674 72.9716C112.694 72.9415 112.718 72.9141 112.745 72.89L114.545 71.3157C114.625 71.2409 114.672 71.138 114.676 71.0292C114.679 70.9205 114.64 70.8146 114.566 70.7346ZM110.53 74.211C110.468 74.1783 110.399 74.1617 110.329 74.163C110.259 74.1643 110.191 74.1833 110.131 74.2182L108.139 75.3818C108.048 75.4348 107.94 75.451 107.838 75.427C107.735 75.403 107.646 75.3407 107.588 75.253L107.529 75.492C107.511 75.57 107.516 75.6517 107.544 75.727C107.571 75.8022 107.621 75.8678 107.685 75.9156C107.75 75.9633 107.828 75.9912 107.908 75.9958C107.989 76.0004 108.069 75.9815 108.139 75.9414L110.011 74.8465C110.234 74.6799 110.412 74.4618 110.53 74.211ZM113.15 75.492L113.092 75.2544C113.034 75.3423 112.945 75.4046 112.842 75.4283C112.739 75.452 112.631 75.4354 112.54 75.3818L110.908 74.4286C110.837 74.5739 110.747 74.7099 110.642 74.8336L112.54 75.9414C112.61 75.9822 112.69 76.0017 112.771 75.9974C112.852 75.9931 112.93 75.9653 112.995 75.9173C113.06 75.8694 113.109 75.8035 113.137 75.7278C113.164 75.6522 113.169 75.5702 113.15 75.492Z" fill="#FF9397"/>
</g>
<defs>
<linearGradient id="paint0_linear_21_1084" x1="100" y1="49" x2="18" y2="49" gradientUnits="userSpaceOnUse">
<stop stop-color="#E65157"/>
<stop offset="1" stop-color="#C20404" stop-opacity="0"/>
</linearGradient>
<clipPath id="clip0_21_1084">
<rect width="18" height="16" fill="white" transform="translate(100)"/>
</clipPath>
<clipPath id="clip1_21_1084">
<rect width="18" height="16" fill="white" transform="translate(0 16)"/>
</clipPath>
<clipPath id="clip2_21_1084">
<rect width="12" height="10" fill="white" transform="translate(106 66)"/>
</clipPath>
</defs>
</svg>
