<svg width="118" height="95" viewBox="0 0 118 95" fill="none" xmlns="http://www.w3.org/2000/svg">
<circle cx="59" cy="49" r="41" fill="url(#paint0_linear_1_2845)"/>
<circle cx="59" cy="49" r="33" fill="#F4F4F4"/>
<path d="M54.6615 66.5369C53.374 67.8243 51.4112 68.0255 49.913 67.1406C49.6353 66.9763 49.1352 66.3356 49.1352 66.3356L33.0591 50.2596C31.5332 48.7336 31.5332 46.4606 33.0591 44.9348C34.5848 43.4089 37.0591 43.61 38.585 45.1359L51.8982 58.449L77.0574 33.29C78.5833 31.7641 81.0576 31.5629 82.5835 33.0889C84.1094 34.6151 84.1095 36.8881 82.5835 38.4138L54.6623 66.5356C54.6623 66.5356 54.6619 66.5364 54.6615 66.5367V66.5369ZM59 13C39.1178 13 23 29.1177 23 49C23 68.8822 39.1178 85 59 85C78.8821 85 95 68.8821 95 49C95.0001 29.1179 78.8821 13 59 13Z" fill="#09C3AF"/>
<g clip-path="url(#clip0_1_2845)">
<path d="M117.761 1.91672L116.225 1.7633C116.178 1.75754 116.133 1.73834 116.095 1.70771C116.057 1.67709 116.027 1.63617 116.009 1.58926L115.454 0.174062C115.434 0.12261 115.4 0.078569 115.357 0.0475645C115.313 0.01656 115.262 0 115.21 0C115.157 0 115.106 0.01656 115.063 0.0475645C115.019 0.078569 114.985 0.12261 114.966 0.174062L114.419 1.58926C114.402 1.63659 114.372 1.67791 114.334 1.70863C114.296 1.73935 114.251 1.75827 114.203 1.7633L112.665 1.91672C112.614 1.92248 112.565 1.94384 112.525 1.97822C112.485 2.01259 112.456 2.0585 112.44 2.11038C112.424 2.16226 112.423 2.21788 112.436 2.27049C112.45 2.3231 112.477 2.37044 112.516 2.40678L113.674 3.48535C113.71 3.51851 113.737 3.5617 113.752 3.61018C113.767 3.65867 113.769 3.71056 113.758 3.76014L113.399 5.26694C113.387 5.32058 113.391 5.3767 113.409 5.42837C113.427 5.48003 113.459 5.52497 113.501 5.55762C113.542 5.59028 113.592 5.60921 113.644 5.61208C113.696 5.61496 113.748 5.60165 113.792 5.5738L115.074 4.77689C115.114 4.75103 115.16 4.73737 115.208 4.73737C115.255 4.73737 115.301 4.75103 115.342 4.77689L116.64 5.58067C116.685 5.60582 116.736 5.61669 116.787 5.61198C116.838 5.60728 116.886 5.58719 116.926 5.55412C116.967 5.52106 116.997 5.4764 117.014 5.42548C117.031 5.37457 117.034 5.31953 117.022 5.26694L116.679 3.75328C116.668 3.70369 116.67 3.6518 116.685 3.60331C116.699 3.55483 116.727 3.51164 116.763 3.47848L117.921 2.39991C117.958 2.362 117.984 2.31374 117.996 2.2608C118.008 2.20786 118.005 2.15242 117.988 2.10098C117.972 2.04955 117.941 2.00425 117.901 1.9704C117.861 1.93655 117.812 1.91555 117.761 1.90985V1.91672Z" fill="#09C3AF"/>
<path d="M113.691 3.51055L113.754 3.24262C113.763 3.1944 113.76 3.14451 113.745 3.09791C113.73 3.05131 113.704 3.00962 113.669 2.97699L112.572 1.94421C112.533 1.96473 112.501 1.99475 112.476 2.03171C112.451 2.06867 112.435 2.11147 112.429 2.15646C112.423 2.20145 112.427 2.24729 112.441 2.29009C112.456 2.33288 112.48 2.37135 112.511 2.40221L113.669 3.48078C113.677 3.49006 113.684 3.50002 113.691 3.51055ZM117.856 1.9465L116.763 2.97699C116.727 3.01066 116.7 3.05427 116.685 3.1031C116.67 3.15193 116.668 3.20413 116.679 3.25407L116.739 3.52429L116.763 3.49681L117.921 2.41824C117.954 2.38672 117.98 2.34702 117.995 2.30266C118.01 2.25829 118.014 2.21065 118.008 2.16396C118.002 2.11727 117.984 2.07299 117.958 2.03505C117.932 1.99711 117.897 1.96669 117.856 1.9465ZM116.962 5.00589C116.922 5.05512 116.866 5.0878 116.805 5.09826C116.745 5.10872 116.682 5.09629 116.629 5.06314L115.344 4.26395C115.303 4.23925 115.257 4.22625 115.21 4.22625C115.163 4.22625 115.117 4.23925 115.076 4.26395L113.795 5.06314C113.742 5.09586 113.68 5.10783 113.619 5.09694C113.559 5.08606 113.504 5.05302 113.464 5.0036L113.399 5.26695C113.387 5.32059 113.391 5.37671 113.409 5.42838C113.427 5.48004 113.459 5.52498 113.5 5.55763C113.542 5.59029 113.592 5.60922 113.644 5.61209C113.696 5.61497 113.748 5.60166 113.792 5.57381L115.074 4.7769C115.114 4.75104 115.16 4.73738 115.208 4.73738C115.255 4.73738 115.301 4.75104 115.342 4.7769L116.64 5.58068C116.685 5.60583 116.736 5.6167 116.787 5.61199C116.838 5.60729 116.886 5.5872 116.926 5.55413C116.967 5.52107 116.997 5.47641 117.014 5.42549C117.031 5.37458 117.034 5.31954 117.022 5.26695L116.962 5.00589Z" fill="#09C3AF"/>
<path d="M112.818 8.50721C112.906 8.41975 112.968 8.30731 112.997 8.18337C113.026 8.05943 113.021 7.92924 112.982 7.8084C112.943 7.68757 112.872 7.58121 112.777 7.50208C112.682 7.42294 112.568 7.37439 112.448 7.36223L108.862 7.00499C108.75 6.99343 108.643 6.94983 108.552 6.87886C108.462 6.80788 108.391 6.71218 108.348 6.60196L107.069 3.30441C107.023 3.184 106.944 3.08083 106.843 3.00816C106.742 2.9355 106.622 2.89667 106.499 2.89667C106.377 2.89667 106.257 2.9355 106.156 3.00816C106.054 3.08083 105.976 3.184 105.93 3.30441L104.655 6.60196C104.614 6.71287 104.544 6.80931 104.453 6.88049C104.363 6.95166 104.256 6.99477 104.143 7.00499L100.559 7.36452C100.439 7.37671 100.325 7.42594 100.231 7.50613C100.137 7.58632 100.067 7.69395 100.03 7.81573C99.9927 7.93751 99.9902 8.06812 100.022 8.19141C100.055 8.3147 100.12 8.42528 100.211 8.5095L102.91 11.0285C102.994 11.1068 103.057 11.208 103.092 11.3213C103.127 11.4347 103.132 11.5559 103.106 11.6719L102.294 15.187C102.266 15.3119 102.274 15.4426 102.315 15.563C102.357 15.6834 102.431 15.7883 102.528 15.8647C102.625 15.9412 102.741 15.9858 102.862 15.9931C102.983 16.0005 103.103 15.9702 103.208 15.9061L106.017 14.1543C107.067 13.2726 107.041 12.1986 106.853 11.8483C106.637 11.4521 106.347 11.2826 106.075 11.4315C105.803 11.5803 105.785 11.7177 105.785 11.7177C105.844 11.6802 105.909 11.6554 105.977 11.6449C106.044 11.6345 106.113 11.6385 106.18 11.6568C106.246 11.6751 106.308 11.7073 106.362 11.7514C106.417 11.7956 106.462 11.8509 106.496 11.9139C106.53 11.977 106.551 12.0467 106.559 12.1187C106.567 12.1908 106.561 12.2638 106.542 12.3334C106.523 12.4031 106.491 12.468 106.448 12.5243C106.405 12.5806 106.351 12.6272 106.291 12.6612C106.291 12.6612 105.697 13.0528 105.297 12.304C104.897 11.5552 105.571 11.001 105.716 10.9163C105.863 10.8384 106.024 10.7927 106.188 10.7816C106.352 10.7705 106.516 10.7944 106.672 10.8518C106.827 10.9092 106.97 10.999 107.092 11.1159C107.214 11.2327 107.312 11.3743 107.382 11.5323C107.793 12.2994 107.624 13.2978 106.963 14.1336L109.81 15.9061C109.915 15.9714 110.036 16.0025 110.157 15.9957C110.278 15.9888 110.395 15.9443 110.492 15.8676C110.59 15.7909 110.664 15.6854 110.705 15.5644C110.746 15.4433 110.753 15.3121 110.724 15.187L109.923 11.6628C109.897 11.5469 109.901 11.4258 109.936 11.3124C109.97 11.199 110.033 11.0977 110.117 11.0193L112.818 8.50721Z" fill="#09C3AF"/>
<path d="M103.029 11.1498L103.106 10.7628C103.132 10.6471 103.127 10.5262 103.092 10.4132C103.058 10.3003 102.995 10.1994 102.91 10.1216L100.22 7.60955C100.199 7.59753 100.182 7.57922 100.17 7.55688C100.113 7.62204 100.069 7.69868 100.041 7.78223C100.012 7.86579 100 7.95455 100.005 8.04323C100.009 8.1319 100.031 8.21868 100.068 8.2984C100.105 8.37811 100.157 8.44913 100.22 8.50722L102.918 11.0262C102.96 11.0624 102.997 11.1039 103.029 11.1498ZM112.848 7.5752L112.818 7.60955L110.117 10.1285C110.033 10.2066 109.97 10.3075 109.936 10.4205C109.902 10.5334 109.897 10.6542 109.923 10.7697L110.011 11.1544C110.041 11.1062 110.077 11.0624 110.117 11.0239L112.818 8.50493C112.937 8.38535 113.008 8.22069 113.013 8.04665C113.019 7.87261 112.96 7.70322 112.848 7.5752ZM106.794 13.1375C106.702 13.0851 106.599 13.0587 106.494 13.0607C106.389 13.0627 106.286 13.0931 106.196 13.149L103.208 15.0107C103.072 15.0955 102.91 15.1215 102.756 15.0831C102.603 15.0447 102.469 14.9449 102.383 14.8046L102.294 15.187C102.266 15.3119 102.274 15.4426 102.315 15.563C102.357 15.6834 102.431 15.7883 102.528 15.8647C102.625 15.9412 102.741 15.9858 102.862 15.9932C102.983 16.0005 103.103 15.9702 103.208 15.9061L106.017 14.1543C106.35 13.8878 106.617 13.5387 106.794 13.1375ZM110.724 15.187L110.638 14.8069C110.552 14.9475 110.417 15.0472 110.263 15.0851C110.109 15.1231 109.947 15.0965 109.811 15.0107L107.363 13.4856C107.255 13.7181 107.121 13.9357 106.963 14.1337L109.811 15.9061C109.915 15.9714 110.036 16.0025 110.157 15.9957C110.278 15.9888 110.395 15.9443 110.492 15.8676C110.59 15.7909 110.664 15.6854 110.705 15.5644C110.746 15.4433 110.753 15.3121 110.724 15.187Z" fill="#09C3AF"/>
</g>
<g clip-path="url(#clip1_1_2845)">
<path d="M17.7614 17.9167L16.2252 17.7633C16.1778 17.7575 16.1327 17.7383 16.0947 17.7077C16.0567 17.6771 16.0271 17.6362 16.0092 17.5893L15.4539 16.1741C15.4342 16.1226 15.4004 16.0786 15.3569 16.0476C15.3134 16.0166 15.2622 16 15.2098 16C15.1574 16 15.1062 16.0166 15.0627 16.0476C15.0192 16.0786 14.9854 16.1226 14.9657 16.1741L14.419 17.5893C14.4017 17.6366 14.3723 17.6779 14.3342 17.7086C14.2961 17.7394 14.2507 17.7583 14.203 17.7633L12.6647 17.9167C12.6135 17.9225 12.5651 17.9438 12.5252 17.9782C12.4853 18.0126 12.4556 18.0585 12.4398 18.1104C12.424 18.1623 12.4228 18.2179 12.4363 18.2705C12.4497 18.3231 12.4773 18.3704 12.5156 18.4068L13.6737 19.4853C13.7102 19.5185 13.7374 19.5617 13.7523 19.6102C13.7671 19.6587 13.7691 19.7106 13.7579 19.7601L13.3993 21.2669C13.3875 21.3206 13.3908 21.3767 13.4088 21.4284C13.4268 21.48 13.4587 21.525 13.5005 21.5576C13.5424 21.5903 13.5923 21.6092 13.6442 21.6121C13.6961 21.615 13.7477 21.6016 13.7925 21.5738L15.0737 20.7769C15.1141 20.751 15.1604 20.7374 15.2076 20.7374C15.2548 20.7374 15.3012 20.751 15.3416 20.7769L16.6401 21.5807C16.6852 21.6058 16.7362 21.6167 16.7869 21.612C16.8377 21.6073 16.8861 21.5872 16.9264 21.5541C16.9668 21.5211 16.9972 21.4764 17.0143 21.4255C17.0313 21.3746 17.0341 21.3195 17.0225 21.2669L16.679 19.7533C16.6678 19.7037 16.6698 19.6518 16.6846 19.6033C16.6995 19.5548 16.7267 19.5116 16.7632 19.4785L17.9213 18.3999C17.9581 18.362 17.984 18.3137 17.9959 18.2608C18.0078 18.2079 18.0052 18.1524 17.9884 18.101C17.9716 18.0495 17.9413 18.0043 17.9011 17.9704C17.8609 17.9365 17.8125 17.9155 17.7614 17.9099V17.9167Z" fill="#09C3AF"/>
<path d="M13.6909 19.5105L13.7536 19.2426C13.7626 19.1944 13.7596 19.1445 13.7448 19.0979C13.73 19.0513 13.704 19.0096 13.6693 18.977L12.5717 17.9442C12.5335 17.9647 12.5005 17.9948 12.4756 18.0317C12.4507 18.0687 12.4345 18.1115 12.4286 18.1565C12.4226 18.2014 12.4271 18.2473 12.4415 18.2901C12.4558 18.3329 12.4798 18.3713 12.5112 18.4022L13.6693 19.4808C13.6772 19.4901 13.6845 19.5 13.6909 19.5105ZM17.8564 17.9465L16.7632 18.977C16.7267 19.0107 16.6995 19.0543 16.6847 19.1031C16.6698 19.1519 16.6678 19.2041 16.6789 19.2541L16.7394 19.5243L16.7632 19.4968L17.9212 18.4182C17.9544 18.3867 17.9796 18.347 17.9948 18.3027C18.0099 18.2583 18.0145 18.2106 18.0081 18.164C18.0017 18.1173 17.9845 18.073 17.958 18.0351C17.9315 17.9971 17.8966 17.9667 17.8564 17.9465ZM16.962 21.0059C16.9215 21.0551 16.8661 21.0878 16.8054 21.0983C16.7446 21.1087 16.6823 21.0963 16.6292 21.0631L15.3437 20.2639C15.3029 20.2392 15.2567 20.2263 15.2098 20.2263C15.1628 20.2263 15.1166 20.2392 15.0758 20.2639L13.7946 21.0631C13.7417 21.0959 13.6796 21.1078 13.6191 21.0969C13.5587 21.0861 13.5038 21.053 13.464 21.0036L13.3992 21.267C13.3874 21.3206 13.3908 21.3767 13.4088 21.4284C13.4268 21.48 13.4586 21.525 13.5005 21.5576C13.5423 21.5903 13.5923 21.6092 13.6442 21.6121C13.6961 21.615 13.7476 21.6017 13.7924 21.5738L15.0736 20.7769C15.1141 20.751 15.1604 20.7374 15.2076 20.7374C15.2548 20.7374 15.3011 20.751 15.3415 20.7769L16.64 21.5807C16.6851 21.6058 16.7361 21.6167 16.7869 21.612C16.8377 21.6073 16.8861 21.5872 16.9264 21.5541C16.9667 21.5211 16.9972 21.4764 17.0142 21.4255C17.0313 21.3746 17.0341 21.3195 17.0224 21.267L16.962 21.0059Z" fill="#09C3AF"/>
<path d="M12.8179 24.5072C12.9057 24.4197 12.9679 24.3073 12.9969 24.1834C13.0259 24.0594 13.0206 23.9292 12.9817 23.8084C12.9427 23.6876 12.8716 23.5812 12.7771 23.5021C12.6825 23.4229 12.5684 23.3744 12.4485 23.3622L8.86197 23.005C8.74987 22.9934 8.64283 22.9498 8.55227 22.8789C8.46171 22.8079 8.39103 22.7122 8.34776 22.602L7.06872 19.3044C7.02304 19.184 6.94442 19.0808 6.84297 19.0082C6.74151 18.9355 6.62187 18.8967 6.49942 18.8967C6.37697 18.8967 6.25733 18.9355 6.15587 19.0082C6.05442 19.0808 5.97579 19.184 5.93012 19.3044L4.6554 22.602C4.61373 22.7129 4.54376 22.8093 4.45333 22.8805C4.3629 22.9517 4.25558 22.9948 4.14335 23.005L0.559022 23.3645C0.438861 23.3767 0.324701 23.4259 0.230641 23.5061C0.13658 23.5863 0.0667382 23.6939 0.0297402 23.8157C-0.00725774 23.9375 -0.00979142 24.0681 0.0224521 24.1914C0.0546955 24.3147 0.120304 24.4253 0.211175 24.5095L2.90969 27.0285C2.99441 27.1068 3.05746 27.208 3.09209 27.3213C3.12672 27.4347 3.13163 27.5559 3.1063 27.6719L2.29393 31.187C2.26632 31.3119 2.27378 31.4426 2.31538 31.563C2.35698 31.6834 2.43091 31.7883 2.52806 31.8647C2.6252 31.9412 2.74132 31.9858 2.86211 31.9931C2.9829 32.0005 3.10308 31.9702 3.20784 31.9061L6.01654 30.1543C7.06656 29.2726 7.04063 28.1986 6.85267 27.8483C6.63661 27.4521 6.3471 27.2826 6.07487 27.4315C5.80265 27.5803 5.78536 27.7177 5.78536 27.7177C5.84391 27.6802 5.90898 27.6554 5.97671 27.6449C6.04444 27.6345 6.11347 27.6385 6.17971 27.6568C6.24594 27.6751 6.30805 27.7073 6.36235 27.7514C6.41665 27.7956 6.46205 27.8509 6.49585 27.9139C6.52966 27.977 6.55118 28.0467 6.55916 28.1187C6.56714 28.1908 6.56141 28.2638 6.5423 28.3334C6.5232 28.4031 6.49111 28.468 6.44793 28.5243C6.40476 28.5806 6.35137 28.6272 6.29093 28.6612C6.29093 28.6612 5.69678 29.0528 5.29708 28.304C4.89738 27.5552 5.57147 27.001 5.71622 26.9163C5.86336 26.8384 6.02371 26.7927 6.18782 26.7816C6.35192 26.7705 6.51646 26.7944 6.67171 26.8518C6.82697 26.9092 6.96981 26.999 7.0918 27.1159C7.21379 27.2327 7.31246 27.3743 7.382 27.5323C7.7925 28.2994 7.62398 29.2978 6.96285 30.1336L9.81044 31.9061C9.91508 31.9714 10.0356 32.0025 10.1568 31.9957C10.2781 31.9888 10.3947 31.9443 10.4922 31.8676C10.5897 31.7909 10.6637 31.6854 10.705 31.5644C10.7463 31.4433 10.753 31.3121 10.7244 31.187L9.92279 27.6628C9.89696 27.5469 9.90142 27.4258 9.93568 27.3124C9.96994 27.199 10.0327 27.0977 10.1172 27.0193L12.8179 24.5072Z" fill="#09C3AF"/>
<path d="M3.02861 27.1498L3.10639 26.7628C3.13179 26.6471 3.1269 26.5262 3.09225 26.4132C3.05761 26.3003 2.99451 26.1994 2.90978 26.1216L0.219913 23.6096C0.198844 23.5975 0.181566 23.5792 0.170221 23.5569C0.113279 23.622 0.0692941 23.6987 0.0408855 23.7822C0.0124769 23.8658 0.000226129 23.9545 0.00486302 24.0432C0.00949991 24.1319 0.0309296 24.2187 0.0678754 24.2984C0.104821 24.3781 0.156527 24.4491 0.219913 24.5072L2.91842 27.0262C2.95984 27.0624 2.99686 27.1039 3.02861 27.1498ZM12.8483 23.5752L12.818 23.6096L10.1173 26.1285C10.033 26.2066 9.97031 26.3075 9.93605 26.4205C9.90179 26.5334 9.89724 26.6542 9.92289 26.7697L10.0115 27.1544C10.0413 27.1062 10.0769 27.0624 10.1173 27.0239L12.818 24.5049C12.9374 24.3853 13.0076 24.2207 13.0133 24.0466C13.0189 23.8726 12.9596 23.7032 12.8483 23.5752ZM6.79443 29.1375C6.70205 29.0851 6.59855 29.0587 6.49379 29.0607C6.38903 29.0627 6.28649 29.0931 6.19596 29.149L3.20794 31.0107C3.07178 31.0955 2.91001 31.1215 2.75628 31.0831C2.60256 31.0447 2.46872 30.9449 2.38261 30.8046L2.29403 31.187C2.26642 31.3119 2.27387 31.4426 2.31548 31.563C2.35708 31.6834 2.431 31.7883 2.52815 31.8647C2.6253 31.9412 2.74142 31.9858 2.86221 31.9932C2.983 32.0005 3.10318 31.9702 3.20794 31.9061L6.01664 30.1543C6.35035 29.8878 6.6174 29.5387 6.79443 29.1375ZM10.7244 31.187L10.638 30.8069C10.5515 30.9475 10.4172 31.0472 10.2629 31.0851C10.1087 31.1231 9.94663 31.0965 9.81054 31.0107L7.36265 29.4856C7.25485 29.7181 7.12062 29.9357 6.96295 30.1337L9.81054 31.9061C9.91518 31.9714 10.0356 32.0025 10.1569 31.9957C10.2782 31.9888 10.3948 31.9443 10.4923 31.8676C10.5898 31.7909 10.6638 31.6854 10.7051 31.5644C10.7464 31.4433 10.7531 31.3121 10.7244 31.187Z" fill="#09C3AF"/>
</g>
<g clip-path="url(#clip2_1_2845)">
<path d="M117.841 67.198L116.817 67.1021C116.785 67.0985 116.755 67.0865 116.73 67.0673C116.704 67.0482 116.685 67.0226 116.673 66.9933L116.303 66.1088C116.289 66.0766 116.267 66.0491 116.238 66.0297C116.209 66.0104 116.175 66 116.14 66C116.105 66 116.071 66.0104 116.042 66.0297C116.013 66.0491 115.99 66.0766 115.977 66.1088L115.613 66.9933C115.601 67.0229 115.582 67.0487 115.556 67.0679C115.531 67.0871 115.5 67.0989 115.469 67.1021L114.443 67.198C114.409 67.2016 114.377 67.2149 114.35 67.2364C114.324 67.2579 114.304 67.2866 114.293 67.319C114.283 67.3514 114.282 67.3862 114.291 67.4191C114.3 67.4519 114.318 67.4815 114.344 67.5042L115.116 68.1783C115.14 68.1991 115.158 68.2261 115.168 68.2564C115.178 68.2867 115.179 68.3191 115.172 68.3501L114.933 69.2918C114.925 69.3254 114.927 69.3604 114.939 69.3927C114.951 69.425 114.972 69.4531 115 69.4735C115.028 69.4939 115.062 69.5058 115.096 69.5076C115.131 69.5093 115.165 69.501 115.195 69.4836L116.049 68.9856C116.076 68.9694 116.107 68.9609 116.138 68.9609C116.17 68.9609 116.201 68.9694 116.228 68.9856L117.093 69.4879C117.123 69.5036 117.157 69.5104 117.191 69.5075C117.225 69.5045 117.257 69.492 117.284 69.4713C117.311 69.4507 117.331 69.4228 117.343 69.3909C117.354 69.3591 117.356 69.3247 117.348 69.2918L117.119 68.3458C117.112 68.3148 117.113 68.2824 117.123 68.2521C117.133 68.2218 117.151 68.1948 117.175 68.174L117.948 67.4999C117.972 67.4762 117.989 67.4461 117.997 67.413C118.005 67.3799 118.003 67.3453 117.992 67.3131C117.981 67.281 117.961 67.2527 117.934 67.2315C117.907 67.2103 117.875 67.1972 117.841 67.1937V67.198Z" fill="#09C3AF"/>
<path d="M115.127 68.1941L115.169 68.0267C115.175 67.9965 115.173 67.9653 115.163 67.9362C115.153 67.9071 115.136 67.881 115.113 67.8606L114.381 67.2151C114.356 67.228 114.334 67.2467 114.317 67.2698C114.3 67.2929 114.29 67.3197 114.286 67.3478C114.282 67.3759 114.285 67.4046 114.294 67.4313C114.304 67.4581 114.32 67.4821 114.341 67.5014L115.113 68.1755C115.118 68.1813 115.123 68.1875 115.127 68.1941ZM117.904 67.2166L117.175 67.8606C117.151 67.8817 117.133 67.9089 117.123 67.9395C117.113 67.97 117.112 68.0026 117.119 68.0338L117.16 68.2027L117.175 68.1855L117.947 67.5114C117.969 67.4917 117.986 67.4669 117.996 67.4392C118.007 67.4114 118.01 67.3817 118.005 67.3525C118.001 67.3233 117.99 67.2956 117.972 67.2719C117.954 67.2482 117.931 67.2292 117.904 67.2166ZM117.308 69.1287C117.281 69.1595 117.244 69.1799 117.203 69.1864C117.163 69.193 117.121 69.1852 117.086 69.1645L116.229 68.665C116.202 68.6495 116.171 68.6414 116.14 68.6414C116.108 68.6414 116.078 68.6495 116.05 68.665L115.196 69.1645C115.161 69.1849 115.12 69.1924 115.079 69.1856C115.039 69.1788 115.002 69.1582 114.976 69.1273L114.933 69.2919C114.925 69.3254 114.927 69.3605 114.939 69.3928C114.951 69.425 114.972 69.4531 115 69.4735C115.028 69.4939 115.061 69.5058 115.096 69.5076C115.131 69.5094 115.165 69.5011 115.195 69.4836L116.049 68.9856C116.076 68.9694 116.107 68.9609 116.138 68.9609C116.17 68.9609 116.201 68.9694 116.228 68.9856L117.093 69.4879C117.123 69.5037 117.157 69.5105 117.191 69.5075C117.225 69.5046 117.257 69.492 117.284 69.4713C117.311 69.4507 117.331 69.4228 117.343 69.3909C117.354 69.3591 117.356 69.3247 117.348 69.2919L117.308 69.1287Z" fill="#09C3AF"/>
<path d="M114.545 71.317C114.604 71.2624 114.645 71.1921 114.665 71.1146C114.684 71.0372 114.68 70.9558 114.654 70.8803C114.628 70.8047 114.581 70.7383 114.518 70.6888C114.455 70.6393 114.379 70.609 114.299 70.6014L111.908 70.3781C111.833 70.3709 111.762 70.3437 111.702 70.2993C111.641 70.2549 111.594 70.1951 111.565 70.1262L110.712 68.0653C110.682 67.99 110.63 67.9255 110.562 67.8801C110.494 67.8347 110.415 67.8104 110.333 67.8104C110.251 67.8104 110.172 67.8347 110.104 67.8801C110.036 67.9255 109.984 67.99 109.953 68.0653L109.104 70.1262C109.076 70.1956 109.029 70.2558 108.969 70.3003C108.909 70.3448 108.837 70.3717 108.762 70.3781L106.373 70.6028C106.293 70.6105 106.216 70.6412 106.154 70.6913C106.091 70.7415 106.044 70.8087 106.02 70.8848C105.995 70.961 105.993 71.0426 106.015 71.1196C106.036 71.1967 106.08 71.2658 106.141 71.3184L107.94 72.8928C107.996 72.9417 108.038 73.005 108.061 73.0758C108.084 73.1467 108.088 73.2224 108.071 73.295L107.529 75.4919C107.511 75.5699 107.516 75.6516 107.544 75.7269C107.571 75.8021 107.621 75.8677 107.685 75.9155C107.75 75.9632 107.828 75.9911 107.908 75.9957C107.989 76.0003 108.069 75.9814 108.139 75.9413L110.011 74.8464C110.711 74.2954 110.694 73.6242 110.568 73.4052C110.424 73.1576 110.231 73.0517 110.05 73.1447C109.868 73.2377 109.857 73.3236 109.857 73.3236C109.896 73.3001 109.939 73.2846 109.984 73.2781C110.03 73.2715 110.076 73.2741 110.12 73.2855C110.164 73.2969 110.205 73.317 110.242 73.3446C110.278 73.3723 110.308 73.4068 110.331 73.4462C110.353 73.4856 110.367 73.5292 110.373 73.5742C110.378 73.6192 110.374 73.6649 110.362 73.7084C110.349 73.752 110.327 73.7925 110.299 73.8277C110.27 73.8629 110.234 73.892 110.194 73.9133C110.194 73.9133 109.798 74.158 109.531 73.69C109.265 73.222 109.714 72.8756 109.811 72.8227C109.909 72.774 110.016 72.7454 110.125 72.7385C110.235 72.7316 110.344 72.7465 110.448 72.7824C110.551 72.8183 110.647 72.8744 110.728 72.9474C110.809 73.0205 110.875 73.109 110.921 73.2077C111.195 73.6871 111.083 74.3111 110.642 74.8335L112.54 75.9413C112.61 75.9821 112.69 76.0016 112.771 75.9973C112.852 75.993 112.93 75.9652 112.995 75.9172C113.06 75.8693 113.109 75.8034 113.137 75.7277C113.164 75.6521 113.169 75.5701 113.15 75.4919L112.615 73.2892C112.598 73.2168 112.601 73.1411 112.624 73.0703C112.647 72.9994 112.688 72.9361 112.745 72.8871L114.545 71.317Z" fill="#09C3AF"/>
<path d="M108.019 72.9687L108.071 72.7268C108.088 72.6545 108.085 72.5789 108.062 72.5083C108.038 72.4377 107.996 72.3747 107.94 72.3261L106.147 70.756C106.133 70.7485 106.121 70.737 106.114 70.7231C106.076 70.7638 106.046 70.8117 106.027 70.8639C106.008 70.9161 106 70.9716 106.003 71.027C106.006 71.0825 106.021 71.1367 106.045 71.1865C106.07 71.2364 106.104 71.2807 106.147 71.317L107.946 72.8914C107.973 72.914 107.998 72.94 108.019 72.9687ZM114.566 70.7345L114.545 70.756L112.745 72.3304C112.689 72.3791 112.647 72.4422 112.624 72.5128C112.601 72.5834 112.598 72.6589 112.615 72.7311L112.674 72.9715C112.694 72.9414 112.718 72.914 112.745 72.89L114.545 71.3156C114.625 71.2409 114.672 71.138 114.676 71.0292C114.679 70.9204 114.64 70.8145 114.566 70.7345ZM110.53 74.211C110.468 74.1782 110.399 74.1617 110.329 74.1629C110.259 74.1642 110.191 74.1832 110.131 74.2181L108.139 75.3817C108.048 75.4347 107.94 75.4509 107.838 75.427C107.735 75.403 107.646 75.3406 107.588 75.2529L107.529 75.4919C107.511 75.57 107.516 75.6516 107.544 75.7269C107.571 75.8022 107.621 75.8677 107.686 75.9155C107.75 75.9633 107.828 75.9912 107.908 75.9958C107.989 76.0003 108.069 75.9814 108.139 75.9413L110.011 74.8464C110.234 74.6799 110.412 74.4617 110.53 74.211ZM113.15 75.4919L113.092 75.2543C113.034 75.3422 112.945 75.4045 112.842 75.4282C112.739 75.452 112.631 75.4353 112.54 75.3817L110.909 74.4285C110.837 74.5738 110.747 74.7099 110.642 74.8336L112.54 75.9413C112.61 75.9821 112.691 76.0016 112.771 75.9973C112.852 75.9931 112.93 75.9652 112.995 75.9173C113.06 75.8693 113.109 75.8034 113.137 75.7278C113.164 75.6521 113.169 75.5701 113.15 75.4919Z" fill="#09C3AF"/>
</g>
<defs>
<linearGradient id="paint0_linear_1_2845" x1="100" y1="49" x2="18" y2="49" gradientUnits="userSpaceOnUse">
<stop stop-color="#04C2AD"/>
<stop offset="1" stop-color="#04C2AD" stop-opacity="0"/>
</linearGradient>
<clipPath id="clip0_1_2845">
<rect width="18" height="16" fill="white" transform="translate(100)"/>
</clipPath>
<clipPath id="clip1_1_2845">
<rect width="18" height="16" fill="white" transform="translate(0 16)"/>
</clipPath>
<clipPath id="clip2_1_2845">
<rect width="12" height="10" fill="white" transform="translate(106 66)"/>
</clipPath>
</defs>
</svg>
