<svg width="18" height="18" viewBox="0 0 18 18" fill="none" xmlns="http://www.w3.org/2000/svg">
<g id="Frame">
<path id="Vector" d="M14.2928 1.72607H3.70728C2.8477 1.72607 2.15161 2.42217 2.15161 3.28174V14.7761C2.15161 15.6356 2.8477 16.3317 3.70728 16.3317H9.70317C13.0958 16.3317 15.8467 13.5808 15.8467 10.1882V3.28174C15.8485 2.42217 15.1506 1.72607 14.2928 1.72607ZM10.1198 13.2187H4.93247C4.48071 13.2187 4.11509 12.853 4.11509 12.4013C4.11509 11.9495 4.48071 11.5839 4.93247 11.5839H10.1198C10.5715 11.5839 10.9372 11.9495 10.9372 12.4013C10.9372 12.853 10.5715 13.2187 10.1198 13.2187ZM4.11509 8.85928C4.11509 8.40752 4.48071 8.04189 4.93247 8.04189H8.58169C9.03345 8.04189 9.39907 8.40752 9.39907 8.85928C9.39907 9.31104 9.03345 9.67666 8.58169 9.67666H4.93247C4.48071 9.67666 4.11509 9.30928 4.11509 8.85928ZM11.4083 6.13291H4.93247C4.48071 6.13291 4.11509 5.76729 4.11509 5.31553C4.11509 4.86377 4.48071 4.49814 4.93247 4.49814H11.4083C11.86 4.49814 12.2256 4.86377 12.2256 5.31553C12.2239 5.76729 11.8583 6.13291 11.4083 6.13291Z" fill="#F6C944"/>
</g>
</svg>
