<svg width="14" height="14" viewBox="0 0 14 14" fill="none" xmlns="http://www.w3.org/2000/svg">
<g id="Frame" clip-path="url(#clip0_2371_1657)">
<path id="Vector" d="M1.4318 8.30432V9.8316C1.4318 10.1816 1.68634 10.4998 2.03634 10.5952L2.35453 10.6589C2.38634 10.6589 2.44998 10.6907 2.4818 10.6907C2.76816 10.6907 3.02271 10.4361 3.02271 10.1498V7.98614C3.02271 7.95432 3.02271 7.89069 2.99089 7.85887C2.92725 7.5725 2.60907 7.3816 2.32271 7.44523L2.00453 7.50887C1.68634 7.63614 1.4318 7.95432 1.4318 8.30432ZM11.6454 10.6907C11.6454 10.6589 11.6454 10.6589 11.6454 10.6907L11.9636 10.627C12.3136 10.5316 12.5682 10.2134 12.5682 9.86341V8.33614C12.5682 7.98614 12.3136 7.66796 11.9636 7.5725L11.6454 7.50887C11.6136 7.50887 11.55 7.47705 11.5182 7.47705C11.2318 7.47705 10.9773 7.7316 10.9773 8.01796V10.1816C10.9773 10.2134 10.9773 10.2771 11.0091 10.3089C11.0727 10.5634 11.3591 10.7543 11.6454 10.6907ZM12.8863 6.96796C13.2682 7.28614 13.5227 7.79523 13.5227 8.30432V9.8316C13.5227 10.627 12.9818 11.327 12.2182 11.518C12.0273 12.6634 11.0409 13.5225 9.86362 13.5225H6.99998C6.74544 13.5225 6.52271 13.2998 6.52271 13.0452C6.52271 12.7907 6.74544 12.568 6.99998 12.568H9.86362C10.5 12.568 11.0091 12.1543 11.2 11.6134C10.6591 11.4861 10.1818 11.0725 10.0545 10.4998C10.0227 10.3725 10.0227 10.2452 10.0227 10.1498V7.98614C10.0227 7.15887 10.6909 6.49069 11.5182 6.49069C11.6454 6.49069 11.7727 6.49069 11.8682 6.5225H11.9C11.8045 3.08614 10.1818 1.4316 6.99998 1.4316C3.81816 1.4316 2.19543 3.08614 2.06816 6.55432H2.09998C2.89543 6.36341 3.72271 6.84069 3.91362 7.63614C3.94544 7.76341 3.94544 7.89069 3.94544 7.98614V10.1498C3.94544 10.977 3.27725 11.6452 2.44998 11.6452C2.32271 11.6452 2.19543 11.6452 2.09998 11.6134L1.7818 11.5498C1.01816 11.3589 0.445435 10.6589 0.445435 9.86341V8.33614C0.445435 7.79523 0.69998 7.31796 1.0818 6.99978C1.11362 2.70432 3.11816 0.477051 6.99998 0.477051C10.8818 0.477051 12.8863 2.70432 12.8863 6.96796Z" fill="#F6C944"/>
</g>
<defs>
<clipPath id="clip0_2371_1657">
<rect width="14" height="14" fill="white"/>
</clipPath>
</defs>
</svg>
