<svg width="15" height="15" viewBox="0 0 15 15" fill="none" xmlns="http://www.w3.org/2000/svg">
<g id="Frame">
<path id="Vector" d="M1.04602 12.7557L7.00939 1.7913C7.27893 1.29178 7.72131 1.27128 7.99084 1.77079L13.9542 12.7674C14.2238 13.2654 13.9747 13.5935 13.402 13.5935H1.59826C1.02551 13.5935 0.776484 13.2552 1.04602 12.7557ZM7.50012 12.3982C7.87951 12.3982 8.18713 12.0935 8.18713 11.72C8.18713 11.3465 7.88098 11.0418 7.50012 11.0418C7.12072 11.0418 6.81311 11.3465 6.81311 11.72C6.81311 12.0935 7.12072 12.3982 7.50012 12.3982ZM6.92297 9.48319C7.00061 9.94755 7.25988 10.3284 7.50012 10.3284C7.73889 10.3284 7.99816 9.94755 8.07727 9.48319L8.66027 5.95145C8.73791 5.48856 8.41125 5.02567 7.93518 5.02567H7.06652C6.58898 5.02567 6.26232 5.4871 6.34143 5.95145L6.92297 9.48319Z" fill="#F5A623"/>
</g>
</svg>
